<svg xmlns="http://www.w3.org/2000/svg" viewBox="0 0 24 24"><title>medal</title><g id="medal"><path d="M12,8a8,8,0,1,0,8,8A8,8,0,0,0,12,8Zm3.55,7.62L13.91,16.9l.68,2.15a.52.52,0,0,1-.2.6.5.5,0,0,1-.31.1.54.54,0,0,1-.32-.11L12,18.28l-1.77,1.36a.52.52,0,0,1-.63,0,.54.54,0,0,1-.21-.6l.69-2.15L8.45,15.62a.54.54,0,0,1,.34-1h2l.68-2a.53.53,0,0,1,.5-.37h0a.53.53,0,0,1,.51.37l.69,2h2a.54.54,0,0,1,.51.36A.56.56,0,0,1,15.55,15.62Zm7.1-13.94A3,3,0,0,0,20,0H4A3,3,0,0,0,1.35,1.68a3,3,0,0,0,.32,3.16L4.89,9A9.84,9.84,0,0,1,8.23,6.75L6.09,4H17.91L15.78,6.75A9.9,9.9,0,0,1,19.11,9l3.21-4.14A3,3,0,0,0,22.65,1.68Z"/></g></svg>