<svg xmlns="http://www.w3.org/2000/svg" viewBox="0 0 24 24"><title>baby</title><g id="baby"><path d="M12,11A5.5,5.5,0,1,0,6.5,5.5,5.5,5.5,0,0,0,12,11ZM2.73,17a2.69,2.69,0,0,0-2,.77c-1.21,1.21-1,3.41.54,4.92a4.31,4.31,0,0,0,3,1.31,2.69,2.69,0,0,0,2-.77c1.21-1.21,1-3.4-.54-4.92A4.31,4.31,0,0,0,2.73,17ZM1.67,13.36,6.32,15H17.68l4.65-1.64a2.5,2.5,0,1,0-1.66-4.72l-2.31.82a7.48,7.48,0,0,1-12.72,0L3.33,8.64a2.5,2.5,0,0,0-1.66,4.72ZM16.82,17H7.19A6.42,6.42,0,0,1,9,20.67,5,5,0,0,1,8.17,24h7.66a5,5,0,0,1-.8-3.33A6.37,6.37,0,0,1,16.82,17Zm4.45,0a4.27,4.27,0,0,0-2.95,1.31c-1.52,1.52-1.76,3.71-.55,4.92a2.69,2.69,0,0,0,2,.77,4.31,4.31,0,0,0,3-1.31c1.51-1.51,1.75-3.71.54-4.92A2.69,2.69,0,0,0,21.27,17Z"/></g></svg>