<svg xmlns="http://www.w3.org/2000/svg" viewBox="0 0 24 24"><title>baseball-sport</title><g id="baseball-sport"><path d="M10,8A4,4,0,1,0,6,4,4,4,0,0,0,10,8ZM1.71,20.29s-.05,0-.08-.05A1,1,0,0,0,.29,21.7l2,2a1,1,0,0,0,1.42,0,1,1,0,0,0,0-1.41ZM23.35,2.23,21.77.65a2.23,2.23,0,0,0-3.15,0L16,3.31c0,.23,0,.46,0,.69a6,6,0,0,1-6,6c-.23,0-.46,0-.69,0l-.94.94a9,9,0,0,0-2,3l-.27.68a9.11,9.11,0,0,1-3.21,4l.24.22,2,2a2.88,2.88,0,0,1,.22.27,9.06,9.06,0,0,1,4-3.23l.68-.27a9,9,0,0,0,3-2L23.35,5.38A2.23,2.23,0,0,0,23.35,2.23Z"/></g></svg>