<svg xmlns="http://www.w3.org/2000/svg" viewBox="0 0 24 24"><title>brain</title><g id="brain"><path d="M8.07,0A3,3,0,0,0,5.23,2.26h-.1a3,3,0,0,0-2.93,3,2.89,2.89,0,0,0,.2,1.06A3,3,0,0,0,.73,9a3,3,0,0,0,.71,1.93A3,3,0,0,0,0,13.5a3,3,0,0,0,.66,1.88,3,3,0,0,0,1.62,4.79A3,3,0,0,0,5.13,22.5a2.45,2.45,0,0,0,.39,0A2.92,2.92,0,0,0,8.07,24,3,3,0,0,0,11,21V3A3,3,0,0,0,8.07,0ZM24,13.5a3,3,0,0,0-1.44-2.57A3,3,0,0,0,23.27,9,3,3,0,0,0,21.6,6.31a2.89,2.89,0,0,0,.2-1.06,3,3,0,0,0-2.93-3h-.1A2.92,2.92,0,0,0,13,3V21a3,3,0,0,0,2.93,3,2.92,2.92,0,0,0,2.55-1.54,2.45,2.45,0,0,0,.39,0,3,3,0,0,0,2.85-2.33,3,3,0,0,0,1.62-4.79A3,3,0,0,0,24,13.5Z"/></g></svg>