<svg xmlns="http://www.w3.org/2000/svg" viewBox="0 0 24 24"><title>calendar-alt</title><g id="calendar-alt"><path d="M22,0H2A2,2,0,0,0,0,2V3H24V2A2,2,0,0,0,22,0ZM0,22a2,2,0,0,0,2,2H22a2,2,0,0,0,2-2V5H0ZM19.5,8A1.5,1.5,0,1,1,18,9.5,1.5,1.5,0,0,1,19.5,8Zm0,5A1.5,1.5,0,1,1,18,14.5,1.5,1.5,0,0,1,19.5,13Zm-5-5A1.5,1.5,0,1,1,13,9.5,1.5,1.5,0,0,1,14.5,8Zm0,5A1.5,1.5,0,1,1,13,14.5,1.5,1.5,0,0,1,14.5,13Zm0,5A1.5,1.5,0,1,1,13,19.5,1.5,1.5,0,0,1,14.5,18ZM9.5,8A1.5,1.5,0,1,1,8,9.5,1.5,1.5,0,0,1,9.5,8Zm0,5A1.5,1.5,0,1,1,8,14.5,1.5,1.5,0,0,1,9.5,13Zm0,5A1.5,1.5,0,1,1,8,19.5,1.5,1.5,0,0,1,9.5,18ZM4.5,8A1.5,1.5,0,1,1,3,9.5,1.5,1.5,0,0,1,4.5,8Zm0,5A1.5,1.5,0,1,1,3,14.5,1.5,1.5,0,0,1,4.5,13Zm0,5A1.5,1.5,0,1,1,3,19.5,1.5,1.5,0,0,1,4.5,18Z"/></g></svg>