<svg xmlns="http://www.w3.org/2000/svg" viewBox="0 0 24 24"><title>camera-movie-stand</title><g id="camera-movie-stand"><path d="M15,11H3a2,2,0,0,0-2,2v4a2,2,0,0,0,2,2H5.22l-2.08,3.5a1,1,0,0,0,.35,1.37A1,1,0,0,0,4,24a1,1,0,0,0,.86-.49L7.55,19h2.88l2.63,4.44a1,1,0,0,0,.86.48.94.94,0,0,0,.51-.14,1,1,0,0,0,.35-1.37l-2-3.41H15a2,2,0,0,0,2-2V13A2,2,0,0,0,15,11ZM12.5,0A4.47,4.47,0,0,0,9,1.7,4.49,4.49,0,1,0,5.5,9h7a4.5,4.5,0,0,0,0-9Zm-7,6A1.5,1.5,0,1,1,7,4.5,1.5,1.5,0,0,1,5.5,6Zm7,0A1.5,1.5,0,1,1,14,4.5,1.5,1.5,0,0,1,12.5,6ZM19,13v4l4,2V11Z"/></g></svg>