<?xml version="1.0" encoding="utf-8"?>
<svg version="1.1" id="Layer_1" xmlns="http://www.w3.org/2000/svg" xmlns:xlink="http://www.w3.org/1999/xlink" x="0px" y="0px" viewBox="0 0 28 28"
	 enable-background="new 0 0 28 28" xml:space="preserve">
		<g>
			<defs>
				<rect id="SVGID_1_" width="28" height="28"/>
			</defs>
			<clipPath id="SVGID_2_">
				<use xlink:href="#SVGID_1_"  overflow="visible"/>
			</clipPath>
			<path clip-path="url(#SVGID_2_)" fill="#231F20" d="M26,0H12c-1.104,0-2,0.895-2,2v1h6c1.654,0,3,1.346,3,3v18h7
				c1.105,0,2-0.896,2-2V2C28,0.895,27.105,0,26,0"/>
			<path clip-path="url(#SVGID_2_)" fill="#231F20" d="M16,4H2C0.895,4,0,4.895,0,6v20c0,1.105,0.895,2,2,2h14c1.105,0,2-0.895,2-2
				V6C18,4.895,17.105,4,16,4 M11.5,20c-0.545,0-1.045-0.179-1.455-0.475C10.154,20.237,10.409,21.113,11,22H7
				c0.591-0.886,0.846-1.762,0.955-2.475C7.545,19.821,7.045,20,6.5,20c-1.381,0-2.499-1.119-2.5-2.5C4,15,9,10,9,10s5,5,5,7.5
				C14,18.881,12.881,20,11.5,20"/>
		</g>
</svg>
