<svg xmlns="http://www.w3.org/2000/svg" viewBox="0 0 24 24"><title>carrot</title><g id="carrot"><path d="M22.88,5l-2.07.12,3-3.43A1,1,0,0,0,22.34.24l-3.43,3L19,1.12a1,1,0,0,0-2-.33L15.74,5.44a6.17,6.17,0,0,0-3.27-1.77A4.42,4.42,0,0,0,8.26,5.15l2.11,2.12a1,1,0,0,1,0,1.41,1,1,0,0,1-.7.29A1,1,0,0,1,9,8.68L7,6.76c-.52.78-1,1.68-1.59,2.66l2.1,2.09a1,1,0,0,1,0,1.41,1,1,0,0,1-.71.3,1,1,0,0,1-.71-.3L4.48,11.28c-.47.93-.92,1.91-1.36,2.88l1.6,1.59a1,1,0,0,1,0,1.42,1,1,0,0,1-1.42,0l-1-1C.67,20-.36,23.4.12,23.88c1,1,14.73-4.58,18.72-8.12a4.43,4.43,0,0,0,1.49-4.23,6.16,6.16,0,0,0-1.79-3.29L23.21,7a1,1,0,0,0-.33-2Z"/></g></svg>