<svg xmlns="http://www.w3.org/2000/svg" viewBox="0 0 24 24"><title>donut</title><g id="donut"><path d="M11,6h1.5a1,1,0,0,0,0-2H11a1,1,0,0,0,0,2ZM8.18,16.55l-1.5.5a1,1,0,0,0-.63,1.27A1,1,0,0,0,7,19,1.25,1.25,0,0,0,7.32,19l1.5-.5a1,1,0,1,0-.64-1.9Zm7.14,1-1.5-.5a1,1,0,1,0-.64,1.9l1.5.5a1.25,1.25,0,0,0,.32.05,1,1,0,0,0,.95-.68A1,1,0,0,0,15.32,17.55ZM6.21,10.79l-1-1a1,1,0,0,0-1.42,1.42l1,1a1,1,0,0,0,1.42,0A1,1,0,0,0,6.21,10.79ZM12,8a4,4,0,1,0,4,4A4,4,0,0,0,12,8Zm0,6a2,2,0,1,1,2-2A2,2,0,0,1,12,14Zm6.21-7.67a1,1,0,0,0-1.42,0l-1,1a1,1,0,0,0,0,1.42,1,1,0,0,0,1.42,0l1-1A1,1,0,0,0,18.21,6.29ZM12,0A12,12,0,1,0,24,12,12,12,0,0,0,12,0Zm9.92,15.09c-.33,1-1.58,1.49-2.19,2.3s-.76,2.11-1.6,2.7S16,20.4,15,20.72,13.08,22,12,22s-2-1-2.95-1.28-2.34,0-3.18-.63-1-1.89-1.6-2.7-1.86-1.33-2.19-2.3S2.44,13,2.44,12s-.67-2.16-.36-3.09,1.58-1.49,2.19-2.3S5,4.5,5.88,3.91,8,3.6,9.05,3.28,10.92,2,12,2,14,3,15,3.28s2.34.05,3.18.63,1,1.89,1.6,2.7,1.86,1.33,2.19,2.3S21.56,11,21.56,12,22.23,14.16,21.92,15.09Zm-2.53-2a1,1,0,0,0-1.78.9l.5,1a1,1,0,0,0,.89.55.93.93,0,0,0,.45-.11,1,1,0,0,0,.44-1.34Z"/></g></svg>