<svg xmlns="http://www.w3.org/2000/svg" viewBox="0 0 24 24"><title>donuts</title><g id="donuts"><path d="M5.5,13A5.5,5.5,0,1,0,11,18.5,5.5,5.5,0,0,0,5.5,13Zm0,7A1.5,1.5,0,1,1,7,18.5,1.5,1.5,0,0,1,5.5,20Zm13-16a7.46,7.46,0,0,1,5.43,2.34A5.71,5.71,0,0,0,24,5.5a5.5,5.5,0,0,0-11,0,5.71,5.71,0,0,0,.07.84A7.46,7.46,0,0,1,18.5,4ZM5.5,0A5.5,5.5,0,0,0,0,5.5a5.71,5.71,0,0,0,.07.84,7.47,7.47,0,0,1,10.86,0A5.71,5.71,0,0,0,11,5.5,5.5,5.5,0,0,0,5.5,0Zm13,6A5.5,5.5,0,0,0,13,11.5a5.58,5.58,0,0,0,.25,1.65,7.59,7.59,0,0,1,3.8-2,1.49,1.49,0,0,1,2.9,0,7.59,7.59,0,0,1,3.8,2A5.58,5.58,0,0,0,24,11.5,5.5,5.5,0,0,0,18.5,6Zm0,7A5.5,5.5,0,1,0,24,18.5,5.5,5.5,0,0,0,18.5,13Zm0,7A1.5,1.5,0,1,1,20,18.5,1.5,1.5,0,0,1,18.5,20ZM5.5,6A5.5,5.5,0,0,0,0,11.5a5.58,5.58,0,0,0,.25,1.65,7.59,7.59,0,0,1,3.8-2,1.49,1.49,0,0,1,2.9,0,7.59,7.59,0,0,1,3.8,2A5.58,5.58,0,0,0,11,11.5,5.5,5.5,0,0,0,5.5,6Z"/></g></svg>