<svg xmlns="http://www.w3.org/2000/svg" viewBox="0 0 24 24"><title>easter-egg-alt</title><g id="easter-egg-alt"><path d="M17.74,4.06C16.18,1.67,14.18,0,12,0S7.82,1.67,6.26,4.06A17.58,17.58,0,0,0,12,5,17.58,17.58,0,0,0,17.74,4.06Zm1,1.75A19.27,19.27,0,0,1,12,7,19.27,19.27,0,0,1,5.26,5.81a21.17,21.17,0,0,0-2.26,9c0,.25,0,.49,0,.73A16.44,16.44,0,0,0,12,18a16.44,16.44,0,0,0,9-2.5c0-.24,0-.48,0-.73A21.17,21.17,0,0,0,18.74,5.81ZM7,11.88a1,1,0,0,1-.95.68.84.84,0,0,1-.31-.05,1,1,0,0,1,.63-1.9A1,1,0,0,1,7,11.88Zm3,1.52h-.1A1,1,0,1,1,11,12.5,1,1,0,0,1,10,13.4Zm4.09,0H14a1,1,0,0,1-.1-2,1,1,0,0,1,1.1.89A1,1,0,0,1,14.06,13.4Zm4.11-.87a.81.81,0,0,1-.31.05,1,1,0,0,1-.95-.68,1,1,0,0,1,.64-1.27,1,1,0,1,1,.62,1.9ZM3.45,18C4.63,22,8,24,12,24s7.37-2,8.55-6A18.87,18.87,0,0,1,12,20,18.87,18.87,0,0,1,3.45,18Z"/></g></svg>