<svg xmlns="http://www.w3.org/2000/svg" viewBox="0 0 24 24"><title>elevator</title><g id="elevator"><path d="M22,8H2a2,2,0,0,0-2,2V22a2,2,0,0,0,2,2H22a2,2,0,0,0,2-2V10A2,2,0,0,0,22,8Zm-5,3a2,2,0,1,1-2,2A2,2,0,0,1,17,11ZM7,11a2,2,0,1,1-2,2A2,2,0,0,1,7,11Zm3,9a1,1,0,0,1-1,1H5a1,1,0,0,1-1-1V19C4,17.87,5.35,17,7,17s3,.87,3,1.95Zm10,0a1,1,0,0,1-1,1H15a1,1,0,0,1-1-1V19C14,17.87,15.35,17,17,17s3,.87,3,1.95ZM17,5.41l3.71-3.7A1,1,0,1,0,19.29.29L17,2.59,14.71.29a1,1,0,0,0-1.42,1.42ZM4.71,5.12,7,2.83,9.29,5.12a1,1,0,0,0,1.42,0,1,1,0,0,0,0-1.41L7,0,3.29,3.71a1,1,0,0,0,0,1.41A1,1,0,0,0,4.71,5.12Z"/></g></svg>