<svg id="fingers-crossed" xmlns="http://www.w3.org/2000/svg" viewBox="0 0 24 24"><title>fingers-crossed</title><path d="M7.47,10.05,9.32,3.93,8.71,2.26A1.91,1.91,0,0,0,5.12,3.57ZM20.6,18.74l-4-1.5A4,4,0,0,1,14,13.5V10.08l1.91-6.33a2.13,2.13,0,0,0-4.08-1.24l-4.21,14L4.11,15.15A2.35,2.35,0,0,0,1.38,16,2.06,2.06,0,0,0,2,18.89L8,23H19a4,4,0,0,0,4-4v-.14A4.09,4.09,0,0,1,22,19,4,4,0,0,1,20.6,18.74Zm2.1-8.11-4-1.5A2,2,0,0,0,16,11v2.5a2,2,0,0,0,1.3,1.87l4,1.5A2,2,0,0,0,24,15V12.5A2,2,0,0,0,22.7,10.63Z"/></svg>