<svg xmlns="http://www.w3.org/2000/svg" viewBox="0 0 24 24"><title>fingerprint</title><g id="fingerprint"><path d="M12,7.33A4.68,4.68,0,0,0,7.33,12a28.32,28.32,0,0,1-1.21,8.23,1,1,0,0,0,.67,1.25A1,1,0,0,0,8,20.81,30.55,30.55,0,0,0,9.33,12a2.67,2.67,0,0,1,5.34,0,35.84,35.84,0,0,1-1,8.32,1,1,0,0,0,.74,1.21l.23,0a1,1,0,0,0,1-.77,38.32,38.32,0,0,0,1-8.79A4.68,4.68,0,0,0,12,7.33ZM12,11a1,1,0,0,0-1,1,32.37,32.37,0,0,1-1.36,9.28l-.43,1.43A1,1,0,0,0,9.88,24a1,1,0,0,0,.29,0,1,1,0,0,0,.95-.71l.43-1.43A34.31,34.31,0,0,0,13,12,1,1,0,0,0,12,11ZM12,0A12,12,0,0,0,0,12v2a1,1,0,0,0,2,0V12a10,10,0,0,1,20,0v2a1,1,0,0,0,2,0V12A12,12,0,0,0,12,0Zm0,3.67A8.34,8.34,0,0,0,3.67,12,25.2,25.2,0,0,1,3,17.87a1,1,0,0,0,1.94.48A27.17,27.17,0,0,0,5.67,12a6.33,6.33,0,1,1,12.66,0,39.56,39.56,0,0,1-.45,6,1,1,0,0,0,.84,1.14h.15a1,1,0,0,0,1-.85A42.25,42.25,0,0,0,20.33,12,8.34,8.34,0,0,0,12,3.67Z"/></g></svg>