<svg xmlns="http://www.w3.org/2000/svg" viewBox="0 0 24 24"><title>fireworks</title><g id="fireworks"><path d="M5.55,22.17a.56.56,0,0,0-.17-.09A.6.6,0,0,0,5.19,22a1,1,0,0,0-.9.27A1.05,1.05,0,0,0,4,23a1,1,0,0,0,.29.71,1.15,1.15,0,0,0,.33.21A1,1,0,0,0,6,23a1.05,1.05,0,0,0-.29-.71A1,1,0,0,0,5.55,22.17Zm4.88-18.6L9,0,7.57,3.57,4,5,7.57,6.43,9,10l1.43-3.57L14,5ZM1.49,6.13a1,1,0,1,0-1,1.74C.59,7.92,8,12.16,8,23a1,1,0,0,0,2,0C10,11,1.83,6.32,1.49,6.13Zm11.07,16-.18-.1L12.2,22a1,1,0,0,0-.91.27,1,1,0,0,0-.21.33,1,1,0,0,0,.21,1.08A1,1,0,0,0,13,23a1.05,1.05,0,0,0-.29-.71A1.58,1.58,0,0,0,12.56,22.17ZM12.3,18.3a1,1,0,1,0-.21,2h.11a1,1,0,0,0,.1-2ZM4.45,19.38a1,1,0,1,0-.43.1A1.08,1.08,0,0,0,4.45,19.38ZM15.09,9.67a1,1,0,0,0,.54.16,1,1,0,0,0,.85-.46A1,1,0,0,0,16.17,8a1,1,0,0,0-1.08,1.68ZM1.71,14.29a1,1,0,0,0-1.09-.21,1,1,0,0,0-.33.21,1,1,0,0,0-.21.33A.84.84,0,0,0,0,15a1,1,0,0,0,.29.71,1.15,1.15,0,0,0,.33.21A1,1,0,0,0,1,16a1,1,0,0,0,.38-.08,1.15,1.15,0,0,0,.33-.21A1,1,0,0,0,2,15a1,1,0,0,0-.08-.38A1,1,0,0,0,1.71,14.29ZM21.86,2.14,21,0l-.86,2.14L18,3l2.14.86L21,6l.86-2.14L24,3Zm-2.48,10.3a1,1,0,0,0,0,1.41,1,1,0,0,0,.72.31,1,1,0,1,0-.7-1.72Zm-.67-7.15a1.46,1.46,0,0,0-.33-.22,1,1,0,0,0-1.09.22,1,1,0,0,0-.21.33A.84.84,0,0,0,17,6a1,1,0,0,0,1.71.71A1,1,0,0,0,19,6a1,1,0,0,0-.08-.38A1,1,0,0,0,18.71,5.29Zm-.38,9.86a1,1,0,0,0-1.37.36,1,1,0,0,0,.36,1.37,1,1,0,0,0,.5.14,1,1,0,0,0,.51-1.87Zm-5.28-.48a1,1,0,0,0-1.21.74,1,1,0,0,0,.75,1.21l.23,0a1,1,0,0,0,.23-2Zm10.66-4.38-.15-.12a.76.76,0,0,0-.18-.09A.64.64,0,0,0,23.2,10a.9.9,0,0,0-.4,0,.64.64,0,0,0-.18.06.76.76,0,0,0-.18.09l-.15.12a1,1,0,0,0-.21.33A1,1,0,0,0,22,11a1,1,0,0,0,.29.71,1.15,1.15,0,0,0,.33.21.94.94,0,0,0,.76,0,1.15,1.15,0,0,0,.33-.21A1,1,0,0,0,24,11a1,1,0,0,0-.08-.38A1,1,0,0,0,23.71,10.29Zm-7,8.12a1,1,0,0,0-1.21.72,1,1,0,0,0,.71,1.22l.25,0a1,1,0,0,0,.25-2Zm-2.37-7.22A1,1,0,1,0,13.56,13a1,1,0,0,0,.38.08,1,1,0,0,0,.92-.63h0A1,1,0,0,0,14.32,11.19Zm2.6,11.43a.76.76,0,0,0-.09-.18l-.12-.15A1,1,0,0,0,15.8,22l-.18.06a.76.76,0,0,0-.18.09,1.58,1.58,0,0,0-.15.12A1,1,0,0,0,15,23a1,1,0,0,0,1,1,1,1,0,0,0,.71-.29A1,1,0,0,0,17,23a1.5,1.5,0,0,0,0-.2A.64.64,0,0,0,16.92,22.62Z"/></g></svg>