<svg xmlns="http://www.w3.org/2000/svg" viewBox="0 0 24 24"><title>fish-bones</title><g id="fish-bones"><path d="M20.85,13.83C24.32,10.35,24.11,4.65,23.77,2A2,2,0,0,0,22,.22c-2.69-.34-8.38-.56-11.86,2.91L14.8,7.77,13.47,9.1,11.68,7.31a1,1,0,0,0-1.42,0,1,1,0,0,0,0,1.41l1.8,1.79L10.47,12.1,8.68,10.31a1,1,0,0,0-1.42,0,1,1,0,0,0,0,1.41l1.8,1.79L7.73,14.84,6.3,13.42,0,15l6,3,3,6,1.57-6.34L9.14,16.26l1.33-1.33,1.79,1.79a1,1,0,0,0,1.42,0,1,1,0,0,0,0-1.41l-1.8-1.8,1.59-1.58,1.79,1.79a1,1,0,0,0,1.42,0,1,1,0,0,0,0-1.41l-1.8-1.8,1.33-1.32ZM18.47,4A1.5,1.5,0,1,1,17,5.51,1.5,1.5,0,0,1,18.47,4Z"/></g></svg>