<svg xmlns="http://www.w3.org/2000/svg" viewBox="0 0 24 24"><title>football</title><g id="football"><path d="M23.26.74A25.13,25.13,0,0,0,17,0l7,7A25.13,25.13,0,0,0,23.26.74ZM.74,23.26A25.13,25.13,0,0,0,7,24L0,17A25.13,25.13,0,0,0,.74,23.26ZM4.64,4.64A15.77,15.77,0,0,0,.36,13.09L10.91,23.64a15.77,15.77,0,0,0,8.45-4.28,15.77,15.77,0,0,0,4.28-8.45L13.09.36A15.77,15.77,0,0,0,4.64,4.64ZM11.29,17a1,1,0,0,1-1.41,0L7.05,14.12a1,1,0,0,1,1.41-1.41l2.83,2.83A1,1,0,0,1,11.29,17Zm2.83-2.83a1,1,0,0,1-1.41,0L9.88,11.29a1,1,0,0,1,1.41-1.41l2.83,2.83A1,1,0,0,1,14.12,14.12Zm0-7.07L17,9.88a1,1,0,0,1-1.41,1.41L12.71,8.46a1,1,0,0,1,1.41-1.41Z"/></g></svg>