<svg xmlns="http://www.w3.org/2000/svg" viewBox="0 0 24 24"><title>gifts</title><g id="gifts"><path d="M8,24h6V20H8ZM0,18H6V14H0Zm0,6H6V20H0ZM23,5H21.75A3.74,3.74,0,0,0,22,3.72,4,4,0,0,0,17.92,0h0C16,0,14.26,1.5,13,3,11.74,1.5,10,0,8.08,0A4,4,0,0,0,4,3.72,3.74,3.74,0,0,0,4.25,5H3A1,1,0,0,0,3,7H23a1,1,0,0,0,0-2ZM6.57,5A1.72,1.72,0,0,1,6,3.72C6,2.77,7.14,2,8.08,2,9.68,2,11.45,4.24,12,5ZM19.43,5H14c.55-.76,2.32-3,3.92-3C18.86,2,20,2.77,20,3.72A1.72,1.72,0,0,1,19.43,5ZM4,12H16V24h6V9H4Zm4,6h6V14H8Z"/></g></svg>