<svg xmlns="http://www.w3.org/2000/svg" viewBox="0 0 24 24"><title>gingerbread-man</title><g id="gingerbread-man"><path d="M20.63,18.48l-3.82-2.73,2.91-.83A3.09,3.09,0,0,0,22,11.76a3,3,0,0,0-3.81-2.64l-3,.84a5.5,5.5,0,1,0-6.4,0l-3-.84A3,3,0,0,0,2,11.75a3.09,3.09,0,0,0,2.27,3.17l2.91.83L3.37,18.48a3.09,3.09,0,0,0-1,4A3,3,0,0,0,5,24a3,3,0,0,0,1.74-.56l2.94-2.09a4,4,0,0,1,4.64,0l2.94,2.09A3,3,0,0,0,19,24a3,3,0,0,0,2.62-1.54A3.09,3.09,0,0,0,20.63,18.48ZM10,6a1,1,0,1,1,1-1A1,1,0,0,1,10,6Zm2,11a1,1,0,1,1,1-1A1,1,0,0,1,12,17Zm0-4a1,1,0,1,1,1-1A1,1,0,0,1,12,13Zm2-7a1,1,0,1,1,1-1A1,1,0,0,1,14,6Z"/></g></svg>