<svg xmlns="http://www.w3.org/2000/svg" viewBox="0 0 24 24"><title>glasses</title><g id="glasses"><path d="M2,3A1,1,0,0,1,4,3,1,1,0,0,0,6,3,3,3,0,0,0,0,3v9H2ZM21,0a3,3,0,0,0-3,3,1,1,0,0,0,2,0,1,1,0,0,1,2,0v9h2V3A3,3,0,0,0,21,0Zm1,14H15.21a2,2,0,0,0-2,2H10.78a2,2,0,0,0-2-2H2a2,2,0,0,0-2,2v2.75a5.25,5.25,0,0,0,10.47.52L10.6,18h2.8l.13,1.27A5.25,5.25,0,0,0,24,18.75V16A2,2,0,0,0,22,14ZM8.48,19.07A3.23,3.23,0,0,1,4.93,22,3.35,3.35,0,0,1,2,18.6V16.5a.5.5,0,0,1,.5-.5H8.23a.51.51,0,0,1,.5.55ZM22,18.75A3.25,3.25,0,0,1,18.22,22a3.37,3.37,0,0,1-2.72-3l-.23-2.38a.5.5,0,0,1,.49-.55H21.5a.5.5,0,0,1,.5.5Z"/></g></svg>