<svg xmlns="http://www.w3.org/2000/svg" viewBox="0 0 24 24"><title>grim-reaper</title><g id="grim-reaper"><path d="M9.5,8A1.5,1.5,0,1,0,11,9.5,1.5,1.5,0,0,0,9.5,8Zm5,0A1.5,1.5,0,1,0,16,9.5,1.5,1.5,0,0,0,14.5,8Zm9.35,13.68C22,17.59,22,10,22,10A10,10,0,0,0,2,10S2,17.59.15,21.68a1.6,1.6,0,0,0-.15.68A1.65,1.65,0,0,0,1.64,24H22.36A1.65,1.65,0,0,0,24,22.36,1.6,1.6,0,0,0,23.85,21.68ZM13,20H11a3,3,0,0,1-3-3h8A3,3,0,0,1,13,20Zm3-6.17V16H14V14.5a.5.5,0,0,0-1,0V16H11V14.5a.5.5,0,0,0-1,0V16H8V13.83A5.24,5.24,0,0,1,5.5,9.5C5.5,6.46,8.41,4,12,4s6.5,2.46,6.5,5.5A5.24,5.24,0,0,1,16,13.83Z"/></g></svg>