<svg xmlns="http://www.w3.org/2000/svg" viewBox="0 0 24 24"><title>jason-mask</title><g id="jason-mask"><path d="M19.51,1.9,16,4V.41A18.23,18.23,0,0,0,12,0C.2,0-.15,8.73,2.06,16c1.53,5,5.81,8,9.94,8s8.41-3.05,9.94-8C23.52,10.79,23.79,4.86,19.51,1.9ZM9,2A1,1,0,1,1,8,3,1,1,0,0,1,9,2Zm1,19a1,1,0,1,1,1-1A1,1,0,0,1,10,21Zm0-4a1,1,0,1,1,1-1A1,1,0,0,1,10,17ZM8.5,13h-2a2.5,2.5,0,0,1,0-5h2a2.5,2.5,0,0,1,0,5ZM12,7a1,1,0,1,1,1-1A1,1,0,0,1,12,7Zm2.14,14a1,1,0,1,1,1-1A1,1,0,0,1,14.14,21ZM13,16a1,1,0,1,1,1,1A1,1,0,0,1,13,16Zm4.5-3h-2a2.5,2.5,0,0,1,0-5h2a2.5,2.5,0,0,1,0,5Z"/></g></svg>