<svg xmlns="http://www.w3.org/2000/svg" viewBox="0 0 24 24"><title>magic-wand</title><g id="magic-wand"><path d="M23,16H21V14a1,1,0,0,0-2,0v2H17a1,1,0,0,0,0,2h2v2a1,1,0,0,0,2,0V18h2a1,1,0,0,0,0-2ZM19,4h1V5a1,1,0,0,0,2,0V4h1a1,1,0,0,0,0-2H22V1a1,1,0,0,0-2,0V2H19a1,1,0,0,0,0,2ZM4,5H6V7A1,1,0,0,0,8,7V5h2a1,1,0,0,0,0-2H8V1A1,1,0,0,0,6,1V3H4A1,1,0,0,0,4,5ZM17.12,6.88a3,3,0,0,0-4.24,0l-12,12a3,3,0,0,0,0,4.24,3,3,0,0,0,4.24,0l12-12A3,3,0,0,0,17.12,6.88ZM15.71,9.71l-1,1a1,1,0,0,1-1.42,0,1,1,0,0,1,0-1.42l1-1a1,1,0,0,1,1.42,1.42Z"/></g></svg>