<svg xmlns="http://www.w3.org/2000/svg" viewBox="0 0 24 24"><title>nessie</title><g id="nessie"><path d="M6.85,19a5.75,5.75,0,0,0,2.43-.54l2.87-1.36a11.7,11.7,0,0,1,10.56.31,11.51,11.51,0,0,0-2.27-4.77,10.11,10.11,0,0,1-2-3.65h3a2.49,2.49,0,0,0,.37-5A4,4,0,0,0,14,5a16.41,16.41,0,0,0,1,6.32,8.49,8.49,0,0,0-12.89,5.6,3,3,0,0,1,1,.63A5.3,5.3,0,0,0,6.85,19ZM18,4a1,1,0,1,1-1,1A1,1,0,0,1,18,4ZM13,18.92l-2.87,1.35A7.59,7.59,0,0,1,1.7,19,1,1,0,0,0,.3,20.4,9.34,9.34,0,0,0,6.86,23,9.64,9.64,0,0,0,11,22.08l2.87-1.35A7.59,7.59,0,0,1,22.3,22a1,1,0,1,0,1.4-1.42A9.61,9.61,0,0,0,13,18.92Z"/></g></svg>