<svg xmlns="http://www.w3.org/2000/svg" viewBox="0 0 24 24"><title>octopus</title><g id="octopus"><path d="M22.05,16a2,2,0,0,1-2-1.77,4.54,4.54,0,0,1,.1-1.22l.46-2.09a8.94,8.94,0,0,0-3.25-9.18A8.83,8.83,0,0,0,3.43,10.92L3.89,13A4.65,4.65,0,0,1,4,14.12,2.08,2.08,0,0,1,1.92,16,1,1,0,0,0,2,18a4,4,0,0,0,2.75-1.11L5,18v1a1,1,0,0,1-1,1,1,1,0,0,0-1,1,1,1,0,0,0,1,1,3,3,0,0,0,3-3V18a2,2,0,0,1,2,2v1a1,1,0,0,1-1,1,1,1,0,0,0-1,1,1,1,0,0,0,1,1,3,3,0,0,0,3-3V19a1,1,0,0,1,2,0v2a3,3,0,0,0,3,3,1,1,0,0,0,1-1,1,1,0,0,0-1-1,1,1,0,0,1-1-1V20a2,2,0,0,1,2-2v1a3,3,0,0,0,3,3,1,1,0,0,0,1-1,1,1,0,0,0-1-1,1,1,0,0,1-1-1V18l.25-1.11A4,4,0,0,0,22,18a1,1,0,0,0,.05-2ZM9.5,14A1.5,1.5,0,1,1,11,12.5,1.5,1.5,0,0,1,9.5,14Zm5,0A1.5,1.5,0,1,1,16,12.5,1.5,1.5,0,0,1,14.5,14Z"/></g></svg>