<svg xmlns="http://www.w3.org/2000/svg" viewBox="0 0 24 24"><title>radioactive</title><g id="radioactive"><path d="M7.67,14.51A5,5,0,0,1,7,11.75L.1,10.52A11.95,11.95,0,0,0,7.34,23.05l2.39-6.6A5,5,0,0,1,7.67,14.51ZM9.5,7.68a5,5,0,0,1,5.2.15l4.55-5.39A12,12,0,0,0,6,1.61a12.24,12.24,0,0,0-1.24.84L9.29,7.82C9.36,7.78,9.42,7.72,9.5,7.68Zm14.41,2.83L17,11.75a5,5,0,0,1-2.47,4.59l-.23.1,2.39,6.62c.45-.2.9-.41,1.34-.66A12,12,0,0,0,23.91,10.51Zm-9.31,0a3,3,0,1,0-1.1,4.09A3,3,0,0,0,14.6,10.51Z"/></g></svg>