<svg xmlns="http://www.w3.org/2000/svg" viewBox="0 0 24 24"><title>ray-gun</title><g id="ray-gun"><path d="M15,4a1,1,0,0,0-1,1V6A9.35,9.35,0,0,0,8,4a10.3,10.3,0,0,0-2.7.36L0,2v8c0,2.22,1.6,4.15,4,5.19L2.12,20.32a2,2,0,0,0,1.2,2.56A1.78,1.78,0,0,0,4,23a2,2,0,0,0,1.88-1.31L8,16H8a9.3,9.3,0,0,0,6-2v1a1,1,0,0,0,2,0V5A1,1,0,0,0,15,4ZM6,11a1,1,0,1,1,1-1A1,1,0,0,1,6,11Zm4,0a1,1,0,1,1,1-1A1,1,0,0,1,10,11ZM22,8a2,2,0,0,0-1.72,1H20V6a1,1,0,0,0-2,0v8a1,1,0,0,0,2,0V11h.28A2,2,0,0,0,22,12a2,2,0,0,0,0-4Z"/></g></svg>