<svg xmlns="http://www.w3.org/2000/svg" viewBox="0 0 24 24"><title>ribbon</title><g id="ribbon"><path d="M6.86,16.59A54.57,54.57,0,0,1,0,21H5v3a56.1,56.1,0,0,0,5.46-3.89C9.11,18.91,7.92,17.73,6.86,16.59Zm8.74-1.28a46.32,46.32,0,0,0,4.57-5.68,5.77,5.77,0,0,0,.69-5.16A5.75,5.75,0,0,0,17.19.82,16.83,16.83,0,0,0,6.81.82,5.75,5.75,0,0,0,3.14,4.47a5.77,5.77,0,0,0,.69,5.16A51.59,51.59,0,0,0,19,24V21h5A53.55,53.55,0,0,1,15.6,15.31ZM8,6.83a.85.85,0,0,1-.09-.75.81.81,0,0,1,.51-.51,11.78,11.78,0,0,1,7.24,0,.81.81,0,0,1,.51.51.85.85,0,0,1-.09.75,42.69,42.69,0,0,1-4,5A42.69,42.69,0,0,1,8,6.83Z"/></g></svg>