<svg id="rest-in-peace" xmlns="http://www.w3.org/2000/svg" viewBox="0 0 24 24"><title>rest-in-peace</title><path d="M8,9H6.75v2.5H8a.25.25,0,0,0,.25-.25v-2A.25.25,0,0,0,8,9Zm4-9A10,10,0,0,0,2,10V24H22V10A10,10,0,0,0,12,0ZM9.75,11.25A1.75,1.75,0,0,1,9,12.65l.63,1.27a.74.74,0,0,1-.33,1A.84.84,0,0,1,9,15a.74.74,0,0,1-.67-.42L7.54,13H6.75v1.25a.75.75,0,0,1-1.5,0V7.5H8A1.76,1.76,0,0,1,9.75,9.25Zm3,3a.75.75,0,0,1-1.5,0v-6a.75.75,0,0,1,1.5,0Zm6-3A1.76,1.76,0,0,1,17,13H15.75v1.25a.75.75,0,0,1-1.5,0V7.5H17a1.76,1.76,0,0,1,1.75,1.75ZM17,9H15.75v2.5H17a.25.25,0,0,0,.25-.25v-2A.25.25,0,0,0,17,9Z"/></svg>