<svg xmlns="http://www.w3.org/2000/svg" viewBox="0 0 24 24"><title>rocket</title><g id="rocket"><path d="M1.82,15.7C-.3,17.82,0,24,0,24s6.16.32,8.28-1.81,2.27-4.93.36-6.84S3.94,13.58,1.82,15.7Zm5.4,4.22c-.94.94-3.79,1.12-3.91,1.13l-.38,0,0-.37c0-.12.18-3,1.12-3.91a2.13,2.13,0,0,1,3.17,0A2.14,2.14,0,0,1,7.22,19.92ZM23.44.56a10.91,10.91,0,0,0-12.95,5l-5.43.68-4.95,5,7.75.68,4.3,4.3.68,7.75L17.79,19l.68-5.44A10.91,10.91,0,0,0,23.44.56ZM15.31,10.81a1.5,1.5,0,0,1-2.12-2.12,1.51,1.51,0,0,1,2.12,0A1.49,1.49,0,0,1,15.31,10.81Zm4.24-4.24a1.49,1.49,0,0,1-2.12,0,1.5,1.5,0,0,1,2.12-2.12A1.49,1.49,0,0,1,19.55,6.57Z"/></g></svg>