<svg xmlns="http://www.w3.org/2000/svg" viewBox="0 0 24 24"><title>running</title><g id="running"><path d="M13,6a3,3,0,1,0-3-3A3,3,0,0,0,13,6Zm8.79,3.23a1.51,1.51,0,0,0-2.06-.52l-1.5.9-1-1A6.38,6.38,0,0,0,13,7H12A21.21,21.21,0,0,0,6.53,8.08L6,8.24,3.75,11.67a1.5,1.5,0,0,0,.42,2.08A1.47,1.47,0,0,0,5,14a1.49,1.49,0,0,0,1.25-.67L8,10.77c.5-.15,1.19-.33,1.91-.49L7,18H3.5a1.5,1.5,0,0,0,0,3H9l1.47-3.3L15,19.11V22.5a1.5,1.5,0,0,0,3,0V16.89L13.47,15.5l1.6-4.8,0,0,2.66,2.66,3.5-2.1A1.51,1.51,0,0,0,21.79,9.23Z"/></g></svg>