<svg xmlns="http://www.w3.org/2000/svg" xmlns:xlink="http://www.w3.org/1999/xlink" version="1.1" x="0px" y="0px" viewBox="0 0 100 125" enable-background="new 0 0 100 100" xml:space="preserve"><path d="M77.8,56.3c-0.8-0.3-5.5-2.7-5.6-5.7c-0.1-3.1,1.2-7,0.8-7.5c-0.3-0.6-5.6-0.7-7.3-1.9c-1.6-1.2-3.3-5.1-3.7-5.8  c-0.4-0.7-0.6-1.5-1.2-1.2c-0.6,0.3-2.8,1.6-4.7,1.5c-1.9-0.1-3.3,0-3.8-0.8c-0.5-0.8-0.9-1.9-0.4-1.8c0.5,0.1,1.8,0.3,4.5,0  c2.7-0.3,4.4-1.4,5.6-1.6c1.2-0.2,2.8,2.2,5,2.3c2.1,0.1,4.7-4.5,3.6-5.3c-0.5-0.7,1.9-1.3,2-3.1c0.1-1.8-1.6-2.7-3-2.6  c0,0-3.5,0.3-4.7-0.9c-1.2-1.2-2.8-4.1-3.5-6s-2.8-2.1-3.5-3.4c-0.6-1.3-0.2-8.7-4.6-8.6c-4.4,0.1-3.7,2-3.8,4.1s0.1,4.9-0.8,5  s-2.3-7.8-7.3-5.7s-2.2,6.2-1.5,7.3c0.7,1.1,2.1,3.4,1.3,4.1c-0.7,0.7-8-3.6-9.5-0.9c-3.2,4.6,5.5,8.7,5.5,9.9c0,1.2-2.5,1.1-4,1.3  c-1.5,0.3-2.5,1.5-2.7,2.5c-0.2,1.1,1.5,3.4,3.4,4.1c2,0.7,4.1,1.6,4,2.5c-0.1,0.9-2.6,1.3-5.2,0.1c-2.6-1.2-6.4-3.5-6.4-3.5  s-0.9-1.1-1.7-0.9c-0.8,0.2-5,4.7-0.6,14s10.5,16,13.4,15.4c1.6-0.2,1.1-1.5,1.2-3.5c0.1-2,1-7.3,1.8-9.4c0.8-2.2,1.8-3.2,1.8-3.2  s4.8,4.4,6.8,6.4c2,2,5.2,6.8,3.7,10.5c-1.5,3.7-3.9,5.2-10.7,6.1c-6.8,0.9-14.3,3.6-14.8,11.8C26.9,90,32,95.1,37.3,95.4  c5.3,0.3,9.4-3.2,10.4-8.6c1-5.5-0.6-5.9-0.2-6.4c0.4-0.6,6.9,0.9,9.2,2.7c2.3,1.8,4.2,1.8,4.6,1.8s0.3-5.7,2.5-8.1  c2.2-2.4,7.8-4,9.2-4.2c1.4-0.2,1.8-1.2,1.4-2.1c-0.4-0.8-1.6-5.4-0.3-7.5c1.3-2.1,3.5-4.6,3.8-5C78.4,57.6,78.6,56.6,77.8,56.3z   M55.9,17.5c2.6,0,4.6,2.1,4.6,4.6s-2.1,4.6-4.6,4.6c-2.6,0-4.6-2.1-4.6-4.6S53.3,17.5,55.9,17.5z M38.2,87c-1.3,0-2.4-1.1-2.4-2.4  c0-1.3,1.1-2.4,2.4-2.4s2.4,1.1,2.4,2.4C40.6,86,39.5,87,38.2,87z"/><circle cx="55.9" cy="22.1" r="2"/></svg>