<svg xmlns="http://www.w3.org/2000/svg" viewBox="0 0 24 24"><title>signal-range</title><g id="signal-range"><path d="M12,10a2,2,0,1,0,2,2A2,2,0,0,0,12,10ZM2,12A10.38,10.38,0,0,1,4.94,4.7,1,1,0,0,0,3.5,3.3a12.56,12.56,0,0,0,0,17.4,1,1,0,0,0,1.44-1.4A10.38,10.38,0,0,1,2,12ZM7.69,6.28a1,1,0,0,0-1.41,0,8.24,8.24,0,0,0,0,11.38A1,1,0,0,0,7,18a1,1,0,0,0,.69-.28,1,1,0,0,0,0-1.41,6.26,6.26,0,0,1,0-8.62A1,1,0,0,0,7.69,6.28Zm12.81-3a1,1,0,0,0-1.44,1.4,10.53,10.53,0,0,1,0,14.6,1,1,0,0,0,1.44,1.4,12.56,12.56,0,0,0,0-17.4Zm-2.78,3a1,1,0,1,0-1.44,1.38,6.26,6.26,0,0,1,0,8.62,1,1,0,0,0,0,1.41A1,1,0,0,0,17,18a1,1,0,0,0,.72-.31,8.24,8.24,0,0,0,0-11.38Z"/></g></svg>