<svg xmlns="http://www.w3.org/2000/svg" viewBox="0 0 24 24"><title>skull-crossbones</title><g id="skull-crossbones"><path d="M21.5,19a2.49,2.49,0,0,0-1.35.4L16.34,18l3.81-1.4a2.5,2.5,0,1,0-1-2.82L12,16.4,4.88,13.78a2.49,2.49,0,1,0-1,2.82L7.66,18,3.85,19.4a2.5,2.5,0,1,0,1,2.82L12,19.6l7.12,2.62A2.49,2.49,0,1,0,21.5,19ZM8,10.92V13h8V10.92A5.79,5.79,0,0,0,19,6c0-3.31-3.14-6-7-6S5,2.69,5,6A5.79,5.79,0,0,0,8,10.92ZM14.5,5A1.5,1.5,0,1,1,13,6.5,1.5,1.5,0,0,1,14.5,5Zm-5,0A1.5,1.5,0,1,1,8,6.5,1.5,1.5,0,0,1,9.5,5Z"/></g></svg>