<svg xmlns="http://www.w3.org/2000/svg" viewBox="0 0 24 24"><title>snowflake-alt</title><g id="snowflake-alt"><path d="M22,16.63l-2.24-1.29,1.76-.47a1,1,0,0,0,.71-1.23,1,1,0,0,0-1.22-.7l-3.7,1L14,12l3.34-1.93,3.7,1a.75.75,0,0,0,.26,0,1,1,0,0,0,.25-2l-1.76-.47L22,7.37a1,1,0,0,0-1-1.74l-2.24,1.3.47-1.77a1,1,0,0,0-1.93-.52l-1,3.7L13,10.27V6.41l2.71-2.7a1,1,0,1,0-1.42-1.42L13,3.59V1a1,1,0,0,0-2,0V3.59L9.71,2.29A1,1,0,0,0,8.29,3.71L11,6.41v3.86L7.66,8.34l-1-3.7a1,1,0,0,0-1.93.52l.47,1.77L3,5.63A1,1,0,0,0,2,7.37L4.21,8.66l-1.76.47a1,1,0,0,0,.26,2,.82.82,0,0,0,.26,0l3.69-1L10,12,6.66,13.93,3,12.94a1,1,0,1,0-.52,1.93l1.76.47L2,16.63A1,1,0,0,0,1.61,18a1,1,0,0,0,.87.5A1,1,0,0,0,3,18.37l2.24-1.3-.47,1.77a1,1,0,0,0,.71,1.22.75.75,0,0,0,.26,0,1,1,0,0,0,1-.74l1-3.7L11,13.73v3.86l-2.71,2.7a1,1,0,0,0,1.42,1.42L11,20.41V23a1,1,0,0,0,2,0V20.41l1.29,1.3a1,1,0,0,0,1.42,0,1,1,0,0,0,0-1.42L13,17.59V13.73l3.34,1.93,1,3.7a1,1,0,0,0,1,.74.75.75,0,0,0,.26,0,1,1,0,0,0,.71-1.22l-.47-1.77L21,18.37A1,1,0,0,0,22.39,18,1,1,0,0,0,22,16.63Z"/></g></svg>