<svg xmlns="http://www.w3.org/2000/svg" viewBox="0 0 24 24"><title>spy-face</title><g id="spy-face"><path d="M21,11.67,19.3,3.15A2.49,2.49,0,0,0,16.83,1a2.53,2.53,0,0,0-1.5.5L13.5,2.88a2.52,2.52,0,0,1-3,0L8.66,1.5a2.5,2.5,0,0,0-4,1.65L3.05,11.67C4,12.08,6.8,13,12,13S19.94,12.09,21,11.67Zm2.89,1.79a1,1,0,0,0-1.38-.3S19.5,15,12,15,1.58,13.18,1.56,13.17a1,1,0,0,0-1.39.28,1,1,0,0,0,.28,1.38A7.43,7.43,0,0,0,2,15.56V19a4,4,0,0,0,4,4H8.49a2,2,0,0,0,1.93-1.45L11.15,19h1.71l.73,2.55A2,2,0,0,0,15.51,23H18a4,4,0,0,0,4-4V15.56a7.71,7.71,0,0,0,1.56-.73A1,1,0,0,0,23.84,13.46Z"/></g></svg>