<svg xmlns="http://www.w3.org/2000/svg" viewBox="0 0 24 24"><title>statue-of-liberty</title><g id="statue-of-liberty"><path d="M19,22H16V20H8v2H5a1,1,0,0,0,0,2H19a1,1,0,0,0,0-2ZM9,18h6l.19-1.94L21,10.25,17.75,7,15.83,8.92a2,2,0,0,0-1.08-1.54l-1.47-.74A2.5,2.5,0,0,0,14.5,4.5a2.59,2.59,0,0,0-.23-1L15,2H13L12,0,11,2H9l.73,1.46a2.59,2.59,0,0,0-.23,1,2.5,2.5,0,0,0,1.22,2.14l-1.47.74a1,1,0,0,0-.17.12l-5-3.56A1.69,1.69,0,0,0,5,2.67C5,1.33,3,0,3,0S1,1.33,1,2.67c0,.58.54,1,1,1.33l.5,5h1l.17-1.68,4.6,3.29Z"/></g></svg>