<svg xmlns="http://www.w3.org/2000/svg" viewBox="0 0 24 24"><title>tank</title><g id="tank"><path d="M21,14H3A3,3,0,0,0,.54,15.3,3,3,0,0,0,.19,18l1.48,4a3,3,0,0,0,2.84,2h15a3,3,0,0,0,2.84-2l1.48-4a3,3,0,0,0-.35-2.74A3,3,0,0,0,21,14ZM4.5,20.5A1.5,1.5,0,1,1,6,19,1.5,1.5,0,0,1,4.5,20.5Zm5,0A1.5,1.5,0,1,1,11,19,1.5,1.5,0,0,1,9.5,20.5Zm5,0A1.5,1.5,0,1,1,16,19,1.5,1.5,0,0,1,14.5,20.5Zm5,0A1.5,1.5,0,1,1,21,19,1.5,1.5,0,0,1,19.5,20.5ZM22,5V6H15a4,4,0,0,0-3.45-2H7A4,4,0,0,0,3,8v4H18l-1-2h5v1h2V5Z"/></g></svg>