<svg xmlns="http://www.w3.org/2000/svg" viewBox="0 0 24 24"><title>team</title><g id="team"><path d="M0,18.7V22H3V17.7a5.5,5.5,0,0,1,1.15-3.29C1.71,15.15,0,16.79,0,18.7ZM12,11A4.5,4.5,0,1,0,7.5,6.5,4.51,4.51,0,0,0,12,11ZM5.5,6.5a7,7,0,0,1,.13-1.3A3.53,3.53,0,0,0,4.5,5a3.5,3.5,0,1,0,2.63,5.79A6.49,6.49,0,0,1,5.5,6.5Zm14.35,7.91A5.5,5.5,0,0,1,21,17.7V22h3V18.7C24,16.79,22.29,15.15,19.85,14.41ZM23,8.5a3.47,3.47,0,0,0-4.63-3.3,7,7,0,0,1,.13,1.3,6.49,6.49,0,0,1-1.63,4.29A3.49,3.49,0,0,0,23,8.5ZM12,13c-3.86,0-7,2.11-7,4.7V22H19V17.7C19,15.11,15.86,13,12,13Z"/></g></svg>