<svg xmlns="http://www.w3.org/2000/svg" viewBox="0 0 24 24"><title>woman-fancy</title><g id="woman-fancy"><path d="M12,12a6,6,0,0,0,3.31-1H20L18.32,4.82A6.56,6.56,0,0,0,12.9.07,6.69,6.69,0,0,0,12,0a6.69,6.69,0,0,0-.9.07A6.56,6.56,0,0,0,5.68,4.82L4,11H8.69A6,6,0,0,0,12,12ZM2,20.49V24H5V15.86A5.69,5.69,0,0,0,2,20.49Zm17-4.63V24h3V20.49A5.69,5.69,0,0,0,19,15.86Zm-12-1V20H17V14.88A14.13,14.13,0,0,0,12,14,14.13,14.13,0,0,0,7,14.88ZM9,17a1,1,0,1,1,1-1A1,1,0,0,1,9,17Zm6-2a1,1,0,1,1-1,1A1,1,0,0,1,15,15Zm-2,2a1,1,0,1,1-1-1A1,1,0,0,1,13,17Z"/></g></svg>