<svg xmlns="http://www.w3.org/2000/svg" viewBox="0 0 24 24"><title>zombie-hand</title><g id="zombie-hand"><path d="M3.05,10.51a1.9,1.9,0,0,0,.65.86L8,14.69v4.75l8-2V14.77l3-1.3a3.43,3.43,0,0,0,1.6-1.4L21.8,10a1.5,1.5,0,1,0-2.6-1.5L18,10.57a.44.44,0,0,1-.19.15l-2.33,1,.88-5.23a2,2,0,0,1,.3-.78l1.59-2.38a1.5,1.5,0,0,0-2.5-1.66L13.81,4.58a2,2,0,0,0-.31.78L13,8.5,12.59,6a1.92,1.92,0,0,1,0-.79L13.43,2a1.56,1.56,0,0,0-1-1.91,1.5,1.5,0,0,0-1.87,1.08L9.57,5a1.92,1.92,0,0,0,0,.79L10,8.74,8.76,6.56a2,2,0,0,1-.26-1V3.17a1.5,1.5,0,0,0-3,0v3.2a2,2,0,0,0,.26,1l1.81,3.22L6.19,9.51a1.93,1.93,0,0,1-.64-.87L4.93,7A1.56,1.56,0,0,0,3.2,6,1.5,1.5,0,0,0,2.1,8ZM18,19,6,22,3,21,0,24H24Z"/></g></svg>