<?xml version="1.0" encoding="UTF-8" standalone="no"?>
<svg width="28px" height="28px" viewBox="0 0 28 28" version="1.1" xmlns="http://www.w3.org/2000/svg" xmlns:xlink="http://www.w3.org/1999/xlink" xmlns:sketch="http://www.bohemiancoding.com/sketch/ns">
    <!-- Generator: Sketch 3.3 (11970) - http://www.bohemiancoding.com/sketch -->
    <title>airplane</title>
    <desc>Created with Sketch.</desc>
    <defs></defs>
    <g id="Page-1" stroke="none" stroke-width="1" fill="none" fill-rule="evenodd" sketch:type="MSPage">
        <g id="Symbolicons-Color" sketch:type="MSArtboardGroup" transform="translate(-140.000000, -476.000000)">
            <g id="airplane" sketch:type="MSLayerGroup" transform="translate(140.000000, 476.000000)">
                <path d="M8.692,16.294 L1.009,16.441 L0.026,17.427 L6.682,21.318 L10.551,28 L11.533,27.013 L11.706,19.308 L8.692,16.294" id="Fill-749" fill="#8C8C8C" sketch:type="MSShapeGroup"></path>
                <path d="M9.847,23.076 C8.299,24.624 5.926,24.782 4.572,23.428 C3.218,22.074 3.376,19.7 4.924,18.153 L21.804,1.272 C23.352,-0.275 25.725,-0.433 27.079,0.921 C28.433,2.275 28.275,4.648 26.728,6.196 L9.847,23.076" id="Fill-750" fill="#ECECEC" sketch:type="MSShapeGroup"></path>
                <path d="M15.474,17.45 L20.397,28 L22.508,25.89 L21.101,11.823 L15.474,17.45" id="Fill-751" fill="#8C8C8C" sketch:type="MSShapeGroup"></path>
                <path d="M16.177,6.899 L2.11,5.492 L0,7.602 L10.551,12.526 L16.177,6.899" id="Fill-752" fill="#8C8C8C" sketch:type="MSShapeGroup"></path>
                <path d="M23.914,4.789 L25.321,6.196 C26.172,5.345 26.277,4.032 25.637,3.066 L23.914,4.789" id="Fill-753" fill="#505050" sketch:type="MSShapeGroup"></path>
                <path d="M24.934,2.363 C23.968,1.723 22.655,1.828 21.804,2.679 L23.211,4.086 L24.934,2.363" id="Fill-754" fill="#505050" sketch:type="MSShapeGroup"></path>
                <path d="M6,22.5 C5.872,22.5 5.744,22.451 5.647,22.354 C5.451,22.158 5.451,21.842 5.647,21.646 L7.646,19.647 C7.842,19.451 8.158,19.451 8.354,19.647 C8.549,19.842 8.549,20.158 8.354,20.353 L6.353,22.354 C6.256,22.451 6.128,22.5 6,22.5" id="Fill-755" fill="#505050" sketch:type="MSShapeGroup"></path>
            </g>
        </g>
    </g>
</svg>