<?xml version="1.0" encoding="UTF-8" standalone="no"?>
<svg width="24px" height="26px" viewBox="0 0 24 26" version="1.1" xmlns="http://www.w3.org/2000/svg" xmlns:xlink="http://www.w3.org/1999/xlink" xmlns:sketch="http://www.bohemiancoding.com/sketch/ns">
    <!-- Generator: Sketch 3.3 (11970) - http://www.bohemiancoding.com/sketch -->
    <title>apple</title>
    <desc>Created with Sketch.</desc>
    <defs></defs>
    <g id="Page-1" stroke="none" stroke-width="1" fill="none" fill-rule="evenodd" sketch:type="MSPage">
        <g id="Symbolicons-Color" sketch:type="MSArtboardGroup" transform="translate(-422.000000, -645.000000)">
            <g id="apple" sketch:type="MSLayerGroup" transform="translate(422.000000, 645.000000)">
                <path d="M12,8 C12,8 12.533,4.71 10.226,2.36 C7.918,0.012 4.003,0.124 4.003,0.124 C4.003,0.124 3.833,4.035 6.141,6.385 C8.448,8.734 12,8 12,8" id="Fill-832" fill="#8CBE3C" sketch:type="MSShapeGroup"></path>
                <path d="M20.285,6.902 C17.066,5.222 14.237,7.151 12.857,8 L11.143,8 C9.727,7.158 6.85,5.267 3.715,6.902 C-4.263,11.063 1.587,26 12,26 C22.413,26 28.264,11.063 20.285,6.902" id="Fill-833" fill="#C0392B" sketch:type="MSShapeGroup"></path>
                <path d="M13,8.002 L11,8 C11,5.579 12.045,1 16,1 L16,3 C13.05,3 13,7.952 13,8.002" id="Fill-834" fill="#A57D52" sketch:type="MSShapeGroup"></path>
            </g>
        </g>
    </g>
</svg>