<?xml version="1.0" encoding="UTF-8" standalone="no"?>
<svg width="28px" height="28px" viewBox="0 0 28 28" version="1.1" xmlns="http://www.w3.org/2000/svg" xmlns:xlink="http://www.w3.org/1999/xlink" xmlns:sketch="http://www.bohemiancoding.com/sketch/ns">
    <!-- Generator: Sketch 3.3 (11970) - http://www.bohemiancoding.com/sketch -->
    <title>apron</title>
    <desc>Created with Sketch.</desc>
    <defs></defs>
    <g id="Page-1" stroke="none" stroke-width="1" fill="none" fill-rule="evenodd" sketch:type="MSPage">
        <g id="Symbolicons-Color" sketch:type="MSArtboardGroup" transform="translate(-140.000000, -1092.000000)">
            <g id="apron" sketch:type="MSLayerGroup" transform="translate(140.000000, 1092.000000)">
                <path d="M5.003,19 L1.503,19 C0.676,19 0.003,19.673 0.003,20.5 C0.003,21.327 0.676,22 1.503,22 C1.607,22 1.652,22.02 1.652,22.02 L1.609,22.171 L0.556,24.276 L1.451,24.724 L2.503,22.618 C2.7,22.226 2.7,21.818 2.503,21.5 C2.307,21.183 1.943,21 1.503,21 C1.228,21 1.003,20.775 1.003,20.5 C1.003,20.225 1.228,20 1.503,20 L5.003,20 L5.003,19" id="Fill-274" fill="#921816" sketch:type="MSShapeGroup"></path>
                <path d="M23.003,20 L26.503,20 C26.779,20 27.003,20.225 27.003,20.5 C27.003,20.775 26.779,21 26.503,21 C26.064,21 25.7,21.183 25.503,21.5 C25.307,21.818 25.307,22.226 25.503,22.618 L26.556,24.724 L27.451,24.276 L26.398,22.171 L26.357,22.02 C26.357,22.02 26.4,22 26.503,22 C27.33,22 28.003,21.327 28.003,20.5 C28.003,19.673 27.33,19 26.503,19 L23.003,19 L23.003,20" id="Fill-275" fill="#921816" sketch:type="MSShapeGroup"></path>
                <path d="M24.003,19 L24.003,13.999 C21.795,13.999 20.003,12.209 20.003,10 L20.003,4 C20.003,1.799 18.203,0 16.003,0 L12.003,0 C9.803,0 8.003,1.799 8.003,4 L8.003,10 C8.003,12.209 6.213,13.999 4.003,13.999 L4.003,28 L24.003,28 L24.003,19 M10.003,4 C10.003,2.9 10.904,2 12.003,2 L16.003,2 C17.104,2 18.003,2.9 18.003,4 L18.003,10 L10.003,10 L10.003,4" id="Fill-276" fill="#C0392B" sketch:type="MSShapeGroup"></path>
                <path d="M7.003,16 L21.003,16 L21.003,25.001 L7.003,25.001 L7.003,16 Z" id="Fill-277" fill="#9F241B" sketch:type="MSShapeGroup"></path>
            </g>
        </g>
    </g>
</svg>