<?xml version="1.0" encoding="UTF-8" standalone="no"?>
<svg width="34px" height="30px" viewBox="0 0 34 30" version="1.1" xmlns="http://www.w3.org/2000/svg" xmlns:xlink="http://www.w3.org/1999/xlink" xmlns:sketch="http://www.bohemiancoding.com/sketch/ns">
    <!-- Generator: Sketch 3.3 (11970) - http://www.bohemiancoding.com/sketch -->
    <title>backpack</title>
    <desc>Created with Sketch.</desc>
    <defs></defs>
    <g id="Page-1" stroke="none" stroke-width="1" fill="none" fill-rule="evenodd" sketch:type="MSPage">
        <g id="Symbolicons-Color" sketch:type="MSArtboardGroup" transform="translate(-753.000000, -194.000000)">
            <g id="backpack" sketch:type="MSLayerGroup" transform="translate(753.000000, 194.000000)">
                <path d="M4.005,26.001 C3.883,26.001 3.761,25.995 3.638,25.984 C1.438,25.783 -0.184,23.837 0.017,21.638 L0.74,13.685 C0.94,11.484 2.901,9.865 5.086,10.064 C7.286,10.264 8.907,12.21 8.707,14.41 L7.983,22.362 C7.795,24.44 6.05,26.001 4.005,26.001" id="Fill-1" fill="#BE9664" sketch:type="MSShapeGroup"></path>
                <path d="M29.995,26.001 C27.949,26.001 26.205,24.439 26.017,22.362 L25.294,14.409 C25.094,12.21 26.715,10.264 28.915,10.064 C31.123,9.866 33.062,11.485 33.261,13.686 L33.983,21.638 C34.184,23.838 32.563,25.784 30.362,25.984 C30.239,25.995 30.116,26.001 29.995,26.001" id="Fill-2" fill="#BE9664" sketch:type="MSShapeGroup"></path>
                <path d="M25.475,30 L8.525,30 C5.567,30 3.255,26.935 3.55,23.403 L5,6 L29,6 L30.45,23.403 C30.745,26.935 28.433,30 25.475,30" id="Fill-3" fill="#A57D52" sketch:type="MSShapeGroup"></path>
                <path d="M22,27 L12,27 C10.343,27 9,25.657 9,24 L9,15 L25,15 L25,24 C25,25.657 23.657,27 22,27" id="Fill-4" fill="#BE9664" sketch:type="MSShapeGroup"></path>
                <path d="M27,8 L7,8 C5.343,8 4,6.657 4,5 L4,0 L30,0 L30,5 C30,6.657 28.657,8 27,8" id="Fill-5" fill="#8C5A3C" sketch:type="MSShapeGroup"></path>
                <path d="M10,18 L10,18 C8.896,18 8,17.104 8,16 L8,0 L12,0 L12,16 C12,17.104 11.105,18 10,18" id="Fill-946" fill="#503C1D" sketch:type="MSShapeGroup"></path>
                <path d="M24,18 L24,18 C22.896,18 22,17.104 22,16 L22,0 L26,0 L26,16 C26,17.104 25.104,18 24,18" id="Fill-947" fill="#503C1D" sketch:type="MSShapeGroup"></path>
                <path d="M8,14 L12,14 L12,10 L8,10 L8,14 Z M9,11 L11,11 L11,13 L9,13 L9,11 Z" id="Fill-948" fill="#ECECEC" sketch:type="MSShapeGroup"></path>
                <path d="M22,14 L26,14 L26,10 L22,10 L22,14 Z M23,11 L25,11 L25,13 L23,13 L23,11 Z" id="Fill-949" fill="#ECECEC" sketch:type="MSShapeGroup"></path>
            </g>
        </g>
    </g>
</svg>