<?xml version="1.0" encoding="UTF-8" standalone="no"?>
<svg width="28px" height="28px" viewBox="0 0 28 28" version="1.1" xmlns="http://www.w3.org/2000/svg" xmlns:xlink="http://www.w3.org/1999/xlink" xmlns:sketch="http://www.bohemiancoding.com/sketch/ns">
    <!-- Generator: Sketch 3.3 (11970) - http://www.bohemiancoding.com/sketch -->
    <title>baseball-bat</title>
    <desc>Created with Sketch.</desc>
    <defs></defs>
    <g id="Page-1" stroke="none" stroke-width="1" fill="none" fill-rule="evenodd" sketch:type="MSPage">
        <g id="Symbolicons-Color" sketch:type="MSArtboardGroup" transform="translate(-980.000000, -868.000000)">
            <g id="baseball-bat" sketch:type="MSLayerGroup" transform="translate(979.000000, 867.000000)">
                <path d="M11.242,21.875 L8.125,18.758 C7.327,19.969 5.318,23.046 2.707,25.171 L4.829,27.293 C6.954,24.682 10.031,22.674 11.242,21.875" id="Fill-800" fill="#BEBEBE" sketch:type="MSShapeGroup"></path>
                <path d="M4.829,27.293 L2.707,25.171 C2.317,24.78 1.683,24.781 1.293,25.171 C0.902,25.562 0.902,26.195 1.293,26.585 L3.415,28.707 C3.805,29.098 4.438,29.097 4.829,28.707 C5.219,28.316 5.219,27.683 4.829,27.293" id="Fill-801" fill="#A57D52" sketch:type="MSShapeGroup"></path>
                <path d="M8.468,18.205 C8.468,18.205 8.345,18.414 8.125,18.758 L11.242,21.875 C11.586,21.655 11.795,21.532 11.795,21.532 L14.201,20.068 C15.193,19.45 16.681,18.269 17.506,17.444 L28.401,6.545 C29.226,5.721 29.195,4.339 28.333,3.476 L26.523,1.667 C25.661,0.805 24.279,0.774 23.455,1.599 L12.556,12.494 C11.731,13.319 10.55,14.807 9.932,15.8 L8.468,18.205" id="Fill-802" fill="#A57D52" sketch:type="MSShapeGroup"></path>
                <path d="M4.155,23.834 C3.901,24.091 3.641,24.341 3.372,24.586 L6.209,25.802 C6.473,25.544 6.738,25.296 7.007,25.056 L4.155,23.834" id="Fill-803" fill="#8C8C8C" sketch:type="MSShapeGroup"></path>
                <path d="M6.665,20.869 C6.469,21.134 6.262,21.408 6.041,21.689 L9.409,23.133 C9.76,22.879 10.079,22.656 10.372,22.458 L6.665,20.869" id="Fill-804" fill="#8C8C8C" sketch:type="MSShapeGroup"></path>
            </g>
        </g>
    </g>
</svg>