<?xml version="1.0" encoding="UTF-8" standalone="no"?>
<svg width="28px" height="28px" viewBox="0 0 28 28" version="1.1" xmlns="http://www.w3.org/2000/svg" xmlns:xlink="http://www.w3.org/1999/xlink" xmlns:sketch="http://www.bohemiancoding.com/sketch/ns">
    <!-- Generator: Sketch 3.3 (11970) - http://www.bohemiancoding.com/sketch -->
    <title>bats</title>
    <desc>Created with Sketch.</desc>
    <defs></defs>
    <g id="Page-1" stroke="none" stroke-width="1" fill="none" fill-rule="evenodd" sketch:type="MSPage">
        <g id="Symbolicons-Color" sketch:type="MSArtboardGroup" transform="translate(-588.000000, -980.000000)">
            <g id="bats" sketch:type="MSLayerGroup" transform="translate(588.000000, 980.000000)">
                <path d="M24,16 L17,18 L16,14 L15,16 L13,16 L12,14 L11,18 L4,16 L0,28 L5,25 L8,28 L11,25 L14,28 L17,25 L20,28 L23,25 L28,28 L24,16" id="Fill-819" fill="#323232" sketch:type="MSShapeGroup"></path>
                <path d="M13.019,18.518 C12.742,18.518 12.519,18.295 12.519,18.019 C12.519,17.742 12.742,17.519 13.019,17.519 C13.295,17.519 13.519,17.742 13.519,18.019 C13.519,18.295 13.295,18.518 13.019,18.518" id="Fill-820" fill="#F1C40F" sketch:type="MSShapeGroup"></path>
                <path d="M14.981,18.518 C14.705,18.518 14.481,18.295 14.481,18.019 C14.481,17.742 14.705,17.519 14.981,17.519 C15.257,17.519 15.481,17.742 15.481,18.019 C15.481,18.295 15.257,18.518 14.981,18.518" id="Fill-821" fill="#F1C40F" sketch:type="MSShapeGroup"></path>
                <path d="M6.06,13.128 L7.575,10.099 L10.605,11.614 L12.12,8.584 L15.15,10.099 L16.666,7.07 L21.21,8.081 L15.151,0 L10.354,3.282 L8.587,0.504 L8.334,2.272 L6.819,2.776 L5.557,1.514 L5.809,4.796 L0.001,5.048 L0,15.148 L3.03,11.613 L6.06,13.128" id="Fill-822" fill="#505050" sketch:type="MSShapeGroup"></path>
                <path d="M8.703,3.427 C8.912,3.357 9.138,3.47 9.208,3.679 C9.278,3.888 9.165,4.115 8.956,4.184 C8.746,4.254 8.52,4.141 8.451,3.932 C8.381,3.722 8.494,3.496 8.703,3.427" id="Fill-823" fill="#F1C40F" sketch:type="MSShapeGroup"></path>
                <path d="M7.216,3.922 C7.425,3.852 7.651,3.966 7.721,4.174 C7.791,4.384 7.678,4.61 7.469,4.68 C7.259,4.749 7.033,4.636 6.964,4.427 C6.894,4.218 7.007,3.992 7.216,3.922" id="Fill-824" fill="#F1C40F" sketch:type="MSShapeGroup"></path>
            </g>
        </g>
    </g>
</svg>