<?xml version="1.0" encoding="UTF-8" standalone="no"?>
<svg width="20px" height="28px" viewBox="0 0 20 28" version="1.1" xmlns="http://www.w3.org/2000/svg" xmlns:xlink="http://www.w3.org/1999/xlink" xmlns:sketch="http://www.bohemiancoding.com/sketch/ns">
    <!-- Generator: Sketch 3.3 (11970) - http://www.bohemiancoding.com/sketch -->
    <title>beer-glass</title>
    <desc>Created with Sketch.</desc>
    <defs></defs>
    <g id="Page-1" stroke="none" stroke-width="1" fill="none" fill-rule="evenodd" sketch:type="MSPage">
        <g id="Symbolicons-Color" sketch:type="MSArtboardGroup" transform="translate(-88.000000, -644.000000)">
            <g id="beer-glass" sketch:type="MSLayerGroup" transform="translate(88.000000, 644.000000)">
                <path d="M0.476,6.001 L2.077,26.158 C2.159,27.198 3.027,28 4.07,28 L15.93,28 C16.973,28 17.841,27.198 17.924,26.158 L19.524,6.001 L0.476,6.001" id="Fill-961" fill="#F1C40F" sketch:type="MSShapeGroup"></path>
                <path d="M4,10.001 C3.744,10.001 3.488,10.098 3.293,10.293 C2.902,10.684 2.903,11.318 3.292,11.708 C3.487,11.903 3.743,12 3.999,12 C4.255,12 4.512,11.903 4.708,11.708 C5.097,11.318 5.096,10.683 4.706,10.293 C4.511,10.098 4.255,10.001 4,10.001" id="Fill-962" fill="#F9E287" sketch:type="MSShapeGroup"></path>
                <path d="M4.5,13.999 C4.116,13.999 3.733,14.146 3.44,14.439 C2.853,15.025 2.853,15.976 3.44,16.562 C3.733,16.854 4.116,17.001 4.5,17.001 C4.884,17.001 5.268,16.854 5.562,16.56 C6.148,15.975 6.148,15.024 5.563,14.44 C5.27,14.146 4.885,13.999 4.5,13.999" id="Fill-963" fill="#F9E287" sketch:type="MSShapeGroup"></path>
                <path d="M20,0 L0,0 L0.476,6 L11,6 L11,10 C11,10.552 11.448,11 12,11 C12.552,11 13,10.552 13,10 L13,7 C13,6.448 13.448,6 14,6 C14.552,6 15,6.448 15,7 L15,8 C15,8.552 15.448,9 16,9 C16.552,9 17,8.552 17,8 L17,6 L19.524,6 L20,0" id="Fill-964" fill="#ECECEC" sketch:type="MSShapeGroup"></path>
            </g>
        </g>
    </g>
</svg>