<?xml version="1.0" encoding="UTF-8" standalone="no"?>
<svg width="28px" height="28px" viewBox="0 0 28 28" version="1.1" xmlns="http://www.w3.org/2000/svg" xmlns:xlink="http://www.w3.org/1999/xlink" xmlns:sketch="http://www.bohemiancoding.com/sketch/ns">
    <!-- Generator: Sketch 3.3 (11970) - http://www.bohemiancoding.com/sketch -->
    <title>beer-bottles</title>
    <desc>Created with Sketch.</desc>
    <defs></defs>
    <g id="Page-1" stroke="none" stroke-width="1" fill="none" fill-rule="evenodd" sketch:type="MSPage">
        <g id="Symbolicons-Color" sketch:type="MSArtboardGroup" transform="translate(-196.000000, -308.000000)">
            <g id="beer-bottles" sketch:type="MSLayerGroup" transform="translate(196.000000, 308.000000)">
                <path d="M10,10 L9,2 L4,2 L3,10 C1.455,10.813 0,12.409 0,14 L0,25 C0,27 1,28 3,28 L10,28 C12,28 13,27 13,25 L13,14 C13,12.41 11.544,10.814 10,10" id="Fill-719" fill="#A57D52" sketch:type="MSShapeGroup"></path>
                <path d="M25,10 L24,2 L19,2 L18,10 C16.455,10.813 15,12.409 15,14 L15,25 C15,27 16,28 18,28 L25,28 C27,28 28,27 28,25 L28,14 C28,12.41 26.544,10.814 25,10" id="Fill-720" fill="#A57D52" sketch:type="MSShapeGroup"></path>
                <path d="M0,15 L13,15 L13,24 L0,24 L0,15 Z" id="Fill-721" fill="#8C5A3C" sketch:type="MSShapeGroup"></path>
                <path d="M15,15 L28,15 L28,24 L15,24 L15,15 Z" id="Fill-722" fill="#8C5A3C" sketch:type="MSShapeGroup"></path>
                <path d="M9,0 L4,0 C3.447,0 3,0.447 3,1 L3,2 C3,2.553 3.447,3 4,3 L9,3 C9.553,3 10,2.553 10,2 L10,1 C10,0.447 9.553,0 9,0" id="Fill-723" fill="#A0A0A0" sketch:type="MSShapeGroup"></path>
                <path d="M24,0 L19,0 C18.447,0 18,0.447 18,1 L18,2 C18,2.553 18.447,3 19,3 L24,3 C24.553,3 25,2.553 25,2 L25,1 C25,0.447 24.553,0 24,0" id="Fill-724" fill="#A0A0A0" sketch:type="MSShapeGroup"></path>
            </g>
        </g>
    </g>
</svg>