<?xml version="1.0" encoding="UTF-8" standalone="no"?>
<svg width="28px" height="28px" viewBox="0 0 28 28" version="1.1" xmlns="http://www.w3.org/2000/svg" xmlns:xlink="http://www.w3.org/1999/xlink" xmlns:sketch="http://www.bohemiancoding.com/sketch/ns">
    <!-- Generator: Sketch 3.3 (11970) - http://www.bohemiancoding.com/sketch -->
    <title>bicycle</title>
    <desc>Created with Sketch.</desc>
    <defs></defs>
    <g id="Page-1" stroke="none" stroke-width="1" fill="none" fill-rule="evenodd" sketch:type="MSPage">
        <g id="Symbolicons-Color" sketch:type="MSArtboardGroup" transform="translate(-252.000000, -196.000000)">
            <g id="bicycle" sketch:type="MSLayerGroup" transform="translate(252.000000, 196.000000)">
                <path d="M20.875,15 L19.844,12.687 L12.083,17.708 L5.375,15.458 L7.75,9.25 L6,6 L5,6 C4,6 4,4 5,4 L9,4 C10,4 10,6 9,6 L8.375,6 L8.937,7 L17.531,7 L16.375,4.344 C16.219,3.969 16.312,3.594 16.594,3.281 L17.844,2 L14,2 C13.438,2 13,1.563 13,1 C13,0.438 13.438,0 14,0 L20.344,0 C20.781,0 21.156,0.25 21.312,0.656 C21.469,1.031 21.375,1.469 21.094,1.781 L18.562,4.312 L23.083,15.083 L20.875,15 L20.875,15 Z M11.083,16.375 L9.125,11.781 L7.625,15.083 C8.688,15.271 10.271,15.781 11.083,16.375 L11.083,16.375 Z M19.031,10.563 L18.406,9 L10.094,9 L12.656,14.781 L19.031,10.563 L19.031,10.563 Z" id="Fill-47" fill="#A0A0A0" sketch:type="MSShapeGroup"></path>
                <path d="M21.25,17.5 C23.318,17.5 25,19.182 25,21.25 C25,23.318 23.318,25 21.25,25 C19.182,25 17.5,23.318 17.5,21.25 C17.5,19.182 19.182,17.5 21.25,17.5 M21.25,14.5 C17.522,14.5 14.5,17.522 14.5,21.25 C14.5,24.978 17.522,28 21.25,28 C24.978,28 28,24.978 28,21.25 C28,17.522 24.978,14.5 21.25,14.5" id="Fill-48" fill="#505050" sketch:type="MSShapeGroup"></path>
                <path d="M6.75,17.5 C8.818,17.5 10.5,19.182 10.5,21.25 C10.5,23.318 8.818,25 6.75,25 C4.682,25 3,23.318 3,21.25 C3,19.182 4.682,17.5 6.75,17.5 M6.75,14.5 C3.022,14.5 0,17.522 0,21.25 C0,24.978 3.022,28 6.75,28 C10.478,28 13.5,24.978 13.5,21.25 C13.5,17.522 10.478,14.5 6.75,14.5" id="Fill-49" fill="#505050" sketch:type="MSShapeGroup"></path>
                <path d="M10,5 C10,5.552 9.552,6 9,6 L5,6 C4.448,6 4,5.552 4,5 C4,4.448 4.448,4 5,4 L9,4 C9.552,4 10,4.448 10,5" id="Fill-50" fill="#505050" sketch:type="MSShapeGroup"></path>
            </g>
        </g>
    </g>
</svg>