<?xml version="1.0" encoding="UTF-8" standalone="no"?>
<svg width="28px" height="27px" viewBox="0 0 28 27" version="1.1" xmlns="http://www.w3.org/2000/svg" xmlns:xlink="http://www.w3.org/1999/xlink" xmlns:sketch="http://www.bohemiancoding.com/sketch/ns">
    <!-- Generator: Sketch 3.3 (11970) - http://www.bohemiancoding.com/sketch -->
    <title>binoculars</title>
    <desc>Created with Sketch.</desc>
    <defs></defs>
    <g id="Page-1" stroke="none" stroke-width="1" fill="none" fill-rule="evenodd" sketch:type="MSPage">
        <g id="Symbolicons-Color" sketch:type="MSArtboardGroup" transform="translate(-980.000000, -197.000000)">
            <g id="binoculars" sketch:type="MSLayerGroup" transform="translate(980.000000, 197.000000)">
                <path d="M8,6 L19,6 L19,14 L8,14 L8,6 Z" id="Fill-8" fill="#323232" sketch:type="MSShapeGroup"></path>
                <path d="M6,4 L12,4 L12,0 L6,0 L6,4 Z" id="Fill-927" fill="#323232" sketch:type="MSShapeGroup"></path>
                <path d="M11,16 C11.53,16 12,15.493 12,15 L12,4 L4,4 L0,19 L0,26 C0,26.476 0.488,27 1,27 L9,27 C9.521,27 10,26.476 10,26 L10,16" id="Fill-928" fill="#505050" sketch:type="MSShapeGroup"></path>
                <path d="M16,0 L16,4 L22,4 L22,0 L16,0" id="Fill-929" fill="#323232" sketch:type="MSShapeGroup"></path>
                <path d="M18,16 L18,26 C18,26.476 18.479,27 19,27 L27,27 C27.512,27 28,26.476 28,26 L28,19 L24,4 L16,4 L16,15 C16,15.493 16.47,16 17,16" id="Fill-930" fill="#505050" sketch:type="MSShapeGroup"></path>
            </g>
        </g>
    </g>
</svg>