<?xml version="1.0" encoding="UTF-8" standalone="no"?>
<svg width="26px" height="28px" viewBox="0 0 26 28" version="1.1" xmlns="http://www.w3.org/2000/svg" xmlns:xlink="http://www.w3.org/1999/xlink" xmlns:sketch="http://www.bohemiancoding.com/sketch/ns">
    <!-- Generator: Sketch 3.3 (11970) - http://www.bohemiancoding.com/sketch -->
    <title>birthday-cake</title>
    <desc>Created with Sketch.</desc>
    <defs></defs>
    <g id="Page-1" stroke="none" stroke-width="1" fill="none" fill-rule="evenodd" sketch:type="MSPage">
        <g id="Symbolicons-Color" sketch:type="MSArtboardGroup" transform="translate(-85.000000, -868.000000)">
            <g id="birthday-cake" sketch:type="MSLayerGroup" transform="translate(85.000000, 868.000000)">
                <path d="M6,7 L8,7 L8,12 L6,12 L6,7 Z" id="Fill-67" fill="#ECECEC" sketch:type="MSShapeGroup"></path>
                <path d="M12,7 L14,7 L14,12 L12,12 L12,7 Z" id="Fill-68" fill="#ECECEC" sketch:type="MSShapeGroup"></path>
                <path d="M18,7 L20,7 L20,12 L18,12 L18,7 Z" id="Fill-69" fill="#ECECEC" sketch:type="MSShapeGroup"></path>
                <path d="M1,15 L25,15 L25,28 L1,28 L1,15 Z" id="Fill-70" fill="#BE9664" sketch:type="MSShapeGroup"></path>
                <path d="M5,5.5 C5,4.188 7,0 7,0 C7,0 9,4.188 9,5.5 C9,6.844 8.094,8 7,8 C5.906,8 5,6.844 5,5.5" id="Fill-71" fill="#F39C12" sketch:type="MSShapeGroup"></path>
                <path d="M11,5.5 C11,4.188 13,0 13,0 C13,0 15,4.188 15,5.5 C15,6.844 14.094,8 13,8 C11.906,8 11,6.844 11,5.5" id="Fill-72" fill="#F39C12" sketch:type="MSShapeGroup"></path>
                <path d="M17,5.5 C17,4.188 19,0 19,0 C19,0 21,4.188 21,5.5 C21,6.844 20.094,8 19,8 C17.906,8 17,6.844 17,5.5" id="Fill-73" fill="#F39C12" sketch:type="MSShapeGroup"></path>
                <path d="M23,11 L3,11 C0.799,11 0,12.794 0,14 L0,16 C0,16.552 0.448,17 1,17 C1.562,17 1.802,17.217 2.292,17.707 C2.837,18.253 3.584,19 4.998,19 C6.412,19 7.158,18.252 7.704,17.707 C8.194,17.217 8.434,17 8.995,17 C9.556,17 9.796,17.217 10.286,17.707 C10.832,18.253 11.578,19 12.992,19 C14.406,19 15.153,18.253 15.698,17.707 C16.188,17.217 16.429,17 16.99,17 C17.554,17 17.795,17.217 18.286,17.707 C18.832,18.253 19.58,19 20.995,19 C22.41,19 23.158,18.253 23.704,17.707 C24.196,17.217 24.437,17 25,17 C25.552,17 26,16.552 26,16 L26,14 C26,11.799 24.206,11 23,11" id="Fill-74" fill="#8C5A3C" sketch:type="MSShapeGroup"></path>
            </g>
        </g>
    </g>
</svg>