<?xml version="1.0" encoding="UTF-8" standalone="no"?>
<svg width="28px" height="28px" viewBox="0 0 28 28" version="1.1" xmlns="http://www.w3.org/2000/svg" xmlns:xlink="http://www.w3.org/1999/xlink" xmlns:sketch="http://www.bohemiancoding.com/sketch/ns">
    <!-- Generator: Sketch 3.3 (11970) - http://www.bohemiancoding.com/sketch -->
    <title>car</title>
    <desc>Created with Sketch.</desc>
    <defs></defs>
    <g id="Page-1" stroke="none" stroke-width="1" fill="none" fill-rule="evenodd" sketch:type="MSPage">
        <g id="Symbolicons-Color" sketch:type="MSArtboardGroup" transform="translate(-980.000000, -980.000000)">
            <g id="car" sketch:type="MSLayerGroup" transform="translate(980.000000, 980.000000)">
                <path d="M19,0 L9,0 C5.7,0 3,2.7 3,6 L3,15 C3,18.3 5.7,21 9,21 L19,21 C22.3,21 25,18.3 25,15 L25,6 C25,2.7 22.3,0 19,0" id="Fill-1035" fill="#1EAAE1" sketch:type="MSShapeGroup"></path>
                <path d="M19,2 C21.206,2 23,3.795 23,6 L23,15 C23,17.206 21.206,19 19,19 L9,19 C6.794,19 5,17.206 5,15 L5,6 C5,3.795 6.794,2 9,2 L19,2" id="Fill-1036" fill="#ECECEC" sketch:type="MSShapeGroup"></path>
                <path d="M24,13 L4,13 C1.8,13 0,14.8 0,17 L0,23 L28,23 L28,17 C28,14.8 26.2,13 24,13" id="Fill-1037" fill="#1EAAE1" sketch:type="MSShapeGroup"></path>
                <path d="M3,26.198 C3,27.399 4,28 5,28 C6,28 7,27.399 7,26.198 L7,23 L3,23 L3,26.198" id="Fill-1038" fill="#505050" sketch:type="MSShapeGroup"></path>
                <path d="M21,26.198 C21,27.399 22,28 23,28 C24,28 25,27.399 25,26.198 L25,23 L21,23 L21,26.198" id="Fill-1039" fill="#505050" sketch:type="MSShapeGroup"></path>
                <path d="M5,20.5 C3.896,20.5 3,19.604 3,18.5 C3,17.396 3.896,16.5 5,16.5 C6.104,16.5 7,17.396 7,18.5 C7,19.604 6.104,20.5 5,20.5" id="Fill-1040" fill="#F1C40F" sketch:type="MSShapeGroup"></path>
                <path d="M23,20.5 C21.896,20.5 21,19.604 21,18.5 C21,17.396 21.896,16.5 23,16.5 C24.104,16.5 25,17.396 25,18.5 C25,19.604 24.104,20.5 23,20.5" id="Fill-1041" fill="#F1C40F" sketch:type="MSShapeGroup"></path>
                <path d="M18,11 C19.103,11 20,11.897 20,13 L22,13 C22,10.794 20.206,9 18,9 C15.794,9 14,10.794 14,13 L16,13 C16,11.897 16.897,11 18,11" id="Fill-1042" fill="#A0A0A0" sketch:type="MSShapeGroup"></path>
            </g>
        </g>
    </g>
</svg>