<?xml version="1.0" encoding="UTF-8" standalone="no"?>
<svg width="28px" height="28px" viewBox="0 0 28 28" version="1.1" xmlns="http://www.w3.org/2000/svg" xmlns:xlink="http://www.w3.org/1999/xlink" xmlns:sketch="http://www.bohemiancoding.com/sketch/ns">
    <!-- Generator: Sketch 3.3 (11970) - http://www.bohemiancoding.com/sketch -->
    <title>cat</title>
    <desc>Created with Sketch.</desc>
    <defs></defs>
    <g id="Page-1" stroke="none" stroke-width="1" fill="none" fill-rule="evenodd" sketch:type="MSPage">
        <g id="Symbolicons-Color" sketch:type="MSArtboardGroup" transform="translate(-476.000000, -980.000000)">
            <g id="cat" sketch:type="MSLayerGroup" transform="translate(476.000000, 980.000000)">
                <path d="M28,5 L20,3 L17,0 L17,10 L15.292,10 C9.608,10 5,15.149 5,21.5 C5,21.668 5.011,21.833 5.017,22 L3.5,22 C3.229,22 3,21.771 3,21.5 L3,17.5 C3,16.804 3.482,15.639 3.975,15.147 L5.647,13.474 C6.964,12.158 7.101,9.973 5.956,8.5 L3.684,5.579 C3.175,4.926 2.232,4.808 1.579,5.316 C0.925,5.824 0.808,6.767 1.316,7.421 L3.587,10.341 C3.797,10.611 3.767,11.112 3.526,11.353 L1.854,13.025 C0.797,14.081 0,16.005 0,17.5 L0,21.5 C0,23.43 1.57,25 3.5,25 L5.489,25 C5.797,26.077 6.243,27.087 6.805,28 L13,28 L14,24 L22.035,20.111 L24,28 L28,28 L23.994,10 C27,10 28,7 28,5" id="Fill-219" fill="#E67E22" sketch:type="MSShapeGroup"></path>
                <path d="M11,18 C10.298,18 9.626,18.127 9,18.349 L9,28 L15.463,28 C16.416,26.938 17,25.539 17,24 C17,20.686 14.314,18 11,18" id="Fill-220" fill="#D35400" sketch:type="MSShapeGroup"></path>
                <path d="M17,24 L15,24 C15,20.686 12.314,18 9,18 L9,28 L21,28 C21,25.791 19.209,24 17,24" id="Fill-221" fill="#E67E22" sketch:type="MSShapeGroup"></path>
                <path d="M22,5 C22.553,5 23,5.447 23,6 C23,6.553 22.553,7 22,7 C21.447,7 21,6.553 21,6 C21,5.447 21.447,5 22,5" id="Fill-222" fill="#FFFFFF" sketch:type="MSShapeGroup"></path>
            </g>
        </g>
    </g>
</svg>