<?xml version="1.0" encoding="UTF-8" standalone="no"?>
<svg width="26px" height="28px" viewBox="0 0 26 28" version="1.1" xmlns="http://www.w3.org/2000/svg" xmlns:xlink="http://www.w3.org/1999/xlink" xmlns:sketch="http://www.bohemiancoding.com/sketch/ns">
    <!-- Generator: Sketch 3.3 (11970) - http://www.bohemiancoding.com/sketch -->
    <title>doctor</title>
    <desc>Created with Sketch.</desc>
    <defs></defs>
    <g id="Page-1" stroke="none" stroke-width="1" fill="none" fill-rule="evenodd" sketch:type="MSPage">
        <g id="Symbolicons-Color" sketch:type="MSArtboardGroup" transform="translate(-869.000000, -476.000000)">
            <g id="doctor" sketch:type="MSLayerGroup" transform="translate(869.000000, 476.000000)">
                <path d="M8,18 L13,28 L18,18" id="Fill-1010" fill="#BEE6FA" sketch:type="MSShapeGroup"></path>
                <path d="M15.684,28 L14,21 L13,19.615 L12,21 L10.316,28 L15.684,28" id="Fill-1011" fill="#C0392B" sketch:type="MSShapeGroup"></path>
                <path d="M6,18 C6,18 0,21 0,28 L13,28 L8,18 L6,18" id="Fill-1012" fill="#ECECEC" sketch:type="MSShapeGroup"></path>
                <path d="M20,18 L18,18 L13,28 L26,28 C26,21 20,18 20,18" id="Fill-1013" fill="#ECECEC" sketch:type="MSShapeGroup"></path>
                <path d="M13,16 C14,16 19,14.142 19,10 L19,6 C19,2.686 16.314,0 13,0 C9.688,0 7,2.686 7,6 L7,10 C7,14.142 12,16 13,16" id="Fill-1014" fill="#BE9664" sketch:type="MSShapeGroup"></path>
                <path d="M15,20.25 C15,20.663 14.7,21 14.333,21 L11.667,21 C11.3,21 11,20.663 11,20.25 L11,18.75 C11,18.337 11.3,18 11.667,18 L14.333,18 C14.7,18 15,18.337 15,18.75 L15,20.25" id="Fill-1015" fill="#C0392B" sketch:type="MSShapeGroup"></path>
                <path d="M9.571,21 L6,18 L7,16 L12,18 L9.571,21" id="Fill-1016" fill="#BEBEBE" sketch:type="MSShapeGroup"></path>
                <path d="M16.429,21 L20,18 L19,16 L14,18 L16.429,21" id="Fill-1017" fill="#BEBEBE" sketch:type="MSShapeGroup"></path>
                <path id="Fill-1018" fill="#C0392B" sketch:type="MSShapeGroup"></path>
                <path d="M22,26 C22,26.552 21.552,27 21,27 L18,27 C17.448,27 17,26.552 17,26 L17,25 C17,24.448 17.448,24 18,24 L21,24 C21.552,24 22,24.448 22,25 L22,26" id="Fill-1019" fill="#8C8C8C" sketch:type="MSShapeGroup"></path>
            </g>
        </g>
    </g>
</svg>