<?xml version="1.0" encoding="UTF-8" standalone="no"?>
<svg width="28px" height="28px" viewBox="0 0 28 28" version="1.1" xmlns="http://www.w3.org/2000/svg" xmlns:xlink="http://www.w3.org/1999/xlink" xmlns:sketch="http://www.bohemiancoding.com/sketch/ns">
    <!-- Generator: Sketch 3.3 (11970) - http://www.bohemiancoding.com/sketch -->
    <title>earth</title>
    <desc>Created with Sketch.</desc>
    <defs></defs>
    <g id="Page-1" stroke="none" stroke-width="1" fill="none" fill-rule="evenodd" sketch:type="MSPage">
        <g id="Symbolicons-Color" sketch:type="MSArtboardGroup" transform="translate(-84.000000, -588.000000)">
            <g id="earth" sketch:type="MSLayerGroup" transform="translate(84.000000, 588.000000)">
                <path d="M28,14 C28,21.732 21.732,28 14,28 C6.268,28 0,21.732 0,14 C0,6.268 6.268,0 14,0 C21.732,0 28,6.268 28,14" id="Fill-51" fill="#1EAAE1" sketch:type="MSShapeGroup"></path>
                <path d="M18.31,12.374 C16.332,11.249 13.142,13.218 12.09,10.593 C11.707,9.625 11.707,8.75 12.664,8.281 C13.334,7.937 14.705,7.906 15.215,8.531 C15.63,9.031 15.63,10.781 16.3,9.093 C16.683,8.031 16.619,7.562 17.512,6.656 C18.055,6.093 19.139,5.031 18.246,4.218 C17.353,3.374 16.779,4.968 15.758,4.687 C15.63,3.718 16.555,3.031 16.524,2.156 C16.46,0.968 14.929,1.343 14.067,1.625 C13.397,1.812 11.994,3.312 11.42,2.249 C11.054,1.563 12.048,0.765 12.417,0.096 C9.542,0.419 6.935,1.616 4.858,3.413 C5.752,4.229 6.162,5.541 6.22,6.625 C6.284,7.499 6.061,8.531 6.348,9.312 C6.795,10.531 7.178,9.531 8.198,9.656 C9.602,9.812 12.281,11.156 11.42,12.5 C10.941,13.281 10.272,13.406 10.208,14.437 C10.112,15.749 11.069,16 11.834,16.812 C13.461,18.5 12.536,21.593 13.972,23.093 L14.641,23.624 C15.215,24.749 16.619,21.875 16.747,21.562 C16.938,21.093 16.842,20.531 17.066,20.125 C17.512,19.375 18.533,18.843 19.044,18.406 C20.574,17.093 20.16,13.406 18.31,12.374" id="Fill-52" fill="#8CBE3C" sketch:type="MSShapeGroup"></path>
            </g>
        </g>
    </g>
</svg>