<?xml version="1.0" encoding="UTF-8" standalone="no"?>
<svg width="28px" height="28px" viewBox="0 0 28 28" version="1.1" xmlns="http://www.w3.org/2000/svg" xmlns:xlink="http://www.w3.org/1999/xlink" xmlns:sketch="http://www.bohemiancoding.com/sketch/ns">
    <!-- Generator: Sketch 3.3 (11970) - http://www.bohemiancoding.com/sketch -->
    <title>fire</title>
    <desc>Created with Sketch.</desc>
    <defs></defs>
    <g id="Page-1" stroke="none" stroke-width="1" fill="none" fill-rule="evenodd" sketch:type="MSPage">
        <g id="Symbolicons-Color" sketch:type="MSArtboardGroup" transform="translate(-140.000000, -1036.000000)">
            <g id="fire" sketch:type="MSLayerGroup" transform="translate(140.000000, 1036.000000)">
                <path d="M18.404,5.6 C18.851,7.614 18.534,9.118 17.865,10.409 C16.04,6.859 12.923,3.281 8.003,0 C10.003,9 0.003,9.986 0.003,19 C0.003,24 5.003,28 10.003,28 L20.003,28 C24.803,28 28.003,24.8 28.003,20.8 C28.003,16 25.603,10.401 18.404,5.6" id="Fill-260" fill="#E67E22" sketch:type="MSShapeGroup"></path>
                <path d="M19.003,22.681 C17.077,22.681 17.006,18.155 17.003,17 C16.007,17.998 15.254,19.038 14.751,20.11 C14.304,17.985 13.256,15.933 11.628,14 C11.625,15.54 11.545,21.574 9.378,21.574 C8.389,21.574 7.835,20.314 7.525,18.796 C6.525,20.01 6.003,21.006 6.003,22.459 C6.003,24.213 8.275,26 10.503,26 L18.003,26 C19.985,26 22.003,24.661 22.003,23.344 C22.003,22.254 21.541,21.508 20.651,20.597 C20.375,21.735 19.882,22.681 19.003,22.681" id="Fill-261" fill="#F1C40F" sketch:type="MSShapeGroup"></path>
            </g>
        </g>
    </g>
</svg>