<?xml version="1.0" encoding="UTF-8" standalone="no"?>
<svg width="28px" height="28px" viewBox="0 0 28 28" version="1.1" xmlns="http://www.w3.org/2000/svg" xmlns:xlink="http://www.w3.org/1999/xlink" xmlns:sketch="http://www.bohemiancoding.com/sketch/ns">
    <!-- Generator: Sketch 3.3 (11970) - http://www.bohemiancoding.com/sketch -->
    <title>flashlight</title>
    <desc>Created with Sketch.</desc>
    <defs></defs>
    <g id="Page-1" stroke="none" stroke-width="1" fill="none" fill-rule="evenodd" sketch:type="MSPage">
        <g id="Symbolicons-Color" sketch:type="MSArtboardGroup" transform="translate(-924.000000, -308.000000)">
            <g id="flashlight" sketch:type="MSLayerGroup" transform="translate(924.000000, 308.000000)">
                <path d="M4.999,28 L0,23.001 L14.001,8.999 L19,14 L4.999,28" id="Fill-465" fill="#F1C40F" sketch:type="MSShapeGroup"></path>
                <path d="M17,2 L14,5.001 C13.001,6 13.001,8.001 13.001,8.001 L13.001,10.001 L18,15 L20,15 C20,15 22,15 23,14.001 L26,11 L17,2" id="Fill-466" fill="#F1C40F" sketch:type="MSShapeGroup"></path>
                <path d="M19,0 L17,2 L26,11 L28,9 L19,0" id="Fill-467" fill="#323232" sketch:type="MSShapeGroup"></path>
                <path d="M14.569,13.432 C15.144,14.019 15.144,14.982 14.569,15.569 C13.982,16.144 13.018,16.144 12.431,15.569 C11.856,14.982 11.856,14.019 12.431,13.432 C13.018,12.856 13.982,12.856 14.569,13.432" id="Fill-468" fill="#323232" sketch:type="MSShapeGroup"></path>
            </g>
        </g>
    </g>
</svg>