<?xml version="1.0" encoding="UTF-8" standalone="no"?>
<svg width="28px" height="28px" viewBox="0 0 28 28" version="1.1" xmlns="http://www.w3.org/2000/svg" xmlns:xlink="http://www.w3.org/1999/xlink" xmlns:sketch="http://www.bohemiancoding.com/sketch/ns">
    <!-- Generator: Sketch 3.3 (11970) - http://www.bohemiancoding.com/sketch -->
    <title>glasses</title>
    <desc>Created with Sketch.</desc>
    <defs></defs>
    <g id="Page-1" stroke="none" stroke-width="1" fill="none" fill-rule="evenodd" sketch:type="MSPage">
        <g id="Symbolicons-Color" sketch:type="MSArtboardGroup" transform="translate(-84.000000, -252.000000)">
            <g id="glasses" sketch:type="MSLayerGroup" transform="translate(84.000000, 252.000000)">
                <path d="M6.045,3.623 C6.169,3.103 6.489,2.663 6.944,2.384 C7.4,2.103 7.936,2.019 8.456,2.144 C8.976,2.269 9.415,2.588 9.694,3.043 C9.974,3.498 10.06,4.035 9.935,4.556 C9.806,5.093 10.138,5.632 10.675,5.761 C11.213,5.89 11.751,5.558 11.88,5.02 C12.129,3.981 11.958,2.908 11.399,1.998 C10.841,1.087 9.961,0.448 8.922,0.199 C7.879,-0.049 6.808,0.12 5.898,0.679 C4.988,1.237 4.35,2.117 4.1,3.156 L0,19.016 L3,17 L6.045,3.623" id="Fill-437" fill="#BEBEBE" sketch:type="MSShapeGroup"></path>
                <path d="M17.325,5.761 C17.862,5.632 18.194,5.093 18.065,4.556 C17.94,4.035 18.026,3.498 18.306,3.043 C18.585,2.588 19.024,2.269 19.544,2.144 C20.064,2.019 20.6,2.103 21.056,2.384 C21.511,2.663 21.831,3.103 21.955,3.623 L25,17 L28,19.016 L23.9,3.156 C23.65,2.117 23.012,1.237 22.102,0.679 C21.192,0.12 20.121,-0.049 19.078,0.199 C18.039,0.448 17.159,1.087 16.601,1.998 C16.042,2.908 15.871,3.981 16.12,5.02 C16.249,5.558 16.787,5.89 17.325,5.761" id="Fill-438" fill="#BEBEBE" sketch:type="MSShapeGroup"></path>
                <path d="M26,17 L18.117,17 C16.684,17 15.482,17.956 15.121,19.239 C14.774,19.098 14.396,19.016 14,19.016 C13.604,19.016 13.226,19.098 12.879,19.239 C12.518,17.956 11.316,17 9.883,17 L2,17 C0.895,17 0,17.902 0,19.016 L0,19.52 L0.013,19.52 C0.017,19.67 0.02,19.819 0.05,19.975 L1.012,25.114 C1.319,26.75 2.973,28 4.687,28 L9.883,28 C11.598,28 13,26.639 13,24.976 L13,22.04 C13,21.484 13.448,21.032 14,21.032 C14.552,21.032 15,21.484 15,22.04 L15,25.064 C15,26.728 16.402,28 18.117,28 L23.313,28 C25.027,28 26.681,26.75 26.988,25.114 L27.95,19.975 C27.98,19.819 27.983,19.67 27.987,19.52 L28,19.52 L28,19.016 C28,17.902 27.105,17 26,17" id="Fill-439" fill="#505050" sketch:type="MSShapeGroup"></path>
                <path d="M10.662,24.056 C10.662,24.888 9.961,25.568 9.104,25.568 L4.966,25.568 C4.108,25.568 3.263,24.903 3.085,24.089 L2.412,21 C2.234,20.185 2.791,19.52 3.648,19.52 L9.104,19.52 C9.961,19.52 10.662,20.2 10.662,21.032 L10.662,24.056" id="Fill-440" fill="#BEE6FA" sketch:type="MSShapeGroup"></path>
                <path d="M25.588,21 L24.915,24.089 C24.737,24.903 23.892,25.568 23.034,25.568 L18.896,25.568 C18.039,25.568 17.338,24.888 17.338,24.056 L17.338,21.032 C17.338,20.2 18.039,19.52 18.896,19.52 L24.352,19.52 C25.209,19.52 25.766,20.185 25.588,21" id="Fill-441" fill="#BEE6FA" sketch:type="MSShapeGroup"></path>
            </g>
        </g>
    </g>
</svg>