<?xml version="1.0" encoding="UTF-8" standalone="no"?>
<svg width="23px" height="28px" viewBox="0 0 23 28" version="1.1" xmlns="http://www.w3.org/2000/svg" xmlns:xlink="http://www.w3.org/1999/xlink" xmlns:sketch="http://www.bohemiancoding.com/sketch/ns">
    <!-- Generator: Sketch 3.3 (11970) - http://www.bohemiancoding.com/sketch -->
    <title>globe</title>
    <desc>Created with Sketch.</desc>
    <defs></defs>
    <g id="Page-1" stroke="none" stroke-width="1" fill="none" fill-rule="evenodd" sketch:type="MSPage">
        <g id="Symbolicons-Color" sketch:type="MSArtboardGroup" transform="translate(-647.000000, -588.000000)">
            <g id="globe" sketch:type="MSLayerGroup" transform="translate(646.000000, 587.000000)">
                <path d="M4,29 L24,29 C23.136,27.323 19.511,26.353 16,26.081 L16,22.454 C17.412,21.837 18.715,20.962 19.838,19.839 C22.199,17.479 23.5,14.34 23.5,11.001 C23.5,7.662 22.199,4.523 19.838,2.162 L18.424,3.576 C20.407,5.56 21.5,8.196 21.5,11.001 C21.5,13.805 20.407,16.442 18.424,18.425 C16.44,20.408 13.804,21.501 11,21.501 C8.193,21.501 5.558,20.409 3.576,18.426 L2.162,19.839 C4.521,22.2 7.659,23.501 11,23.501 C11.336,23.501 11.669,23.478 12,23.452 L12,26.083 C8.482,26.361 4.838,27.349 4,29" id="Fill-796" fill="#323232" sketch:type="MSShapeGroup"></path>
                <path d="M2,21 C1.744,21 1.488,20.903 1.293,20.707 C0.902,20.317 0.902,19.684 1.293,19.293 L19.293,1.293 C19.684,0.902 20.316,0.902 20.707,1.293 C21.098,1.684 21.098,2.317 20.707,2.707 L2.707,20.707 C2.512,20.903 2.256,21 2,21" id="Fill-797" fill="#8C8C8C" sketch:type="MSShapeGroup"></path>
                <path d="M4.636,17.302 C6.266,18.932 8.514,19.938 10.999,19.938 C15.97,19.939 20,15.909 19.999,10.938 C19.999,8.452 18.994,6.204 17.364,4.574 C15.736,2.946 13.485,1.938 11,1.939 C6.029,1.938 2,5.968 2,10.939 C1.999,13.423 3.008,15.674 4.636,17.302" id="Fill-798" fill="#1EAAE1" sketch:type="MSShapeGroup"></path>
                <path d="M18.581,8.666 C18.803,7.969 18.922,7.317 18.948,6.718 C18.775,6.394 18.581,6.083 18.371,5.783 C18.511,6.557 18.421,7.49 18.087,8.541 C17.478,10.456 16.163,12.432 14.528,14.112 L11.354,10.938 L17.532,4.759 L17.364,4.574 L17.179,4.406 L11,10.585 L7.826,7.411 C9.506,5.775 11.482,4.46 13.397,3.851 C14.447,3.516 15.38,3.427 16.154,3.566 C15.854,3.357 15.543,3.163 15.219,2.99 C14.62,3.016 13.969,3.135 13.272,3.357 C11.28,3.991 9.224,5.36 7.477,7.062 L4.821,4.406 C4.7,4.52 4.582,4.638 4.468,4.759 L7.124,7.415 C5.422,9.162 4.052,11.218 3.419,13.211 C3.197,13.907 3.078,14.558 3.052,15.157 C3.225,15.482 3.418,15.792 3.628,16.092 C3.489,15.319 3.578,14.385 3.913,13.335 C4.522,11.42 5.837,9.444 7.473,7.764 L10.646,10.938 L4.468,17.117 L4.636,17.302 L4.821,17.47 L11,11.292 L14.174,14.466 C12.494,16.101 10.518,17.416 8.603,18.026 C7.552,18.36 6.619,18.449 5.845,18.309 C6.145,18.519 6.456,18.713 6.78,18.885 C7.379,18.86 8.031,18.741 8.727,18.52 C10.72,17.886 12.776,16.517 14.523,14.814 L17.179,17.471 C17.3,17.356 17.418,17.238 17.533,17.117 L14.876,14.461 C16.578,12.714 17.947,10.658 18.581,8.666" id="Fill-799" fill="#2980B9" sketch:type="MSShapeGroup"></path>
            </g>
        </g>
    </g>
</svg>