<?xml version="1.0" encoding="UTF-8" standalone="no"?>
<svg width="28px" height="28px" viewBox="0 0 28 28" version="1.1" xmlns="http://www.w3.org/2000/svg" xmlns:xlink="http://www.w3.org/1999/xlink" xmlns:sketch="http://www.bohemiancoding.com/sketch/ns">
    <!-- Generator: Sketch 3.3 (11970) - http://www.bohemiancoding.com/sketch -->
    <title>hot-pepper</title>
    <desc>Created with Sketch.</desc>
    <defs></defs>
    <g id="Page-1" stroke="none" stroke-width="1" fill="none" fill-rule="evenodd" sketch:type="MSPage">
        <g id="Symbolicons-Color" sketch:type="MSArtboardGroup" transform="translate(-644.000000, -868.000000)">
            <g id="hot-pepper" sketch:type="MSLayerGroup" transform="translate(644.000000, 868.000000)">
                <path d="M27.921,1.981 C26.749,-0.22 23.443,-0.564 21.536,0.835 C20.57,1.615 20.252,2.614 19.968,3.745 C19.886,5.041 17.996,4.982 17.996,6.016 L23.996,6.016 C23.996,5.227 22.915,5.178 22.454,4.772 C21.57,3.993 22.309,2.365 23.164,1.907 C24.025,1.515 25.22,1.409 26.074,1.897 C26.438,2.078 26.87,2.644 26.87,2.644 C27.314,3.221 28.282,2.642 27.921,1.981" id="Fill-1083" fill="#8CBE3C" sketch:type="MSShapeGroup"></path>
                <path d="M23.996,6.01 C22.277,6.01 17.996,6 17.996,6 C17.877,6.023 17.517,6.125 17.103,6.51 C15.869,7.657 15.352,10.129 15.324,11.78 C15.195,19.338 7.882,23.395 1.268,24.736 C-0.236,25.041 -0.498,27.175 1.003,27.702 C2.249,28.139 3.969,27.975 5.259,27.944 C9.088,27.851 12.952,27.047 16.368,25.281 C20.046,23.38 23.004,20.355 24.863,16.661 C26.215,13.974 27.452,9.807 25.346,7.136 C25.006,6.706 24.64,6.264 23.996,6.01" id="Fill-1084" fill="#921816" sketch:type="MSShapeGroup"></path>
            </g>
        </g>
    </g>
</svg>