<?xml version="1.0" encoding="UTF-8" standalone="no"?>
<svg width="28px" height="28px" viewBox="0 0 28 28" version="1.1" xmlns="http://www.w3.org/2000/svg" xmlns:xlink="http://www.w3.org/1999/xlink" xmlns:sketch="http://www.bohemiancoding.com/sketch/ns">
    <!-- Generator: Sketch 3.3 (11970) - http://www.bohemiancoding.com/sketch -->
    <title>newspaper</title>
    <desc>Created with Sketch.</desc>
    <defs></defs>
    <g id="Page-1" stroke="none" stroke-width="1" fill="none" fill-rule="evenodd" sketch:type="MSPage">
        <g id="Symbolicons-Color" sketch:type="MSArtboardGroup" transform="translate(-476.000000, -644.000000)">
            <g id="newspaper" sketch:type="MSLayerGroup" transform="translate(476.000000, 644.000000)">
                <path d="M5,0 L5,25.5 C5,26.881 3.881,28 2.5,28 L25.5,28 C26.881,28 28,26.881 28,25.5 L28,0 L5,0" id="Fill-1094" fill="#ECECEC" sketch:type="MSShapeGroup"></path>
                <path d="M0,4 L0,25.5 C0,26.881 1.119,28 2.5,28 C3.881,28 5,26.881 5,25.5 L5,4 L0,4" id="Fill-1095" fill="#BEBEBE" sketch:type="MSShapeGroup"></path>
                <path d="M13,4 L26,4 L26,14 L13,14 L13,4 Z" id="Fill-1096" fill="#505050" sketch:type="MSShapeGroup"></path>
                <path d="M7,4 L11,4 L11,5 L7,5 L7,4 Z" id="Fill-1097" fill="#505050" sketch:type="MSShapeGroup"></path>
                <path d="M7,7 L11,7 L11,8 L7,8 L7,7 Z" id="Fill-1098" fill="#505050" sketch:type="MSShapeGroup"></path>
                <path d="M7,10 L11,10 L11,11 L7,11 L7,10 Z" id="Fill-1099" fill="#505050" sketch:type="MSShapeGroup"></path>
                <path d="M7,13 L11,13 L11,14 L7,14 L7,13 Z" id="Fill-1100" fill="#505050" sketch:type="MSShapeGroup"></path>
                <path d="M7,16 L26,16 L26,17 L7,17 L7,16 Z" id="Fill-1101" fill="#505050" sketch:type="MSShapeGroup"></path>
                <path d="M7,19 L26,19 L26,20 L7,20 L7,19 Z" id="Fill-1102" fill="#505050" sketch:type="MSShapeGroup"></path>
                <path d="M7,22 L26,22 L26,23 L7,23 L7,22 Z" id="Fill-1103" fill="#505050" sketch:type="MSShapeGroup"></path>
            </g>
        </g>
    </g>
</svg>