<?xml version="1.0" encoding="UTF-8" standalone="no"?>
<svg width="26px" height="28px" viewBox="0 0 26 28" version="1.1" xmlns="http://www.w3.org/2000/svg" xmlns:xlink="http://www.w3.org/1999/xlink" xmlns:sketch="http://www.bohemiancoding.com/sketch/ns">
    <!-- Generator: Sketch 3.3 (11970) - http://www.bohemiancoding.com/sketch -->
    <title>quantum</title>
    <desc>Created with Sketch.</desc>
    <defs></defs>
    <g id="Page-1" stroke="none" stroke-width="1" fill="none" fill-rule="evenodd" sketch:type="MSPage">
        <g id="Symbolicons-Color" sketch:type="MSArtboardGroup" transform="translate(-645.000000, -644.000000)">
            <g id="quantum" sketch:type="MSLayerGroup" transform="translate(645.000000, 644.000000)">
                <path d="M10,19.196 C16.696,23.062 23.468,23.87 25.124,21 C26.781,18.13 22.696,12.67 16,8.804 C9.304,4.938 2.533,4.13 0.876,7 C-0.781,9.87 3.304,15.33 10,19.196 L10,19.196 Z M10.668,18.039 C5.091,14.82 1.614,10.401 2.902,8.17 C4.19,5.939 9.755,6.741 15.332,9.961 C20.909,13.181 24.386,17.599 23.098,19.83 C21.81,22.061 16.245,21.259 10.668,18.039 L10.668,18.039 Z" id="Fill-1119" fill="#BEBEBE" sketch:type="MSShapeGroup"></path>
                <path d="M7,14 C7,21.732 9.686,28 13,28 C16.314,28 19,21.732 19,14 C19,6.268 16.314,0 13,0 C9.686,0 7,6.268 7,14 L7,14 Z M8.336,14 C8.336,7.56 10.424,2.34 13,2.34 C15.576,2.34 17.664,7.56 17.664,14 C17.664,20.44 15.576,25.66 13,25.66 C10.424,25.66 8.336,20.44 8.336,14 L8.336,14 Z" id="Fill-1120" fill="#BEBEBE" sketch:type="MSShapeGroup"></path>
                <path d="M25.124,7 C23.468,4.13 16.696,4.938 10,8.804 C3.304,12.67 -0.781,18.13 0.876,21 C2.533,23.87 9.304,23.062 16,19.196 C22.696,15.33 26.781,9.87 25.124,7 L25.124,7 Z M2.902,19.83 C1.614,17.599 5.091,13.181 10.668,9.961 C16.245,6.741 21.81,5.939 23.098,8.17 C24.386,10.401 20.909,14.82 15.332,18.039 C9.755,21.259 4.19,22.061 2.902,19.83 L2.902,19.83 Z" id="Fill-1121" fill="#BEBEBE" sketch:type="MSShapeGroup"></path>
                <path d="M23,22 C23,23.105 22.105,24 21,24 C19.896,24 19,23.105 19,22 C19,20.896 19.896,20 21,20 C22.105,20 23,20.896 23,22" id="Fill-1122" fill="#8CBE3C" sketch:type="MSShapeGroup"></path>
                <path d="M4,17 C4,18.104 3.105,19 2,19 C0.895,19 0,18.104 0,17 C0,15.896 0.895,15 2,15 C3.105,15 4,15.896 4,17" id="Fill-1123" fill="#8CBE3C" sketch:type="MSShapeGroup"></path>
                <path d="M18,3 C18,4.105 17.105,5 16,5 C14.895,5 14,4.105 14,3 C14,1.896 14.895,1 16,1 C17.105,1 18,1.896 18,3" id="Fill-1124" fill="#8CBE3C" sketch:type="MSShapeGroup"></path>
            </g>
        </g>
    </g>
</svg>