<?xml version="1.0" encoding="UTF-8" standalone="no"?>
<svg width="26px" height="26px" viewBox="0 0 26 26" version="1.1" xmlns="http://www.w3.org/2000/svg" xmlns:xlink="http://www.w3.org/1999/xlink" xmlns:sketch="http://www.bohemiancoding.com/sketch/ns">
    <!-- Generator: Sketch 3.3 (11970) - http://www.bohemiancoding.com/sketch -->
    <title>radiation</title>
    <desc>Created with Sketch.</desc>
    <defs></defs>
    <g id="Page-1" stroke="none" stroke-width="1" fill="none" fill-rule="evenodd" sketch:type="MSPage">
        <g id="Symbolicons-Color" sketch:type="MSArtboardGroup" transform="translate(-981.000000, -533.000000)">
            <g id="radiation" sketch:type="MSLayerGroup" transform="translate(981.000000, 533.000000)">
                <path d="M13,12.999 L19.496,24.253 C17.585,25.362 15.365,26 13,26 C10.635,26 8.416,25.362 6.502,24.253 L13,12.999 L13,12.999 Z M13.001,12.997 L6.505,1.747 C2.619,3.996 0.001,8.199 0.001,13.002 L13.001,13.001 L13.001,12.997 L13.001,12.997 Z M19.494,1.747 L13.001,12.997 L13.001,13.001 L26,13.001 C26,8.198 23.38,3.996 19.494,1.747 L19.494,1.747 Z" id="Fill-1058" fill="#F39C12" sketch:type="MSShapeGroup"></path>
                <path d="M13,13 L6.502,24.253 C2.619,22.003 0,17.805 0,13.002 L0,13 L13,13 L13,13 Z M13,13 L19.496,24.253 C23.379,22.003 26,18.803 26,14 L26,13 L13,13 L13,13 Z M13.001,0 C10.633,0 8.416,0.639 6.505,1.747 L13.001,12.997 L19.494,1.747 C17.585,0.639 15.367,0 13.001,0 L13.001,0 Z" id="Fill-1059" fill="#505050" sketch:type="MSShapeGroup"></path>
            </g>
        </g>
    </g>
</svg>