<?xml version="1.0" encoding="UTF-8" standalone="no"?>
<svg width="28px" height="28px" viewBox="0 0 28 28" version="1.1" xmlns="http://www.w3.org/2000/svg" xmlns:xlink="http://www.w3.org/1999/xlink" xmlns:sketch="http://www.bohemiancoding.com/sketch/ns">
    <!-- Generator: Sketch 3.3 (11970) - http://www.bohemiancoding.com/sketch -->
    <title>school-bus</title>
    <desc>Created with Sketch.</desc>
    <defs></defs>
    <g id="Page-1" stroke="none" stroke-width="1" fill="none" fill-rule="evenodd" sketch:type="MSPage">
        <g id="Symbolicons-Color" sketch:type="MSArtboardGroup" transform="translate(-420.000000, -476.000000)">
            <g id="school-bus" sketch:type="MSLayerGroup" transform="translate(420.000000, 476.000000)">
                <path d="M22,26.198 C22,27.399 23,28 24,28 C25,28 26,27.4 26,26.198 L26,24 L22,24 L22,26.198" id="Fill-486" fill="#505050" sketch:type="MSShapeGroup"></path>
                <path d="M2,26.198 C2,27.399 3,28 4,28 C5,28 6,27.4 6,26.198 L6,24 L2,24 L2,26.198" id="Fill-487" fill="#505050" sketch:type="MSShapeGroup"></path>
                <path d="M25,13 L25,5 C25,2.25 22.75,0 20,0 L8,0 C5.25,0 3,2.25 3,5 L3,13 C1.282,13.449 0,15.004 0,16.858 L0,24 L28,24 L28,16.858 C28,15.004 26.718,13.449 25,13" id="Fill-488" fill="#F39C12" sketch:type="MSShapeGroup"></path>
                <path d="M15,6 L23,6 L23,12 L15,12 L15,6 Z" id="Fill-489" fill="#ECECEC" sketch:type="MSShapeGroup"></path>
                <path d="M10,2 L18,2 C18.553,2 19,2.447 19,3 C19,3.553 18.553,4 18,4 L10,4 C9.448,4 9,3.553 9,3 C9,2.447 9.448,2 10,2" id="Fill-490" fill="#E67E22" sketch:type="MSShapeGroup"></path>
                <path d="M5,6 L13,6 L13,12 L5,12 L5,6 Z" id="Fill-491" fill="#ECECEC" sketch:type="MSShapeGroup"></path>
                <path d="M4,21 C2.896,21 2,20.104 2,19 C2,17.897 2.896,17 4,17 C5.105,17 6,17.897 6,19 C6,20.104 5.105,21 4,21" id="Fill-492" fill="#F1C40F" sketch:type="MSShapeGroup"></path>
                <path d="M18.5,21 L9.5,21 C9.224,21 9,20.776 9,20.5 C9,20.224 9.224,20 9.5,20 L18.5,20 C18.776,20 19,20.224 19,20.5 C19,20.776 18.776,21 18.5,21" id="Fill-493" fill="#505050" sketch:type="MSShapeGroup"></path>
                <path d="M18.5,19 L9.5,19 C9.224,19 9,18.776 9,18.5 C9,18.224 9.224,18 9.5,18 L18.5,18 C18.776,18 19,18.224 19,18.5 C19,18.776 18.776,19 18.5,19" id="Fill-494" fill="#505050" sketch:type="MSShapeGroup"></path>
                <path d="M18.5,17 L9.5,17 C9.224,17 9,16.776 9,16.5 C9,16.224 9.224,16 9.5,16 L18.5,16 C18.776,16 19,16.224 19,16.5 C19,16.776 18.776,17 18.5,17" id="Fill-495" fill="#505050" sketch:type="MSShapeGroup"></path>
                <path d="M24,21 C22.896,21 22,20.104 22,19 C22,17.897 22.896,17 24,17 C25.104,17 26,17.897 26,19 C26,20.104 25.104,21 24,21" id="Fill-496" fill="#F1C40F" sketch:type="MSShapeGroup"></path>
                <path d="M27,5 L25,5 L25,6 L26,6 L26,11 L25,11 L25,12 L27,12 C27.55,12 28,11.55 28,11 L28,6 C28,5.45 27.55,5 27,5" id="Fill-497" fill="#8C8C8C" sketch:type="MSShapeGroup"></path>
                <path d="M1,5 C0.45,5 0,5.45 0,6 L0,11 C0,11.55 0.45,12 1,12 L3,12 L3,11 L2,11 L2,6 L3,6 L3,5 L1,5" id="Fill-498" fill="#8C8C8C" sketch:type="MSShapeGroup"></path>
            </g>
        </g>
    </g>
</svg>