<?xml version="1.0" encoding="UTF-8" standalone="no"?>
<svg width="27px" height="26px" viewBox="0 0 27 26" version="1.1" xmlns="http://www.w3.org/2000/svg" xmlns:xlink="http://www.w3.org/1999/xlink" xmlns:sketch="http://www.bohemiancoding.com/sketch/ns">
    <!-- Generator: Sketch 3.3 (11970) - http://www.bohemiancoding.com/sketch -->
    <title>star-of-life</title>
    <desc>Created with Sketch.</desc>
    <defs></defs>
    <g id="Page-1" stroke="none" stroke-width="1" fill="none" fill-rule="evenodd" sketch:type="MSPage">
        <g id="Symbolicons-Color" sketch:type="MSArtboardGroup" transform="translate(-981.000000, -477.000000)">
            <g id="star-of-life" sketch:type="MSLayerGroup" transform="translate(981.000000, 477.000000)">
                <path d="M26.517,9.964 L22.517,3.036 L17.258,6.072 L17.258,0 L9.258,0 L9.258,6.072 L4,3.036 L0,9.964 L5.258,13 L0,16.036 L4,22.964 L9.258,19.928 L9.258,26 L17.258,26 L17.258,19.928 L22.517,22.964 L26.517,16.036 L21.258,13 L26.517,9.964" id="Fill-431" fill="#1EAAE1" sketch:type="MSShapeGroup"></path>
                <path d="M15.258,6 C15.258,7.105 14.363,8 13.258,8 C12.154,8 11.258,7.105 11.258,6 C11.258,4.896 12.154,4 13.258,4 C14.363,4 15.258,4.896 15.258,6" id="Fill-432" fill="#C0392B" sketch:type="MSShapeGroup"></path>
                <path d="M12.258,7 L14.258,7 L14.258,22 L12.258,22 L12.258,7 Z" id="Fill-433" fill="#C0392B" sketch:type="MSShapeGroup"></path>
                <path d="M15.258,18 L13.27,18 C12.808,17.988 12.258,17.806 12.258,17 C12.258,16.194 12.808,16.012 13.258,16 C15.459,16 16.258,14.206 16.258,13 C16.258,11.794 15.459,10 13.258,10 L12.258,10 L10.413,9.038 C10.241,8.975 9.966,8.992 9.802,9.078 L7.794,10.151 L7.794,10.152 C7.482,10.28 7.258,10.609 7.258,11 C7.258,11.392 7.482,11.721 7.794,11.849 L9.802,12.922 C9.966,13.008 10.241,13.025 10.413,12.962 L12.258,12 L13.258,12 C14.064,12 14.247,12.55 14.258,12.988 C14.247,13.45 14.064,14 13.258,14 C12.052,14 10.258,14.799 10.258,17 C10.258,19.201 12.052,20 13.258,20 L15.258,20 C15.811,20 16.258,19.553 16.258,19 C16.258,18.447 15.811,18 15.258,18 L15.258,18 Z M9.758,11 C9.482,11 9.258,10.776 9.258,10.5 C9.258,10.224 9.482,10 9.758,10 C10.034,10 10.258,10.224 10.258,10.5 C10.258,10.776 10.034,11 9.758,11 L9.758,11 Z" id="Fill-434" fill="#FFFFFF" sketch:type="MSShapeGroup"></path>
                <path d="M12.258,13 L14.258,13 L14.258,17 L12.258,17 L12.258,13 Z" id="Fill-435" fill="#C0392B" sketch:type="MSShapeGroup"></path>
                <path d="M14.258,22 C14.258,22.552 13.811,23 13.258,23 C12.706,23 12.258,22.552 12.258,22 C12.258,21.448 12.706,21 13.258,21 C13.811,21 14.258,21.448 14.258,22" id="Fill-436" fill="#C0392B" sketch:type="MSShapeGroup"></path>
            </g>
        </g>
    </g>
</svg>