<?xml version="1.0" encoding="UTF-8" standalone="no"?>
<svg width="28px" height="28px" viewBox="0 0 28 28" version="1.1" xmlns="http://www.w3.org/2000/svg" xmlns:xlink="http://www.w3.org/1999/xlink" xmlns:sketch="http://www.bohemiancoding.com/sketch/ns">
    <!-- Generator: Sketch 3.3 (11970) - http://www.bohemiancoding.com/sketch -->
    <title>stethoscope</title>
    <desc>Created with Sketch.</desc>
    <defs></defs>
    <g id="Page-1" stroke="none" stroke-width="1" fill="none" fill-rule="evenodd" sketch:type="MSPage">
        <g id="Symbolicons-Color" sketch:type="MSArtboardGroup" transform="translate(-812.000000, -532.000000)">
            <g id="stethoscope" sketch:type="MSLayerGroup" transform="translate(812.000000, 532.000000)">
                <path d="M23.03,15 L23.03,20 C22.772,23.351 19.956,26 16.53,26 C13.105,26 10.294,23.351 10.036,20 L10.03,18 L8.03,18 L8.03,20 C8.291,24.46 11.991,28 16.53,28 C21.069,28 24.769,24.46 25.03,20 L25.03,15 L23.03,15" id="Fill-377" fill="#505050" sketch:type="MSShapeGroup"></path>
                <path d="M7.03,17 L11.03,17 L11.03,19 L7.03,19 L7.03,17 Z" id="Fill-378" fill="#8C8C8C" sketch:type="MSShapeGroup"></path>
                <path d="M17.408,1.805 C16.897,1.217 16.138,0.879 15.323,0.879 L14.03,1 L14.03,3 L15.323,2.879 C15.561,2.879 15.765,2.963 15.897,3.115 C16.03,3.269 16.084,3.481 16.051,3.717 L14.323,13.879 C14.238,14.477 13.634,15 13.03,15 L5.03,15 C4.427,15 3.823,14.477 3.737,13.879 L2.01,3.717 C1.977,3.481 2.031,3.269 2.163,3.115 C2.296,2.963 2.499,2.879 2.737,2.879 L4.03,3 L4.03,1 L2.737,0.879 C1.923,0.879 1.163,1.217 0.652,1.805 C0.142,2.394 -0.085,3.193 0.03,4 L1.758,14.162 C1.984,15.753 3.422,17 5.03,17 L13.03,17 C14.639,17 16.076,15.753 16.303,14.162 L18.03,4 C18.145,3.193 17.918,2.394 17.408,1.805" id="Fill-379" fill="#BEBEBE" sketch:type="MSShapeGroup"></path>
                <path d="M6.03,3 C6.03,3.552 5.582,4 5.03,4 C4.478,4 4.03,3.552 4.03,3 L4.03,1 C4.03,0.448 4.478,0 5.03,0 C5.582,0 6.03,0.448 6.03,1 L6.03,3" id="Fill-380" fill="#505050" sketch:type="MSShapeGroup"></path>
                <path d="M14.03,3 C14.03,3.552 13.582,4 13.03,4 C12.478,4 12.03,3.552 12.03,3 L12.03,1 C12.03,0.448 12.478,0 13.03,0 C13.582,0 14.03,0.448 14.03,1 L14.03,3" id="Fill-381" fill="#505050" sketch:type="MSShapeGroup"></path>
                <path d="M28.03,12 C28.03,14.209 26.239,16 24.03,16 C21.821,16 20.03,14.209 20.03,12 C20.03,9.791 21.821,8 24.03,8 C26.239,8 28.03,9.791 28.03,12" id="Fill-382" fill="#BEBEBE" sketch:type="MSShapeGroup"></path>
                <path d="M26.03,12 C26.03,13.105 25.135,14 24.03,14 C22.925,14 22.03,13.105 22.03,12 C22.03,10.896 22.925,10 24.03,10 C25.135,10 26.03,10.896 26.03,12" id="Fill-383" fill="#A0A0A0" sketch:type="MSShapeGroup"></path>
            </g>
        </g>
    </g>
</svg>