<?xml version="1.0" encoding="UTF-8" standalone="no"?>
<svg width="28px" height="28px" viewBox="0 0 28 28" version="1.1" xmlns="http://www.w3.org/2000/svg" xmlns:xlink="http://www.w3.org/1999/xlink" xmlns:sketch="http://www.bohemiancoding.com/sketch/ns">
    <!-- Generator: Sketch 3.3 (11970) - http://www.bohemiancoding.com/sketch -->
    <title>theater-masks</title>
    <desc>Created with Sketch.</desc>
    <defs></defs>
    <g id="Page-1" stroke="none" stroke-width="1" fill="none" fill-rule="evenodd" sketch:type="MSPage">
        <g id="Symbolicons-Color" sketch:type="MSArtboardGroup" transform="translate(-588.000000, -476.000000)">
            <g id="theater-masks" sketch:type="MSLayerGroup" transform="translate(588.000000, 476.000000)">
                <path d="M0,0 L0,8.668 C0.002,13.821 4.256,18 9.5,18 C14.748,18 19,13.821 19,8.668 L19,0 L0,0" id="Fill-520" fill="#F1C40F" sketch:type="MSShapeGroup"></path>
                <path d="M9,10 C11.734,10 15.152,11.49 16.123,12.988 L4,12.988 C4,12 6.234,10 9,10" id="Fill-521" fill="#505050" sketch:type="MSShapeGroup"></path>
                <path d="M12,4.25 C12.691,4.25 13.25,4.81 13.25,5.5 C13.25,6.191 12.691,6.75 12,6.75 C11.311,6.75 10.75,6.191 10.75,5.5 C10.75,4.81 11.311,4.25 12,4.25" id="Fill-522" fill="#505050" sketch:type="MSShapeGroup"></path>
                <path d="M7,4.25 C7.691,4.25 8.25,4.81 8.25,5.5 C8.25,6.191 7.691,6.75 7,6.75 C6.311,6.75 5.75,6.191 5.75,5.5 C5.75,4.81 6.311,4.25 7,4.25" id="Fill-523" fill="#505050" sketch:type="MSShapeGroup"></path>
                <path d="M9,10 L9,18.668 C9.002,23.821 13.256,28 18.5,28 C23.748,28 28,23.821 28,18.668 L28,10 L9,10" id="Fill-524" fill="#ECECEC" sketch:type="MSShapeGroup"></path>
                <path d="M20.999,14.25 C21.69,14.25 22.249,14.81 22.249,15.5 C22.249,16.191 21.69,16.75 20.999,16.75 C20.31,16.75 19.749,16.191 19.749,15.5 C19.749,14.81 20.31,14.25 20.999,14.25" id="Fill-525" fill="#505050" sketch:type="MSShapeGroup"></path>
                <path d="M15.999,14.25 C16.69,14.25 17.249,14.81 17.249,15.5 C17.249,16.191 16.69,16.75 15.999,16.75 C15.309,16.75 14.749,16.191 14.749,15.5 C14.749,14.81 15.309,14.25 15.999,14.25" id="Fill-526" fill="#505050" sketch:type="MSShapeGroup"></path>
                <path d="M18.483,24.988 C15.749,24.988 13.409,23 12.439,21 L24.562,21 C23.612,23 21.249,24.988 18.483,24.988" id="Fill-527" fill="#505050" sketch:type="MSShapeGroup"></path>
            </g>
        </g>
    </g>
</svg>