<?xml version="1.0" encoding="UTF-8" standalone="no"?>
<svg width="33px" height="26px" viewBox="0 0 33 26" version="1.1" xmlns="http://www.w3.org/2000/svg" xmlns:xlink="http://www.w3.org/1999/xlink" xmlns:sketch="http://www.bohemiancoding.com/sketch/ns">
    <!-- Generator: Sketch 3.3 (11970) - http://www.bohemiancoding.com/sketch -->
    <title>view-master</title>
    <desc>Created with Sketch.</desc>
    <defs></defs>
    <g id="Page-1" stroke="none" stroke-width="1" fill="none" fill-rule="evenodd" sketch:type="MSPage">
        <g id="Symbolicons-Color" sketch:type="MSArtboardGroup" transform="translate(-193.000000, -646.000000)">
            <g id="view-master" sketch:type="MSLayerGroup" transform="translate(193.000000, 646.000000)">
                <path d="M31,8.754 C30.144,8.754 29.419,9.295 29.133,10.051 L24.836,10.768 L25.164,12.74 L29.466,12.023 C29.833,12.466 30.38,12.754 31,12.754 C32.104,12.754 33,11.858 33,10.754 C33,9.649 32.104,8.754 31,8.754" id="Fill-1104" fill="#C0392B" sketch:type="MSShapeGroup"></path>
                <path d="M23.739,10.719 C23.739,15.965 19.486,20.219 14.239,20.219 C8.993,20.219 4.739,15.965 4.739,10.719 C4.739,5.472 8.993,1.219 14.239,1.219 C19.486,1.219 23.739,5.472 23.739,10.719" id="Fill-1105" fill="#231F1F" sketch:type="MSShapeGroup"></path>
                <path d="M14.375,0.754 C9.19,0.754 4.928,4.7 4.426,9.754 L5.652,9.754 C5.999,9.158 6.637,8.754 7.375,8.754 C8.16,8.754 8.834,9.211 9.161,9.87 C9.679,9.957 10.181,10.078 10.696,10.209 C11.754,10.477 12.848,10.754 14.375,10.754 C15.902,10.754 16.996,10.477 18.054,10.209 C18.569,10.078 19.071,9.957 19.589,9.87 C19.916,9.211 20.59,8.754 21.375,8.754 C22.113,8.754 22.751,9.158 23.098,9.754 L24.324,9.754 C23.822,4.7 19.561,0.754 14.375,0.754 L14.375,0.754 Z M10.84,7.219 C10.059,7.999 8.792,7.999 8.011,7.219 C7.23,6.438 7.23,5.171 8.011,4.39 C8.792,3.609 10.059,3.609 10.84,4.39 C11.62,5.171 11.62,6.438 10.84,7.219 L10.84,7.219 Z M14.375,5.754 C13.27,5.754 12.375,4.858 12.375,3.754 C12.375,2.649 13.27,1.754 14.375,1.754 C15.479,1.754 16.375,2.649 16.375,3.754 C16.375,4.858 15.479,5.754 14.375,5.754 L14.375,5.754 Z M20.739,7.219 C19.958,7.999 18.691,7.999 17.91,7.219 C17.13,6.438 17.13,5.171 17.91,4.39 C18.691,3.609 19.958,3.609 20.739,4.39 C21.52,5.171 21.52,6.438 20.739,7.219 L20.739,7.219 Z" id="Fill-1106" fill="#ECECEC" sketch:type="MSShapeGroup"></path>
                <path d="M4.344,20.961 L4.875,26 L23.875,26 L24.406,20.754 C23.911,20.946 4.839,21.153 4.344,20.961" id="Fill-1107" fill="#C0392B" sketch:type="MSShapeGroup"></path>
                <path d="M26.875,12.137 L26.875,9.754 L20.875,9.754 C18.875,9.754 17.375,10.754 14.375,10.754 C11.375,10.754 9.875,9.754 7.875,9.754 L1.875,9.754 L1.875,12.137 C1.26,12.84 0.875,13.748 0.875,14.754 L0.875,15.754 C0.875,16.631 1.068,17.823 1.346,18.653 L1.712,19.753 C2.294,21.493 4.044,22.754 5.875,22.754 L22.875,22.754 C24.706,22.754 26.456,21.493 27.038,19.753 L27.404,18.653 C27.682,17.823 27.875,16.631 27.875,15.754 L27.875,14.754 C27.875,13.748 27.49,12.84 26.875,12.137" id="Fill-1108" fill="#921816" sketch:type="MSShapeGroup"></path>
                <path d="M24.875,15.754 C24.875,16.754 24.191,18.806 24.191,18.806 C24.018,19.327 23.425,19.754 22.875,19.754 L5.875,19.754 C5.325,19.754 4.732,19.327 4.559,18.806 C4.559,18.806 3.875,16.754 3.875,15.754 L3.875,14.754 C3.875,14.204 4.325,13.754 4.875,13.754 L23.875,13.754 C24.425,13.754 24.875,14.204 24.875,14.754 L24.875,15.754" id="Fill-1109" fill="#323232" sketch:type="MSShapeGroup"></path>
            </g>
        </g>
    </g>
</svg>