<?xml version="1.0" encoding="UTF-8" standalone="no"?>
<svg width="28px" height="28px" viewBox="0 0 28 28" version="1.1" xmlns="http://www.w3.org/2000/svg" xmlns:xlink="http://www.w3.org/1999/xlink" xmlns:sketch="http://www.bohemiancoding.com/sketch/ns">
    <!-- Generator: Sketch 3.3 (11970) - http://www.bohemiancoding.com/sketch -->
    <title>whale</title>
    <desc>Created with Sketch.</desc>
    <defs></defs>
    <g id="Page-1" stroke="none" stroke-width="1" fill="none" fill-rule="evenodd" sketch:type="MSPage">
        <g id="Symbolicons-Color" sketch:type="MSArtboardGroup" transform="translate(-420.000000, -1036.000000)">
            <g id="whale" sketch:type="MSLayerGroup" transform="translate(420.000000, 1036.000000)">
                <path d="M10,3.723 C10.295,3.895 10.634,4 11,4 C12.104,4 13,3.104 13,2 C13,0.896 12.104,0 11,0 C9.895,0 9,0.896 9,2 L9,12 L10,12 L10,3.723" id="Fill-331" fill="#BEE6FA" sketch:type="MSShapeGroup"></path>
                <path d="M27.557,12.962 L23,16 L18.443,12.962 C18.163,13.586 18,14.272 18,15 C18,17.049 19.235,18.806 21,19.578 L21,21.5 C21,22.856 19.626,24 18,24 L17,24 L17,19 C17,15.15 13.85,12 10,12 L7,12 C3.15,12 0,15.15 0,19 L0,25 C0,26.65 1.35,28 3,28 L18,28 C21.86,28 25,25.084 25,21.5 L25,19.578 C26.764,18.806 28,17.049 28,15 C28,14.272 27.837,13.586 27.557,12.962" id="Fill-332" fill="#2980B9" sketch:type="MSShapeGroup"></path>
                <path d="M5.5,23 C4.672,23 4,22.328 4,21.5 C4,20.672 4.672,20 5.5,20 C6.328,20 7,20.672 7,21.5 C7,22.328 6.328,23 5.5,23" id="Fill-333" fill="#FFFFFF" sketch:type="MSShapeGroup"></path>
                <path d="M6,7 C6.366,7 6.705,6.895 7,6.723 L7,12 L8,12 L8,5 C8,3.896 7.104,3 6,3 C4.896,3 4,3.896 4,5 C4,6.104 4.896,7 6,7" id="Fill-334" fill="#BEE6FA" sketch:type="MSShapeGroup"></path>
            </g>
        </g>
    </g>
</svg>