<?xml version="1.0" encoding="UTF-8" standalone="no"?>
<svg width="28px" height="28px" viewBox="0 0 28 28" version="1.1" xmlns="http://www.w3.org/2000/svg" xmlns:xlink="http://www.w3.org/1999/xlink" xmlns:sketch="http://www.bohemiancoding.com/sketch/ns">
    <!-- Generator: Sketch 3.3 (11970) - http://www.bohemiancoding.com/sketch -->
    <title>wrench-screwdriver</title>
    <desc>Created with Sketch.</desc>
    <defs></defs>
    <g id="Page-1" stroke="none" stroke-width="1" fill="none" fill-rule="evenodd" sketch:type="MSPage">
        <g id="Symbolicons-Color" sketch:type="MSArtboardGroup" transform="translate(-812.000000, -1036.000000)">
            <g id="wrench-screwdriver" sketch:type="MSLayerGroup" transform="translate(812.000000, 1036.000000)">
                <path d="M23.941,19.259 L19.972,18.173 L13.358,10.784 L10.81,13.332 L18.176,19.968 L19.285,23.915 L24.535,27.975 L28,24.51 L23.941,19.259" id="Fill-908" fill="#BEBEBE" sketch:type="MSShapeGroup"></path>
                <path d="M6.869,12.872 L1.243,7.246 C-0.414,5.588 -0.414,2.901 1.243,1.243 C2.901,-0.414 5.589,-0.414 7.246,1.243 L12.872,6.869 C14.529,8.526 14.529,11.214 12.872,12.872 C11.214,14.529 8.526,14.529 6.869,12.872" id="Fill-909" fill="#C0392B" sketch:type="MSShapeGroup"></path>
                <path d="M27.502,4.926 L22.709,9.721 L18.742,9.258 L18.281,5.291 L23.074,0.496 C22.199,0.166 21.279,0 20.355,0 C18.404,0 16.453,0.745 14.963,2.235 C12.77,4.428 12.193,7.621 13.227,10.346 L0.918,22.657 C0.305,23.268 0,24.068 0,24.869 C0,25.672 0.305,26.473 0.918,27.084 C1.529,27.695 2.329,28 3.131,28 C3.932,28 4.734,27.696 5.346,27.084 L17.656,14.774 C18.527,15.105 19.451,15.27 20.373,15.27 C22.326,15.27 24.275,14.53 25.766,13.04 C27.961,10.844 28.535,7.65 27.502,4.926 L27.502,4.926 Z M3,26 C2.448,26 2,25.552 2,25 C2,24.448 2.448,24 3,24 C3.552,24 4,24.448 4,25 C4,25.552 3.552,26 3,26 L3,26 Z" id="Fill-910" fill="#A0A0A0" sketch:type="MSShapeGroup"></path>
            </g>
        </g>
    </g>
</svg>