<?xml version="1.0" encoding="UTF-8" standalone="no"?>
<svg width="28px" height="28px" viewBox="0 0 28 28" version="1.1" xmlns="http://www.w3.org/2000/svg" xmlns:xlink="http://www.w3.org/1999/xlink" xmlns:sketch="http://www.bohemiancoding.com/sketch/ns">
    <!-- Generator: Sketch 3.3 (11970) - http://www.bohemiancoding.com/sketch -->
    <title>ambulance</title>
    <desc>Created with Sketch.</desc>
    <defs></defs>
    <g id="Page-1" stroke="none" stroke-width="1" fill="none" fill-rule="evenodd" sketch:type="MSPage">
        <g id="Symbolicons-Color" sketch:type="MSArtboardGroup" transform="translate(-868.000000, -532.000000)">
            <g id="ambulance" sketch:type="MSLayerGroup" transform="translate(868.000000, 532.000000)">
                <path d="M0.001,0 L28.001,0 L28.001,21 L0.001,21 L0.001,0 Z" id="Fill-384" fill="#ECECEC" sketch:type="MSShapeGroup"></path>
                <path d="M4.001,26.198 C4.001,27.399 5.001,28 6.001,28 C7.001,28 8.001,27.399 8.001,26.198 L8.001,23 L4.001,23 L4.001,26.198" id="Fill-385" fill="#505050" sketch:type="MSShapeGroup"></path>
                <path d="M20.001,26.198 C20.001,27.399 21.001,28 22.001,28 C23.001,28 24.001,27.399 24.001,26.198 L24.001,23 L20.001,23 L20.001,26.198" id="Fill-386" fill="#505050" sketch:type="MSShapeGroup"></path>
                <path d="M21.001,5 C21.001,6.1 20.101,7 19.001,7 L9.001,7 C7.901,7 7.001,6.1 7.001,5 L7.001,4 C7.001,2.9 7.901,2 9.001,2 L19.001,2 C20.101,2 21.001,2.9 21.001,4 L21.001,5" id="Fill-387" fill="#C0392B" sketch:type="MSShapeGroup"></path>
                <path d="M13.001,2 L15.001,2 L15.001,7 L13.001,7 L13.001,2 Z" id="Fill-388" fill="#FFFFFF" sketch:type="MSShapeGroup"></path>
                <path d="M21.001,5 L7.001,5 C4.801,5 3.001,6.8 3.001,9 L3.001,24 L25.001,24 L25.001,9 C25.001,6.8 23.201,5 21.001,5" id="Fill-389" fill="#C3E7F9" sketch:type="MSShapeGroup"></path>
                <path d="M21.001,5 L7.001,5 C4.801,5 3.001,6.8 3.001,9 L3.001,24 L25.001,24 L25.001,9 C25.001,6.8 23.201,5 21.001,5" id="Fill-390" fill="#BEBEBE" sketch:type="MSShapeGroup"></path>
                <path d="M23.001,14 L23.001,9 C23.001,7.897 22.103,7 21.001,7 L7.001,7 C5.898,7 5.001,7.897 5.001,9 L5.001,14 L23.001,14" id="Fill-391" fill="#ECECEC" sketch:type="MSShapeGroup"></path>
                <path d="M5.001,20 C5.001,20.55 5.451,21 6.001,21 L8.001,21 C8.551,21 9.001,20.55 9.001,20 L9.001,18 C9.001,17.45 8.551,17 8.001,17 L6.001,17 C5.451,17 5.001,17.45 5.001,18 L5.001,20" id="Fill-392" fill="#BEE6FA" sketch:type="MSShapeGroup"></path>
                <path d="M19.001,20 C19.001,20.55 19.451,21 20.001,21 L22.001,21 C22.551,21 23.001,20.55 23.001,20 L23.001,18 C23.001,17.45 22.551,17 22.001,17 L20.001,17 C19.451,17 19.001,17.45 19.001,18 L19.001,20" id="Fill-393" fill="#BEE6FA" sketch:type="MSShapeGroup"></path>
                <path d="M13.001,16 L15.001,16 L15.001,22 L13.001,22 L13.001,16 Z" id="Fill-394" fill="#C0392B" sketch:type="MSShapeGroup"></path>
                <path d="M11.001,18 L17.001,18 L17.001,20 L11.001,20 L11.001,18 Z" id="Fill-395" fill="#C0392B" sketch:type="MSShapeGroup"></path>
                <path d="M18.001,12 C19.104,12 20.001,12.897 20.001,14 L22.001,14 C22.001,11.794 20.206,10 18.001,10 C15.795,10 14.001,11.794 14.001,14 L16.001,14 C16.001,12.897 16.898,12 18.001,12" id="Fill-396" fill="#A0A0A0" sketch:type="MSShapeGroup"></path>
            </g>
        </g>
    </g>
</svg>