<?xml version="1.0" encoding="UTF-8" standalone="no"?>
<svg width="28px" height="28px" viewBox="0 0 28 28" version="1.1" xmlns="http://www.w3.org/2000/svg" xmlns:xlink="http://www.w3.org/1999/xlink" xmlns:sketch="http://www.bohemiancoding.com/sketch/ns">
    <!-- Generator: Sketch 3.3 (11970) - http://www.bohemiancoding.com/sketch -->
    <title>ampersand</title>
    <desc>Created with Sketch.</desc>
    <defs></defs>
    <g id="Page-1" stroke="none" stroke-width="1" fill="none" fill-rule="evenodd" sketch:type="MSPage">
        <g id="Symbolicons-Color" sketch:type="MSArtboardGroup" transform="translate(-252.000000, -252.000000)" fill="#8CBE3C">
            <g id="ampersand" sketch:type="MSLayerGroup" transform="translate(252.000000, 252.000000)">
                <path d="M28,9 C25,11.917 23.033,12.014 20,11 C17.008,10 15.111,10.022 13.084,11.419 C11.373,11.231 7.074,10.412 7.074,6.944 C7.074,3.241 10.435,2.137 11.405,1.894 C10.616,2.623 10.117,3.629 10.117,4.752 C10.117,6.975 12.034,8.777 14.398,8.777 C16.762,8.777 18.678,6.975 18.678,4.752 C18.678,3.058 17.563,1.615 15.987,1.019 C14.568,0.377 12.886,0 11.071,0 C6.045,0 2,2.467 2,6 C2,8.275 3.664,10.664 6.209,11.799 C2.481,13.235 0,16 0,19 C0,23.744 5.17,28 11.631,28 C19.35,28 22.933,24 22.933,19.042 C22.933,17.998 22.565,17.009 22.1,16.083 C28,16.042 28,9 28,9 L28,9 Z M18.891,22.39 C18.813,22.485 18.725,22.57 18.642,22.661 L18.413,22.912 C17.178,24.113 15.408,24.826 13.401,24.826 C9.667,24.826 6.637,22.198 6.637,18.956 C6.637,16.372 8.566,14.183 11.242,13.398 C9.309,16.078 10.513,18.902 10.513,18.902 C10.592,18.689 10.679,18.502 10.765,18.313 C11.431,16.671 13.125,15.499 15.128,15.499 C17.709,15.499 19.802,17.44 19.802,19.832 C19.802,20.791 19.455,21.669 18.887,22.386 L18.891,22.39 L18.891,22.39 Z" id="Fill-687" sketch:type="MSShapeGroup"></path>
            </g>
        </g>
    </g>
</svg>