<?xml version="1.0" encoding="UTF-8" standalone="no"?>
<svg width="28px" height="28px" viewBox="0 0 28 28" version="1.1" xmlns="http://www.w3.org/2000/svg" xmlns:xlink="http://www.w3.org/1999/xlink" xmlns:sketch="http://www.bohemiancoding.com/sketch/ns">
    <!-- Generator: Sketch 3.3 (11970) - http://www.bohemiancoding.com/sketch -->
    <title>bacon</title>
    <desc>Created with Sketch.</desc>
    <defs></defs>
    <g id="Page-1" stroke="none" stroke-width="1" fill="none" fill-rule="evenodd" sketch:type="MSPage">
        <g id="Symbolicons-Color" sketch:type="MSArtboardGroup" transform="translate(-476.000000, -196.000000)">
            <g id="bacon" sketch:type="MSLayerGroup" transform="translate(476.000000, 196.000000)">
                <path d="M7.271,18.037 C8.423,17.547 9.858,16.937 11.784,15.193 C13.71,13.45 14.386,12.153 14.928,11.109 C15.357,10.288 15.665,9.693 16.793,8.674 C17.92,7.654 18.577,7.375 19.485,6.987 C20.638,6.496 22.073,5.886 24,4.143 L19.419,0 C18.292,1.02 17.636,1.299 16.727,1.686 C15.573,2.177 14.139,2.788 12.212,4.53 C10.286,6.273 9.611,7.571 9.068,8.614 C8.64,9.437 8.331,10.03 7.204,11.051 C6.077,12.069 5.421,12.349 4.514,12.734 C3.36,13.225 1.926,13.836 0,15.578 L1.743,17.154 C1.75,17.146 2.265,17.616 2.854,18.156 L2.852,18.157 L3.133,18.411 C3.847,19.066 4.571,19.729 4.581,19.721 C5.707,18.703 6.363,18.423 7.271,18.037 L7.271,18.037 Z M23.419,8.279 C22.292,9.299 21.636,9.578 20.727,9.965 C19.573,10.456 18.139,11.067 16.212,12.81 C14.286,14.553 13.611,15.851 13.068,16.893 C12.64,17.716 12.331,18.31 11.204,19.33 C10.077,20.349 9.421,20.628 8.514,21.014 C7.36,21.504 5.926,22.115 4,23.857 L6.852,26.436 L6.852,26.437 L8.58,28 C9.707,26.982 10.363,26.702 11.27,26.316 C12.423,25.826 13.858,25.216 15.784,23.473 C17.71,21.73 18.386,20.433 18.928,19.389 C19.356,18.567 19.665,17.973 20.793,16.953 C21.92,15.934 22.577,15.654 23.485,15.267 C24.638,14.775 26.073,14.165 28,12.422 L23.419,8.279 L23.419,8.279 Z" id="Fill-64" fill="#C0392B" sketch:type="MSShapeGroup"></path>
                <path d="M6.187,16.076 C7.264,15.618 8.378,15.144 9.997,13.679 C11.624,12.207 12.152,11.191 12.664,10.208 C13.134,9.304 13.579,8.449 15.005,7.158 C16.439,5.861 17.391,5.456 18.399,5.027 C19.478,4.568 20.592,4.094 22.213,2.628 L22.258,2.567 L21.149,1.564 C19.748,2.82 18.806,3.224 17.812,3.646 C16.734,4.106 15.62,4.58 13.999,6.046 C12.372,7.518 11.844,8.534 11.333,9.517 C10.862,10.421 10.418,11.275 8.991,12.566 C7.558,13.862 6.606,14.268 5.599,14.696 C4.522,15.155 3.407,15.629 1.788,17.094 L1.743,17.154 C1.75,17.146 2.265,17.616 2.854,18.156 C4.252,16.902 5.193,16.499 6.187,16.076" id="Fill-65" fill="#E67E22" sketch:type="MSShapeGroup"></path>
                <path d="M10.186,24.356 C11.264,23.898 12.377,23.423 13.997,21.958 C15.624,20.486 16.152,19.471 16.664,18.487 C17.134,17.583 17.579,16.728 19.005,15.438 C20.439,14.141 21.391,13.735 22.399,13.307 C23.478,12.848 24.592,12.373 26.213,10.907 L26.258,10.847 L25.149,9.844 C23.749,11.1 22.806,11.503 21.812,11.926 C20.734,12.385 19.62,12.859 17.999,14.325 C16.372,15.797 15.844,16.814 15.333,17.796 C14.862,18.7 14.418,19.555 12.991,20.846 C11.558,22.142 10.606,22.547 9.599,22.976 C8.521,23.435 7.407,23.908 5.788,25.373 L5.743,25.434 L6.852,26.436 L6.852,26.437 C8.251,25.182 9.193,24.778 10.186,24.356" id="Fill-66" fill="#E67E22" sketch:type="MSShapeGroup"></path>
            </g>
        </g>
    </g>
</svg>