<?xml version="1.0" encoding="UTF-8" standalone="no"?>
<svg width="28px" height="28px" viewBox="0 0 28 28" version="1.1" xmlns="http://www.w3.org/2000/svg" xmlns:xlink="http://www.w3.org/1999/xlink" xmlns:sketch="http://www.bohemiancoding.com/sketch/ns">
    <!-- Generator: Sketch 3.3 (11970) - http://www.bohemiancoding.com/sketch -->
    <title>bagel</title>
    <desc>Created with Sketch.</desc>
    <defs></defs>
    <g id="Page-1" stroke="none" stroke-width="1" fill="none" fill-rule="evenodd" sketch:type="MSPage">
        <g id="Symbolicons-Color" sketch:type="MSArtboardGroup" transform="translate(-644.000000, -308.000000)">
            <g id="bagel" sketch:type="MSLayerGroup" transform="translate(644.000000, 308.000000)">
                <path d="M14,0 C6.269,0 0,6.267 0,14 C0,21.732 6.269,28 14,28 C21.732,28 28,21.732 28,14 C28,6.267 21.732,0 14,0 L14,0 Z M14,17 C12.346,17 11,15.654 11,14 C11,12.346 12.346,11 14,11 C15.654,11 17,12.346 17,14 C17,15.654 15.654,17 14,17 L14,17 Z" id="Fill-584" fill="#BE9664" sketch:type="MSShapeGroup"></path>
                <path d="M25.899,17.709 C25.505,18.868 24.008,19.497 23.274,20.463 C22.534,21.437 22.366,22.995 21.351,23.705 C20.344,24.408 18.75,24.085 17.543,24.463 C16.375,24.827 15.292,26 14,26 C12.707,26 11.624,24.827 10.457,24.463 C9.248,24.085 7.656,24.408 6.649,23.705 C5.633,22.995 5.467,21.437 4.727,20.463 C3.992,19.497 2.495,18.867 2.102,17.709 C1.722,16.588 2.533,15.239 2.533,14 C2.533,12.76 1.722,11.411 2.102,10.291 C2.495,9.133 3.993,8.504 4.727,7.537 C5.467,6.563 5.634,5.005 6.65,4.295 C7.656,3.592 9.248,3.914 10.457,3.537 C11.624,3.173 12.707,2 14,2 C15.292,2 16.376,3.173 17.543,3.537 C18.752,3.915 20.344,3.592 21.351,4.295 C22.366,5.005 22.534,6.563 23.274,7.537 C24.008,8.504 25.505,9.133 25.899,10.291 C26.278,11.411 25.468,12.76 25.468,14 C25.468,15.239 26.278,16.589 25.899,17.709 L25.899,17.709 Z M14,9 C11.244,9 9,11.242 9,14 C9,16.758 11.244,19 14,19 C16.758,19 19,16.758 19,14 C19,11.242 16.758,9 14,9 L14,9 Z" id="Fill-585" fill="#ECECEC" sketch:type="MSShapeGroup"></path>
            </g>
        </g>
    </g>
</svg>