<?xml version="1.0" encoding="UTF-8" standalone="no"?>
<svg width="28px" height="28px" viewBox="0 0 28 28" version="1.1" xmlns="http://www.w3.org/2000/svg" xmlns:xlink="http://www.w3.org/1999/xlink" xmlns:sketch="http://www.bohemiancoding.com/sketch/ns">
    <!-- Generator: Sketch 3.3 (11970) - http://www.bohemiancoding.com/sketch -->
    <title>bananas</title>
    <desc>Created with Sketch.</desc>
    <defs></defs>
    <g id="Page-1" stroke="none" stroke-width="1" fill="none" fill-rule="evenodd" sketch:type="MSPage">
        <g id="Symbolicons-Color" sketch:type="MSArtboardGroup" transform="translate(-532.000000, -252.000000)">
            <g id="bananas" sketch:type="MSLayerGroup" transform="translate(531.000000, 251.000000)">
                <path d="M25.645,6.75 C21.084,10.873 13.677,15.204 4.074,12.756 L4.035,12.727 L2.941,12.2 C2.527,12 2.038,12.148 1.854,12.529 L1.07,14.153 C0.887,14.534 1.075,15.008 1.489,15.208 L2.583,15.736 C2.583,15.736 14.526,23.308 24.238,17.564 C27.819,15.447 29.016,3.703 25.645,6.75" id="Fill-200" fill="#F1C40F" sketch:type="MSShapeGroup"></path>
                <path d="M25.313,4.365 C23.026,9.252 16.584,19.779 3.558,19.665 L3.513,19.646 L2.344,19.398 C1.901,19.305 1.469,19.561 1.383,19.968 L1.015,21.705 C0.929,22.111 1.22,22.521 1.663,22.614 L2.832,22.862 C2.832,22.862 14.348,26.732 22.331,20.903 C26.042,18.193 26.003,2.89 25.313,4.365" id="Fill-201" fill="#F6D34B" sketch:type="MSShapeGroup"></path>
                <path d="M28.708,6.141 L28.708,1.769 C28.708,1.231 28.281,0.898 27.76,1.028 L25.747,1.531 C25.225,1.662 24.798,2.209 24.798,2.746 L24.798,3.723 C24.798,3.723 22.844,22.293 6.337,25.638 L6.29,25.629 L5.102,25.629 C4.653,25.629 4.286,25.967 4.286,26.381 L4.286,28.143 C4.286,28.556 4.653,28.894 5.102,28.894 L6.29,28.894 C6.29,28.894 32.006,31.878 28.708,6.141" id="Fill-202" fill="#F1C40F" sketch:type="MSShapeGroup"></path>
            </g>
        </g>
    </g>
</svg>