<?xml version="1.0" encoding="UTF-8" standalone="no"?>
<svg width="28px" height="28px" viewBox="0 0 28 28" version="1.1" xmlns="http://www.w3.org/2000/svg" xmlns:xlink="http://www.w3.org/1999/xlink" xmlns:sketch="http://www.bohemiancoding.com/sketch/ns">
    <!-- Generator: Sketch 3.3 (11970) - http://www.bohemiancoding.com/sketch -->
    <title>bandaid</title>
    <desc>Created with Sketch.</desc>
    <defs></defs>
    <g id="Page-1" stroke="none" stroke-width="1" fill="none" fill-rule="evenodd" sketch:type="MSPage">
        <g id="Symbolicons-Color" sketch:type="MSArtboardGroup" transform="translate(-924.000000, -644.000000)">
            <g id="bandaid" sketch:type="MSLayerGroup" transform="translate(924.000000, 644.000000)">
                <path d="M26.349,2.636 L25.357,1.644 C23.167,-0.548 19.617,-0.548 17.427,1.644 L1.642,17.433 C-0.547,19.622 -0.547,23.175 1.642,25.366 L2.632,26.356 C4.822,28.548 8.373,28.548 10.562,26.356 L26.369,10.565 C28.556,8.376 28.537,4.825 26.349,2.636" id="Fill-410" fill="#BE9664" sketch:type="MSShapeGroup"></path>
                <path d="M6.036,13.038 L14.959,21.964 L22.461,14.469 L13.533,5.539 L6.036,13.038" id="Fill-411" fill="#A57D52" sketch:type="MSShapeGroup"></path>
                <path d="M16.495,18.251 C16.081,18.251 15.744,17.914 15.744,17.499 C15.744,17.086 16.081,16.749 16.495,16.749 C16.908,16.749 17.244,17.086 17.244,17.499 C17.244,17.914 16.908,18.251 16.495,18.251" id="Fill-412" fill="#BE9664" sketch:type="MSShapeGroup"></path>
                <path d="M19.492,13.749 C19.906,13.749 20.242,14.086 20.242,14.499 C20.242,14.914 19.906,15.251 19.492,15.251 C19.077,15.251 18.742,14.914 18.742,14.499 C18.742,14.086 19.077,13.749 19.492,13.749" id="Fill-413" fill="#BE9664" sketch:type="MSShapeGroup"></path>
                <path d="M16.494,10.749 C16.907,10.749 17.244,11.086 17.244,11.5 C17.244,11.914 16.907,12.249 16.494,12.249 C16.081,12.249 15.744,11.914 15.744,11.5 C15.745,11.086 16.081,10.749 16.494,10.749" id="Fill-414" fill="#BE9664" sketch:type="MSShapeGroup"></path>
                <path d="M16.492,13.749 C16.909,13.749 17.244,14.084 17.244,14.499 C17.244,14.913 16.909,15.249 16.494,15.249 C16.08,15.249 15.744,14.913 15.744,14.498 C15.744,14.084 16.08,13.749 16.492,13.749" id="Fill-415" fill="#BE9664" sketch:type="MSShapeGroup"></path>
                <path d="M10.494,15.249 C10.081,15.249 9.746,14.914 9.746,14.5 C9.746,14.086 10.081,13.749 10.494,13.749 C10.91,13.749 11.246,14.086 11.246,14.5 C11.246,14.914 10.91,15.249 10.494,15.249" id="Fill-416" fill="#BE9664" sketch:type="MSShapeGroup"></path>
                <path d="M10.497,12.249 C10.083,12.249 9.746,11.914 9.746,11.499 C9.747,11.084 10.083,10.749 10.497,10.749 C10.91,10.749 11.246,11.084 11.246,11.499 C11.246,11.914 10.91,12.249 10.497,12.249" id="Fill-417" fill="#BE9664" sketch:type="MSShapeGroup"></path>
                <path d="M13.494,18.25 C13.08,18.25 12.745,17.914 12.745,17.498 C12.745,17.086 13.08,16.748 13.494,16.748 C13.909,16.748 14.245,17.086 14.245,17.498 C14.245,17.914 13.909,18.25 13.494,18.25" id="Fill-418" fill="#BE9664" sketch:type="MSShapeGroup"></path>
                <path d="M13.494,15.25 C13.079,15.25 12.745,14.914 12.745,14.5 C12.746,14.084 13.08,13.748 13.494,13.748 C13.909,13.748 14.245,14.084 14.245,14.5 C14.245,14.914 13.909,15.25 13.494,15.25" id="Fill-419" fill="#BE9664" sketch:type="MSShapeGroup"></path>
                <path d="M13.494,12.25 C13.08,12.25 12.745,11.914 12.745,11.499 C12.745,11.086 13.08,10.748 13.494,10.748 C13.909,10.748 14.245,11.086 14.245,11.499 C14.245,11.914 13.909,12.25 13.494,12.25" id="Fill-420" fill="#BE9664" sketch:type="MSShapeGroup"></path>
                <path d="M14.245,8.499 C14.245,8.913 13.909,9.25 13.494,9.25 C13.079,9.25 12.745,8.913 12.745,8.499 C12.746,8.086 13.079,7.748 13.494,7.748 C13.909,7.748 14.245,8.086 14.245,8.499" id="Fill-421" fill="#BE9664" sketch:type="MSShapeGroup"></path>
            </g>
        </g>
    </g>
</svg>