<?xml version="1.0" encoding="UTF-8" standalone="no"?>
<svg width="24px" height="24px" viewBox="0 0 24 24" version="1.1" xmlns="http://www.w3.org/2000/svg" xmlns:xlink="http://www.w3.org/1999/xlink" xmlns:sketch="http://www.bohemiancoding.com/sketch/ns">
    <!-- Generator: Sketch 3.3 (11970) - http://www.bohemiancoding.com/sketch -->
    <title>baseball</title>
    <desc>Created with Sketch.</desc>
    <defs></defs>
    <g id="Page-1" stroke="none" stroke-width="1" fill="none" fill-rule="evenodd" sketch:type="MSPage">
        <g id="Symbolicons-Color" sketch:type="MSArtboardGroup" transform="translate(-870.000000, -758.000000)">
            <g id="baseball" sketch:type="MSLayerGroup" transform="translate(870.000000, 758.000000)">
                <path d="M24,12 C24,18.628 18.628,24 12,24 C5.373,24 0,18.628 0,12 C0,5.372 5.373,0 12,0 C18.628,0 24,5.372 24,12" id="Fill-606" fill="#ECECEC" sketch:type="MSShapeGroup"></path>
                <path d="M4.1,18.61 C3.859,18.94 3.93,19.41 4.269,19.66 C4.399,19.75 4.56,19.8 4.71,19.8 C4.94,19.8 5.17,19.69 5.319,19.49 C5.559,19.16 5.49,18.69 5.149,18.44 C4.819,18.2 4.35,18.27 4.1,18.61" id="Fill-607" fill="#C0392B" sketch:type="MSShapeGroup"></path>
                <path d="M6.27,16.19 C5.89,16.02 5.45,16.19 5.28,16.57 C5.109,16.95 5.28,17.39 5.66,17.56 C5.76,17.61 5.859,17.63 5.96,17.63 C6.25,17.63 6.519,17.46 6.649,17.18 C6.819,16.8 6.649,16.36 6.27,16.19" id="Fill-608" fill="#C0392B" sketch:type="MSShapeGroup"></path>
                <path d="M4.68,5.66 C4.84,5.66 4.99,5.61 5.13,5.52 C5.46,5.27 5.53,4.8 5.29,4.47 C5.04,4.13 4.569,4.06 4.24,4.31 C3.899,4.55 3.83,5.02 4.08,5.35 C4.229,5.55 4.45,5.66 4.68,5.66" id="Fill-609" fill="#C0392B" sketch:type="MSShapeGroup"></path>
                <path d="M5.26,7.39 C5.39,7.66 5.66,7.83 5.95,7.83 C6.05,7.83 6.149,7.81 6.25,7.76 C6.63,7.59 6.8,7.15 6.63,6.77 C6.46,6.39 6.02,6.22 5.64,6.39 C5.26,6.56 5.09,7.01 5.26,7.39" id="Fill-610" fill="#C0392B" sketch:type="MSShapeGroup"></path>
                <path d="M6,9.62 C6.069,9.97 6.38,10.21 6.729,10.21 L6.89,10.19 C7.29,10.1 7.55,9.7 7.46,9.3 C7.38,8.89 6.98,8.64 6.569,8.72 C6.17,8.81 5.91,9.21 6,9.62" id="Fill-611" fill="#C0392B" sketch:type="MSShapeGroup"></path>
                <path d="M6.899,13.76 C6.49,13.67 6.09,13.93 6.01,14.34 C5.92,14.74 6.18,15.14 6.58,15.23 L6.74,15.24 C7.09,15.24 7.399,15 7.479,14.65 L7.47,14.65 C7.56,14.24 7.3,13.84 6.899,13.76" id="Fill-612" fill="#C0392B" sketch:type="MSShapeGroup"></path>
                <path d="M7,11.2 C6.58,11.2 6.25,11.54 6.25,11.95 L6.25,12.01 C6.25,12.42 6.59,12.75 7,12.75 C7.41,12.75 7.75,12.41 7.75,12 L7.75,11.95 C7.75,11.53 7.41,11.2 7,11.2" id="Fill-613" fill="#C0392B" sketch:type="MSShapeGroup"></path>
                <path d="M17.72,7.83 C17.819,7.87 17.92,7.89 18.02,7.89 C18.309,7.89 18.59,7.73 18.71,7.45 C18.88,7.07 18.71,6.63 18.33,6.46 C17.95,6.29 17.51,6.46 17.34,6.84 C17.17,7.22 17.34,7.66 17.72,7.83" id="Fill-614" fill="#C0392B" sketch:type="MSShapeGroup"></path>
                <path d="M17.1,10.26 L17.26,10.28 C17.6,10.28 17.91,10.04 17.99,9.69 L17.99,9.68 C18.069,9.28 17.81,8.88 17.41,8.8 C17,8.71 16.6,8.97 16.52,9.38 C16.439,9.78 16.689,10.18 17.1,10.26" id="Fill-615" fill="#C0392B" sketch:type="MSShapeGroup"></path>
                <path d="M19.269,5.72 C19.5,5.72 19.73,5.61 19.88,5.41 C20.12,5.07 20.05,4.61 19.71,4.36 C19.38,4.12 18.91,4.2 18.67,4.53 C18.42,4.87 18.5,5.33 18.83,5.58 C18.97,5.67 19.12,5.72 19.269,5.72" id="Fill-616" fill="#C0392B" sketch:type="MSShapeGroup"></path>
                <path d="M18.729,16.59 C18.56,16.22 18.109,16.05 17.74,16.22 C17.359,16.39 17.189,16.83 17.359,17.21 C17.48,17.49 17.76,17.65 18.04,17.65 C18.149,17.65 18.25,17.63 18.35,17.59 C18.729,17.42 18.899,16.97 18.729,16.59" id="Fill-617" fill="#C0392B" sketch:type="MSShapeGroup"></path>
                <path d="M17.75,12.02 C17.75,11.61 17.41,11.27 17,11.28 C16.58,11.28 16.25,11.61 16.25,12.03 C16.25,12.44 16.59,12.77 17,12.77 C17.42,12.77 17.75,12.44 17.75,12.02" id="Fill-618" fill="#C0392B" sketch:type="MSShapeGroup"></path>
                <path d="M19.91,18.63 C19.66,18.29 19.19,18.22 18.859,18.46 C18.53,18.71 18.45,19.18 18.7,19.51 C18.84,19.71 19.069,19.82 19.3,19.82 C19.46,19.82 19.609,19.77 19.74,19.67 C20.08,19.43 20.149,18.96 19.91,18.63" id="Fill-619" fill="#C0392B" sketch:type="MSShapeGroup"></path>
                <path d="M18,14.36 C17.91,13.96 17.51,13.7 17.109,13.78 C16.7,13.87 16.439,14.27 16.53,14.67 C16.609,15.03 16.92,15.27 17.26,15.27 L17.42,15.25 C17.819,15.16 18.08,14.77 18,14.36" id="Fill-620" fill="#C0392B" sketch:type="MSShapeGroup"></path>
            </g>
        </g>
    </g>
</svg>