<?xml version="1.0" encoding="UTF-8" standalone="no"?>
<svg width="28px" height="28px" viewBox="0 0 28 28" version="1.1" xmlns="http://www.w3.org/2000/svg" xmlns:xlink="http://www.w3.org/1999/xlink" xmlns:sketch="http://www.bohemiancoding.com/sketch/ns">
    <!-- Generator: Sketch 3.3 (11970) - http://www.bohemiancoding.com/sketch -->
    <title>basketball</title>
    <desc>Created with Sketch.</desc>
    <defs></defs>
    <g id="Page-1" stroke="none" stroke-width="1" fill="none" fill-rule="evenodd" sketch:type="MSPage">
        <g id="Symbolicons-Color" sketch:type="MSArtboardGroup" transform="translate(-756.000000, -756.000000)">
            <g id="basketball" sketch:type="MSLayerGroup" transform="translate(756.000000, 756.000000)">
                <path d="M28,14 C28,21.732 21.732,28 14,28 C6.268,28 0,21.732 0,14 C0,6.268 6.268,0 14,0 C21.732,0 28,6.268 28,14" id="Fill-604" fill="#F39C12" sketch:type="MSShapeGroup"></path>
                <path d="M14.5,8.475 C18.239,8.346 21.616,6.789 24.121,4.344 C23.891,4.103 23.65,3.874 23.403,3.649 C21.081,5.907 17.959,7.347 14.5,7.475 L14.5,0.025 C14.333,0.019 14.169,0 14,0 C13.831,0 13.667,0.019 13.5,0.025 L13.5,7.475 C10.041,7.347 6.92,5.907 4.597,3.649 C4.35,3.874 4.109,4.103 3.879,4.344 C6.384,6.789 9.76,8.346 13.5,8.475 L13.5,13.5 L0.025,13.5 C0.019,13.667 0,13.831 0,14 C0,14.169 0.019,14.332 0.025,14.5 L13.5,14.5 L13.5,19.525 C9.76,19.654 6.384,21.211 3.879,23.655 C4.109,23.897 4.35,24.126 4.597,24.351 C6.92,22.093 10.041,20.653 13.5,20.525 L13.5,27.975 C13.667,27.981 13.831,28 14,28 C14.169,28 14.333,27.981 14.5,27.975 L14.5,20.525 C17.959,20.653 21.081,22.093 23.403,24.351 C23.65,24.126 23.891,23.897 24.121,23.655 C21.616,21.211 18.239,19.654 14.5,19.525 L14.5,14.5 L27.975,14.5 C27.981,14.332 28,14.169 28,14 C28,13.831 27.981,13.667 27.975,13.5 L14.5,13.5 L14.5,8.475" id="Fill-605" fill="#505050" sketch:type="MSShapeGroup"></path>
            </g>
        </g>
    </g>
</svg>