<?xml version="1.0" encoding="UTF-8" standalone="no"?>
<svg width="28px" height="28px" viewBox="0 0 28 28" version="1.1" xmlns="http://www.w3.org/2000/svg" xmlns:xlink="http://www.w3.org/1999/xlink" xmlns:sketch="http://www.bohemiancoding.com/sketch/ns">
    <!-- Generator: Sketch 3.3 (11970) - http://www.bohemiancoding.com/sketch -->
    <title>bed-key</title>
    <desc>Created with Sketch.</desc>
    <defs></defs>
    <g id="Page-1" stroke="none" stroke-width="1" fill="none" fill-rule="evenodd" sketch:type="MSPage">
        <g id="Symbolicons-Color" sketch:type="MSArtboardGroup" transform="translate(-84.000000, -532.000000)">
            <g id="bed-key" sketch:type="MSLayerGroup" transform="translate(84.000000, 532.000000)">
                <path d="M25,16 L28,16 L28,28 L25,28 L25,26 L3,26 L3,28 L0,28 L0,10 L3,10 L3,22 L25,22 L25,16" id="Fill-760" fill="#503C1D" sketch:type="MSShapeGroup"></path>
                <path d="M22.75,15 C23.781,15 25,15.469 25,16.5 L25,22 L3,22 L3,15 L22.75,15" id="Fill-761" fill="#1EAAE1" sketch:type="MSShapeGroup"></path>
                <path d="M23,0 C20.938,0 19.187,1.25 18.406,3 L8,3 L5,5 L8,8 L10,7 L12,8 L14,7 L16,8 L19,8 C19.906,9.219 21.375,10 23,10 C25.75,10 28,7.75 28,5 C28,2.25 25.75,0 23,0 L23,0 Z M23.5,6.5 C22.656,6.5 22,5.844 22,5 C22,4.188 22.656,3.5 23.5,3.5 C24.312,3.5 25,4.188 25,5 C25,5.844 24.312,6.5 23.5,6.5 L23.5,6.5 Z" id="Fill-762" fill="#A0A0A0" sketch:type="MSShapeGroup"></path>
                <path d="M7,15 L11,15 L11,22 L7,22 L7,15 Z" id="Fill-763" fill="#2980B9" sketch:type="MSShapeGroup"></path>
                <path d="M3,15 L7,15 L7,22 L3,22 L3,15 Z" id="Fill-764" fill="#BEE6FA" sketch:type="MSShapeGroup"></path>
            </g>
        </g>
    </g>
</svg>