<?xml version="1.0" encoding="UTF-8" standalone="no"?>
<svg width="28px" height="25px" viewBox="0 0 28 25" version="1.1" xmlns="http://www.w3.org/2000/svg" xmlns:xlink="http://www.w3.org/1999/xlink" xmlns:sketch="http://www.bohemiancoding.com/sketch/ns">
    <!-- Generator: Sketch 3.3 (11970) - http://www.bohemiancoding.com/sketch -->
    <title>bird</title>
    <desc>Created with Sketch.</desc>
    <defs></defs>
    <g id="Page-1" stroke="none" stroke-width="1" fill="none" fill-rule="evenodd" sketch:type="MSPage">
        <g id="Symbolicons-Color" sketch:type="MSArtboardGroup" transform="translate(-476.000000, -1038.000000)">
            <g id="bird" sketch:type="MSLayerGroup" transform="translate(476.000000, 1038.000000)">
                <path d="M15.999,25 C15.835,25 15.668,24.96 15.515,24.874 C15.032,24.606 14.858,23.997 15.126,23.515 L20.126,14.515 C20.394,14.031 21.003,13.855 21.486,14.126 C21.969,14.395 22.143,15.003 21.875,15.485 L16.875,24.485 C16.692,24.814 16.351,25 15.999,25" id="Fill-203" fill="#F39C12" sketch:type="MSShapeGroup"></path>
                <path d="M12,25 C11.835,25 11.668,24.96 11.515,24.874 C11.032,24.606 10.858,23.997 11.126,23.515 L16.126,14.515 C16.394,14.031 17.003,13.855 17.486,14.126 C17.969,14.395 18.143,15.003 17.874,15.485 L12.875,24.485 C12.692,24.814 12.351,25 12,25" id="Fill-204" fill="#F39C12" sketch:type="MSShapeGroup"></path>
                <path d="M0,8 L5,5.5 L5,10.5 L0,8" id="Fill-205" fill="#F39C12" sketch:type="MSShapeGroup"></path>
                <path d="M17,9 L17,6.5 C17,2.91 14.09,0 10.5,0 C6.911,0 4.001,2.91 4.001,6.5 L4.001,9 C4.001,15.628 9.373,21 16.001,21 C22.628,21 28.001,15.628 28.001,9 L17,9" id="Fill-206" fill="#1EAAE1" sketch:type="MSShapeGroup"></path>
                <path d="M10.001,6 C10.553,6 11,6.447 11,7 C11,7.553 10.553,8 10.001,8 C9.448,8 9,7.553 9,7 C9,6.447 9.448,6 10.001,6" id="Fill-223" fill="#FFFFFF" sketch:type="MSShapeGroup"></path>
                <path d="M12,12 C11,14 11.901,18 16.001,18 C20.1,18 23.619,15.531 25.163,12 L12,12" id="Fill-229" fill="#2980B9" sketch:type="MSShapeGroup"></path>
            </g>
        </g>
    </g>
</svg>