<?xml version="1.0" encoding="UTF-8" standalone="no"?>
<svg width="29px" height="29px" viewBox="0 0 29 29" version="1.1" xmlns="http://www.w3.org/2000/svg" xmlns:xlink="http://www.w3.org/1999/xlink" xmlns:sketch="http://www.bohemiancoding.com/sketch/ns">
    <!-- Generator: Sketch 3.3 (11970) - http://www.bohemiancoding.com/sketch -->
    <title>blueberries</title>
    <desc>Created with Sketch.</desc>
    <defs></defs>
    <g id="Page-1" stroke="none" stroke-width="1" fill="none" fill-rule="evenodd" sketch:type="MSPage">
        <g id="Symbolicons-Color" sketch:type="MSArtboardGroup" transform="translate(-588.000000, -755.000000)">
            <g id="blueberries" sketch:type="MSLayerGroup" transform="translate(588.000000, 755.000000)">
                <path d="M15.334,7.914 C15.334,3.772 11.976,0.414 7.833,0.414 C3.691,0.414 0.333,3.772 0.333,7.914 C0.333,12.056 3.691,15.414 7.833,15.414 C11.976,15.414 15.334,12.056 15.334,7.914" id="Fill-12" fill="#2980B9" sketch:type="MSShapeGroup"></path>
                <path d="M7.833,2.959 C7.434,2.959 7.195,3.563 7.056,4.292 C6.605,3.986 6.184,3.779 5.888,3.779 C5.719,3.779 5.617,3.846 5.561,3.9 C5.278,4.183 5.537,4.78 5.954,5.395 C5.225,5.534 4.619,5.773 4.619,6.173 C4.619,6.573 5.225,6.813 5.954,6.952 C5.537,7.566 5.278,8.163 5.561,8.446 C5.617,8.501 5.719,8.568 5.888,8.568 C6.184,8.568 6.605,8.359 7.056,8.054 C7.195,8.783 7.434,9.387 7.833,9.387 C8.233,9.387 8.472,8.783 8.611,8.054 C9.062,8.359 9.483,8.568 9.779,8.568 C9.949,8.568 10.051,8.501 10.107,8.446 C10.322,8.23 10.249,7.813 9.887,7.211 L9.704,6.953 C10.437,6.814 11.048,6.574 11.048,6.173 C11.048,5.772 10.437,5.532 9.704,5.393 L9.887,5.136 C10.249,4.533 10.322,4.117 10.107,3.9 C10.051,3.846 9.949,3.779 9.779,3.779 C9.483,3.779 9.062,3.986 8.611,4.292 C8.472,3.563 8.233,2.959 7.833,2.959" id="Fill-13" fill="#1C68A6" sketch:type="MSShapeGroup"></path>
                <path d="M17.334,20.914 C17.334,16.772 13.976,13.414 9.834,13.414 C5.691,13.414 2.334,16.772 2.334,20.914 C2.334,25.056 5.691,28.414 9.834,28.414 C13.976,28.414 17.334,25.056 17.334,20.914" id="Fill-828" fill="#1EAAE1" sketch:type="MSShapeGroup"></path>
                <path d="M13.048,19.173 C13.048,18.772 12.437,18.532 11.704,18.393 L11.887,18.136 C12.249,17.533 12.323,17.117 12.107,16.9 C12.051,16.845 11.949,16.779 11.779,16.779 C11.483,16.779 11.062,16.987 10.611,17.292 C10.472,16.563 10.233,15.959 9.834,15.959 C9.434,15.959 9.195,16.563 9.056,17.292 C8.605,16.987 8.184,16.779 7.888,16.779 C7.718,16.779 7.616,16.845 7.56,16.9 C7.278,17.183 7.537,17.781 7.954,18.395 C7.225,18.534 6.619,18.773 6.619,19.173 C6.619,19.573 7.225,19.812 7.954,19.951 C7.537,20.566 7.278,21.163 7.56,21.446 C7.616,21.501 7.718,21.568 7.888,21.568 C8.184,21.568 8.605,21.36 9.056,21.054 C9.195,21.783 9.434,22.387 9.834,22.387 C10.233,22.387 10.472,21.783 10.611,21.054 C11.062,21.36 11.483,21.568 11.779,21.568 C11.949,21.568 12.051,21.501 12.107,21.446 C12.323,21.229 12.249,20.813 11.887,20.21 L11.704,19.953 C12.437,19.814 13.048,19.575 13.048,19.173" id="Fill-829" fill="#2980B9" sketch:type="MSShapeGroup"></path>
                <path d="M28.333,7.914 C28.333,3.772 24.976,0.414 20.833,0.414 C16.691,0.414 13.333,3.772 13.333,7.914 C13.333,12.056 16.691,15.414 20.833,15.414 C24.976,15.414 28.333,12.056 28.333,7.914" id="Fill-830" fill="#1EAAE1" sketch:type="MSShapeGroup"></path>
                <path d="M24.048,6.173 C24.048,5.772 23.438,5.532 22.704,5.393 L22.887,5.136 C23.249,4.533 23.323,4.117 23.107,3.9 C23.051,3.845 22.949,3.779 22.779,3.779 C22.483,3.779 22.062,3.987 21.611,4.292 C21.472,3.563 21.233,2.959 20.833,2.959 C20.434,2.959 20.195,3.563 20.056,4.292 C19.605,3.987 19.184,3.779 18.888,3.779 C18.718,3.779 18.617,3.845 18.56,3.9 C18.278,4.183 18.537,4.781 18.954,5.395 C18.225,5.534 17.62,5.773 17.62,6.173 C17.62,6.573 18.225,6.812 18.954,6.952 C18.537,7.566 18.278,8.163 18.56,8.446 C18.617,8.501 18.718,8.568 18.888,8.568 C19.184,8.568 19.605,8.36 20.056,8.054 C20.195,8.783 20.434,9.387 20.833,9.387 C21.233,9.387 21.472,8.783 21.611,8.054 C22.062,8.36 22.483,8.568 22.779,8.568 C22.949,8.568 23.051,8.501 23.107,8.446 C23.323,8.229 23.249,7.814 22.887,7.21 L22.704,6.953 C23.438,6.814 24.048,6.574 24.048,6.173" id="Fill-831" fill="#2980B9" sketch:type="MSShapeGroup"></path>
            </g>
        </g>
    </g>
</svg>