<?xml version="1.0" encoding="UTF-8" standalone="no"?>
<svg width="28px" height="28px" viewBox="0 0 28 28" version="1.1" xmlns="http://www.w3.org/2000/svg" xmlns:xlink="http://www.w3.org/1999/xlink" xmlns:sketch="http://www.bohemiancoding.com/sketch/ns">
    <!-- Generator: Sketch 3.3 (11970) - http://www.bohemiancoding.com/sketch -->
    <title>books</title>
    <desc>Created with Sketch.</desc>
    <defs></defs>
    <g id="Page-1" stroke="none" stroke-width="1" fill="none" fill-rule="evenodd" sketch:type="MSPage">
        <g id="Symbolicons-Color" sketch:type="MSArtboardGroup" transform="translate(-476.000000, -588.000000)">
            <g id="books" sketch:type="MSLayerGroup" transform="translate(476.000000, 588.000000)">
                <path d="M24,0 L22,0 L26,28 L28,28 L24,0" id="Fill-550" fill="#BE9664" sketch:type="MSShapeGroup"></path>
                <path d="M22,0 L20,0 L24,28 L26,28 L22,0" id="Fill-551" fill="#ECECEC" sketch:type="MSShapeGroup"></path>
                <path d="M18,0 L22,28 L24,28 L20,0 L18,0" id="Fill-552" fill="#BE9664" sketch:type="MSShapeGroup"></path>
                <path d="M0,0 L8,0 L8,28 L0,28 L0,0 Z" id="Fill-553" fill="#BE9664" sketch:type="MSShapeGroup"></path>
                <path d="M9,0 L17,0 L17,28 L9,28 L9,0 Z" id="Fill-554" fill="#BE9664" sketch:type="MSShapeGroup"></path>
                <path d="M9,25 L17,25 L17,26 L9,26 L9,25 Z" id="Fill-555" fill="#8C5A3C" sketch:type="MSShapeGroup"></path>
                <path d="M2,5 L6,5 L6,6 L2,6 L2,5 Z" id="Fill-556" fill="#8C5A3C" sketch:type="MSShapeGroup"></path>
                <path d="M2,7 L6,7 L6,8 L2,8 L2,7 Z" id="Fill-557" fill="#8C5A3C" sketch:type="MSShapeGroup"></path>
                <path d="M0,2 L8,2 L8,3 L0,3 L0,2 Z" id="Fill-558" fill="#8C5A3C" sketch:type="MSShapeGroup"></path>
                <path d="M0,25 L8,25 L8,26 L0,26 L0,25 Z" id="Fill-559" fill="#8C5A3C" sketch:type="MSShapeGroup"></path>
                <path d="M11,5 L15,5 L15,6 L11,6 L11,5 Z" id="Fill-560" fill="#8C5A3C" sketch:type="MSShapeGroup"></path>
                <path d="M11,7 L15,7 L15,8 L11,8 L11,7 Z" id="Fill-561" fill="#8C5A3C" sketch:type="MSShapeGroup"></path>
                <path d="M9,2 L17,2 L17,3 L9,3 L9,2 Z" id="Fill-562" fill="#8C5A3C" sketch:type="MSShapeGroup"></path>
            </g>
        </g>
    </g>
</svg>