<?xml version="1.0" encoding="UTF-8" standalone="no"?>
<svg width="26px" height="27px" viewBox="0 0 26 27" version="1.1" xmlns="http://www.w3.org/2000/svg" xmlns:xlink="http://www.w3.org/1999/xlink" xmlns:sketch="http://www.bohemiancoding.com/sketch/ns">
    <!-- Generator: Sketch 3.3 (11970) - http://www.bohemiancoding.com/sketch -->
    <title>boot</title>
    <desc>Created with Sketch.</desc>
    <defs></defs>
    <g id="Page-1" stroke="none" stroke-width="1" fill="none" fill-rule="evenodd" sketch:type="MSPage">
        <g id="Symbolicons-Color" sketch:type="MSArtboardGroup" transform="translate(-981.000000, -365.000000)">
            <g id="boot" sketch:type="MSLayerGroup" transform="translate(981.000000, 365.000000)">
                <path d="M0,24 L0,27 L17,27 L19,25.497 L21,27 L26,27 L26,24 L0,24" id="Fill-574" fill="#BE9664" sketch:type="MSShapeGroup"></path>
                <path d="M25,23.99 L25,1.934 L11.387,2.909 L11.068,0.849 C10.984,0.304 10.47,-0.073 9.927,0.012 C9.383,0.097 9.007,0.612 9.092,1.157 L11,14 L7,14 C3.686,14 0,16.658 0,19.98 C0,21.522 0.584,22.925 1.537,23.99 L25,23.99" id="Fill-575" fill="#8C5A3C" sketch:type="MSShapeGroup"></path>
                <path d="M14,7.5 C14,7.776 13.776,8 13.5,8 L9.5,8 C9.224,8 9,7.776 9,7.5 C9,7.224 9.224,7 9.5,7 L13.5,7 C13.776,7 14,7.224 14,7.5" id="Fill-576" fill="#323232" sketch:type="MSShapeGroup"></path>
                <path d="M14.375,10.5 C14.375,10.776 14.151,11 13.875,11 L9.875,11 C9.599,11 9.375,10.776 9.375,10.5 C9.375,10.224 9.599,10 9.875,10 L13.875,10 C14.151,10 14.375,10.224 14.375,10.5" id="Fill-577" fill="#323232" sketch:type="MSShapeGroup"></path>
                <path d="M14.875,13.5 C14.875,13.776 14.651,14 14.375,14 L10.375,14 C10.099,14 9.875,13.776 9.875,13.5 C9.875,13.224 10.099,13 10.375,13 L14.375,13 C14.651,13 14.875,13.224 14.875,13.5" id="Fill-578" fill="#323232" sketch:type="MSShapeGroup"></path>
            </g>
        </g>
    </g>
</svg>