<?xml version="1.0" encoding="UTF-8" standalone="no"?>
<svg width="28px" height="28px" viewBox="0 0 28 28" version="1.1" xmlns="http://www.w3.org/2000/svg" xmlns:xlink="http://www.w3.org/1999/xlink" xmlns:sketch="http://www.bohemiancoding.com/sketch/ns">
    <!-- Generator: Sketch 3.3 (11970) - http://www.bohemiancoding.com/sketch -->
    <title>bowl-spoon</title>
    <desc>Created with Sketch.</desc>
    <defs></defs>
    <g id="Page-1" stroke="none" stroke-width="1" fill="none" fill-rule="evenodd" sketch:type="MSPage">
        <g id="Symbolicons-Color" sketch:type="MSArtboardGroup" transform="translate(-476.000000, -364.000000)">
            <g id="bowl-spoon" sketch:type="MSLayerGroup" transform="translate(476.000000, 364.000000)">
                <path d="M0,13 C0,13.55 0.45,14 1,14 L27,14 C27.55,14 28,13.55 28,13 C28,12.45 27.55,12 27,12 L1,12 C0.45,12 0,12.45 0,13" id="Fill-198" fill="#1EAAE1" sketch:type="MSShapeGroup"></path>
                <path d="M6.5,9 C9.329,9 11.729,7.747 12.622,6 L26.5,6 C27.329,6 28,5.328 28,4.5 C28,3.671 27.329,3 26.5,3 L12.622,3 C11.729,1.253 9.329,0 6.5,0 C2.91,0 0,2.015 0,4.5 C0,6.985 2.91,9 6.5,9" id="Fill-199" fill="#BEBEBE" sketch:type="MSShapeGroup"></path>
                <path d="M14,27 C21.18,27 27,21.18 27,14 L1,14 C1,21.18 6.82,27 14,27" id="Fill-240" fill="#BEE6FA" sketch:type="MSShapeGroup"></path>
                <path d="M7,23 L21,23 L21,28 L7,28 L7,23 Z" id="Fill-241" fill="#BEE6FA" sketch:type="MSShapeGroup"></path>
            </g>
        </g>
    </g>
</svg>