<?xml version="1.0" encoding="UTF-8" standalone="no"?>
<svg width="28px" height="28px" viewBox="0 0 28 28" version="1.1" xmlns="http://www.w3.org/2000/svg" xmlns:xlink="http://www.w3.org/1999/xlink" xmlns:sketch="http://www.bohemiancoding.com/sketch/ns">
    <!-- Generator: Sketch 3.3 (11970) - http://www.bohemiancoding.com/sketch -->
    <title>bowling-pins</title>
    <desc>Created with Sketch.</desc>
    <defs></defs>
    <g id="Page-1" stroke="none" stroke-width="1" fill="none" fill-rule="evenodd" sketch:type="MSPage">
        <g id="Symbolicons-Color" sketch:type="MSArtboardGroup" transform="translate(-812.000000, -868.000000)">
            <g id="bowling-pins" sketch:type="MSLayerGroup" transform="translate(812.000000, 868.000000)">
                <path d="M25.053,10 C25.021,9.781 25,9.56 25,9.333 C25,8.818 25.016,8.379 25.043,8 L25.159,7 C25.442,5.355 26,5.242 26,3 C26,0 23.5,0 23.5,0 C23.5,0 21,0 21,3 C21,5.167 21.563,5.312 21.844,7 L21.957,8 C21.984,8.381 22,8.819 22,9.333 C22,9.56 21.979,9.781 21.947,10 L21.712,11 C20.962,13.294 19,15.51 19,19.704 C19,24.889 21.25,28 21.25,28 L25.75,28 C25.75,28 28,24.889 28,19.704 C28,15.51 26.038,13.294 25.288,11 L25.053,10" id="Fill-664" fill="#ECECEC" sketch:type="MSShapeGroup"></path>
                <path d="M21.844,7 L21.957,8 L25.043,8 L25.159,7 L21.844,7" id="Fill-665" fill="#C0392B" sketch:type="MSShapeGroup"></path>
                <path d="M25.053,10 L25.288,11 L21.712,11 L21.947,10 L25.053,10" id="Fill-666" fill="#C0392B" sketch:type="MSShapeGroup"></path>
                <path d="M6.053,10 C6.022,9.781 6,9.56 6,9.334 C6,8.818 6.016,8.379 6.043,8 L6.16,7 C6.442,5.355 7,5.243 7,3.001 C7,0.001 4.5,0.001 4.5,0.001 C4.5,0.001 2,0.001 2,3.001 C2,5.167 2.562,5.312 2.844,7 L2.958,8 C2.984,8.381 3,8.819 3,9.334 C3,9.56 2.978,9.781 2.947,10 L2.712,11 C1.962,13.294 0,15.51 0,19.703 C0,24.888 2.25,28 2.25,28 L6.75,28 C6.75,28 9,24.888 9,19.703 C9,15.51 7.038,13.294 6.288,11 L6.053,10" id="Fill-667" fill="#ECECEC" sketch:type="MSShapeGroup"></path>
                <path d="M4.5,0.001 C4.5,0.001 2,0.001 2,3.001 C2,5.167 2.562,5.312 2.844,7 L2.958,8 C2.984,8.381 3,8.819 3,9.334 C3,9.56 2.978,9.781 2.947,10 L2.712,11 C1.962,13.294 0,15.51 0,19.703 C0,24.888 2.25,28 2.25,28 L6.75,28 C6.75,28 9,24.888 9,19.703 C9,15.51 7.038,13.294 6.288,11 L6.053,10 C6.022,9.781 6,9.56 6,9.334 C6,8.818 6.016,8.379 6.043,8 L6.16,7 C6.442,5.355 7,5.243 7,3.001 C7,0.001 4.5,0.001 4.5,0.001" id="Fill-668" fill="#DDDDDD" sketch:type="MSShapeGroup"></path>
                <path d="M2.844,7 L2.958,8 L6.043,8 L6.159,7 L2.844,7" id="Fill-669" fill="#C0392B" sketch:type="MSShapeGroup"></path>
                <path d="M6.053,10 L6.288,11 L2.712,11 L2.947,10 L6.053,10" id="Fill-670" fill="#C0392B" sketch:type="MSShapeGroup"></path>
                <path d="M14.053,10 C14.021,9.781 14,9.56 14,9.333 C14,8.818 14.016,8.379 14.043,8 L14.159,7 C14.442,5.355 15,5.242 15,3 C15,0 12.5,0 12.5,0 C12.5,0 10,0 10,3 C10,5.167 10.563,5.312 10.844,7 L10.958,8 C10.984,8.381 11,8.819 11,9.333 C11,9.56 10.979,9.781 10.947,10 L10.712,11 C9.962,13.294 8,15.51 8,19.704 C8,24.889 10.25,28 10.25,28 L14.75,28 C14.75,28 17,24.889 17,19.704 C17,15.51 15.038,13.294 14.288,11 L14.053,10" id="Fill-671" fill="#ECECEC" sketch:type="MSShapeGroup"></path>
                <path d="M10.844,7 L10.958,8 L14.043,8 L14.159,7 L10.844,7" id="Fill-672" fill="#C0392B" sketch:type="MSShapeGroup"></path>
                <path d="M14.053,10 L14.288,11 L10.712,11 L10.947,10 L14.053,10" id="Fill-673" fill="#C0392B" sketch:type="MSShapeGroup"></path>
            </g>
        </g>
    </g>
</svg>