<?xml version="1.0" encoding="UTF-8" standalone="no"?>
<svg width="28px" height="28px" viewBox="0 0 28 28" version="1.1" xmlns="http://www.w3.org/2000/svg" xmlns:xlink="http://www.w3.org/1999/xlink" xmlns:sketch="http://www.bohemiancoding.com/sketch/ns">
    <!-- Generator: Sketch 3.3 (11970) - http://www.bohemiancoding.com/sketch -->
    <title>bowling-ball</title>
    <desc>Created with Sketch.</desc>
    <defs></defs>
    <g id="Page-1" stroke="none" stroke-width="1" fill="none" fill-rule="evenodd" sketch:type="MSPage">
        <g id="Symbolicons-Color" sketch:type="MSArtboardGroup" transform="translate(-756.000000, -868.000000)">
            <g id="bowling-ball" sketch:type="MSLayerGroup" transform="translate(756.000000, 868.000000)">
                <path d="M14,0 C6.268,0 0,6.268 0,14 C0,21.732 6.268,28 14,28 C21.732,28 28,21.732 28,14 C28,6.268 21.732,0 14,0" id="Fill-674" fill="#505050" sketch:type="MSShapeGroup"></path>
                <path d="M18.414,13.071 C17.633,13.852 16.367,13.852 15.586,13.071 C14.805,12.29 14.805,11.024 15.586,10.243 C16.367,9.462 17.633,9.462 18.414,10.243 C19.195,11.024 19.195,12.29 18.414,13.071" id="Fill-675" fill="#323232" sketch:type="MSShapeGroup"></path>
                <path d="M19.828,7.414 C19.047,8.195 17.781,8.195 17,7.414 C16.219,6.633 16.219,5.367 17,4.586 C17.781,3.805 19.047,3.805 19.828,4.586 C20.609,5.367 20.609,6.633 19.828,7.414" id="Fill-676" fill="#323232" sketch:type="MSShapeGroup"></path>
                <path d="M21.243,11.657 C20.462,10.876 20.462,9.609 21.243,8.828 C22.024,8.047 23.29,8.047 24.071,8.828 C24.852,9.609 24.852,10.876 24.071,11.657 C23.29,12.438 22.024,12.438 21.243,11.657" id="Fill-677" fill="#323232" sketch:type="MSShapeGroup"></path>
            </g>
        </g>
    </g>
</svg>