<?xml version="1.0" encoding="UTF-8" standalone="no"?>
<svg width="29px" height="29px" viewBox="0 0 29 29" version="1.1" xmlns="http://www.w3.org/2000/svg" xmlns:xlink="http://www.w3.org/1999/xlink" xmlns:sketch="http://www.bohemiancoding.com/sketch/ns">
    <!-- Generator: Sketch 3.3 (11970) - http://www.bohemiancoding.com/sketch -->
    <title>bowling</title>
    <desc>Created with Sketch.</desc>
    <defs></defs>
    <g id="Page-1" stroke="none" stroke-width="1" fill="none" fill-rule="evenodd" sketch:type="MSPage">
        <g id="Symbolicons-Color" sketch:type="MSArtboardGroup" transform="translate(-196.000000, -364.000000)">
            <g id="bowling" sketch:type="MSLayerGroup" transform="translate(196.000000, 364.000000)">
                <path d="M12.034,28.036 C18.661,28.036 24.034,22.664 24.034,16.036 C24.034,9.409 18.661,4.036 12.034,4.036 C5.406,4.036 0.034,9.409 0.034,16.036 C0.034,22.664 5.406,28.036 12.034,28.036" id="Fill-1085" fill="#505050" sketch:type="MSShapeGroup"></path>
                <path d="M8.25,16.833 C8.92,16.163 10.005,16.163 10.674,16.833 C11.344,17.502 11.344,18.588 10.674,19.257 C10.005,19.927 8.92,19.927 8.25,19.257 C7.581,18.588 7.581,17.502 8.25,16.833" id="Fill-1086" fill="#323232" sketch:type="MSShapeGroup"></path>
                <path d="M7.038,21.681 C7.707,21.012 8.793,21.012 9.462,21.681 C10.132,22.351 10.132,23.436 9.462,24.106 C8.793,24.775 7.707,24.775 7.038,24.106 C6.368,23.436 6.368,22.351 7.038,21.681" id="Fill-1087" fill="#323232" sketch:type="MSShapeGroup"></path>
                <path d="M5.826,18.045 C6.495,18.714 6.495,19.8 5.826,20.469 C5.156,21.139 4.071,21.139 3.402,20.469 C2.732,19.8 2.732,18.714 3.402,18.045 C4.071,17.376 5.156,17.376 5.826,18.045" id="Fill-1088" fill="#323232" sketch:type="MSShapeGroup"></path>
                <path d="M25.086,10.036 C25.055,9.818 25.034,9.597 25.034,9.37 C25.034,8.854 25.049,8.415 25.076,8.036 L21.991,8.036 C22.018,8.418 22.034,8.856 22.034,9.37 C22.034,9.597 22.012,9.818 21.981,10.036 L25.086,10.036" id="Fill-1089" fill="#E5E5E4" sketch:type="MSShapeGroup"></path>
                <path d="M25.193,7.036 C25.475,5.391 26.034,5.279 26.034,3.036 C26.034,0.036 23.534,0.036 23.534,0.036 C23.534,0.036 21.034,0.036 21.034,3.036 C21.034,5.203 21.596,5.349 21.877,7.036 L25.193,7.036" id="Fill-1090" fill="#E5E5E4" sketch:type="MSShapeGroup"></path>
                <path d="M25.322,11.036 L21.746,11.036 C20.995,13.331 19.034,15.546 19.034,19.74 C19.034,24.925 21.284,28.036 21.284,28.036 L25.784,28.036 C25.784,28.036 28.034,24.925 28.034,19.74 C28.034,15.546 26.072,13.331 25.322,11.036" id="Fill-1091" fill="#E5E5E4" sketch:type="MSShapeGroup"></path>
                <path d="M25.322,11.036 L21.746,11.036 L21.981,10.036 L25.086,10.036 L25.322,11.036" id="Fill-1092" fill="#BD1F2E" sketch:type="MSShapeGroup"></path>
                <path d="M25.193,7.036 L21.877,7.036 L21.991,8.036 L25.076,8.036 L25.193,7.036" id="Fill-1093" fill="#BD1F2E" sketch:type="MSShapeGroup"></path>
            </g>
        </g>
    </g>
</svg>