<?xml version="1.0" encoding="UTF-8" standalone="no"?>
<svg width="26px" height="23px" viewBox="0 0 26 23" version="1.1" xmlns="http://www.w3.org/2000/svg" xmlns:xlink="http://www.w3.org/1999/xlink" xmlns:sketch="http://www.bohemiancoding.com/sketch/ns">
    <!-- Generator: Sketch 3.3 (11970) - http://www.bohemiancoding.com/sketch -->
    <title>burger</title>
    <desc>Created with Sketch.</desc>
    <defs></defs>
    <g id="Page-1" stroke="none" stroke-width="1" fill="none" fill-rule="evenodd" sketch:type="MSPage">
        <g id="Symbolicons-Color" sketch:type="MSArtboardGroup" transform="translate(-197.000000, -985.000000)">
            <g id="burger" sketch:type="MSLayerGroup" transform="translate(197.000000, 985.000000)">
                <path d="M1.003,12 L25.003,12 L25.003,15 L1.003,15 L1.003,12 Z" id="Fill-281" fill="#8CBE3C" sketch:type="MSShapeGroup"></path>
                <path d="M1.589,10 L24.418,10 C25.285,10 26.003,9.245 26.003,8.333 C26.003,3.854 19.568,0 13.003,0 C6.439,0 0.003,3.854 0.003,8.333 C0.003,9.245 0.709,10 1.589,10" id="Fill-282" fill="#BE9664" sketch:type="MSShapeGroup"></path>
                <path d="M24.418,18 L1.589,18 C0.709,18 0.003,18.755 0.003,19.667 L0.003,20.083 C0.003,21.685 2.146,23 4.76,23 L21.247,23 C23.861,23 26.003,21.685 26.003,20.083 L26.003,19.667 C26.003,18.755 25.285,18 24.418,18" id="Fill-283" fill="#BE9664" sketch:type="MSShapeGroup"></path>
                <path d="M5.92,3.334 C6.61,3.334 7.17,3.711 7.17,4.167 C7.17,4.623 6.61,5 5.92,5 C5.23,5 4.67,4.623 4.67,4.167 C4.67,3.711 5.23,3.334 5.92,3.334" id="Fill-284" fill="#A57D52" sketch:type="MSShapeGroup"></path>
                <path d="M10.087,1.667 C10.777,1.667 11.337,2.044 11.337,2.5 C11.337,2.956 10.777,3.334 10.087,3.334 C9.397,3.334 8.837,2.956 8.837,2.5 C8.837,2.044 9.397,1.667 10.087,1.667" id="Fill-285" fill="#A57D52" sketch:type="MSShapeGroup"></path>
                <path d="M15.92,1.667 C16.61,1.667 17.17,2.044 17.17,2.5 C17.17,2.956 16.61,3.334 15.92,3.334 C15.23,3.334 14.67,2.956 14.67,2.5 C14.67,2.044 15.23,1.667 15.92,1.667" id="Fill-286" fill="#A57D52" sketch:type="MSShapeGroup"></path>
                <path d="M20.087,3.334 C20.777,3.334 21.337,3.711 21.337,4.167 C21.337,4.623 20.777,5 20.087,5 C19.396,5 18.837,4.623 18.837,4.167 C18.837,3.711 19.396,3.334 20.087,3.334" id="Fill-287" fill="#A57D52" sketch:type="MSShapeGroup"></path>
                <path d="M26.003,16 C26.003,17.1 25.103,18 24.003,18 L2.003,18 C0.903,18 0.003,17.1 0.003,16 C0.003,14.9 0.903,14 2.003,14 L24.003,14 C25.103,14 26.003,14.9 26.003,16" id="Fill-288" fill="#8C5A3C" sketch:type="MSShapeGroup"></path>
                <path d="M12.597,14 L3.003,14 L7.003,17 L12.597,14" id="Fill-289" fill="#F1C40F" sketch:type="MSShapeGroup"></path>
                <path d="M26.003,11 C26.003,11.55 25.553,12 25.003,12 L1.003,12 C0.453,12 0.003,11.55 0.003,11 C0.003,10.45 0.453,10 1.003,10 L25.003,10 C25.553,10 26.003,10.45 26.003,11" id="Fill-290" fill="#C0392B" sketch:type="MSShapeGroup"></path>
            </g>
        </g>
    </g>
</svg>