<?xml version="1.0" encoding="UTF-8" standalone="no"?>
<svg width="20px" height="28px" viewBox="0 0 20 28" version="1.1" xmlns="http://www.w3.org/2000/svg" xmlns:xlink="http://www.w3.org/1999/xlink" xmlns:sketch="http://www.bohemiancoding.com/sketch/ns">
    <!-- Generator: Sketch 3.3 (11970) - http://www.bohemiancoding.com/sketch -->
    <title>calculator</title>
    <desc>Created with Sketch.</desc>
    <defs></defs>
    <g id="Page-1" stroke="none" stroke-width="1" fill="none" fill-rule="evenodd" sketch:type="MSPage">
        <g id="Symbolicons-Color" sketch:type="MSArtboardGroup" transform="translate(-424.000000, -588.000000)">
            <g id="calculator" sketch:type="MSLayerGroup" transform="translate(424.000000, 588.000000)">
                <path d="M20,2 C20,0.9 19.1,0 18,0 L2,0 C0.9,0 0,0.9 0,2 L0,26 C0,27.1 0.9,28 2,28 L18,28 C19.1,28 20,27.1 20,26 L20,2" id="Fill-539" fill="#505050" sketch:type="MSShapeGroup"></path>
                <path d="M6,23 C6,22.45 5.55,22 5,22 L3,22 C2.45,22 2,22.45 2,23 L2,25 C2,25.55 2.45,26 3,26 L5,26 C5.55,26 6,25.55 6,25 L6,23" id="Fill-540" fill="#A0A0A0" sketch:type="MSShapeGroup"></path>
                <path d="M18,23 C18,22.45 17.55,22 17,22 L15,22 C14.45,22 14,22.45 14,23 L14,25 C14,25.55 14.45,26 15,26 L17,26 C17.55,26 18,25.55 18,25 L18,23" id="Fill-541" fill="#A0A0A0" sketch:type="MSShapeGroup"></path>
                <path d="M12,23 C12,22.45 11.55,22 11,22 L9,22 C8.45,22 8,22.45 8,23 L8,25 C8,25.55 8.45,26 9,26 L11,26 C11.55,26 12,25.55 12,25 L12,23" id="Fill-542" fill="#A0A0A0" sketch:type="MSShapeGroup"></path>
                <path d="M6,17 C6,16.45 5.55,16 5,16 L3,16 C2.45,16 2,16.45 2,17 L2,19 C2,19.55 2.45,20 3,20 L5,20 C5.55,20 6,19.55 6,19 L6,17" id="Fill-543" fill="#A0A0A0" sketch:type="MSShapeGroup"></path>
                <path d="M18,17 C18,16.45 17.55,16 17,16 L15,16 C14.45,16 14,16.45 14,17 L14,19 C14,19.55 14.45,20 15,20 L17,20 C17.55,20 18,19.55 18,19 L18,17" id="Fill-544" fill="#A0A0A0" sketch:type="MSShapeGroup"></path>
                <path d="M12,17 C12,16.45 11.55,16 11,16 L9,16 C8.45,16 8,16.45 8,17 L8,19 C8,19.55 8.45,20 9,20 L11,20 C11.55,20 12,19.55 12,19 L12,17" id="Fill-545" fill="#A0A0A0" sketch:type="MSShapeGroup"></path>
                <path d="M6,11 C6,10.45 5.55,10 5,10 L3,10 C2.45,10 2,10.45 2,11 L2,13 C2,13.55 2.45,14 3,14 L5,14 C5.55,14 6,13.55 6,13 L6,11" id="Fill-546" fill="#A0A0A0" sketch:type="MSShapeGroup"></path>
                <path d="M18,3 C18,2.45 17.55,2 17,2 L3,2 C2.45,2 2,2.45 2,3 L2,7 C2,7.55 2.45,8 3,8 L17,8 C17.55,8 18,7.55 18,7 L18,3" id="Fill-547" fill="#8CBE3C" sketch:type="MSShapeGroup"></path>
                <path d="M18,11 C18,10.45 17.55,10 17,10 L15,10 C14.45,10 14,10.45 14,11 L14,13 C14,13.55 14.45,14 15,14 L17,14 C17.55,14 18,13.55 18,13 L18,11" id="Fill-548" fill="#A0A0A0" sketch:type="MSShapeGroup"></path>
                <path d="M12,11 C12,10.45 11.55,10 11,10 L9,10 C8.45,10 8,10.45 8,11 L8,13 C8,13.55 8.45,14 9,14 L11,14 C11.55,14 12,13.55 12,13 L12,11" id="Fill-549" fill="#A0A0A0" sketch:type="MSShapeGroup"></path>
            </g>
        </g>
    </g>
</svg>