<?xml version="1.0" encoding="UTF-8" standalone="no"?>
<svg width="28px" height="27px" viewBox="0 0 28 27" version="1.1" xmlns="http://www.w3.org/2000/svg" xmlns:xlink="http://www.w3.org/1999/xlink" xmlns:sketch="http://www.bohemiancoding.com/sketch/ns">
    <!-- Generator: Sketch 3.3 (11970) - http://www.bohemiancoding.com/sketch -->
    <title>camera-vintage</title>
    <desc>Created with Sketch.</desc>
    <defs></defs>
    <g id="Page-1" stroke="none" stroke-width="1" fill="none" fill-rule="evenodd" sketch:type="MSPage">
        <g id="Symbolicons-Color" sketch:type="MSArtboardGroup" transform="translate(-84.000000, -309.000000)">
            <g id="camera-vintage" sketch:type="MSLayerGroup" transform="translate(84.000000, 309.000000)">
                <path d="M0,6 L28,6 L28,23 L0,23 L0,6 Z" id="Fill-695" fill="#8C5A3C" sketch:type="MSShapeGroup"></path>
                <path d="M21,3 L19,0 L9,0 L7,3 L0,3 L0,6 L28,6 L28,3 L21,3" id="Fill-696" fill="#918F90" sketch:type="MSShapeGroup"></path>
                <path d="M23.5,17.5 C23.5,22.747 19.247,27 14,27 C8.753,27 4.5,22.747 4.5,17.5 C4.5,12.253 8.753,8 14,8 C19.247,8 23.5,12.253 23.5,17.5" id="Fill-697" fill="#323232" sketch:type="MSShapeGroup"></path>
                <path d="M20.5,17.5 C20.5,21.09 17.59,24 14,24 C10.41,24 7.5,21.09 7.5,17.5 C7.5,13.91 10.41,11 14,11 C17.59,11 20.5,13.91 20.5,17.5" id="Fill-698" fill="#BEE6FA" sketch:type="MSShapeGroup"></path>
                <path d="M25,9.5 C25,10.328 24.328,11 23.5,11 C22.672,11 22,10.328 22,9.5 C22,8.672 22.672,8 23.5,8 C24.328,8 25,8.672 25,9.5" id="Fill-699" fill="#F1C40F" sketch:type="MSShapeGroup"></path>
                <path d="M2,2 L5,2 L5,3 L2,3 L2,2 Z" id="Fill-700" fill="#C0392B" sketch:type="MSShapeGroup"></path>
            </g>
        </g>
    </g>
</svg>