<?xml version="1.0" encoding="UTF-8" standalone="no"?>
<svg width="28px" height="28px" viewBox="0 0 28 28" version="1.1" xmlns="http://www.w3.org/2000/svg" xmlns:xlink="http://www.w3.org/1999/xlink" xmlns:sketch="http://www.bohemiancoding.com/sketch/ns">
    <!-- Generator: Sketch 3.3 (11970) - http://www.bohemiancoding.com/sketch -->
    <title>campfire</title>
    <desc>Created with Sketch.</desc>
    <defs></defs>
    <g id="Page-1" stroke="none" stroke-width="1" fill="none" fill-rule="evenodd" sketch:type="MSPage">
        <g id="Symbolicons-Color" sketch:type="MSArtboardGroup" transform="translate(-868.000000, -364.000000)">
            <g id="campfire" sketch:type="MSLayerGroup" transform="translate(868.000000, 364.000000)">
                <path d="M17.3,4.2 C17.636,5.711 17.398,6.839 16.896,7.807 C15.528,5.144 13.19,2.46 9.5,0 C11,6.75 3.5,7.489 3.5,14.25 C3.5,18 7.25,21 11,21 L18.5,21 C22.1,21 24.5,18.6 24.5,15.6 C24.5,12 22.7,7.8 17.3,4.2" id="Fill-149" fill="#E67E22" sketch:type="MSShapeGroup"></path>
                <path d="M17.75,17.011 C16.306,17.011 16.252,13.616 16.25,12.75 C15.503,13.499 14.938,14.279 14.561,15.082 C14.226,13.489 13.44,11.95 12.219,10.5 C12.217,11.655 12.157,16.181 10.531,16.181 C9.789,16.181 9.374,15.235 9.141,14.097 C8.391,15.007 8,15.754 8,16.844 C8,18.16 9.704,19.5 11.375,19.5 L17,19.5 C18.486,19.5 20,18.495 20,17.508 C20,16.691 19.653,16.131 18.986,15.448 C18.778,16.302 18.409,17.011 17.75,17.011" id="Fill-150" fill="#F1C40F" sketch:type="MSShapeGroup"></path>
                <path d="M0,21 L27,28 L28,23 L1,16 L0,21" id="Fill-151" fill="#A57D52" sketch:type="MSShapeGroup"></path>
                <path d="M27,16 L0,23 L1,28 L28,21 L27,16" id="Fill-152" fill="#8C5A3C" sketch:type="MSShapeGroup"></path>
            </g>
        </g>
    </g>
</svg>