<?xml version="1.0" encoding="UTF-8" standalone="no"?>
<svg width="28px" height="28px" viewBox="0 0 28 28" version="1.1" xmlns="http://www.w3.org/2000/svg" xmlns:xlink="http://www.w3.org/1999/xlink" xmlns:sketch="http://www.bohemiancoding.com/sketch/ns">
    <!-- Generator: Sketch 3.3 (11970) - http://www.bohemiancoding.com/sketch -->
    <title>car-rental</title>
    <desc>Created with Sketch.</desc>
    <defs></defs>
    <g id="Page-1" stroke="none" stroke-width="1" fill="none" fill-rule="evenodd" sketch:type="MSPage">
        <g id="Symbolicons-Color" sketch:type="MSArtboardGroup" transform="translate(-756.000000, -980.000000)">
            <g id="car-rental" sketch:type="MSLayerGroup" transform="translate(756.000000, 980.000000)">
                <path d="M19,0 L9,0 C5.7,0 3,2.7 3,6 L3,15 C3,18.3 5.7,21 9,21 L19,21 C22.3,21 25,18.3 25,15 L25,6 C25,2.7 22.3,0 19,0" id="Fill-872" fill="#E67E22" sketch:type="MSShapeGroup"></path>
                <path d="M19,2 C21.206,2 23,3.794 23,6 L23,15 C23,17.206 21.206,19 19,19 L9,19 C6.794,19 5,17.206 5,15 L5,6 C5,3.794 6.794,2 9,2 L19,2" id="Fill-873" fill="#ECECEC" sketch:type="MSShapeGroup"></path>
                <path d="M24,13 L4,13 C1.8,13 0,14.8 0,17 L0,23 L28,23 L28,17 C28,14.8 26.2,13 24,13" id="Fill-874" fill="#E67E22" sketch:type="MSShapeGroup"></path>
                <path d="M3,26.198 C3,27.399 4,27.999 5,28 C6,28 7,27.399 7,26.198 L7,23 L3,23 L3,26.198" id="Fill-875" fill="#505050" sketch:type="MSShapeGroup"></path>
                <path d="M21,26.198 C21,27.399 22,27.999 23,28 C24,28 25,27.399 25,26.198 L25,23 L21,23 L21,26.198" id="Fill-876" fill="#505050" sketch:type="MSShapeGroup"></path>
                <path d="M5,20.5 C3.895,20.5 3,19.603 3,18.5 C3,17.397 3.895,16.5 5,16.5 C6.104,16.5 7,17.397 7,18.5 C7,19.603 6.104,20.5 5,20.5" id="Fill-877" fill="#F1C40F" sketch:type="MSShapeGroup"></path>
                <path d="M23,20.5 C21.895,20.5 21,19.603 21,18.5 C21,17.397 21.895,16.5 23,16.5 C24.104,16.5 25,17.397 25,18.5 C25,19.603 24.104,20.5 23,20.5" id="Fill-878" fill="#F1C40F" sketch:type="MSShapeGroup"></path>
                <path d="M26,3 L21,3 C19.896,3 19,3.896 19,5 L9,5 L6,7 L8.999,10 L11,9 L13,10 L14.999,9 L17,10 L19,10 C19,11.105 19.896,12 21,12 L26,12 C27.104,12 28,11.105 28,10 L28,5 C28,3.896 27.104,3 26,3 L26,3 Z M26,9.5 C26,9.776 25.776,10 25.5,10 C25.224,10 25,9.776 25,9.5 L25,5.5 C25,5.224 25.224,5 25.5,5 C25.776,5 26,5.224 26,5.5 L26,9.5 L26,9.5 Z" id="Fill-879" fill="#A0A0A0" sketch:type="MSShapeGroup"></path>
            </g>
        </g>
    </g>
</svg>