<?xml version="1.0" encoding="UTF-8" standalone="no"?>
<svg width="28px" height="20px" viewBox="0 0 28 20" version="1.1" xmlns="http://www.w3.org/2000/svg" xmlns:xlink="http://www.w3.org/1999/xlink" xmlns:sketch="http://www.bohemiancoding.com/sketch/ns">
    <!-- Generator: Sketch 3.3 (11970) - http://www.bohemiancoding.com/sketch -->
    <title>car-battery</title>
    <desc>Created with Sketch.</desc>
    <defs></defs>
    <g id="Page-1" stroke="none" stroke-width="1" fill="none" fill-rule="evenodd" sketch:type="MSPage">
        <g id="Symbolicons-Color" sketch:type="MSArtboardGroup" transform="translate(-924.000000, -988.000000)">
            <g id="car-battery" sketch:type="MSLayerGroup" transform="translate(924.000000, 988.000000)">
                <path d="M3,0 L11,0 L11,2 L3,2 L3,0 Z" id="Fill-914" fill="#BEBEBE" sketch:type="MSShapeGroup"></path>
                <path d="M17,0 L25,0 L25,2 L17,2 L17,0 Z" id="Fill-915" fill="#BEBEBE" sketch:type="MSShapeGroup"></path>
                <path d="M0,2 L28,2 L28,20 L0,20 L0,2 Z" id="Fill-916" fill="#505050" sketch:type="MSShapeGroup"></path>
                <path d="M3,8 L11,8 L11,10 L3,10 L3,8 Z" id="Fill-917" fill="#918F90" sketch:type="MSShapeGroup"></path>
                <path d="M25,10 L22,10 L22,13 L20,13 L20,10 L17,10 L17,8 L20,8 L20,5 L22,5 L22,8 L25,8 L25,10" id="Fill-918" fill="#918F90" sketch:type="MSShapeGroup"></path>
            </g>
        </g>
    </g>
</svg>