<?xml version="1.0" encoding="UTF-8" standalone="no"?>
<svg width="28px" height="28px" viewBox="0 0 28 28" version="1.1" xmlns="http://www.w3.org/2000/svg" xmlns:xlink="http://www.w3.org/1999/xlink" xmlns:sketch="http://www.bohemiancoding.com/sketch/ns">
    <!-- Generator: Sketch 3.3 (11970) - http://www.bohemiancoding.com/sketch -->
    <title>cherries</title>
    <desc>Created with Sketch.</desc>
    <defs></defs>
    <g id="Page-1" stroke="none" stroke-width="1" fill="none" fill-rule="evenodd" sketch:type="MSPage">
        <g id="Symbolicons-Color" sketch:type="MSArtboardGroup" transform="translate(-419.000000, -756.000000)">
            <g id="cherries" sketch:type="MSLayerGroup" transform="translate(419.000000, 756.000000)">
                <path d="M13.781,0.189 C13.618,0.079 13.432,0 13.221,0 C12.658,0 12.2,0.457 12.2,1.021 C12.2,1.552 12.61,1.974 13.129,2.023 C13.188,4.153 12.737,8.515 8.662,12.243 L9.338,12.981 C14.069,8.652 14.272,3.592 14.114,1.492 C16.178,2.728 21.48,7.018 20.502,18.068 L21.498,18.156 C22.695,4.632 14.757,0.628 13.781,0.189" id="Fill-825" fill="#8CBE3C" sketch:type="MSShapeGroup"></path>
                <path d="M14.374,14.073 C13.768,12.023 11.773,11.684 10.839,11.48 L10.132,10.773 C9.909,9.827 9.535,7.829 7.539,7.238 C2.462,5.734 -1.538,14.559 2.757,18.855 C7.052,23.15 15.878,19.15 14.374,14.073" id="Fill-826" fill="#C0392B" sketch:type="MSShapeGroup"></path>
                <path d="M25.833,16.016 C23.955,14.996 22.305,16.167 21.5,16.683 L20.5,16.683 C19.674,16.172 17.996,15.023 16.167,16.016 C11.513,18.543 14.925,27.612 21,27.612 C27.074,27.612 30.487,18.543 25.833,16.016" id="Fill-827" fill="#921816" sketch:type="MSShapeGroup"></path>
            </g>
        </g>
    </g>
</svg>