<?xml version="1.0" encoding="UTF-8" standalone="no"?>
<svg width="28px" height="28px" viewBox="0 0 28 28" version="1.1" xmlns="http://www.w3.org/2000/svg" xmlns:xlink="http://www.w3.org/1999/xlink" xmlns:sketch="http://www.bohemiancoding.com/sketch/ns">
    <!-- Generator: Sketch 3.3 (11970) - http://www.bohemiancoding.com/sketch -->
    <title>chicken-leg</title>
    <desc>Created with Sketch.</desc>
    <defs></defs>
    <g id="Page-1" stroke="none" stroke-width="1" fill="none" fill-rule="evenodd" sketch:type="MSPage">
        <g id="Symbolicons-Color" sketch:type="MSArtboardGroup" transform="translate(-252.000000, -1092.000000)">
            <g id="chicken-leg" sketch:type="MSLayerGroup" transform="translate(252.000000, 1092.000000)">
                <path d="M9.863,21.919 L6.083,18.14 C5.885,18.465 5.668,18.762 5.443,18.988 L4.318,20.113 C3.328,19.124 1.728,19.125 0.743,20.113 C-0.244,21.098 -0.243,22.701 0.743,23.685 C1.731,24.675 3.33,24.672 4.317,23.685 C3.33,24.672 3.327,26.272 4.318,27.259 C5.304,28.247 6.904,28.247 7.889,27.259 C8.877,26.274 8.878,24.675 7.89,23.685 L9.016,22.56 C9.24,22.335 9.537,22.118 9.863,21.919" id="Fill-312" fill="#BEBEBE" sketch:type="MSShapeGroup"></path>
                <path d="M25.165,2.834 C22.275,-0.057 18.265,-0.945 14.428,1.151 C14.777,1.874 14.978,2.68 14.978,3.535 C14.978,6.568 12.52,9.027 9.488,9.027 C9.132,9.027 8.786,8.99 8.45,8.926 C7.246,12.467 6.895,15.962 6.895,15.962 C6.875,16.156 6.144,17.923 6.083,18.14 L9.863,21.919 C10.08,21.858 11.846,21.127 12.039,21.108 C12.039,21.108 20.885,20.222 24.688,16.418 C29.276,11.828 28.782,6.453 25.165,2.834" id="Fill-313" fill="#8C5A3C" sketch:type="MSShapeGroup"></path>
            </g>
        </g>
    </g>
</svg>