<?xml version="1.0" encoding="UTF-8" standalone="no"?>
<svg width="28px" height="26px" viewBox="0 0 28 26" version="1.1" xmlns="http://www.w3.org/2000/svg" xmlns:xlink="http://www.w3.org/1999/xlink" xmlns:sketch="http://www.bohemiancoding.com/sketch/ns">
    <!-- Generator: Sketch 3.3 (11970) - http://www.bohemiancoding.com/sketch -->
    <title>coffee-mug-robot</title>
    <desc>Created with Sketch.</desc>
    <defs></defs>
    <g id="Page-1" stroke="none" stroke-width="1" fill="none" fill-rule="evenodd" sketch:type="MSPage">
        <g id="Symbolicons-Color" sketch:type="MSArtboardGroup" transform="translate(-140.000000, -254.000000)">
            <g id="coffee-mug-robot" sketch:type="MSLayerGroup" transform="translate(140.000000, 254.000000)">
                <path d="M9,17 L4,17 C3.458,17 3,16.542 3,16 L3,8 C3,7.458 3.458,7 4,7 L9,7 L9,4 L4,4 C1.8,4 0,5.8 0,8 L0,16 C0,18.2 1.8,20 4,20 L9,20 L9,17" id="Fill-176" fill="#8C8C8C" sketch:type="MSShapeGroup"></path>
                <path d="M7,0 L7,22 C7,24.2 8.8,26 11,26 L24,26 C26.2,26 28,24.2 28,22 L28,0 L7,0" id="Fill-177" fill="#323232" sketch:type="MSShapeGroup"></path>
                <path d="M23.625,14 L23,14 L23,12.333 C23,9.71 20.982,7.568 18.417,7.353 L18.417,6.37 C18.664,6.226 18.833,5.973 18.833,5.667 C18.833,5.204 18.462,4.833 18,4.833 C17.538,4.833 17.167,5.204 17.167,5.667 C17.167,5.973 17.336,6.226 17.583,6.37 L17.583,7.353 C15.018,7.568 13,9.71 13,12.333 L13,14 L12.375,14 C12.17,14 12,14.17 12,14.375 L12,16.625 C12,16.83 12.17,17 12.375,17 L23.625,17 C23.83,17 24,16.83 24,16.625 L24,14.375 C24,14.17 23.83,14 23.625,14 L23.625,14 Z M16,13 C15.45,13 15,12.55 15,12 C15,11.45 15.45,11 16,11 C16.55,11 17,11.45 17,12 C17,12.55 16.55,13 16,13 L16,13 Z M20,13 C19.45,13 19,12.55 19,12 C19,11.45 19.45,11 20,11 C20.55,11 21,11.45 21,12 C21,12.55 20.55,13 20,13 L20,13 Z" id="Fill-178" fill="#8C8C8C" sketch:type="MSShapeGroup"></path>
            </g>
        </g>
    </g>
</svg>