<?xml version="1.0" encoding="UTF-8" standalone="no"?>
<svg width="28px" height="28px" viewBox="0 0 28 28" version="1.1" xmlns="http://www.w3.org/2000/svg" xmlns:xlink="http://www.w3.org/1999/xlink" xmlns:sketch="http://www.bohemiancoding.com/sketch/ns">
    <!-- Generator: Sketch 3.3 (11970) - http://www.bohemiancoding.com/sketch -->
    <title>coffee-beans</title>
    <desc>Created with Sketch.</desc>
    <defs></defs>
    <g id="Page-1" stroke="none" stroke-width="1" fill="none" fill-rule="evenodd" sketch:type="MSPage">
        <g id="Symbolicons-Color" sketch:type="MSArtboardGroup" transform="translate(-588.000000, -252.000000)">
            <g id="coffee-beans" sketch:type="MSLayerGroup" transform="translate(588.000000, 252.000000)">
                <path d="M26.761,2.74 L25.464,1.444 C23.52,-0.501 18.872,0.257 16.064,3.064 C13.257,5.871 12.499,10.52 14.444,12.464 L15.74,13.761 C17.685,15.706 22.333,14.947 25.14,12.14 C27.947,9.333 28.706,4.685 26.761,2.74" id="Fill-172" fill="#503C1D" sketch:type="MSShapeGroup"></path>
                <path d="M8,11 L6,11 C3,11 0,15.17 0,19.5 C0,23.83 3,28 6,28 L8,28 C11,28 14,23.83 14,19.5 C14,15.17 11,11 8,11" id="Fill-173" fill="#503C1D" sketch:type="MSShapeGroup"></path>
                <path d="M15.74,13.761 L14.444,12.464 L25.464,1.444 L26.761,2.74 L15.74,13.761" id="Fill-174" fill="#8C5A3C" sketch:type="MSShapeGroup"></path>
                <path d="M6,11 L8,11 L8,28 L6,28 L6,11 Z" id="Fill-175" fill="#8C5A3C" sketch:type="MSShapeGroup"></path>
            </g>
        </g>
    </g>
</svg>