<?xml version="1.0" encoding="UTF-8" standalone="no"?>
<svg width="28px" height="28px" viewBox="0 0 28 28" version="1.1" xmlns="http://www.w3.org/2000/svg" xmlns:xlink="http://www.w3.org/1999/xlink" xmlns:sketch="http://www.bohemiancoding.com/sketch/ns">
    <!-- Generator: Sketch 3.3 (11970) - http://www.bohemiancoding.com/sketch -->
    <title>coffee-pot</title>
    <desc>Created with Sketch.</desc>
    <defs></defs>
    <g id="Page-1" stroke="none" stroke-width="1" fill="none" fill-rule="evenodd" sketch:type="MSPage">
        <g id="Symbolicons-Color" sketch:type="MSArtboardGroup" transform="translate(-420.000000, -252.000000)">
            <g id="coffee-pot" sketch:type="MSLayerGroup" transform="translate(420.000000, 252.000000)">
                <path d="M6,0 L6.432,1.511 C5.523,1.603 4.283,1.927 3.092,2.935 C1.04,4.674 0,7.724 0,12 C0,12.828 0.672,13.5 1.5,13.5 C2.328,13.5 3,12.828 3,12 C3,8.73 3.688,6.4 4.989,5.261 C6.036,4.344 7.195,4.473 7.273,4.482 L7.281,4.483 L8,7 L23,7 L27,0 L6,0" id="Fill-166" fill="#1EAAE1" sketch:type="MSShapeGroup"></path>
                <path d="M3,20 C3,23.918 4.217,25.296 6.202,28 L24.798,28 C26.783,25.296 28,23.918 28,20 C28,18.33 27.706,16.64 27.217,15 L3.783,15 C3.294,16.64 3,18.33 3,20" id="Fill-167" fill="#503C1D" sketch:type="MSShapeGroup"></path>
                <path d="M27.217,15 C26.327,12.013 24.77,9.196 23,7 L8,7 C6.23,9.196 4.673,12.013 3.783,15 L27.217,15" id="Fill-168" fill="#ECECEC" sketch:type="MSShapeGroup"></path>
            </g>
        </g>
    </g>
</svg>