<?xml version="1.0" encoding="UTF-8" standalone="no"?>
<svg width="28px" height="26px" viewBox="0 0 28 26" version="1.1" xmlns="http://www.w3.org/2000/svg" xmlns:xlink="http://www.w3.org/1999/xlink" xmlns:sketch="http://www.bohemiancoding.com/sketch/ns">
    <!-- Generator: Sketch 3.3 (11970) - http://www.bohemiancoding.com/sketch -->
    <title>coffee-mug</title>
    <desc>Created with Sketch.</desc>
    <defs></defs>
    <g id="Page-1" stroke="none" stroke-width="1" fill="none" fill-rule="evenodd" sketch:type="MSPage">
        <g id="Symbolicons-Color" sketch:type="MSArtboardGroup" transform="translate(-476.000000, -254.000000)">
            <g id="coffee-mug" sketch:type="MSLayerGroup" transform="translate(476.000000, 254.000000)">
                <path d="M9,17 L4,17 C3.458,17 3,16.542 3,16 L3,8 C3,7.458 3.458,7 4,7 L9,7 L9,4 L4,4 C1.8,4 0,5.8 0,8 L0,16 C0,18.2 1.8,20 4,20 L9,20 L9,17" id="Fill-169" fill="#BEBEBE" sketch:type="MSShapeGroup"></path>
                <path d="M7,0 L7,22 C7,24.2 8.8,26 11,26 L24,26 C26.2,26 28,24.2 28,22 L28,0 L7,0" id="Fill-170" fill="#ECECEC" sketch:type="MSShapeGroup"></path>
                <path d="M23.175,11.828 L23.181,11.828 C22.812,14.853 18.086,17.844 18.086,17.844 C17.762,18.05 17.238,18.05 16.914,17.855 C16.914,17.855 12.176,14.948 11.819,11.828 L11.825,11.828 C11.808,11.711 11.786,11.589 11.786,11.466 C11.786,9.87 13.131,8 14.788,8 C15.988,8 17.02,8.686 17.5,9.674 C17.98,8.686 19.012,8 20.217,8 C21.869,8 23.214,9.87 23.214,11.466 C23.214,11.589 23.192,11.711 23.175,11.828" id="Fill-171" fill="#C0392B" sketch:type="MSShapeGroup"></path>
            </g>
        </g>
    </g>
</svg>