<?xml version="1.0" encoding="UTF-8" standalone="no"?>
<svg width="28px" height="28px" viewBox="0 0 28 28" version="1.1" xmlns="http://www.w3.org/2000/svg" xmlns:xlink="http://www.w3.org/1999/xlink" xmlns:sketch="http://www.bohemiancoding.com/sketch/ns">
    <!-- Generator: Sketch 3.3 (11970) - http://www.bohemiancoding.com/sketch -->
    <title>cookie</title>
    <desc>Created with Sketch.</desc>
    <defs></defs>
    <g id="Page-1" stroke="none" stroke-width="1" fill="none" fill-rule="evenodd" sketch:type="MSPage">
        <g id="Symbolicons-Color" sketch:type="MSArtboardGroup" transform="translate(-196.000000, -868.000000)">
            <g id="cookie" sketch:type="MSLayerGroup" transform="translate(196.000000, 868.000000)">
                <path d="M26.61,9.657 C26.116,9.875 25.574,10 25,10 C23.61,10 22.388,9.29 21.671,8.214 C20.897,8.705 19.985,9 19,9 C16.239,9 14,6.761 14,4 C12.141,4 10.593,2.726 10.144,1.008 C9.985,1.041 9.827,1.079 9.673,1.129 C8.288,1.579 7.246,2.726 6.093,3.565 C4.93,4.412 3.52,5.054 2.673,6.218 C1.834,7.37 1.653,8.905 1.204,10.289 C0.77,11.625 0,12.967 0,14.448 C0,15.928 0.77,17.269 1.204,18.605 C1.653,19.99 1.834,21.525 2.673,22.677 C3.52,23.841 4.929,24.483 6.093,25.33 C7.246,26.169 8.288,27.316 9.672,27.766 C11.009,28.2 12.519,27.898 14,27.898 C15.481,27.898 16.991,28.2 18.327,27.766 C19.712,27.316 20.754,26.169 21.906,25.33 C23.071,24.484 24.48,23.841 25.327,22.677 C26.166,21.525 26.346,19.99 26.796,18.606 C27.23,17.269 28,15.928 28,14.448 C28,12.967 27.23,11.626 26.796,10.289 C26.729,10.082 26.668,9.87 26.61,9.657" id="Fill-87" fill="#BE9664" sketch:type="MSShapeGroup"></path>
                <path d="M7.664,18.198 C7.492,18.507 7.298,18.821 7,19 C6.712,19.173 6.357,19.197 6,19.197 C5.643,19.197 5.288,19.173 5,19 C4.702,18.821 4.508,18.506 4.335,18.197 C4.169,17.897 4,17.569 4,17.197 C4,16.825 4.169,16.497 4.336,16.196 C4.508,15.887 4.702,15.573 5,15.394 C5.288,15.22 5.643,15.197 6,15.197 C6.357,15.197 6.712,15.22 7,15.394 C7.298,15.573 7.492,15.887 7.664,16.197 C7.831,16.497 8,16.825 8,17.197 C8,17.569 7.831,17.897 7.664,18.198" id="Fill-88" fill="#503C1D" sketch:type="MSShapeGroup"></path>
                <path d="M8.854,10.035 C8.765,10.285 8.66,10.541 8.462,10.711 C8.27,10.875 8.011,10.936 7.747,10.979 C7.482,11.024 7.217,11.05 6.982,10.957 C6.74,10.861 6.557,10.653 6.392,10.445 C6.232,10.243 6.067,10.022 6.021,9.747 C5.975,9.472 6.059,9.208 6.146,8.965 C6.235,8.715 6.34,8.459 6.538,8.289 C6.73,8.125 6.989,8.065 7.253,8.021 C7.518,7.976 7.783,7.95 8.018,8.043 C8.26,8.139 8.443,8.347 8.608,8.555 C8.769,8.757 8.934,8.979 8.98,9.253 C9.026,9.529 8.941,9.792 8.854,10.035" id="Fill-89" fill="#503C1D" sketch:type="MSShapeGroup"></path>
                <path d="M14.916,21.702 C14.894,21.967 14.857,22.241 14.709,22.455 C14.565,22.663 14.33,22.788 14.086,22.898 C13.841,23.008 13.592,23.101 13.341,23.071 C13.082,23.04 12.853,22.885 12.639,22.726 C12.433,22.572 12.216,22.4 12.102,22.146 C11.988,21.891 12.002,21.615 12.024,21.358 C12.046,21.093 12.083,20.819 12.231,20.605 C12.375,20.397 12.61,20.272 12.854,20.162 C13.099,20.052 13.348,19.959 13.599,19.989 C13.858,20.02 14.087,20.175 14.301,20.334 C14.507,20.488 14.723,20.66 14.838,20.914 C14.952,21.169 14.938,21.445 14.916,21.702" id="Fill-90" fill="#503C1D" sketch:type="MSShapeGroup"></path>
                <path d="M16.936,15.154 C16.897,15.495 16.844,15.86 16.627,16.163 C16.411,16.465 16.083,16.634 15.773,16.781 C15.453,16.933 15.112,17.076 14.766,17.049 C14.43,17.022 14.128,16.835 13.837,16.627 C13.547,16.42 13.272,16.195 13.138,15.885 C13,15.567 13.024,15.198 13.064,14.846 C13.103,14.505 13.157,14.14 13.372,13.838 C13.589,13.535 13.917,13.366 14.227,13.219 C14.547,13.067 14.888,12.924 15.234,12.952 C15.57,12.978 15.872,13.165 16.163,13.372 C16.453,13.58 16.728,13.805 16.862,14.115 C17,14.433 16.975,14.802 16.936,15.154" id="Fill-91" fill="#503C1D" sketch:type="MSShapeGroup"></path>
                <path d="M22.635,19.412 C22.476,19.625 22.3,19.838 22.06,19.942 C21.828,20.041 21.563,20.022 21.297,19.986 C21.032,19.95 20.771,19.897 20.574,19.738 C20.371,19.575 20.258,19.322 20.162,19.075 C20.068,18.835 19.976,18.573 20.014,18.297 C20.051,18.021 20.21,17.794 20.365,17.588 C20.524,17.375 20.7,17.162 20.94,17.059 C21.172,16.959 21.437,16.978 21.703,17.014 C21.968,17.05 22.229,17.103 22.426,17.262 C22.629,17.425 22.742,17.678 22.838,17.925 C22.932,18.165 23.024,18.427 22.986,18.703 C22.949,18.979 22.79,19.206 22.635,19.412" id="Fill-92" fill="#503C1D" sketch:type="MSShapeGroup"></path>
                <path d="M25.75,4.852 C25.966,4.983 26.232,5 26.5,5 C26.768,5 27.034,4.983 27.25,4.852 C27.473,4.718 27.619,4.482 27.748,4.251 C27.873,4.025 28,3.779 28,3.5 C28,3.221 27.873,2.975 27.749,2.75 C27.619,2.518 27.474,2.282 27.25,2.148 C27.034,2.018 26.768,2 26.5,2 C26.232,2 25.966,2.017 25.75,2.148 C25.527,2.282 25.381,2.517 25.252,2.749 C25.127,2.975 25,3.221 25,3.5 C25,3.779 25.126,4.025 25.252,4.25 C25.381,4.482 25.527,4.718 25.75,4.852" id="Fill-93" fill="#BE9664" sketch:type="MSShapeGroup"></path>
                <path d="M17.5,1.901 C17.644,1.988 17.821,2 18,2 C18.179,2 18.356,1.988 18.5,1.902 C18.649,1.812 18.746,1.655 18.832,1.5 C18.916,1.35 19,1.186 19,1 C19,0.814 18.916,0.65 18.832,0.5 C18.746,0.345 18.649,0.188 18.5,0.099 C18.356,0.012 18.179,0 18,0 C17.822,0 17.644,0.012 17.5,0.098 C17.351,0.188 17.254,0.345 17.168,0.5 C17.084,0.65 17,0.814 17,1 C17,1.186 17.084,1.35 17.168,1.5 C17.254,1.655 17.351,1.812 17.5,1.901" id="Fill-94" fill="#BE9664" sketch:type="MSShapeGroup"></path>
            </g>
        </g>
    </g>
</svg>