<?xml version="1.0" encoding="UTF-8" standalone="no"?>
<svg width="30px" height="30px" viewBox="0 0 30 30" version="1.1" xmlns="http://www.w3.org/2000/svg" xmlns:xlink="http://www.w3.org/1999/xlink" xmlns:sketch="http://www.bohemiancoding.com/sketch/ns">
    <!-- Generator: Sketch 3.3 (11970) - http://www.bohemiancoding.com/sketch -->
    <title>corn</title>
    <desc>Created with Sketch.</desc>
    <defs></defs>
    <g id="Page-1" stroke="none" stroke-width="1" fill="none" fill-rule="evenodd" sketch:type="MSPage">
        <g id="Symbolicons-Color" sketch:type="MSArtboardGroup" transform="translate(-475.000000, -867.000000)">
            <g id="corn" sketch:type="MSLayerGroup" transform="translate(475.000000, 867.000000)">
                <path d="M21.468,9.946 L21.49,9.925 L20.075,8.51 L20.054,8.531 L11.569,0.046 L9.67,5.382 C9.378,6.201 8.882,6.976 8.234,7.624 L5.2,10.659 C1.523,14.334 -0.073,19.553 1.647,23.403 C2.015,24.227 2.514,24.912 3.094,25.492 L3.084,25.502 L4.498,26.916 L4.508,26.906 C5.088,27.486 5.773,27.985 6.597,28.353 C10.446,30.073 15.665,28.477 19.341,24.8 L22.376,21.766 C23.024,21.118 23.799,20.622 24.618,20.331 L29.954,18.431 L21.468,9.946" id="Fill-1069" fill="#46A046" sketch:type="MSShapeGroup"></path>
                <path d="M6.082,12.151 C6.535,11.671 7.171,11.458 7.779,11.529 C7.772,10.956 8.02,10.384 8.493,9.98 C8.967,9.592 9.568,9.443 10.127,9.55 C10.154,8.983 10.424,8.432 10.912,8.058 L10.904,8.05 C11.385,7.682 11.994,7.57 12.545,7.683 C12.594,7.124 12.884,6.58 13.379,6.226 C13.874,5.872 14.482,5.773 15.034,5.915 C15.091,5.349 15.409,4.819 15.918,4.479 C16.427,4.14 17.035,4.069 17.594,4.232 C17.679,3.666 18.011,3.15 18.541,2.832 C19.078,2.521 19.701,2.478 20.253,2.676 C20.379,2.11 20.754,1.595 21.32,1.326 C21.907,1.036 22.558,1.064 23.095,1.332 C23.307,0.739 23.788,0.258 24.424,0.074 L24.432,0.081 C25.209,-0.145 25.994,0.117 26.489,0.682 C27.281,-0.025 28.49,-0.004 29.247,0.753 C30.004,1.51 30.025,2.719 29.318,3.511 C29.883,4.006 30.145,4.791 29.919,5.568 L29.926,5.576 C29.742,6.212 29.261,6.693 28.668,6.905 C28.936,7.442 28.964,8.093 28.674,8.68 C28.406,9.246 27.89,9.621 27.324,9.747 C27.522,10.299 27.479,10.922 27.168,11.459 C26.85,11.989 26.334,12.321 25.768,12.406 C25.931,12.965 25.86,13.573 25.521,14.082 C25.181,14.591 24.651,14.909 24.086,14.966 C24.227,15.518 24.128,16.126 23.774,16.621 C23.42,17.116 22.877,17.406 22.317,17.455 C22.43,18.006 22.318,18.615 21.95,19.096 L21.942,19.088 C21.568,19.576 21.017,19.846 20.45,19.873 C20.557,20.432 20.408,21.033 20.02,21.507 C19.616,21.98 19.044,22.228 18.471,22.221 C18.542,22.829 18.329,23.465 17.849,23.918 C17.332,24.406 16.625,24.561 15.982,24.399 C15.89,25.056 15.472,25.658 14.815,25.947 C14.165,26.245 13.422,26.153 12.871,25.771 C12.553,26.372 11.93,26.796 11.202,26.832 C10.459,26.867 9.788,26.492 9.412,25.905 C8.854,26.336 8.084,26.471 7.391,26.174 C6.676,25.869 6.238,25.205 6.174,24.491 C5.957,24.531 5.734,24.519 5.515,24.485 C5.481,24.266 5.469,24.043 5.509,23.826 C4.795,23.762 4.131,23.324 3.826,22.609 C3.529,21.916 3.664,21.146 4.095,20.588 C3.508,20.212 3.133,19.541 3.168,18.798 C3.204,18.07 3.628,17.448 4.229,17.129 C3.847,16.578 3.755,15.835 4.052,15.185 C4.342,14.528 4.944,14.11 5.601,14.018 C5.439,13.375 5.594,12.668 6.082,12.151" id="Fill-1070" fill="#F1C40F" sketch:type="MSShapeGroup"></path>
                <path d="M29.954,18.431 L27.833,16.31 L2.377,19.138 L3.975,24.611 L9.111,27.961 L15.512,27.216 L19.342,24.8 L25.004,19.138 L29.954,18.431" id="Fill-1071" fill="#46A046" sketch:type="MSShapeGroup"></path>
                <path d="M23.523,5.959 C23.523,6.511 23.076,6.958 22.523,6.958 C21.971,6.958 21.523,6.511 21.523,5.959 C21.523,5.406 21.971,4.958 22.523,4.958 C23.076,4.958 23.523,5.406 23.523,5.959" id="Fill-1072" fill="#F39C12" sketch:type="MSShapeGroup"></path>
                <path d="M18.523,7.958 C18.523,8.511 18.076,8.959 17.523,8.959 C16.971,8.959 16.523,8.511 16.523,7.958 C16.523,7.406 16.971,6.958 17.523,6.958 C18.076,6.958 18.523,7.406 18.523,7.958" id="Fill-1073" fill="#F39C12" sketch:type="MSShapeGroup"></path>
                <path d="M22.523,9.958 C22.523,10.511 22.076,10.958 21.523,10.958 C20.971,10.958 20.523,10.511 20.523,9.958 C20.523,9.406 20.971,8.959 21.523,8.959 C22.076,8.959 22.523,9.406 22.523,9.958" id="Fill-1074" fill="#F39C12" sketch:type="MSShapeGroup"></path>
            </g>
        </g>
    </g>
</svg>