<?xml version="1.0" encoding="UTF-8" standalone="no"?>
<svg width="28px" height="28px" viewBox="0 0 28 28" version="1.1" xmlns="http://www.w3.org/2000/svg" xmlns:xlink="http://www.w3.org/1999/xlink" xmlns:sketch="http://www.bohemiancoding.com/sketch/ns">
    <!-- Generator: Sketch 3.3 (11970) - http://www.bohemiancoding.com/sketch -->
    <title>donut</title>
    <desc>Created with Sketch.</desc>
    <defs></defs>
    <g id="Page-1" stroke="none" stroke-width="1" fill="none" fill-rule="evenodd" sketch:type="MSPage">
        <g id="Symbolicons-Color" sketch:type="MSArtboardGroup" transform="translate(-84.000000, -756.000000)">
            <g id="donut" sketch:type="MSLayerGroup" transform="translate(84.000000, 756.000000)">
                <path d="M14,0 C6.268,0 0,6.268 0,14 C0,21.731 6.268,28 14,28 C21.733,28 28,21.731 28,14 C28,6.268 21.733,0 14,0 L14,0 Z M14,17 C12.346,17 11,15.654 11,14 C11,12.346 12.346,11 14,11 C15.654,11 17,12.346 17,14 C17,15.654 15.654,17 14,17 L14,17 Z" id="Fill-109" fill="#BE9664" sketch:type="MSShapeGroup"></path>
                <path d="M25.899,17.709 C25.505,18.868 24.008,19.497 23.274,20.463 C22.534,21.438 22.366,22.995 21.35,23.705 C20.344,24.408 18.75,24.085 17.543,24.463 C16.375,24.827 15.292,26 14,26 C12.707,26 11.624,24.827 10.457,24.463 C9.248,24.085 7.656,24.408 6.648,23.705 C5.633,22.995 5.467,21.438 4.727,20.463 C3.992,19.497 2.495,18.867 2.102,17.709 C1.722,16.588 2.533,15.239 2.533,14 C2.533,12.76 1.722,11.411 2.102,10.291 C2.495,9.133 3.993,8.504 4.727,7.537 C5.467,6.563 5.634,5.005 6.651,4.295 C7.656,3.592 9.248,3.914 10.457,3.537 C11.624,3.173 12.707,2 14,2 C15.292,2 16.376,3.173 17.543,3.537 C18.752,3.915 20.344,3.592 21.35,4.295 C22.366,5.005 22.534,6.563 23.274,7.537 C24.008,8.504 25.505,9.133 25.899,10.291 C26.278,11.411 25.468,12.76 25.468,14 C25.468,15.239 26.278,16.589 25.899,17.709 L25.899,17.709 Z M14,9 C11.244,9 9,11.242 9,14 C9,16.758 11.244,19 14,19 C16.758,19 19,16.758 19,14 C19,11.242 16.758,9 14,9 L14,9 Z" id="Fill-110" fill="#8C5A3C" sketch:type="MSShapeGroup"></path>
                <path d="M11,8 C11.256,8 11.512,7.902 11.707,7.707 L13.207,6.207 C13.598,5.816 13.598,5.184 13.207,4.793 C12.816,4.402 12.184,4.402 11.793,4.793 L10.293,6.293 C9.902,6.684 9.902,7.316 10.293,7.707 C10.488,7.902 10.744,8 11,8" id="Fill-111" fill="#EC648B" sketch:type="MSShapeGroup"></path>
                <path d="M20.342,12.627 L22.209,13.633 C22.36,13.715 22.522,13.753 22.683,13.753 C23.039,13.753 23.384,13.563 23.564,13.227 C23.826,12.741 23.645,12.135 23.158,11.873 L21.291,10.867 C20.803,10.606 20.197,10.787 19.936,11.274 C19.674,11.759 19.855,12.365 20.342,12.627" id="Fill-112" fill="#FFFFFF" sketch:type="MSShapeGroup"></path>
                <path d="M9.793,19.793 L8.293,21.293 C7.902,21.684 7.902,22.316 8.293,22.707 C8.488,22.902 8.744,23 9,23 C9.256,23 9.512,22.902 9.707,22.707 L11.207,21.207 C11.598,20.816 11.598,20.184 11.207,19.793 C10.817,19.402 10.184,19.402 9.793,19.793" id="Fill-113" fill="#EC648B" sketch:type="MSShapeGroup"></path>
                <path d="M16.753,20.508 L14.697,21.031 C14.162,21.167 13.838,21.711 13.975,22.247 C14.09,22.699 14.496,23 14.943,23 L15.19,22.969 L17.247,22.445 C17.782,22.31 18.106,21.766 17.969,21.23 C17.832,20.694 17.285,20.367 16.753,20.508" id="Fill-114" fill="#FFFFFF" sketch:type="MSShapeGroup"></path>
                <path d="M22.727,16.459 L20.686,17.038 C20.154,17.188 19.846,17.741 19.996,18.272 C20.121,18.713 20.521,19 20.957,19 C21.048,19 21.14,18.988 21.23,18.962 L23.272,18.383 C23.804,18.232 24.112,17.68 23.962,17.148 C23.81,16.616 23.255,16.308 22.727,16.459" id="Fill-115" fill="#EC648B" sketch:type="MSShapeGroup"></path>
                <path d="M20.025,6.754 C19.889,6.217 19.342,5.895 18.81,6.031 L16.753,6.555 C16.218,6.69 15.894,7.234 16.031,7.77 C16.146,8.223 16.553,8.523 16.999,8.523 L17.247,8.492 L19.304,7.969 C19.839,7.833 20.162,7.289 20.025,6.754" id="Fill-116" fill="#EC648B" sketch:type="MSShapeGroup"></path>
                <path d="M4.957,12 C5.048,12 5.14,11.988 5.23,11.962 L7.273,11.383 C7.805,11.233 8.113,10.68 7.962,10.149 C7.813,9.617 7.259,9.311 6.727,9.459 L4.685,10.038 C4.154,10.188 3.846,10.742 3.996,11.274 C4.121,11.713 4.521,12 4.957,12" id="Fill-117" fill="#FFFFFF" sketch:type="MSShapeGroup"></path>
                <path d="M7.475,16.119 L5.608,15.113 C5.121,14.852 4.514,15.034 4.252,15.52 C3.99,16.006 4.172,16.612 4.658,16.875 L6.525,17.881 C6.677,17.962 6.839,18 6.999,18 C7.355,18 7.699,17.81 7.881,17.475 C8.143,16.988 7.961,16.382 7.475,16.119" id="Fill-118" fill="#EC648B" sketch:type="MSShapeGroup"></path>
            </g>
        </g>
    </g>
</svg>