<?xml version="1.0" encoding="UTF-8" standalone="no"?>
<svg width="28px" height="28px" viewBox="0 0 28 28" version="1.1" xmlns="http://www.w3.org/2000/svg" xmlns:xlink="http://www.w3.org/1999/xlink" xmlns:sketch="http://www.bohemiancoding.com/sketch/ns">
    <!-- Generator: Sketch 3.3 (11970) - http://www.bohemiancoding.com/sketch -->
    <title>egg-fried</title>
    <desc>Created with Sketch.</desc>
    <defs></defs>
    <g id="Page-1" stroke="none" stroke-width="1" fill="none" fill-rule="evenodd" sketch:type="MSPage">
        <g id="Symbolicons-Color" sketch:type="MSArtboardGroup" transform="translate(-420.000000, -196.000000)">
            <g id="egg-fried" sketch:type="MSLayerGroup" transform="translate(419.000000, 196.000000)">
                <path d="M26.443,14.254 C26.177,14.025 25.829,13.808 25.462,13.578 C24.509,12.985 23.324,12.247 22.628,10.736 C21.847,9.033 21.128,7.296 20.431,5.615 L19.831,4.175 C19.24,2.754 18.669,1.935 17.863,1.349 L17.798,1.303 L17.74,1.251 C16.823,0.468 15.38,0 13.88,0 C12.214,0 10.636,0.574 9.759,1.499 L9.714,1.548 L9.663,1.594 C9.105,2.109 8.656,2.733 8.329,3.447 C8.05,4.058 7.826,4.664 7.589,5.307 C6.98,6.955 6.349,8.659 4.81,10.271 L4.333,10.765 C2.902,12.246 1.665,13.525 1.238,15.274 C0.425,18.582 1.72,22.168 4.245,23.616 C5.667,24.431 7.41,24.654 9.255,24.892 C9.628,24.939 10.001,24.987 10.37,25.04 C12.349,25.322 13.966,26.012 15.533,26.679 C16.308,27.009 17.038,27.321 17.816,27.588 C18.615,27.861 19.437,28 20.265,28 C23.755,28 27.228,25.483 28.523,22.017 C29.15,20.336 29.714,17.093 26.443,14.254" id="Fill-123" fill="#F6F6F6" sketch:type="MSShapeGroup"></path>
                <path d="M14.003,20.885 C10.759,20.885 8.119,18.245 8.119,15.001 C8.119,11.756 10.759,9.116 14.003,9.116 C17.249,9.116 19.888,11.756 19.888,15.001 C19.888,18.245 17.249,20.885 14.003,20.885" id="Fill-124" fill="#F1C40F" sketch:type="MSShapeGroup"></path>
                <path d="M13.259,10.835 C11.419,10.972 9.98,12.525 9.98,14.371 C9.98,14.657 10.212,14.891 10.499,14.891 C10.785,14.891 11.017,14.657 11.017,14.371 C11.017,13.065 12.035,11.965 13.335,11.87 C13.62,11.849 13.835,11.6 13.814,11.314 C13.792,11.028 13.554,10.811 13.259,10.835" id="Fill-125" fill="#F39C12" sketch:type="MSShapeGroup"></path>
            </g>
        </g>
    </g>
</svg>