<?xml version="1.0" encoding="UTF-8" standalone="no"?>
<svg width="22px" height="22px" viewBox="0 0 22 22" version="1.1" xmlns="http://www.w3.org/2000/svg" xmlns:xlink="http://www.w3.org/1999/xlink" xmlns:sketch="http://www.bohemiancoding.com/sketch/ns">
    <!-- Generator: Sketch 3.3 (11970) - http://www.bohemiancoding.com/sketch -->
    <title>eightball</title>
    <desc>Created with Sketch.</desc>
    <defs></defs>
    <g id="Page-1" stroke="none" stroke-width="1" fill="none" fill-rule="evenodd" sketch:type="MSPage">
        <g id="Symbolicons-Color" sketch:type="MSArtboardGroup" transform="translate(-871.000000, -815.000000)">
            <g id="eightball" sketch:type="MSLayerGroup" transform="translate(871.000000, 815.000000)">
                <path d="M11,0 C4.926,0 0,4.925 0,11 C0,17.076 4.926,22 11,22 C17.075,22 22,17.076 22,11 C22,4.925 17.075,0 11,0" id="Fill-130" fill="#505050" sketch:type="MSShapeGroup"></path>
                <path d="M11.003,14.17 C7.532,14.17 4.719,11.357 4.719,7.884 C4.719,4.41 7.532,1.598 11.003,1.598 C14.476,1.598 17.29,4.41 17.29,7.884 C17.29,11.357 14.476,14.17 11.003,14.17" id="Fill-131" fill="#FFFFFF" sketch:type="MSShapeGroup"></path>
                <path d="M13.118,7.177 C13.559,6.842 13.914,6.386 13.914,5.634 C13.914,4.028 12.714,3.143 11.015,3.143 C9.312,3.143 8.095,4.028 8.095,5.634 C8.095,6.386 8.468,6.902 8.89,7.2 C8.437,7.417 7.793,7.967 7.793,9.046 C7.793,10.744 9.021,11.786 10.994,11.786 C12.966,11.786 14.215,10.744 14.215,9.046 C14.215,7.967 13.57,7.392 13.118,7.177 L13.118,7.177 Z M10.992,4.715 C11.863,4.715 12.183,5.115 12.183,5.518 C12.183,5.919 11.886,6.286 11.017,6.286 C10.145,6.286 9.826,5.919 9.826,5.518 C9.826,5.115 10.12,4.715 10.992,4.715 L10.992,4.715 Z M11.012,10.214 C10.101,10.214 9.625,9.788 9.625,9.225 C9.625,8.661 10.07,8.25 10.991,8.25 C11.899,8.25 12.375,8.661 12.375,9.225 C12.375,9.788 11.919,10.214 11.012,10.214 L11.012,10.214 Z" id="Fill-132" fill="#323232" sketch:type="MSShapeGroup"></path>
            </g>
        </g>
    </g>
</svg>