<?xml version="1.0" encoding="UTF-8" standalone="no"?>
<svg width="26px" height="28px" viewBox="0 0 26 28" version="1.1" xmlns="http://www.w3.org/2000/svg" xmlns:xlink="http://www.w3.org/1999/xlink" xmlns:sketch="http://www.bohemiancoding.com/sketch/ns">
    <!-- Generator: Sketch 3.3 (11970) - http://www.bohemiancoding.com/sketch -->
    <title>film-roll</title>
    <desc>Created with Sketch.</desc>
    <defs></defs>
    <g id="Page-1" stroke="none" stroke-width="1" fill="none" fill-rule="evenodd" sketch:type="MSPage">
        <g id="Symbolicons-Color" sketch:type="MSArtboardGroup" transform="translate(-309.000000, -252.000000)">
            <g id="film-roll" sketch:type="MSLayerGroup" transform="translate(309.000000, 252.000000)">
                <path d="M0,2 L15,2 L15,5 L0,5 L0,2 Z" id="Fill-442" fill="#505050" sketch:type="MSShapeGroup"></path>
                <path d="M4,0 L11,0 L11,2 L4,2 L4,0 Z" id="Fill-443" fill="#323232" sketch:type="MSShapeGroup"></path>
                <path d="M0,25 L15,25 L15,28 L0,28 L0,25 Z" id="Fill-444" fill="#505050" sketch:type="MSShapeGroup"></path>
                <path d="M1,5 L14,5 L14,25 L1,25 L1,5 Z" id="Fill-445" fill="#F39C12" sketch:type="MSShapeGroup"></path>
                <path d="M13.929,6 L13.929,24 L20.429,24 C20.429,20 22.286,18 26,18 L26,6 L13.929,6 L13.929,6 Z M14.857,22 L15.786,22 L15.786,23 L14.857,23 L14.857,22 Z M14.857,7 L15.786,7 L15.786,8 L14.857,8 L14.857,7 Z M16.714,22 L17.643,22 L17.643,23 L16.714,23 L16.714,22 Z M16.714,7 L17.643,7 L17.643,8 L16.714,8 L16.714,7 Z M18.572,22 L19.501,22 L19.501,23 L18.572,23 L18.572,22 Z M18.572,7 L19.501,7 L19.501,8 L18.572,8 L18.572,7 Z M20.429,7 L21.358,7 L21.358,8 L20.429,8 L20.429,7 Z M22.286,7 L23.214,7 L23.214,8 L22.286,8 L22.286,7 Z M24.143,7 L25.072,7 L25.072,8 L24.143,8 L24.143,7 Z" id="Fill-446" fill="#8C8C8C" sketch:type="MSShapeGroup"></path>
            </g>
        </g>
    </g>
</svg>