<?xml version="1.0" encoding="UTF-8" standalone="no"?>
<svg width="28px" height="22px" viewBox="0 0 28 22" version="1.1" xmlns="http://www.w3.org/2000/svg" xmlns:xlink="http://www.w3.org/1999/xlink" xmlns:sketch="http://www.bohemiancoding.com/sketch/ns">
    <!-- Generator: Sketch 3.3 (11970) - http://www.bohemiancoding.com/sketch -->
    <title>first-aid-kit</title>
    <desc>Created with Sketch.</desc>
    <defs></defs>
    <g id="Page-1" stroke="none" stroke-width="1" fill="none" fill-rule="evenodd" sketch:type="MSPage">
        <g id="Symbolicons-Color" sketch:type="MSArtboardGroup" transform="translate(-980.000000, -311.000000)">
            <g id="first-aid-kit" sketch:type="MSLayerGroup" transform="translate(980.000000, 311.000000)">
                <path d="M25,0 L3,0 C1.35,0 0,1.35 0,3 L0,19 C0,20.65 1.35,22 3,22 L25,22 C26.65,22 28,20.65 28,19 L28,3 C28,1.35 26.65,0 25,0" id="Fill-579" fill="#C0392B" sketch:type="MSShapeGroup"></path>
                <path d="M12,6 L16,6 L16,16 L12,16 L12,6 Z" id="Fill-580" fill="#FFFFFF" sketch:type="MSShapeGroup"></path>
                <path d="M9,9 L19,9 L19,13 L9,13 L9,9 Z" id="Fill-581" fill="#FFFFFF" sketch:type="MSShapeGroup"></path>
                <path d="M3,0 L6,0 L6,22 L3,22 L3,0 Z" id="Fill-582" fill="#921816" sketch:type="MSShapeGroup"></path>
                <path d="M22,0 L25,0 L25,22 L22,22 L22,0 Z" id="Fill-583" fill="#921816" sketch:type="MSShapeGroup"></path>
            </g>
        </g>
    </g>
</svg>