<?xml version="1.0" encoding="UTF-8" standalone="no"?>
<svg width="28px" height="28px" viewBox="0 0 28 28" version="1.1" xmlns="http://www.w3.org/2000/svg" xmlns:xlink="http://www.w3.org/1999/xlink" xmlns:sketch="http://www.bohemiancoding.com/sketch/ns">
    <!-- Generator: Sketch 3.3 (11970) - http://www.bohemiancoding.com/sketch -->
    <title>flat-tire</title>
    <desc>Created with Sketch.</desc>
    <defs></defs>
    <g id="Page-1" stroke="none" stroke-width="1" fill="none" fill-rule="evenodd" sketch:type="MSPage">
        <g id="Symbolicons-Color" sketch:type="MSArtboardGroup" transform="translate(-868.000000, -980.000000)">
            <g id="flat-tire" sketch:type="MSLayerGroup" transform="translate(868.000000, 980.000000)">
                <path d="M20,10 C20,15.523 15.523,20 10,20 C4.477,20 0,15.523 0,10 C0,4.477 4.477,0 10,0 C15.523,0 20,4.477 20,10" id="Fill-880" fill="#505050" sketch:type="MSShapeGroup"></path>
                <path d="M17,10 C17,13.866 13.866,17 10,17 C6.134,17 3,13.866 3,10 C3,6.134 6.134,3 10,3 C13.866,3 17,6.134 17,10" id="Fill-881" fill="#A0A0A0" sketch:type="MSShapeGroup"></path>
                <path d="M10.5,8.592 C10.774,8.69 11.01,8.863 11.184,9.089 L14.572,7.989 C13.862,6.378 12.325,5.234 10.5,5.051 L10.5,8.592" id="Fill-882" fill="#BEBEBE" sketch:type="MSShapeGroup"></path>
                <path d="M8.815,9.089 C8.99,8.863 9.226,8.69 9.5,8.592 L9.5,5.051 C7.675,5.234 6.138,6.378 5.428,7.989 L8.815,9.089" id="Fill-883" fill="#BEBEBE" sketch:type="MSShapeGroup"></path>
                <path d="M11.496,10.04 C11.488,10.34 11.394,10.618 11.235,10.85 L13.317,13.716 C14.342,12.8 15,11.483 15,10 C15,9.635 14.956,9.282 14.882,8.939 L11.496,10.04" id="Fill-884" fill="#BEBEBE" sketch:type="MSShapeGroup"></path>
                <path d="M6.683,13.716 L8.765,10.85 C8.606,10.618 8.512,10.34 8.504,10.04 L5.118,8.939 C5.044,9.282 5,9.635 5,10 C5,11.483 5.658,12.8 6.683,13.716" id="Fill-885" fill="#BEBEBE" sketch:type="MSShapeGroup"></path>
                <path d="M10.423,11.432 C10.288,11.472 10.148,11.5 10,11.5 C9.852,11.5 9.712,11.472 9.577,11.432 L7.492,14.302 C8.232,14.735 9.081,15 10,15 C10.919,15 11.768,14.735 12.508,14.302 L10.423,11.432" id="Fill-886" fill="#BEBEBE" sketch:type="MSShapeGroup"></path>
                <path d="M16.956,7 C15.418,7 13.99,7.98 13.038,9.688 L6.818,20.845 C5.858,22.567 5.737,24.365 6.487,25.777 C7.236,27.19 8.74,28 10.612,28 L23.398,28 C25.272,28 26.775,27.19 27.52,25.777 C28.266,24.364 28.138,22.568 27.169,20.849 L20.869,9.668 C19.913,7.973 18.487,7 16.956,7" id="Fill-887" fill="#E67E22" sketch:type="MSShapeGroup"></path>
                <path d="M16.956,8.955 C17.806,8.955 18.657,9.53 19.305,10.678 L25.606,21.859 C26.903,24.161 25.909,26.045 23.398,26.045 L10.612,26.045 C8.101,26.045 7.099,24.156 8.386,21.847 L14.606,10.69 C15.251,9.534 16.103,8.955 16.956,8.955" id="Fill-888" fill="#F39C12" sketch:type="MSShapeGroup"></path>
                <path d="M19.006,12.358 L15.005,12.358 L15.672,20.179 L18.339,20.179 L19.006,12.358" id="Fill-889" fill="#323232" sketch:type="MSShapeGroup"></path>
                <path d="M18.696,23.356 C18.696,22.43 17.896,21.646 16.947,21.646 C15.962,21.646 15.197,22.43 15.197,23.356 C15.197,24.319 15.962,25.067 16.947,25.067 C17.896,25.067 18.696,24.319 18.696,23.356" id="Fill-890" fill="#323232" sketch:type="MSShapeGroup"></path>
            </g>
        </g>
    </g>
</svg>