<?xml version="1.0" encoding="UTF-8" standalone="no"?>
<svg width="28px" height="26px" viewBox="0 0 28 26" version="1.1" xmlns="http://www.w3.org/2000/svg" xmlns:xlink="http://www.w3.org/1999/xlink" xmlns:sketch="http://www.bohemiancoding.com/sketch/ns">
    <!-- Generator: Sketch 3.3 (11970) - http://www.bohemiancoding.com/sketch -->
    <title>football-helmet</title>
    <desc>Created with Sketch.</desc>
    <defs></defs>
    <g id="Page-1" stroke="none" stroke-width="1" fill="none" fill-rule="evenodd" sketch:type="MSPage">
        <g id="Symbolicons-Color" sketch:type="MSArtboardGroup" transform="translate(-924.000000, -869.000000)">
            <g id="football-helmet" sketch:type="MSLayerGroup" transform="translate(924.000000, 869.000000)">
                <path d="M27.646,16.237 C27.423,16.047 27.127,15.965 26.836,16.014 L15.001,17.986 L12.409,13.451 L24.419,7.908 C24.921,7.677 25.14,7.082 24.908,6.581 C24.677,6.081 24.085,5.86 23.581,6.092 L10.581,12.092 C10.326,12.209 10.133,12.428 10.048,12.695 C9.962,12.962 9.993,13.253 10.132,13.496 L14.132,20.496 L14.219,20.624 L18.219,25.625 C18.409,25.862 18.696,26 19,26 L27,26 C27.553,26 28,25.552 28,25 L28,17 C28,16.706 27.871,16.427 27.646,16.237 L27.646,16.237 Z M26,18.181 L26,19.66 L17.184,21.129 L16.14,19.824 L26,18.181 L26,18.181 Z M19.48,24 L17.899,22.023 L26,20.673 L26,24 L19.48,24 L19.48,24 Z" id="Fill-621" fill="#505050" sketch:type="MSShapeGroup"></path>
                <path d="M14.132,20.496 L10.132,13.496 C9.993,13.253 9.962,12.962 10.048,12.695 C10.133,12.428 10.326,12.209 10.581,12.092 L22.665,6.515 C20.672,2.649 16.649,0 12,0 C5.372,0 0,5.372 0,12 C0,18.628 5.372,24 12,24 C13.51,24 14.949,23.709 16.279,23.2 L14.219,20.624 L14.132,20.496 L14.132,20.496 Z M9.5,21 C8.672,21 8,20.328 8,19.5 C8,18.672 8.672,18 9.5,18 C10.328,18 11,18.672 11,19.5 C11,20.328 10.328,21 9.5,21 L9.5,21 Z" id="Fill-622" fill="#E67E22" sketch:type="MSShapeGroup"></path>
            </g>
        </g>
    </g>
</svg>