<?xml version="1.0" encoding="UTF-8" standalone="no"?>
<svg width="28px" height="28px" viewBox="0 0 28 28" version="1.1" xmlns="http://www.w3.org/2000/svg" xmlns:xlink="http://www.w3.org/1999/xlink" xmlns:sketch="http://www.bohemiancoding.com/sketch/ns">
    <!-- Generator: Sketch 3.3 (11970) - http://www.bohemiancoding.com/sketch -->
    <title>football</title>
    <desc>Created with Sketch.</desc>
    <defs></defs>
    <g id="Page-1" stroke="none" stroke-width="1" fill="none" fill-rule="evenodd" sketch:type="MSPage">
        <g id="Symbolicons-Color" sketch:type="MSArtboardGroup" transform="translate(-924.000000, -756.000000)">
            <g id="football" sketch:type="MSLayerGroup" transform="translate(923.000000, 755.000000)">
                <path d="M28.122,15.174 C28.552,13.513 28.806,11.829 28.924,10.223 C29.178,6.743 28.775,3.643 28.009,2.016 L27.998,2.006 C26.841,1.455 24.948,1.084 22.68,1.012 C21.762,0.983 20.785,1.005 19.777,1.079 C18.173,1.198 16.492,1.46 14.832,1.888 C11.677,2.703 8.612,4.127 6.366,6.372 C4.12,8.618 2.692,11.678 1.878,14.827 C1.448,16.488 1.194,18.173 1.076,19.778 C0.821,23.258 1.225,26.357 1.992,27.985 L2.002,27.994 C3.159,28.545 5.052,28.915 7.321,28.987 C8.238,29.017 9.214,28.995 10.221,28.921 C11.825,28.803 13.508,28.54 15.168,28.112 C18.322,27.297 21.387,25.874 23.634,23.628 C25.88,21.382 27.307,18.323 28.122,15.174" id="Fill-635" fill="#8C5A3C" sketch:type="MSShapeGroup"></path>
                <path d="M19.777,1.079 L19.777,1.079 C18.173,1.198 16.492,1.46 14.832,1.888 L28.122,15.174 C28.552,13.513 28.806,11.829 28.924,10.223 L19.777,1.079" id="Fill-636" fill="#996946" sketch:type="MSShapeGroup"></path>
                <path d="M1.878,14.827 L1.878,14.827 C1.448,16.488 1.194,18.173 1.076,19.778 L10.221,28.921 C11.825,28.803 13.508,28.54 15.168,28.112 L1.878,14.827" id="Fill-637" fill="#996946" sketch:type="MSShapeGroup"></path>
                <path d="M20.748,13.568 C20.554,13.762 20.235,13.762 20.041,13.568 L16.432,9.96 C16.238,9.766 16.238,9.448 16.432,9.254 L16.444,9.241 C16.639,9.047 16.957,9.047 17.152,9.241 L20.76,12.849 C20.955,13.044 20.955,13.362 20.76,13.556 L20.748,13.568" id="Fill-638" fill="#FFFFFF" sketch:type="MSShapeGroup"></path>
                <path d="M18.59,15.726 C18.396,15.92 18.078,15.92 17.883,15.726 L14.274,12.118 C14.08,11.923 14.08,11.605 14.274,11.411 L14.286,11.399 C14.481,11.204 14.799,11.204 14.994,11.399 L18.602,15.006 C18.797,15.201 18.797,15.519 18.602,15.713 L18.59,15.726" id="Fill-639" fill="#FFFFFF" sketch:type="MSShapeGroup"></path>
                <path d="M16.432,17.883 C16.238,18.077 15.919,18.077 15.725,17.883 L12.116,14.275 C11.922,14.081 11.922,13.762 12.116,13.568 L12.128,13.556 C12.323,13.362 12.641,13.362 12.836,13.556 L16.444,17.164 C16.639,17.358 16.639,17.676 16.444,17.871 L16.432,17.883" id="Fill-640" fill="#FFFFFF" sketch:type="MSShapeGroup"></path>
                <path d="M14.274,20.04 C14.08,20.235 13.762,20.235 13.567,20.04 L9.958,16.433 C9.764,16.238 9.764,15.92 9.958,15.726 L9.971,15.713 C10.165,15.519 10.483,15.519 10.678,15.713 L14.286,19.321 C14.481,19.516 14.481,19.834 14.286,20.028 L14.274,20.04" id="Fill-641" fill="#FFFFFF" sketch:type="MSShapeGroup"></path>
            </g>
        </g>
    </g>
</svg>