<?xml version="1.0" encoding="UTF-8" standalone="no"?>
<svg width="28px" height="28px" viewBox="0 0 28 28" version="1.1" xmlns="http://www.w3.org/2000/svg" xmlns:xlink="http://www.w3.org/1999/xlink" xmlns:sketch="http://www.bohemiancoding.com/sketch/ns">
    <!-- Generator: Sketch 3.3 (11970) - http://www.bohemiancoding.com/sketch -->
    <title>french-fries</title>
    <desc>Created with Sketch.</desc>
    <defs></defs>
    <g id="Page-1" stroke="none" stroke-width="1" fill="none" fill-rule="evenodd" sketch:type="MSPage">
        <g id="Symbolicons-Color" sketch:type="MSArtboardGroup" transform="translate(-308.000000, -812.000000)">
            <g id="french-fries" sketch:type="MSLayerGroup" transform="translate(308.000000, 812.000000)">
                <path d="M4,10.375 L4,3 L6,2 L6,11.906 C5.156,11.469 4.469,10.938 4,10.375" id="Fill-75" fill="#F1C40F" sketch:type="MSShapeGroup"></path>
                <path d="M9,13.063 C8.281,12.875 7.625,12.656 7,12.375 L7,3 L9,2 L9,13.063" id="Fill-76" fill="#F1C40F" sketch:type="MSShapeGroup"></path>
                <path d="M12,13.625 C11.313,13.563 10.656,13.469 10,13.313 L10,1 L12,0 L12,13.625" id="Fill-77" fill="#F1C40F" sketch:type="MSShapeGroup"></path>
                <path d="M15,13.75 L13,13.75 L13,2 L15,3 L15,13.75" id="Fill-78" fill="#F1C40F" sketch:type="MSShapeGroup"></path>
                <path d="M18,13.313 C17.344,13.469 16.687,13.563 16,13.625 L16,1 L18,0 L18,13.313" id="Fill-79" fill="#F1C40F" sketch:type="MSShapeGroup"></path>
                <path d="M21,12.375 C20.375,12.656 19.719,12.875 19,13.063 L19,1 L21,0 L21,12.375" id="Fill-80" fill="#F1C40F" sketch:type="MSShapeGroup"></path>
                <path d="M22,11.906 L22,2 L24,3 L24,10.375 C23.531,10.938 22.844,11.469 22,11.906" id="Fill-81" fill="#F1C40F" sketch:type="MSShapeGroup"></path>
                <path d="M28,8 L23,28 C19.75,27.5 17.844,27 14,27 C10.156,27 8.25,27.5 5,28 L0,8 L3,8 C4.906,10.563 9.875,12 14,12 C18.125,12 23.094,10.563 25,8 L28,8" id="Fill-82" fill="#C0392B" sketch:type="MSShapeGroup"></path>
            </g>
        </g>
    </g>
</svg>