<?xml version="1.0" encoding="UTF-8" standalone="no"?>
<svg width="22px" height="32px" viewBox="0 0 22 32" version="1.1" xmlns="http://www.w3.org/2000/svg" xmlns:xlink="http://www.w3.org/1999/xlink" xmlns:sketch="http://www.bohemiancoding.com/sketch/ns">
    <!-- Generator: Sketch 3.3 (11970) - http://www.bohemiancoding.com/sketch -->
    <title>gameboy</title>
    <desc>Created with Sketch.</desc>
    <defs></defs>
    <g id="Page-1" stroke="none" stroke-width="1" fill="none" fill-rule="evenodd" sketch:type="MSPage">
        <g id="Symbolicons-Color" sketch:type="MSArtboardGroup" transform="translate(-255.000000, -360.000000)">
            <g id="gameboy" sketch:type="MSLayerGroup" transform="translate(255.000000, 360.000000)">
                <path d="M21,0 L1,0 C0.448,0 0,0.448 0,1 L0,31 C0,31.552 0.448,32 1,32 L17,32 C21.937,32 22,27 22,27 L22,1 C22,0.448 21.552,0 21,0" id="Fill-935" fill="#ECECEC" sketch:type="MSShapeGroup"></path>
                <path d="M3,2 L19,2 C19.552,2 20,2.448 20,3 L20,16 C20,17.105 19.204,18 18.222,18 L3,18 C2.448,18 2,17.552 2,17 L2,3 C2,2.448 2.448,2 3,2" id="Fill-936" fill="#8C8C8C" sketch:type="MSShapeGroup"></path>
                <path d="M4,4 L18,4 L18,16 L4,16 L4,4 Z" id="Fill-937" fill="#8CBE3C" sketch:type="MSShapeGroup"></path>
                <path d="M8,25 L6,25 L6,27 L4,27 L4,25 L2,25 L2,23 L4,23 L4,21 L6,21 L6,23 L8,23 L8,25" id="Fill-938" fill="#323232" sketch:type="MSShapeGroup"></path>
                <path d="M14.5,26 C13.672,26 13,25.328 13,24.5 C13,23.672 13.672,23 14.5,23 C15.328,23 16,23.672 16,24.5 C16,25.328 15.328,26 14.5,26" id="Fill-939" fill="#C0392B" sketch:type="MSShapeGroup"></path>
                <path d="M18.5,24 C17.672,24 17,23.328 17,22.5 C17,21.672 17.672,21 18.5,21 C19.328,21 20,21.672 20,22.5 C20,23.328 19.328,24 18.5,24" id="Fill-940" fill="#C0392B" sketch:type="MSShapeGroup"></path>
            </g>
        </g>
    </g>
</svg>