<?xml version="1.0" encoding="UTF-8" standalone="no"?>
<svg width="28px" height="28px" viewBox="0 0 28 28" version="1.1" xmlns="http://www.w3.org/2000/svg" xmlns:xlink="http://www.w3.org/1999/xlink" xmlns:sketch="http://www.bohemiancoding.com/sketch/ns">
    <!-- Generator: Sketch 3.3 (11970) - http://www.bohemiancoding.com/sketch -->
    <title>gas-can</title>
    <desc>Created with Sketch.</desc>
    <defs></defs>
    <g id="Page-1" stroke="none" stroke-width="1" fill="none" fill-rule="evenodd" sketch:type="MSPage">
        <g id="Symbolicons-Color" sketch:type="MSArtboardGroup" transform="translate(-868.000000, -1036.000000)">
            <g id="gas-can" sketch:type="MSLayerGroup" transform="translate(868.000000, 1036.000000)">
                <path d="M21.172,3 L16.397,7.775 L19.415,10.415 L22.828,7 L28,7 L28,3 L21.172,3" id="Fill-911" fill="#918F90" sketch:type="MSShapeGroup"></path>
                <path d="M22.984,14 C22.993,12.9 22.322,11.407 21.494,10.683 L16.506,6.317 C15.678,5.593 14.1,5 13,5 L13,3.734 C13,1.681 11.318,0 9.264,0 L5.736,0 C3.682,0 2,1.681 2,3.734 L2,5 C0.9,5 0,6 0,7 L0,26 C0,27.1 0.9,28 2,28 L21,28 C22.1,28 22.991,27.1 23,26 L22.984,14 L22.984,14 Z M11,5 L4,5 L4,3.734 C4,2.819 4.82,2 5.736,2 L9.264,2 C10.18,2 11,2.819 11,3.734 L11,5 L11,5 Z" id="Fill-912" fill="#C0392B" sketch:type="MSShapeGroup"></path>
                <path d="M19.121,23.717 C19.555,24.06 19.627,24.689 19.283,25.121 C19.086,25.37 18.794,25.5 18.5,25.5 C18.281,25.5 18.063,25.43 17.879,25.283 L11.25,20.026 L4.621,25.283 C4.438,25.43 4.219,25.5 4,25.5 C3.706,25.5 3.414,25.37 3.217,25.121 C2.873,24.689 2.945,24.06 3.379,23.717 L9.641,18.75 L3.379,13.783 C2.945,13.44 2.873,12.812 3.217,12.379 C3.561,11.946 4.188,11.873 4.621,12.217 L11.25,17.474 L17.879,12.217 C18.311,11.872 18.94,11.945 19.283,12.379 C19.627,12.812 19.555,13.44 19.121,13.783 L12.859,18.75 L19.121,23.717" id="Fill-913" fill="#921816" sketch:type="MSShapeGroup"></path>
            </g>
        </g>
    </g>
</svg>