<?xml version="1.0" encoding="UTF-8" standalone="no"?>
<svg width="16px" height="32px" viewBox="0 0 16 32" version="1.1" xmlns="http://www.w3.org/2000/svg" xmlns:xlink="http://www.w3.org/1999/xlink" xmlns:sketch="http://www.bohemiancoding.com/sketch/ns">
    <!-- Generator: Sketch 3.3 (11970) - http://www.bohemiancoding.com/sketch -->
    <title>glue-bottle</title>
    <desc>Created with Sketch.</desc>
    <defs></defs>
    <g id="Page-1" stroke="none" stroke-width="1" fill="none" fill-rule="evenodd" sketch:type="MSPage">
        <g id="Symbolicons-Color" sketch:type="MSArtboardGroup" transform="translate(-538.000000, -528.000000)">
            <g id="glue-bottle" sketch:type="MSLayerGroup" transform="translate(538.000000, 528.000000)">
                <path d="M7.978,0 C6.853,0 5.884,2.906 5.478,6 L10.478,6 C10.071,2.906 9.103,0 7.978,0" id="Fill-499" fill="#F39C12" sketch:type="MSShapeGroup"></path>
                <path d="M11.978,10 L3.978,10 C2.29,11 0.022,12 0,16 L0,28 C0,29.871 1.741,31.72 4.423,31.954 C4.587,31.982 4.767,32 4.978,32 L10.978,32 C13.978,32 15.978,30 15.978,28 L15.978,16 C16,12 13.699,10.969 11.978,10" id="Fill-500" fill="#ECECEC" sketch:type="MSShapeGroup"></path>
                <path d="M4,6 L12,6 L12,10 L4,10 L4,6 Z" id="Fill-501" fill="#A0A0A0" sketch:type="MSShapeGroup"></path>
                <path d="M12.978,27 L2.978,27 C2.426,27 1.978,26.488 1.978,25.857 L1.978,19 L13.978,19 L13.978,25.857 C13.978,26.488 13.53,27 12.978,27" id="Fill-502" fill="#1EAAE1" sketch:type="MSShapeGroup"></path>
                <path d="M12.978,16 L2.978,16 C2.426,16 1.978,16.448 1.978,17 L1.978,19 L13.978,19 L13.978,17 C13.978,16.448 13.53,16 12.978,16" id="Fill-503" fill="#F39C12" sketch:type="MSShapeGroup"></path>
            </g>
        </g>
    </g>
</svg>