<?xml version="1.0" encoding="UTF-8" standalone="no"?>
<svg width="22px" height="22px" viewBox="0 0 22 22" version="1.1" xmlns="http://www.w3.org/2000/svg" xmlns:xlink="http://www.w3.org/1999/xlink" xmlns:sketch="http://www.bohemiancoding.com/sketch/ns">
    <!-- Generator: Sketch 3.3 (11970) - http://www.bohemiancoding.com/sketch -->
    <title>golf-ball</title>
    <desc>Created with Sketch.</desc>
    <defs></defs>
    <g id="Page-1" stroke="none" stroke-width="1" fill="none" fill-rule="evenodd" sketch:type="MSPage">
        <g id="Symbolicons-Color" sketch:type="MSArtboardGroup" transform="translate(-815.000000, -815.000000)">
            <g id="golf-ball" sketch:type="MSLayerGroup" transform="translate(815.000000, 815.000000)">
                <path d="M22,11 C22,17.075 17.075,22 11,22 C4.925,22 0,17.075 0,11 C0,4.925 4.925,0 11,0 C17.075,0 22,4.925 22,11" id="Fill-603" fill="#ECECEC" sketch:type="MSShapeGroup"></path>
                <path d="M13.87,7.652 C14.928,7.652 15.782,6.797 15.782,5.739 C15.782,4.68 14.928,3.826 13.87,3.826 C12.811,3.826 11.957,4.68 11.957,5.739 C11.957,6.797 12.811,7.652 13.87,7.652" id="Fill-645" fill="#DFDFDF" sketch:type="MSShapeGroup"></path>
                <path d="M12.913,11 C12.913,9.941 12.059,9.087 11,9.087 C9.942,9.087 9.087,9.941 9.087,11 C9.087,12.058 9.942,12.913 11,12.913 C12.059,12.913 12.913,12.058 12.913,11" id="Fill-646" fill="#DFDFDF" sketch:type="MSShapeGroup"></path>
                <path d="M13.87,18.174 C14.928,18.174 15.782,17.319 15.782,16.261 C15.782,15.202 14.928,14.348 13.87,14.348 C12.811,14.348 11.957,15.202 11.957,16.261 C11.957,17.319 12.811,18.174 13.87,18.174" id="Fill-647" fill="#DFDFDF" sketch:type="MSShapeGroup"></path>
                <path d="M8.13,18.174 C9.189,18.174 10.043,17.319 10.043,16.261 C10.043,15.202 9.189,14.348 8.13,14.348 C7.072,14.348 6.217,15.202 6.217,16.261 C6.217,17.319 7.072,18.174 8.13,18.174" id="Fill-648" fill="#DFDFDF" sketch:type="MSShapeGroup"></path>
                <path d="M8.13,7.652 C9.189,7.652 10.043,6.797 10.043,5.739 C10.043,4.68 9.189,3.826 8.13,3.826 C7.072,3.826 6.217,4.68 6.217,5.739 C6.217,6.797 7.072,7.652 8.13,7.652" id="Fill-649" fill="#DFDFDF" sketch:type="MSShapeGroup"></path>
                <path d="M1.435,11 C1.435,10.168 0.896,9.469 0.159,9.205 C0.063,9.79 0,10.387 0,11 C0,11.613 0.063,12.209 0.159,12.795 C0.896,12.531 1.435,11.832 1.435,11" id="Fill-650" fill="#DFDFDF" sketch:type="MSShapeGroup"></path>
                <path d="M20.565,11 C20.565,11.833 21.098,12.533 21.841,12.796 C21.937,12.21 22,11.613 22,11 C22,10.387 21.937,9.79 21.841,9.204 C21.098,9.466 20.565,10.166 20.565,11" id="Fill-651" fill="#DFDFDF" sketch:type="MSShapeGroup"></path>
                <path d="M3.348,11 C3.348,12.058 4.202,12.913 5.261,12.913 C6.307,12.913 7.174,12.058 7.174,11 C7.174,9.941 6.307,9.087 5.261,9.087 C4.202,9.087 3.348,9.941 3.348,11" id="Fill-652" fill="#DFDFDF" sketch:type="MSShapeGroup"></path>
                <path d="M18.652,11 C18.652,9.941 17.798,9.087 16.739,9.087 C15.68,9.087 14.826,9.941 14.826,11 C14.826,12.058 15.68,12.913 16.739,12.913 C17.798,12.913 18.652,12.058 18.652,11" id="Fill-653" fill="#DFDFDF" sketch:type="MSShapeGroup"></path>
                <path d="M14.826,0.957 C14.826,2.014 15.68,2.87 16.739,2.87 C17.187,2.87 17.593,2.71 17.919,2.453 C17.006,1.714 15.971,1.126 14.851,0.707 L14.826,0.957" id="Fill-654" fill="#DFDFDF" sketch:type="MSShapeGroup"></path>
                <path d="M7.174,21.044 C7.174,19.985 6.319,19.13 5.261,19.13 C4.813,19.13 4.407,19.29 4.081,19.547 C4.993,20.286 6.029,20.874 7.149,21.293 L7.174,21.044" id="Fill-655" fill="#DFDFDF" sketch:type="MSShapeGroup"></path>
                <path d="M12.729,21.851 C12.844,21.605 12.913,21.333 12.913,21.044 C12.913,19.985 12.059,19.13 11,19.13 C9.942,19.13 9.087,19.985 9.087,21.044 C9.087,21.333 9.156,21.605 9.271,21.851 C9.836,21.94 10.41,22 11,22 C11.59,22 12.165,21.94 12.729,21.851" id="Fill-656" fill="#DFDFDF" sketch:type="MSShapeGroup"></path>
                <path d="M16.739,19.13 C15.68,19.13 14.826,19.985 14.826,21.044 L14.851,21.293 C15.971,20.874 17.007,20.286 17.919,19.547 C17.593,19.29 17.187,19.13 16.739,19.13" id="Fill-657" fill="#DFDFDF" sketch:type="MSShapeGroup"></path>
                <path d="M21.177,15.168 C20.832,14.673 20.26,14.348 19.609,14.348 C18.55,14.348 17.696,15.202 17.696,16.261 C17.696,17.23 18.416,18.021 19.351,18.148 C20.108,17.264 20.729,16.262 21.177,15.168" id="Fill-658" fill="#DFDFDF" sketch:type="MSShapeGroup"></path>
                <path d="M21.177,6.832 C20.729,5.738 20.108,4.736 19.351,3.852 C18.416,3.978 17.696,4.769 17.696,5.739 C17.696,6.797 18.55,7.652 19.609,7.652 C20.26,7.652 20.832,7.327 21.177,6.832" id="Fill-659" fill="#DFDFDF" sketch:type="MSShapeGroup"></path>
                <path d="M9.271,0.149 C9.156,0.395 9.087,0.667 9.087,0.957 C9.087,2.014 9.942,2.87 11,2.87 C12.059,2.87 12.913,2.014 12.913,0.957 C12.913,0.667 12.844,0.395 12.729,0.149 C12.165,0.06 11.59,0 11,0 C10.41,0 9.835,0.06 9.271,0.149" id="Fill-660" fill="#DFDFDF" sketch:type="MSShapeGroup"></path>
                <path d="M4.305,16.261 C4.305,15.202 3.45,14.348 2.391,14.348 C1.74,14.348 1.168,14.673 0.823,15.168 C1.271,16.262 1.892,17.264 2.649,18.148 C3.584,18.021 4.305,17.23 4.305,16.261" id="Fill-661" fill="#DFDFDF" sketch:type="MSShapeGroup"></path>
                <path d="M5.261,2.87 C6.319,2.87 7.174,2.014 7.174,0.957 L7.149,0.707 C6.029,1.126 4.993,1.714 4.081,2.453 C4.407,2.71 4.813,2.87 5.261,2.87" id="Fill-662" fill="#DFDFDF" sketch:type="MSShapeGroup"></path>
                <path d="M0.823,6.832 C1.168,7.327 1.74,7.652 2.391,7.652 C3.45,7.652 4.305,6.797 4.305,5.739 C4.305,4.769 3.584,3.978 2.649,3.852 C1.892,4.736 1.271,5.738 0.823,6.832" id="Fill-663" fill="#DFDFDF" sketch:type="MSShapeGroup"></path>
            </g>
        </g>
    </g>
</svg>