<?xml version="1.0" encoding="UTF-8" standalone="no"?>
<svg width="28px" height="25px" viewBox="0 0 28 25" version="1.1" xmlns="http://www.w3.org/2000/svg" xmlns:xlink="http://www.w3.org/1999/xlink" xmlns:sketch="http://www.bohemiancoding.com/sketch/ns">
    <!-- Generator: Sketch 3.3 (11970) - http://www.bohemiancoding.com/sketch -->
    <title>graduation-cap</title>
    <desc>Created with Sketch.</desc>
    <defs></defs>
    <g id="Page-1" stroke="none" stroke-width="1" fill="none" fill-rule="evenodd" sketch:type="MSPage">
        <g id="Symbolicons-Color" sketch:type="MSArtboardGroup" transform="translate(-644.000000, -478.000000)">
            <g id="graduation-cap" sketch:type="MSLayerGroup" transform="translate(644.000000, 478.000000)">
                <path d="M5,10 L5,17.567 C5,20.015 9.03,23 14,23 C18.97,23 23,20.015 23,17.567 L23,10 L5,10" id="Fill-535" fill="#515151" sketch:type="MSShapeGroup"></path>
                <path d="M14,20 L28,9.523 L14,0 L0,9.5 L14,20" id="Fill-536" fill="#323232" sketch:type="MSShapeGroup"></path>
                <path d="M14,8 C14.828,8 15.5,8.672 15.5,9.5 C15.5,10.328 14.828,11 14,11 C13.172,11 12.5,10.328 12.5,9.5 C12.5,8.672 13.172,8 14,8" id="Fill-537" fill="#918F90" sketch:type="MSShapeGroup"></path>
                <path d="M3,16 L3,10 L2,9.25 L2,16 L0,24 C0,24.552 1.119,25 2.5,25 C3.881,25 5,24.552 5,24 L3,16" id="Fill-538" fill="#323232" sketch:type="MSShapeGroup"></path>
            </g>
        </g>
    </g>
</svg>