<?xml version="1.0" encoding="UTF-8" standalone="no"?>
<svg width="29px" height="29px" viewBox="0 0 29 29" version="1.1" xmlns="http://www.w3.org/2000/svg" xmlns:xlink="http://www.w3.org/1999/xlink" xmlns:sketch="http://www.bohemiancoding.com/sketch/ns">
    <!-- Generator: Sketch 3.3 (11970) - http://www.bohemiancoding.com/sketch -->
    <title>grapes</title>
    <desc>Created with Sketch.</desc>
    <defs></defs>
    <g id="Page-1" stroke="none" stroke-width="1" fill="none" fill-rule="evenodd" sketch:type="MSPage">
        <g id="Symbolicons-Color" sketch:type="MSArtboardGroup" transform="translate(-644.000000, -755.000000)">
            <g id="grapes" sketch:type="MSLayerGroup" transform="translate(644.000000, 755.000000)">
                <path d="M3.4,22.172 C1.677,22.202 0.304,23.624 0.334,25.347 C0.364,27.071 1.785,28.444 3.509,28.414 C5.232,28.384 6.605,26.962 6.575,25.239 C6.545,23.515 5.124,22.142 3.4,22.172" id="Fill-846" fill="#8E44AD" sketch:type="MSShapeGroup"></path>
                <path d="M9.534,15.823 C9.563,17.546 10.985,18.919 12.709,18.889 C14.432,18.859 15.805,17.437 15.775,15.714 C15.745,13.991 14.324,12.618 12.6,12.648 C10.877,12.678 9.504,14.099 9.534,15.823" id="Fill-847" fill="#8E44AD" sketch:type="MSShapeGroup"></path>
                <path d="M17.891,17.758 C16.168,17.789 14.795,19.21 14.825,20.934 C14.855,22.657 16.277,24.03 18,24 C19.724,23.97 21.097,22.548 21.067,20.825 C21.037,19.102 19.615,17.729 17.891,17.758" id="Fill-848" fill="#8E44AD" sketch:type="MSShapeGroup"></path>
                <path d="M7.417,13.778 C9.141,13.748 10.513,12.327 10.484,10.603 C10.454,8.88 9.032,7.507 7.309,7.536 C5.585,7.566 4.212,8.988 4.242,10.711 C4.272,12.435 5.693,13.808 7.417,13.778" id="Fill-849" fill="#8E44AD" sketch:type="MSShapeGroup"></path>
                <path d="M5.463,21.096 C7.186,21.066 8.559,19.645 8.53,17.921 C8.499,16.198 7.078,14.824 5.355,14.854 C3.631,14.884 2.258,16.306 2.288,18.029 C2.318,19.753 3.74,21.126 5.463,21.096" id="Fill-850" fill="#8E44AD" sketch:type="MSShapeGroup"></path>
                <path d="M10.646,19.966 C8.923,19.995 7.549,21.416 7.579,23.14 C7.609,24.864 9.031,26.237 10.754,26.207 C12.478,26.177 13.851,24.756 13.821,23.032 C13.791,21.308 12.37,19.935 10.646,19.966" id="Fill-851" fill="#8E44AD" sketch:type="MSShapeGroup"></path>
                <path d="M14.663,11.571 C16.386,11.541 17.759,10.12 17.729,8.396 C17.7,6.673 16.278,5.3 14.554,5.33 C12.831,5.36 11.458,6.781 11.488,8.505 C11.518,10.228 12.939,11.601 14.663,11.571" id="Fill-852" fill="#8E44AD" sketch:type="MSShapeGroup"></path>
                <path d="M19.846,10.441 C18.122,10.471 16.749,11.892 16.779,13.616 C16.809,15.339 18.231,16.712 19.954,16.682 C21.678,16.652 23.051,15.231 23.021,13.507 C22.991,11.784 21.569,10.411 19.846,10.441" id="Fill-853" fill="#8E44AD" sketch:type="MSShapeGroup"></path>
                <path d="M27.942,5.926 C27.781,5.891 24.572,5.208 21.842,6.351 C22.12,5.775 22.333,5.121 22.333,4.414 C22.333,2.205 20.333,0.414 20.333,0.414 C20.333,0.414 18.334,2.205 18.334,4.414 C18.334,6.623 20.333,8.414 20.333,8.414 C20.333,8.414 23.615,6.008 27.725,6.903 C28,6.962 28.262,6.791 28.322,6.523 C28.381,6.253 28.211,5.986 27.942,5.926" id="Fill-854" fill="#8CBE3C" sketch:type="MSShapeGroup"></path>
            </g>
        </g>
    </g>
</svg>