<?xml version="1.0" encoding="UTF-8" standalone="no"?>
<svg width="28px" height="28px" viewBox="0 0 28 28" version="1.1" xmlns="http://www.w3.org/2000/svg" xmlns:xlink="http://www.w3.org/1999/xlink" xmlns:sketch="http://www.bohemiancoding.com/sketch/ns">
    <!-- Generator: Sketch 3.3 (11970) - http://www.bohemiancoding.com/sketch -->
    <title>grill</title>
    <desc>Created with Sketch.</desc>
    <defs></defs>
    <g id="Page-1" stroke="none" stroke-width="1" fill="none" fill-rule="evenodd" sketch:type="MSPage">
        <g id="Symbolicons-Color" sketch:type="MSArtboardGroup" transform="translate(-84.000000, -1036.000000)">
            <g id="grill" sketch:type="MSLayerGroup" transform="translate(84.000000, 1036.000000)">
                <path d="M27.018,26.122 L18.956,10.997 L15.426,12.879 L20.289,22 L8.003,22 L8.003,24 L21.355,24 L23.489,28.004 L27.018,26.122" id="Fill-262" fill="#BEBEBE" sketch:type="MSShapeGroup"></path>
                <path d="M8.864,10.997 L4.426,19.321 L7.956,21.203 L12.393,12.879 L8.864,10.997" id="Fill-263" fill="#BEBEBE" sketch:type="MSShapeGroup"></path>
                <path d="M5.003,18 C2.242,18 0.003,20.239 0.003,23 C0.003,25.762 2.242,28 5.003,28 C7.765,28 10.003,25.762 10.003,23 C10.003,20.239 7.765,18 5.003,18 L5.003,18 Z M5.003,25 C3.9,25 3.003,24.102 3.003,23 C3.003,21.898 3.9,21 5.003,21 C6.107,21 7.003,21.898 7.003,23 C7.003,24.102 6.107,25 5.003,25 L5.003,25 Z" id="Fill-264" fill="#505050" sketch:type="MSShapeGroup"></path>
                <path d="M1.003,2 L1.003,3 C1.003,9.627 6.824,15 14.003,15 C21.183,15 27.003,9.627 27.003,3 L27.003,2 L1.003,2" id="Fill-265" fill="#C0392B" sketch:type="MSShapeGroup"></path>
                <path d="M28.003,1 C28.003,1.553 27.556,2 27.003,2 L1.003,2 C0.451,2 0.003,1.553 0.003,1 C0.003,0.448 0.451,0 1.003,0 L27.003,0 C27.556,0 28.003,0.448 28.003,1" id="Fill-266" fill="#C0392B" sketch:type="MSShapeGroup"></path>
                <path d="M28.003,1 C28.003,1.553 27.556,2 27.003,2 L1.003,2 C0.451,2 0.003,1.553 0.003,1 C0.003,0.448 0.451,0 1.003,0 L27.003,0 C27.556,0 28.003,0.448 28.003,1" id="Fill-267" fill="#921816" sketch:type="MSShapeGroup"></path>
            </g>
        </g>
    </g>
</svg>