<?xml version="1.0" encoding="UTF-8" standalone="no"?>
<svg width="28px" height="28px" viewBox="0 0 28 28" version="1.1" xmlns="http://www.w3.org/2000/svg" xmlns:xlink="http://www.w3.org/1999/xlink" xmlns:sketch="http://www.bohemiancoding.com/sketch/ns">
    <!-- Generator: Sketch 3.3 (11970) - http://www.bohemiancoding.com/sketch -->
    <title>hat-mustache</title>
    <desc>Created with Sketch.</desc>
    <defs></defs>
    <g id="Page-1" stroke="none" stroke-width="1" fill="none" fill-rule="evenodd" sketch:type="MSPage">
        <g id="Symbolicons-Color" sketch:type="MSArtboardGroup" transform="translate(-140.000000, -196.000000)">
            <g id="hat-mustache" sketch:type="MSLayerGroup" transform="translate(140.000000, 196.000000)">
                <path d="M1,16 L27,16 C27.553,16 28,15.553 28,15 C28,14.447 27.553,14 27,14 L1,14 C0.447,14 0,14.447 0,15 C0,15.553 0.447,16 1,16" id="Fill-678" fill="#323232" sketch:type="MSShapeGroup"></path>
                <path d="M24.833,10.833 C24.833,4.875 19.958,0 14,0 C8.042,0 3.167,4.875 3.167,10.833 L3.167,14 L24.833,14 L24.833,10.833" id="Fill-679" fill="#505050" sketch:type="MSShapeGroup"></path>
                <path d="M17,19 C15.799,19 14.733,19.559 14,20.426 C13.267,19.559 12.201,19 11,19 C6,19 7,25.2 0,21.643 C3.267,29.612 11.201,29.004 14,25.697 C16.799,29.004 24.733,29.612 28,21.643 C21,25.2 22,19 17,19" id="Fill-680" fill="#8C5A3C" sketch:type="MSShapeGroup"></path>
            </g>
        </g>
    </g>
</svg>