<?xml version="1.0" encoding="UTF-8" standalone="no"?>
<svg width="28px" height="26px" viewBox="0 0 28 26" version="1.1" xmlns="http://www.w3.org/2000/svg" xmlns:xlink="http://www.w3.org/1999/xlink" xmlns:sketch="http://www.bohemiancoding.com/sketch/ns">
    <!-- Generator: Sketch 3.3 (11970) - http://www.bohemiancoding.com/sketch -->
    <title>heart</title>
    <desc>Created with Sketch.</desc>
    <defs></defs>
    <g id="Page-1" stroke="none" stroke-width="1" fill="none" fill-rule="evenodd" sketch:type="MSPage">
        <g id="Symbolicons-Color" sketch:type="MSArtboardGroup" transform="translate(-868.000000, -645.000000)" fill="#C0392B">
            <g id="heart" sketch:type="MSLayerGroup" transform="translate(868.000000, 645.000000)">
                <path d="M28,8.99 C28,5.08 24.705,0.5 20.658,0.5 C17.705,0.5 15.176,2.182 14,4.602 C12.824,2.182 10.295,0.5 7.355,0.5 C3.295,0.5 0,5.08 0,8.99 C0,9.291 0.055,9.592 0.096,9.879 L0.082,9.879 C0.957,17.522 14,26 14,26 C14,26 27.016,17.289 27.918,9.879 L27.904,9.879 C27.945,9.592 28,9.291 28,8.99" id="Fill-423" sketch:type="MSShapeGroup"></path>
            </g>
        </g>
    </g>
</svg>