<?xml version="1.0" encoding="UTF-8" standalone="no"?>
<svg width="28px" height="28px" viewBox="0 0 28 28" version="1.1" xmlns="http://www.w3.org/2000/svg" xmlns:xlink="http://www.w3.org/1999/xlink" xmlns:sketch="http://www.bohemiancoding.com/sketch/ns">
    <!-- Generator: Sketch 3.3 (11970) - http://www.bohemiancoding.com/sketch -->
    <title>hockey-mask</title>
    <desc>Created with Sketch.</desc>
    <defs></defs>
    <g id="Page-1" stroke="none" stroke-width="1" fill="none" fill-rule="evenodd" sketch:type="MSPage">
        <g id="Symbolicons-Color" sketch:type="MSArtboardGroup" transform="translate(-868.000000, -868.000000)">
            <g id="hockey-mask" sketch:type="MSLayerGroup" transform="translate(868.000000, 868.000000)">
                <path d="M27,9 L1,9 C0.45,9 0,9.45 0,10 L0,13 C0,13.55 0.45,14 1,14 L27,14 C27.55,14 28,13.55 28,13 L28,10 C28,9.45 27.55,9 27,9" id="Fill-806" fill="#8C8C8C" sketch:type="MSShapeGroup"></path>
                <path d="M14.001,0 C2.195,0 1.851,10.19 4.063,18.616 C5.594,24.446 9.874,28 14.001,28 C18.127,28 22.408,24.446 23.939,18.616 C26.151,10.19 25.805,0 14.001,0" id="Fill-807" fill="#BEBEBE" sketch:type="MSShapeGroup"></path>
                <path d="M15.5,3 C16.052,3 16.5,3.449 16.5,4 C16.5,4.551 16.052,5 15.5,5 C14.948,5 14.5,4.551 14.5,4 C14.5,3.449 14.948,3 15.5,3" id="Fill-808" fill="#231F1F" sketch:type="MSShapeGroup"></path>
                <path d="M12.5,3 C13.052,3 13.5,3.449 13.5,4 C13.5,4.551 13.052,5 12.5,5 C11.948,5 11.5,4.551 11.5,4 C11.5,3.449 11.948,3 12.5,3" id="Fill-809" fill="#231F1F" sketch:type="MSShapeGroup"></path>
                <path d="M12,25 C11.448,25 11,24.551 11,24 C11,23.449 11.448,23 12,23 C12.552,23 13,23.449 13,24 C13,24.551 12.552,25 12,25" id="Fill-810" fill="#231F1F" sketch:type="MSShapeGroup"></path>
                <path d="M12,22 C11.448,22 11,21.551 11,21 C11,20.449 11.448,20 12,20 C12.552,20 13,20.449 13,21 C13,21.551 12.552,22 12,22" id="Fill-811" fill="#231F1F" sketch:type="MSShapeGroup"></path>
                <path d="M12,19 C11.448,19 11,18.551 11,18 C11,17.449 11.448,17 12,17 C12.552,17 13,17.449 13,18 C13,18.551 12.552,19 12,19" id="Fill-812" fill="#231F1F" sketch:type="MSShapeGroup"></path>
                <path d="M13,12.006 L12.996,12.024 C12.979,13.391 12,14 11,14 L9,14 C7,14.012 6,12.997 6,11.016 L6.001,11.005 L6,10.995 L6.004,10.977 C6.021,9.61 7,9 8,9 L10,9.013 C12,9 13,10.004 13,11.985 L12.999,11.996 L13,12.006" id="Fill-813" fill="#FFFFFF" sketch:type="MSShapeGroup"></path>
                <path d="M14,8 C13.448,8 13,7.551 13,7 C13,6.449 13.448,6 14,6 C14.552,6 15,6.449 15,7 C15,7.551 14.552,8 14,8" id="Fill-814" fill="#231F1F" sketch:type="MSShapeGroup"></path>
                <path d="M16,25 C15.448,25 15,24.551 15,24 C15,23.449 15.448,23 16,23 C16.552,23 17,23.449 17,24 C17,24.551 16.552,25 16,25" id="Fill-815" fill="#231F1F" sketch:type="MSShapeGroup"></path>
                <path d="M16,22 C15.448,22 15,21.551 15,21 C15,20.449 15.448,20 16,20 C16.552,20 17,20.449 17,21 C17,21.551 16.552,22 16,22" id="Fill-816" fill="#231F1F" sketch:type="MSShapeGroup"></path>
                <path d="M16,19 C15.448,19 15,18.551 15,18 C15,17.449 15.448,17 16,17 C16.552,17 17,17.449 17,18 C17,18.551 16.552,19 16,19" id="Fill-817" fill="#231F1F" sketch:type="MSShapeGroup"></path>
                <path d="M22,10.995 L21.999,11.005 L22,11.016 C22,12.997 21,14.012 19,14 L17,14 C16,14 15.021,13.391 15.004,12.024 L15,12.006 L15.001,11.996 L15,11.985 C15,10.004 16,9 18,9.013 L20,9 C21,9 21.979,9.61 21.996,10.977 L22,10.995" id="Fill-818" fill="#FFFFFF" sketch:type="MSShapeGroup"></path>
            </g>
        </g>
    </g>
</svg>