<?xml version="1.0" encoding="UTF-8" standalone="no"?>
<svg width="28px" height="28px" viewBox="0 0 28 28" version="1.1" xmlns="http://www.w3.org/2000/svg" xmlns:xlink="http://www.w3.org/1999/xlink" xmlns:sketch="http://www.bohemiancoding.com/sketch/ns">
    <!-- Generator: Sketch 3.3 (11970) - http://www.bohemiancoding.com/sketch -->
    <title>hockey-sticks</title>
    <desc>Created with Sketch.</desc>
    <defs></defs>
    <g id="Page-1" stroke="none" stroke-width="1" fill="none" fill-rule="evenodd" sketch:type="MSPage">
        <g id="Symbolicons-Color" sketch:type="MSArtboardGroup" transform="translate(-980.000000, -812.000000)">
            <g id="hockey-sticks" sketch:type="MSLayerGroup" transform="translate(980.000000, 811.000000)">
                <path d="M3,23 L4,23 L4,29 L3,29 L3,23 Z" id="Fill-19" fill="#BE9664" sketch:type="MSShapeGroup"></path>
                <path d="M0,23 L2,23 L2,29 L0,29 L0,23 Z" id="Fill-20" fill="#BE9664" sketch:type="MSShapeGroup"></path>
                <path d="M20.211,2.105 C20.705,1.118 21.904,0.716 22.894,1.211 C23.883,1.705 24.283,2.906 23.789,3.894 L11,29 L5,29 L5,23 L9.764,23 L20.211,2.105" id="Fill-21" fill="#BE9664" sketch:type="MSShapeGroup"></path>
                <path d="M4,23 L5,23 L5,29 L4,29 L4,23 Z" id="Fill-22" fill="#323232" sketch:type="MSShapeGroup"></path>
                <path d="M2,23 L3,23 L3,29 L2,29 L2,23 Z" id="Fill-23" fill="#323232" sketch:type="MSShapeGroup"></path>
                <path d="M24,23 L25,23 L25,29 L24,29 L24,23 Z" id="Fill-346" fill="#A57D52" sketch:type="MSShapeGroup"></path>
                <path d="M26,23 L28,23 L28,29 L26,29 L26,23 Z" id="Fill-347" fill="#A57D52" sketch:type="MSShapeGroup"></path>
                <path d="M7.789,2.105 C7.295,1.118 6.096,0.716 5.105,1.211 C4.117,1.705 3.717,2.906 4.211,3.894 L17,29 L23,29 L23,23 L18.236,23 L7.789,2.105" id="Fill-348" fill="#A57D52" sketch:type="MSShapeGroup"></path>
                <path d="M23,23 L24,23 L24,29 L23,29 L23,23 Z" id="Fill-349" fill="#323232" sketch:type="MSShapeGroup"></path>
                <path d="M25,23 L26,23 L26,29 L25,29 L25,23 Z" id="Fill-350" fill="#323232" sketch:type="MSShapeGroup"></path>
            </g>
        </g>
    </g>
</svg>