<?xml version="1.0" encoding="UTF-8" standalone="no"?>
<svg width="28px" height="28px" viewBox="0 0 28 28" version="1.1" xmlns="http://www.w3.org/2000/svg" xmlns:xlink="http://www.w3.org/1999/xlink" xmlns:sketch="http://www.bohemiancoding.com/sketch/ns">
    <!-- Generator: Sketch 3.3 (11970) - http://www.bohemiancoding.com/sketch -->
    <title>hotdog</title>
    <desc>Created with Sketch.</desc>
    <defs></defs>
    <g id="Page-1" stroke="none" stroke-width="1" fill="none" fill-rule="evenodd" sketch:type="MSPage">
        <g id="Symbolicons-Color" sketch:type="MSArtboardGroup" transform="translate(-196.000000, -1036.000000)">
            <g id="hotdog" sketch:type="MSLayerGroup" transform="translate(196.000000, 1036.000000)">
                <path d="M26.754,8.115 L19.888,1.25 C18.896,0.38 17.879,0 16.833,0 C13.783,0 10.488,3.217 6.854,6.851 C1.973,11.734 -2.155,16.003 1.253,19.884 L8.118,26.749 C9.109,27.621 10.126,28 11.174,28 C14.222,28 17.517,24.784 21.151,21.15 C26.034,16.268 30.162,11.995 26.754,8.115" id="Fill-278" fill="#BE9664" sketch:type="MSShapeGroup"></path>
                <path d="M26.754,4.683 C26.754,2.787 25.216,1.25 23.321,1.25 C22.373,1.25 21.515,1.634 20.894,2.256 L2.259,20.89 C1.636,21.51 1.253,22.368 1.253,23.317 C1.253,25.212 2.789,26.749 4.686,26.749 C5.632,26.749 6.49,26.365 7.113,25.744 L25.748,7.11 C26.369,6.489 26.754,5.631 26.754,4.683" id="Fill-279" fill="#C0392B" sketch:type="MSShapeGroup"></path>
                <path d="M2.943,23.44 C2.815,23.44 2.687,23.391 2.589,23.293 C2.394,23.098 2.394,22.781 2.589,22.586 C3.593,21.582 4.727,21.718 5.727,21.84 C6.75,21.963 7.41,22.008 8.038,21.38 C8.699,20.719 8.611,19.989 8.5,19.067 C8.38,18.066 8.243,16.932 9.248,15.927 C10.252,14.922 11.387,15.057 12.388,15.179 C13.311,15.29 14.04,15.377 14.701,14.716 C15.363,14.055 15.275,13.325 15.164,12.403 C15.044,11.402 14.907,10.268 15.913,9.262 C16.919,8.255 18.053,8.391 19.055,8.511 C19.98,8.62 20.71,8.707 21.372,8.045 C22.035,7.382 21.948,6.653 21.838,5.729 C21.719,4.727 21.583,3.592 22.589,2.586 C22.784,2.391 23.101,2.391 23.296,2.586 C23.491,2.782 23.491,3.098 23.296,3.293 C22.634,3.956 22.72,4.686 22.831,5.61 C22.95,6.612 23.086,7.746 22.079,8.752 C21.073,9.758 19.939,9.621 18.937,9.503 C18.012,9.394 17.283,9.306 16.62,9.969 C15.959,10.631 16.046,11.36 16.157,12.283 C16.277,13.284 16.414,14.418 15.408,15.423 C14.403,16.428 13.271,16.293 12.269,16.171 C11.347,16.06 10.616,15.973 9.955,16.634 C9.294,17.295 9.382,18.025 9.493,18.948 C9.614,19.948 9.75,21.082 8.745,22.087 C7.74,23.091 6.608,22.952 5.607,22.832 C4.584,22.71 3.925,22.666 3.296,23.293 C3.198,23.391 3.071,23.44 2.943,23.44" id="Fill-280" fill="#F1C40F" sketch:type="MSShapeGroup"></path>
            </g>
        </g>
    </g>
</svg>