<?xml version="1.0" encoding="UTF-8" standalone="no"?>
<svg width="28px" height="28px" viewBox="0 0 28 28" version="1.1" xmlns="http://www.w3.org/2000/svg" xmlns:xlink="http://www.w3.org/1999/xlink" xmlns:sketch="http://www.bohemiancoding.com/sketch/ns">
    <!-- Generator: Sketch 3.3 (11970) - http://www.bohemiancoding.com/sketch -->
    <title>ice-cream-cones</title>
    <desc>Created with Sketch.</desc>
    <defs></defs>
    <g id="Page-1" stroke="none" stroke-width="1" fill="none" fill-rule="evenodd" sketch:type="MSPage">
        <g id="Symbolicons-Color" sketch:type="MSArtboardGroup" transform="translate(-252.000000, -756.000000)">
            <g id="ice-cream-cones" sketch:type="MSLayerGroup" transform="translate(252.000000, 756.000000)">
                <path d="M2.781,14 L9,28 L15.5,14 L2.781,14" id="Fill-1051" fill="#BE9664" sketch:type="MSShapeGroup"></path>
                <path d="M14.098,17.02 L19,28 L25.5,14 L15.5,14 L14.098,17.02" id="Fill-1052" fill="#A57D52" sketch:type="MSShapeGroup"></path>
                <path d="M25.997,9.05 L25.988,8.928 L26,8.77 C26,5.454 23.313,2.77 20,2.77 C17.397,2.77 16.217,4.139 15.142,5.169 C15.717,6.259 15.5,14 15.5,14 L25.5,14 C26.881,14 28,12.881 28,11.5 C28,10.289 27.139,9.28 25.997,9.05" id="Fill-1053" fill="#503C1D" sketch:type="MSShapeGroup"></path>
                <path d="M18,11.5 C18,10.289 17.14,9.28 15.997,9.05 C15.963,2.049 9.008,0 9.008,0 C10.195,3.992 7.295,3.992 7.295,3.992 C0.777,3.88 1.864,8.589 1.987,9.054 C0.853,9.29 0,10.295 0,11.5 C0,12.881 1.119,14 2.5,14 L15.5,14 C16.881,14 18,12.881 18,11.5" id="Fill-1054" fill="#EFE5D8" sketch:type="MSShapeGroup"></path>
            </g>
        </g>
    </g>
</svg>