<?xml version="1.0" encoding="UTF-8" standalone="no"?>
<svg width="28px" height="28px" viewBox="0 0 28 28" version="1.1" xmlns="http://www.w3.org/2000/svg" xmlns:xlink="http://www.w3.org/1999/xlink" xmlns:sketch="http://www.bohemiancoding.com/sketch/ns">
    <!-- Generator: Sketch 3.3 (11970) - http://www.bohemiancoding.com/sketch -->
    <title>jeep</title>
    <desc>Created with Sketch.</desc>
    <defs></defs>
    <g id="Page-1" stroke="none" stroke-width="1" fill="none" fill-rule="evenodd" sketch:type="MSPage">
        <g id="Symbolicons-Color" sketch:type="MSArtboardGroup" transform="translate(-868.000000, -252.000000)">
            <g id="jeep" sketch:type="MSLayerGroup" transform="translate(868.000000, 252.000000)">
                <path d="M25,10.559 L25,3 C25,1.35 23.651,0 22,0 L6,0 C4.35,0 3,1.35 3,3 L3,10.559 C1.811,11.254 1,12.531 1,14 L1,19 L27,19 L27,14 C27,12.531 26.189,11.254 25,10.559" id="Fill-452" fill="#C0392B" sketch:type="MSShapeGroup"></path>
                <path d="M3,12 L25,12 L25,18 L3,18 L3,12 Z" id="Fill-453" fill="#C0392B" sketch:type="MSShapeGroup"></path>
                <path d="M2,26.198 C2,27.399 3,28 4,28 C5,28 6,27.4 6,26.198 L6,23 L2,23 L2,26.198" id="Fill-454" fill="#918F90" sketch:type="MSShapeGroup"></path>
                <path d="M22,26.198 C22,27.399 23,28 24,28 C25,28 26,27.4 26,26.198 L26,23 L22,23 L22,26.198" id="Fill-455" fill="#918F90" sketch:type="MSShapeGroup"></path>
                <path d="M5.5,17 C4.119,17 3,15.881 3,14.5 C3,13.119 4.119,12 5.5,12 C6.881,12 8,13.119 8,14.5 C8,15.881 6.881,17 5.5,17" id="Fill-456" fill="#F1C40F" sketch:type="MSShapeGroup"></path>
                <path d="M10,17 C10,17.275 9.776,17.5 9.5,17.5 C9.225,17.5 9,17.275 9,17 L9,12.5 C9,12.225 9.225,12 9.5,12 C9.776,12 10,12.225 10,12.5 L10,17" id="Fill-457" fill="#505050" sketch:type="MSShapeGroup"></path>
                <path d="M12.25,17 C12.25,17.275 12.026,17.5 11.75,17.5 C11.475,17.5 11.25,17.275 11.25,17 L11.25,12.5 C11.25,12.225 11.475,12 11.75,12 C12.026,12 12.25,12.225 12.25,12.5 L12.25,17" id="Fill-458" fill="#505050" sketch:type="MSShapeGroup"></path>
                <path d="M14.5,17 C14.5,17.275 14.276,17.5 14,17.5 C13.725,17.5 13.5,17.275 13.5,17 L13.5,12.5 C13.5,12.225 13.725,12 14,12 C14.276,12 14.5,12.225 14.5,12.5 L14.5,17" id="Fill-459" fill="#505050" sketch:type="MSShapeGroup"></path>
                <path d="M16.75,17 C16.75,17.275 16.526,17.5 16.25,17.5 C15.975,17.5 15.75,17.275 15.75,17 L15.75,12.5 C15.75,12.225 15.975,12 16.25,12 C16.526,12 16.75,12.225 16.75,12.5 L16.75,17" id="Fill-460" fill="#505050" sketch:type="MSShapeGroup"></path>
                <path d="M19,17 C19,17.275 18.776,17.5 18.5,17.5 C18.225,17.5 18,17.275 18,17 L18,12.5 C18,12.225 18.225,12 18.5,12 C18.776,12 19,12.225 19,12.5 L19,17" id="Fill-461" fill="#505050" sketch:type="MSShapeGroup"></path>
                <path d="M22.5,17 C21.119,17 20,15.881 20,14.5 C20,13.119 21.119,12 22.5,12 C23.881,12 25,13.119 25,14.5 C25,15.881 23.881,17 22.5,17" id="Fill-462" fill="#F1C40F" sketch:type="MSShapeGroup"></path>
                <path d="M0,19 L28,19 L28,23 L0,23 L0,19 Z" id="Fill-463" fill="#505050" sketch:type="MSShapeGroup"></path>
                <path d="M23,10 L5,10 L5,3 C5,2.458 5.458,2 6,2 L22,2 C22.542,2 23,2.458 23,3 L23,10" id="Fill-464" fill="#ECECEC" sketch:type="MSShapeGroup"></path>
            </g>
        </g>
    </g>
</svg>