<?xml version="1.0" encoding="UTF-8" standalone="no"?>
<svg width="32px" height="32px" viewBox="0 0 32 32" version="1.1" xmlns="http://www.w3.org/2000/svg" xmlns:xlink="http://www.w3.org/1999/xlink" xmlns:sketch="http://www.bohemiancoding.com/sketch/ns">
    <!-- Generator: Sketch 3.3 (11970) - http://www.bohemiancoding.com/sketch -->
    <title>kayak</title>
    <desc>Created with Sketch.</desc>
    <defs></defs>
    <g id="Page-1" stroke="none" stroke-width="1" fill="none" fill-rule="evenodd" sketch:type="MSPage">
        <g id="Symbolicons-Color" sketch:type="MSArtboardGroup" transform="translate(-866.000000, -194.000000)">
            <g id="kayak" sketch:type="MSLayerGroup" transform="translate(865.000000, 193.000000)">
                <path d="M32.602,1.398 C30.961,-0.244 19.96,2.726 11.343,11.343 C2.726,19.96 -0.244,30.961 1.398,32.603 C3.039,34.244 14.04,31.274 22.657,22.657 C31.274,14.04 34.244,3.039 32.602,1.398" id="Fill-7" fill="#F1C40F" sketch:type="MSShapeGroup"></path>
                <path d="M23.364,10.636 C26.098,13.37 25.464,18.435 21.95,21.95 C18.435,25.464 13.37,26.098 10.636,23.364 C7.902,20.63 8.536,15.565 12.05,12.05 C15.565,8.536 20.63,7.902 23.364,10.636" id="Fill-941" fill="#F39C12" sketch:type="MSShapeGroup"></path>
                <path d="M21.546,12.454 C23.498,14.407 23.046,18.025 20.536,20.536 C18.025,23.046 14.407,23.498 12.454,21.546 C10.502,19.593 10.954,15.975 13.464,13.464 C15.975,10.954 19.593,10.502 21.546,12.454" id="Fill-942" fill="#323232" sketch:type="MSShapeGroup"></path>
                <path d="M32.572,28.298 L28.329,24.056 L23.379,21.935 L12.065,10.621 L9.944,5.671 L5.702,1.428 C4.92,0.648 3.337,0.964 2.166,2.136 C0.995,3.307 0.678,4.89 1.459,5.671 L5.702,9.914 L10.651,12.035 L21.965,23.349 L24.086,28.298 L28.329,32.541 C29.11,33.322 30.693,33.005 31.865,31.834 C33.036,30.663 33.352,29.08 32.572,28.298" id="Fill-943" fill="#505050" sketch:type="MSShapeGroup"></path>
            </g>
        </g>
    </g>
</svg>