<?xml version="1.0" encoding="UTF-8" standalone="no"?>
<svg width="28px" height="28px" viewBox="0 0 28 28" version="1.1" xmlns="http://www.w3.org/2000/svg" xmlns:xlink="http://www.w3.org/1999/xlink" xmlns:sketch="http://www.bohemiancoding.com/sketch/ns">
    <!-- Generator: Sketch 3.3 (11970) - http://www.bohemiancoding.com/sketch -->
    <title>kebab</title>
    <desc>Created with Sketch.</desc>
    <defs></defs>
    <g id="Page-1" stroke="none" stroke-width="1" fill="none" fill-rule="evenodd" sketch:type="MSPage">
        <g id="Symbolicons-Color" sketch:type="MSArtboardGroup" transform="translate(-308.000000, -1092.000000)">
            <g id="kebab" sketch:type="MSLayerGroup" transform="translate(308.000000, 1091.000000)">
                <path d="M4.003,29 C2.935,29 1.93,28.584 1.175,27.828 C0.419,27.073 0.003,26.068 0.003,25 C0.003,23.932 0.419,22.927 1.175,22.172 C2.445,20.902 4.533,20.663 6.036,21.553 L26.296,1.293 C26.687,0.902 27.32,0.902 27.71,1.293 C28.101,1.684 28.101,2.316 27.71,2.707 L6.832,23.586 C6.644,23.773 6.39,23.879 6.125,23.879 C5.859,23.879 5.605,23.773 5.417,23.586 C4.661,22.83 3.345,22.83 2.589,23.586 C2.211,23.964 2.003,24.466 2.003,25 C2.003,25.534 2.211,26.036 2.589,26.414 C3.345,27.17 4.661,27.17 5.417,26.414 C5.808,26.023 6.441,26.024 6.832,26.413 C7.222,26.804 7.222,27.437 6.832,27.828 C6.077,28.584 5.072,29 4.003,29" id="Fill-324" fill="#A0A0A0" sketch:type="MSShapeGroup"></path>
                <path d="M12.264,23.104 C11.486,23.881 10.213,23.881 9.435,23.104 L5.9,19.568 C5.122,18.79 5.122,17.517 5.9,16.739 L7.314,15.325 C8.092,14.548 9.365,14.548 10.142,15.325 L13.678,18.861 C14.456,19.639 14.456,20.911 13.678,21.689 L12.264,23.104" id="Fill-325" fill="#C0392B" sketch:type="MSShapeGroup"></path>
                <path d="M17.921,17.447 C17.143,18.225 15.87,18.225 15.092,17.447 L11.557,13.911 C10.779,13.133 10.779,11.861 11.557,11.083 L12.971,9.669 C13.749,8.891 15.022,8.891 15.799,9.669 L19.335,13.204 C20.113,13.982 20.113,15.255 19.335,16.033 L17.921,17.447" id="Fill-326" fill="#C0392B" sketch:type="MSShapeGroup"></path>
                <path d="M23.577,11.79 C22.8,12.568 21.527,12.568 20.749,11.79 L17.214,8.254 C16.436,7.477 16.436,6.204 17.214,5.426 L18.628,4.012 C19.406,3.234 20.678,3.234 21.456,4.012 L24.992,7.547 C25.77,8.325 25.77,9.598 24.992,10.376 L23.577,11.79" id="Fill-327" fill="#C0392B" sketch:type="MSShapeGroup"></path>
                <path d="M15.799,19.568 C15.41,19.957 14.774,19.957 14.385,19.568 L9.435,14.618 C9.046,14.229 9.046,13.593 9.435,13.204 C9.824,12.815 10.461,12.815 10.85,13.204 L15.799,18.154 C16.188,18.543 16.188,19.179 15.799,19.568" id="Fill-328" fill="#8CBE3C" sketch:type="MSShapeGroup"></path>
                <path d="M21.456,13.911 C21.067,14.3 20.431,14.3 20.042,13.911 L15.092,8.961 C14.703,8.573 14.703,7.936 15.092,7.547 C15.481,7.158 16.118,7.158 16.506,7.547 L21.456,12.497 C21.845,12.886 21.845,13.522 21.456,13.911" id="Fill-329" fill="#8CBE3C" sketch:type="MSShapeGroup"></path>
                <path d="M28.003,8.071 C24.104,8.071 20.932,4.899 20.932,1 L24.351,1 C24.351,3.013 25.99,4.652 28.003,4.652 L28.003,8.071" id="Fill-330" fill="#F39C12" sketch:type="MSShapeGroup"></path>
            </g>
        </g>
    </g>
</svg>