<?xml version="1.0" encoding="UTF-8" standalone="no"?>
<svg width="28px" height="28px" viewBox="0 0 28 28" version="1.1" xmlns="http://www.w3.org/2000/svg" xmlns:xlink="http://www.w3.org/1999/xlink" xmlns:sketch="http://www.bohemiancoding.com/sketch/ns">
    <!-- Generator: Sketch 3.3 (11970) - http://www.bohemiancoding.com/sketch -->
    <title>ketchup-mustard</title>
    <desc>Created with Sketch.</desc>
    <defs></defs>
    <g id="Page-1" stroke="none" stroke-width="1" fill="none" fill-rule="evenodd" sketch:type="MSPage">
        <g id="Symbolicons-Color" sketch:type="MSArtboardGroup" transform="translate(-140.000000, -980.000000)">
            <g id="ketchup-mustard" sketch:type="MSLayerGroup" transform="translate(140.000000, 980.000000)">
                <path d="M13.003,14 L13.003,12 C13.003,10.183 11.769,7.932 10.003,7 L10.003,2.995 L3.003,2.995 L3.003,7 C1.237,7.93 0.003,10.182 0.003,12 L0.003,14 L2.128,15 L11.128,15 L13.003,14" id="Fill-291" fill="#C0392B" sketch:type="MSShapeGroup"></path>
                <path d="M0.003,24 L0.003,25 C0.005,26.431 1.215,28.001 3.003,28 L10.003,28 C11.792,28 13.002,26.433 13.003,25 L13.003,24 L11.128,23 L2.128,23 L0.003,24" id="Fill-292" fill="#C0392B" sketch:type="MSShapeGroup"></path>
                <path d="M11.003,2 C11.003,0.895 10.107,0 9.003,0 L4.003,0 C2.9,0 2.003,0.895 2.003,2 L2.003,4 L11.003,4 L11.003,2" id="Fill-293" fill="#BEBEBE" sketch:type="MSShapeGroup"></path>
                <path d="M0.003,14 L13.003,14 L13.003,24 L0.003,24 L0.003,14 Z" id="Fill-294" fill="#921816" sketch:type="MSShapeGroup"></path>
                <path d="M28.003,14 L28.003,11 C28.003,9.895 27.107,9 26.003,9 L17.003,9 C15.9,9 15.003,9.895 15.003,11 L15.003,14 L17.003,15 L26.003,15 L28.003,14" id="Fill-295" fill="#F1C40F" sketch:type="MSShapeGroup"></path>
                <path d="M28.003,24 L28.003,26 C28.003,27.104 27.107,28 26.003,28 L17.003,28 C15.9,28 15.003,27.104 15.003,26 L15.003,24 L17.003,23 L26.003,23 L28.003,24" id="Fill-296" fill="#F1C40F" sketch:type="MSShapeGroup"></path>
                <path d="M15.003,14 L28.003,14 L28.003,24 L15.003,24 L15.003,14 Z" id="Fill-297" fill="#F39C12" sketch:type="MSShapeGroup"></path>
                <path d="M26.003,7 L24.003,7 L22.003,0 L21.003,0 L19.003,7 L17.003,7 L17.003,9 L26.003,9 L26.003,7" id="Fill-298" fill="#C0392B" sketch:type="MSShapeGroup"></path>
            </g>
        </g>
    </g>
</svg>