<?xml version="1.0" encoding="UTF-8" standalone="no"?>
<svg width="28px" height="28px" viewBox="0 0 28 28" version="1.1" xmlns="http://www.w3.org/2000/svg" xmlns:xlink="http://www.w3.org/1999/xlink" xmlns:sketch="http://www.bohemiancoding.com/sketch/ns">
    <!-- Generator: Sketch 3.3 (11970) - http://www.bohemiancoding.com/sketch -->
    <title>lantern</title>
    <desc>Created with Sketch.</desc>
    <defs></defs>
    <g id="Page-1" stroke="none" stroke-width="1" fill="none" fill-rule="evenodd" sketch:type="MSPage">
        <g id="Symbolicons-Color" sketch:type="MSArtboardGroup" transform="translate(-756.000000, -252.000000)">
            <g id="lantern" sketch:type="MSLayerGroup" transform="translate(755.000000, 252.000000)">
                <path d="M19,4 L22.461,4 C24.692,4 26.706,6.03 26.948,8.526 L27.978,19.072 C28.221,21.56 26.412,23.918 23.948,24.329 L20,24.986 L20,26 L24.112,25.315 C27.085,24.819 29.266,21.976 28.974,18.975 L27.945,8.428 C27.653,5.435 25.192,3 22.461,3 L19,3 L19,4" id="Fill-136" fill="#46A046" sketch:type="MSShapeGroup"></path>
                <path d="M10,3 L7.539,3 C4.807,3 2.348,5.435 2.056,8.428 L1.026,18.975 C0.734,21.976 2.915,24.819 5.888,25.315 L10,26 L10,24.986 L6.053,24.329 C3.588,23.918 1.779,21.56 2.022,19.072 L3.052,8.526 C3.294,6.03 5.307,4 7.539,4 L10,4 L10,3" id="Fill-137" fill="#46A046" sketch:type="MSShapeGroup"></path>
                <path d="M9,5.772 L9,3 C9,3 9,0 12,0 L18,0 C18,0 21,0 21,3 L21,5.772 L9,5.772" id="Fill-138" fill="#8CBE3C" sketch:type="MSShapeGroup"></path>
                <path d="M8.992,22.222 C8.503,22.716 8.171,23.325 8.058,24 L8,24 L8,28 L22,28 L22,24 L21.942,24 C21.83,23.325 21.498,22.716 21.008,22.222 L20,20 L10,20 L8.992,22.222" id="Fill-139" fill="#8CBE3C" sketch:type="MSShapeGroup"></path>
                <path d="M24,12 C24,8 21,5.772 21,5.772 L9,5.772 C9,5.772 6,8 6,12 L6,16 C6,20 8.992,22.222 8.992,22.222 L21.008,22.222 C21.008,22.222 24,20 24,16 L24,12" id="Fill-140" fill="#ECECEC" sketch:type="MSShapeGroup"></path>
                <path d="M15.119,15.853 C14.68,16.315 13.827,17.897 13.827,18.978 C13.827,19.485 14.142,20.904 14.688,20.98 C15.233,21.056 15.803,20.894 15.803,20.894 C17.346,20.548 18.5,19.275 18.5,17.69 C18.5,16.447 18.168,15.399 17.699,14.515 C17.062,13.353 16.488,12.818 16.488,12.818 C16.488,12.818 15.654,15.293 15.119,15.853" id="Fill-141" fill="#F39C12" sketch:type="MSShapeGroup"></path>
                <path d="M15.419,16.035 C16.937,14.445 16.996,13.413 16.996,13.413 C15.746,11.807 14.169,10.98 14.169,10.98 C14.603,12.315 14.544,13.336 12.611,15.181 C12.212,15.562 11.5,16.451 11.5,17.69 C11.5,19.441 12.903,20.827 14.688,20.98 C14.32,20.37 14.119,19.717 14.119,19.006 C14.119,17.446 15.045,16.429 15.419,16.035" id="Fill-142" fill="#F1C40F" sketch:type="MSShapeGroup"></path>
            </g>
        </g>
    </g>
</svg>