<?xml version="1.0" encoding="UTF-8" standalone="no"?>
<svg width="28px" height="28px" viewBox="0 0 28 28" version="1.1" xmlns="http://www.w3.org/2000/svg" xmlns:xlink="http://www.w3.org/1999/xlink" xmlns:sketch="http://www.bohemiancoding.com/sketch/ns">
    <!-- Generator: Sketch 3.3 (11970) - http://www.bohemiancoding.com/sketch -->
    <title>lockers</title>
    <desc>Created with Sketch.</desc>
    <defs></defs>
    <g id="Page-1" stroke="none" stroke-width="1" fill="none" fill-rule="evenodd" sketch:type="MSPage">
        <g id="Symbolicons-Color" sketch:type="MSArtboardGroup" transform="translate(-644.000000, -532.000000)">
            <g id="lockers" sketch:type="MSLayerGroup" transform="translate(644.000000, 531.997000)">
                <path d="M0,0 L15,0 L15,28 L0,28 L0,0 Z" id="Fill-1" fill="#46A046" sketch:type="MSShapeGroup"></path>
                <path d="M2,2 L13,2 L13,26 L2,26 L2,2 Z" id="Fill-2" fill="#8CBE3C" sketch:type="MSShapeGroup"></path>
                <path d="M11,4.5 C11,4.775 10.775,5 10.5,5 L4.5,5 C4.225,5 4,4.775 4,4.5 C4,4.225 4.225,4 4.5,4 L10.5,4 C10.775,4 11,4.225 11,4.5" id="Fill-3" fill="#FFFFFF" sketch:type="MSShapeGroup"></path>
                <path d="M11,6.5 C11,6.775 10.775,7 10.5,7 L4.5,7 C4.225,7 4,6.775 4,6.5 C4,6.225 4.225,6 4.5,6 L10.5,6 C10.775,6 11,6.225 11,6.5" id="Fill-4" fill="#FFFFFF" sketch:type="MSShapeGroup"></path>
                <path d="M11,21.5 C11,21.775 10.775,22 10.5,22 L4.5,22 C4.225,22 4,21.775 4,21.5 C4,21.225 4.225,21 4.5,21 L10.5,21 C10.775,21 11,21.225 11,21.5" id="Fill-5" fill="#FFFFFF" sketch:type="MSShapeGroup"></path>
                <path d="M11,23.5 C11,23.775 10.775,24 10.5,24 L4.5,24 C4.225,24 4,23.775 4,23.5 C4,23.225 4.225,23 4.5,23 L10.5,23 C10.775,23 11,23.225 11,23.5" id="Fill-6" fill="#FFFFFF" sketch:type="MSShapeGroup"></path>
                <path d="M13,0 L28,0 L28,28 L13,28 L13,0 Z" id="Fill-7" fill="#46A046" sketch:type="MSShapeGroup"></path>
                <path d="M15,2 L26,2 L26,26 L15,26 L15,2 Z" id="Fill-8" fill="#8CBE3C" sketch:type="MSShapeGroup"></path>
                <path d="M24,4.5 C24,4.775 23.775,5 23.5,5 L17.5,5 C17.225,5 17,4.775 17,4.5 C17,4.225 17.225,4 17.5,4 L23.5,4 C23.775,4 24,4.225 24,4.5" id="Fill-9" fill="#FFFFFF" sketch:type="MSShapeGroup"></path>
                <path d="M24,6.5 C24,6.775 23.775,7 23.5,7 L17.5,7 C17.225,7 17,6.775 17,6.5 C17,6.225 17.225,6 17.5,6 L23.5,6 C23.775,6 24,6.225 24,6.5" id="Fill-10" fill="#FFFFFF" sketch:type="MSShapeGroup"></path>
                <path d="M24,21.5 C24,21.775 23.775,22 23.5,22 L17.5,22 C17.225,22 17,21.775 17,21.5 C17,21.225 17.225,21 17.5,21 L23.5,21 C23.775,21 24,21.225 24,21.5" id="Fill-11" fill="#FFFFFF" sketch:type="MSShapeGroup"></path>
                <path d="M24,23.5 C24,23.775 23.775,24 23.5,24 L17.5,24 C17.225,24 17,23.775 17,23.5 C17,23.225 17.225,23 17.5,23 L23.5,23 C23.775,23 24,23.225 24,23.5" id="Fill-12" fill="#FFFFFF" sketch:type="MSShapeGroup"></path>
                <path d="M24.5,14 C24.5,11.8 22.7,10 20.5,10 C18.3,10 16.5,11.8 16.5,14 C16.5,16.2 18.3,18 20.5,18 C22.7,18 24.5,16.2 24.5,14" id="Fill-13" fill="#505050" sketch:type="MSShapeGroup"></path>
                <path d="M22,14 C22,13.175 21.325,12.5 20.5,12.5 C19.675,12.5 19,13.175 19,14 C19,14.825 19.675,15.5 20.5,15.5 C21.325,15.5 22,14.825 22,14" id="Fill-14" fill="#8C8C8C" sketch:type="MSShapeGroup"></path>
                <path d="M20.46,16.8 C20.41,16.52 20.6,16.26 20.87,16.22 C21.14,16.17 21.399,16.36 21.45,16.63 C21.49,16.9 21.31,17.16 21.029,17.21 L20.95,17.21 C20.71,17.21 20.5,17.04 20.46,16.8 L20.46,16.8 Z M18.85,16.8 C18.609,16.66 18.54,16.35 18.68,16.11 C18.819,15.88 19.12,15.8 19.359,15.94 C19.6,16.08 19.68,16.39 19.54,16.62 C19.44,16.78 19.279,16.87 19.109,16.87 C19.02,16.87 18.93,16.85 18.85,16.8 L18.85,16.8 Z M22.26,16.17 C22.05,15.98 22.02,15.67 22.21,15.46 C22.21,15.46 22.21,15.46 22.2,15.46 C22.38,15.25 22.7,15.23 22.91,15.41 C23.12,15.59 23.15,15.9 22.97,16.11 L22.96,16.11 C22.859,16.23 22.72,16.29 22.58,16.29 C22.47,16.29 22.35,16.25 22.26,16.17 L22.26,16.17 Z M17.439,15.09 C17.35,14.83 17.48,14.55 17.74,14.45 C18,14.36 18.29,14.49 18.38,14.75 C18.47,15.01 18.34,15.3 18.08,15.39 C18.02,15.41 17.97,15.42 17.91,15.42 C17.7,15.42 17.51,15.3 17.439,15.09 L17.439,15.09 Z M23.24,14.53 C22.97,14.53 22.75,14.3 22.75,14.03 L22.75,13.98 C22.76,13.71 22.98,13.5 23.25,13.5 C23.529,13.5 23.75,13.72 23.75,14 L23.75,14.05 C23.74,14.32 23.52,14.53 23.25,14.53 L23.24,14.53 L23.24,14.53 Z M17.75,13.52 C17.49,13.42 17.36,13.13 17.45,12.87 C17.55,12.61 17.84,12.48 18.1,12.58 C18.35,12.67 18.49,12.96 18.39,13.22 C18.31,13.42 18.12,13.55 17.92,13.55 C17.859,13.55 17.8,13.54 17.75,13.52 L17.75,13.52 Z M22.22,12.56 L22.22,12.56 C22.05,12.35 22.07,12.03 22.279,11.86 C22.5,11.68 22.81,11.7 22.99,11.91 C23.17,12.13 23.14,12.44 22.93,12.62 C22.83,12.7 22.72,12.74 22.61,12.74 C22.46,12.74 22.319,12.68 22.22,12.56 L22.22,12.56 Z M18.7,11.86 C18.56,11.62 18.65,11.32 18.89,11.18 C19.12,11.04 19.43,11.12 19.569,11.36 C19.71,11.6 19.62,11.91 19.38,12.05 C19.31,12.09 19.22,12.11 19.14,12.11 C18.96,12.11 18.79,12.02 18.7,11.86 L18.7,11.86 Z M20.9,11.79 C20.62,11.74 20.439,11.48 20.49,11.2 C20.54,10.93 20.8,10.75 21.069,10.8 C21.34,10.85 21.52,11.11 21.47,11.38 C21.43,11.62 21.22,11.79 20.98,11.79 L20.9,11.79 L20.9,11.79 Z" id="Fill-15" fill="#8C8C8C" sketch:type="MSShapeGroup"></path>
                <path d="M11.5,14 C11.5,11.8 9.7,10 7.5,10 C5.3,10 3.5,11.8 3.5,14 C3.5,16.2 5.3,18 7.5,18 C9.7,18 11.5,16.2 11.5,14" id="Fill-16" fill="#505050" sketch:type="MSShapeGroup"></path>
                <path d="M9,14 C9,13.175 8.325,12.5 7.5,12.5 C6.675,12.5 6,13.175 6,14 C6,14.825 6.675,15.5 7.5,15.5 C8.325,15.5 9,14.825 9,14" id="Fill-17" fill="#8C8C8C" sketch:type="MSShapeGroup"></path>
                <path d="M7.46,16.8 C7.41,16.52 7.6,16.26 7.87,16.22 C8.14,16.18 8.4,16.36 8.439,16.63 C8.49,16.9 8.31,17.16 8.029,17.21 L8.04,17.21 L7.95,17.21 C7.71,17.21 7.5,17.04 7.46,16.8 L7.46,16.8 Z M5.85,16.8 C5.609,16.66 5.54,16.35 5.68,16.12 C5.819,15.88 6.12,15.8 6.359,15.94 C6.6,16.08 6.68,16.39 6.54,16.62 C6.44,16.78 6.279,16.87 6.11,16.87 C6.02,16.87 5.93,16.85 5.85,16.8 L5.85,16.8 Z M9.26,16.17 C9.05,15.99 9.02,15.67 9.21,15.46 C9.21,15.46 9.21,15.46 9.2,15.46 C9.39,15.25 9.7,15.23 9.91,15.41 C10.12,15.59 10.149,15.9 9.96,16.11 C9.86,16.23 9.73,16.29 9.58,16.29 C9.47,16.29 9.35,16.25 9.26,16.17 L9.26,16.17 Z M4.44,15.09 C4.35,14.83 4.48,14.55 4.74,14.45 C5,14.36 5.29,14.49 5.38,14.75 C5.47,15.01 5.34,15.3 5.08,15.39 C5.02,15.41 4.97,15.42 4.91,15.42 C4.7,15.42 4.51,15.29 4.44,15.09 L4.44,15.09 Z M10.24,14.53 C9.97,14.53 9.74,14.3 9.75,14.03 L9.75,14.01 C9.75,14.01 9.75,14.01 9.75,14 L9.75,13.97 C9.77,13.71 9.98,13.5 10.25,13.5 C10.529,13.5 10.75,13.72 10.75,14 L10.75,14.06 C10.74,14.32 10.52,14.53 10.25,14.53 C10.25,14.53 10.25,14.53 10.24,14.53 L10.24,14.53 Z M4.75,13.51 C4.49,13.42 4.359,13.13 4.45,12.87 C4.55,12.61 4.84,12.48 5.09,12.58 C5.35,12.67 5.49,12.96 5.39,13.22 C5.31,13.42 5.12,13.55 4.92,13.55 C4.859,13.55 4.8,13.54 4.75,13.51 L4.75,13.51 Z M9.22,12.56 L9.22,12.56 C9.04,12.35 9.069,12.03 9.29,11.85 C9.5,11.68 9.81,11.7 9.99,11.92 C10.17,12.13 10.14,12.44 9.93,12.62 C9.83,12.7 9.72,12.74 9.609,12.74 C9.46,12.74 9.32,12.68 9.22,12.56 L9.22,12.56 Z M5.7,11.86 C5.56,11.62 5.649,11.32 5.89,11.18 L5.88,11.18 C6.12,11.04 6.43,11.12 6.569,11.36 C6.71,11.6 6.62,11.91 6.39,12.05 C6.31,12.09 6.22,12.11 6.14,12.11 C5.96,12.11 5.79,12.02 5.7,11.86 L5.7,11.86 Z M7.899,11.78 C7.899,11.78 7.899,11.78 7.89,11.78 C7.62,11.74 7.44,11.48 7.49,11.2 C7.54,10.93 7.8,10.75 8.069,10.8 C8.34,10.85 8.52,11.11 8.47,11.38 C8.43,11.62 8.22,11.79 7.99,11.79 C7.96,11.79 7.93,11.79 7.899,11.78 L7.899,11.78 Z" id="Fill-18" fill="#8C8C8C" sketch:type="MSShapeGroup"></path>
            </g>
        </g>
    </g>
</svg>