<?xml version="1.0" encoding="UTF-8" standalone="no"?>
<svg width="28px" height="28px" viewBox="0 0 28 28" version="1.1" xmlns="http://www.w3.org/2000/svg" xmlns:xlink="http://www.w3.org/1999/xlink" xmlns:sketch="http://www.bohemiancoding.com/sketch/ns">
    <!-- Generator: Sketch 3.3 (11970) - http://www.bohemiancoding.com/sketch -->
    <title>log</title>
    <desc>Created with Sketch.</desc>
    <defs></defs>
    <g id="Page-1" stroke="none" stroke-width="1" fill="none" fill-rule="evenodd" sketch:type="MSPage">
        <g id="Symbolicons-Color" sketch:type="MSArtboardGroup" transform="translate(-812.000000, -252.000000)">
            <g id="log" sketch:type="MSLayerGroup" transform="translate(812.000000, 252.000000)">
                <path d="M17.828,0.43 L0.43,17.828 C-0.723,18.981 0.523,22.096 3.213,24.787 C5.904,27.477 9.019,28.723 10.173,27.57 L27.57,10.173 L17.828,0.43" id="Fill-447" fill="#8C5A3C" sketch:type="MSShapeGroup"></path>
                <path d="M11,8 L11,4 L7,5 L7,12 L11,8" id="Fill-448" fill="#8C5A3C" sketch:type="MSShapeGroup"></path>
                <path d="M16.783,7.041 C16.592,7.232 16.279,7.232 16.088,7.041 C15.896,6.85 15.896,6.537 16.088,6.345 L18.871,3.562 C19.063,3.37 19.376,3.37 19.567,3.562 C19.759,3.753 19.759,4.066 19.567,4.258 L16.783,7.041" id="Fill-449" fill="#A57D52" sketch:type="MSShapeGroup"></path>
                <path d="M9.129,23.743 C8.937,23.551 8.624,23.551 8.433,23.743 L5.505,26.671 C5.798,26.865 6.088,27.041 6.373,27.194 L9.129,24.439 C9.32,24.247 9.32,23.934 9.129,23.743" id="Fill-450" fill="#A57D52" sketch:type="MSShapeGroup"></path>
                <path d="M24.786,3.214 C22.096,0.523 18.98,-0.723 17.828,0.43 C16.674,1.583 17.921,4.699 20.611,7.389 C23.301,10.079 26.417,11.326 27.57,10.172 C28.723,9.02 27.477,5.904 24.786,3.214" id="Fill-451" fill="#A57D52" sketch:type="MSShapeGroup"></path>
            </g>
        </g>
    </g>
</svg>