<?xml version="1.0" encoding="UTF-8" standalone="no"?>
<svg width="28px" height="28px" viewBox="0 0 28 28" version="1.1" xmlns="http://www.w3.org/2000/svg" xmlns:xlink="http://www.w3.org/1999/xlink" xmlns:sketch="http://www.bohemiancoding.com/sketch/ns">
    <!-- Generator: Sketch 3.3 (11970) - http://www.bohemiancoding.com/sketch -->
    <title>lollypops</title>
    <desc>Created with Sketch.</desc>
    <defs></defs>
    <g id="Page-1" stroke="none" stroke-width="1" fill="none" fill-rule="evenodd" sketch:type="MSPage">
        <g id="Symbolicons-Color" sketch:type="MSArtboardGroup" transform="translate(-252.000000, -868.000000)">
            <g id="lollypops" sketch:type="MSLayerGroup" transform="translate(252.000000, 868.000000)">
                <path d="M19,16.965 L19,26.5 C19,27.328 19.672,28 20.5,28 C21.328,28 22,27.328 22,26.5 L22,17 L19,16.965" id="Fill-83" fill="#BE9664" sketch:type="MSShapeGroup"></path>
                <path d="M28,7.5 C28,3.358 24.642,0 20.5,0 C16.358,0 13,3.358 13,7.5 C13,10.694 15.002,13.416 17.816,14.497 L15.211,18.713 L18.369,17.54 L20.545,18.395 L22.719,17.541 L25.879,18.712 L23.255,14.471 C26.032,13.372 28,10.668 28,7.5" id="Fill-84" fill="#9B59B6" sketch:type="MSShapeGroup"></path>
                <path d="M6,16.965 L6,26.5 C6,27.328 6.672,28 7.5,28 C8.328,28 9,27.328 9,26.5 L9,17 L6,16.965" id="Fill-85" fill="#BE9664" sketch:type="MSShapeGroup"></path>
                <path d="M15,7.5 C15,3.358 11.641,0 7.5,0 C3.358,0 0,3.358 0,7.5 C0,10.694 2.002,13.416 4.817,14.497 L2.211,18.713 L5.369,17.54 L7.545,18.395 L9.719,17.541 L12.879,18.712 L10.255,14.471 C13.032,13.372 15,10.668 15,7.5" id="Fill-86" fill="#1EAAE1" sketch:type="MSShapeGroup"></path>
            </g>
        </g>
    </g>
</svg>