<?xml version="1.0" encoding="UTF-8" standalone="no"?>
<svg width="28px" height="28px" viewBox="0 0 28 28" version="1.1" xmlns="http://www.w3.org/2000/svg" xmlns:xlink="http://www.w3.org/1999/xlink" xmlns:sketch="http://www.bohemiancoding.com/sketch/ns">
    <!-- Generator: Sketch 3.3 (11970) - http://www.bohemiancoding.com/sketch -->
    <title>map</title>
    <desc>Created with Sketch.</desc>
    <defs></defs>
    <g id="Page-1" stroke="none" stroke-width="1" fill="none" fill-rule="evenodd" sketch:type="MSPage">
        <g id="Symbolicons-Color" sketch:type="MSArtboardGroup" transform="translate(-84.000000, -476.000000)">
            <g id="map" sketch:type="MSLayerGroup" transform="translate(84.000000, 476.000000)">
                <path d="M0,6 L28,6 L28,28 L0,28 L0,6 Z" id="Fill-738" fill="#ECECEC" sketch:type="MSShapeGroup"></path>
                <path d="M2,8 L26,8 L26,26 L2,26 L2,8 Z" id="Fill-739" fill="#1EAAE1" sketch:type="MSShapeGroup"></path>
                <path d="M20.47,16.534 C22.702,14.791 23.127,11.053 22.056,8 L2,8 L2,26 L15,26 C15.44,25.019 15,22 15.927,20.131 C16.952,18.561 19.298,17.45 20.47,16.534" id="Fill-740" fill="#8CBE3C" sketch:type="MSShapeGroup"></path>
                <path d="M15,8 L15,15 C15,15.547 14.547,16 14,16 C13.453,16 13,15.547 13,15 L13,8 L15,8" id="Fill-741" fill="#ECECEC" sketch:type="MSShapeGroup"></path>
                <path d="M18.5,4.5 C18.5,6.984 16.484,9 14,9 C11.516,9 9.5,6.984 9.5,4.5 C9.5,2.016 11.516,0 14,0 C16.484,0 18.5,2.016 18.5,4.5" id="Fill-742" fill="#C0392B" sketch:type="MSShapeGroup"></path>
                <path d="M15.5,2.5 C15.5,1.672 14.828,1 14,1 C13.172,1 12.5,1.672 12.5,2.5 C12.5,3.328 13.172,4 14,4 C14.828,4 15.5,3.328 15.5,2.5" id="Fill-743" fill="#E74C3C" sketch:type="MSShapeGroup"></path>
            </g>
        </g>
    </g>
</svg>