<?xml version="1.0" encoding="UTF-8" standalone="no"?>
<svg width="20px" height="30px" viewBox="0 0 20 30" version="1.1" xmlns="http://www.w3.org/2000/svg" xmlns:xlink="http://www.w3.org/1999/xlink" xmlns:sketch="http://www.bohemiancoding.com/sketch/ns">
    <!-- Generator: Sketch 3.3 (11970) - http://www.bohemiancoding.com/sketch -->
    <title>maple-syrup</title>
    <desc>Created with Sketch.</desc>
    <defs></defs>
    <g id="Page-1" stroke="none" stroke-width="1" fill="none" fill-rule="evenodd" sketch:type="MSPage">
        <g id="Symbolicons-Color" sketch:type="MSArtboardGroup" transform="translate(-592.000000, -306.000000)">
            <g id="maple-syrup" sketch:type="MSLayerGroup" transform="translate(592.000000, 306.000000)">
                <path d="M6,0 L14,0 L14,3 L6,3 L6,0 Z" id="Fill-242" fill="#323232" sketch:type="MSShapeGroup"></path>
                <path d="M16,9 C15,8 14,7 14,6 C14,5 14.984,4.172 14.984,4.172 C14.984,4.172 15.5,3.781 15.5,3.5 C15.5,3.224 15.276,3 15,3 L4,3 C1.791,3 0,4.791 0,7 C0,8.607 0.953,9.983 2.32,10.619 C1.225,11.881 0,13.786 0,16 L0,26 C0,28.2 1.8,30 4,30 L16,30 C18.2,30 20,28.2 20,26 L20,16 C20,12 16,9 16,9 L16,9 Z M4,9 C2.897,9 2,8.103 2,7 C2,5.897 2.897,5 4,5 C4.92,5 5.689,5.628 5.921,6.475 C5.676,7.317 4.842,8.159 4,9 L4,9 Z" id="Fill-243" fill="#BEBEBE" sketch:type="MSShapeGroup"></path>
                <path d="M0,16 L20,16 L20,26 L0,26 L0,16 Z" id="Fill-244" fill="#8C5A3C" sketch:type="MSShapeGroup"></path>
            </g>
        </g>
    </g>
</svg>