<?xml version="1.0" encoding="UTF-8" standalone="no"?>
<svg width="28px" height="31px" viewBox="0 0 28 31" version="1.1" xmlns="http://www.w3.org/2000/svg" xmlns:xlink="http://www.w3.org/1999/xlink" xmlns:sketch="http://www.bohemiancoding.com/sketch/ns">
    <!-- Generator: Sketch 3.3 (11970) - http://www.bohemiancoding.com/sketch -->
    <title>margarita</title>
    <desc>Created with Sketch.</desc>
    <defs></defs>
    <g id="Page-1" stroke="none" stroke-width="1" fill="none" fill-rule="evenodd" sketch:type="MSPage">
        <g id="Symbolicons-Color" sketch:type="MSArtboardGroup" transform="translate(-308.000000, -641.000000)">
            <g id="margarita" sketch:type="MSLayerGroup" transform="translate(308.000000, 641.000000)">
                <path d="M26.284,10 C27.344,8.94 28,7.476 28,5.858 C28,2.622 25.377,0 22.142,0 C20.524,0 19.06,0.656 18,1.716 L26.284,10" id="Fill-1135" fill="#46A046" sketch:type="MSShapeGroup"></path>
                <path d="M25.531,9.247 C26.398,8.38 26.935,7.181 26.935,5.858 C26.935,3.211 24.789,1.065 22.142,1.065 C20.819,1.065 19.62,1.602 18.753,2.469 L25.531,9.247" id="Fill-1136" fill="#8CBE3C" sketch:type="MSShapeGroup"></path>
                <path d="M26.935,5.858 C26.935,4.535 26.398,3.336 25.531,2.469 L22.142,5.858 L26.923,6.097 L26.935,5.858" id="Fill-1137" fill="#98C550" sketch:type="MSShapeGroup"></path>
                <path d="M22.142,1.065 C20.819,1.065 19.62,1.602 18.753,2.469 L21.624,5.34 L22.142,5.858 L22.359,1.076 L22.142,1.065" id="Fill-1138" fill="#98C550" sketch:type="MSShapeGroup"></path>
                <path d="M16.515,29.879 L13,29 L13,13 L11,13 L11,29 L7.485,29.879 C7.218,29.945 7,30.225 7,30.5 C7,30.775 7.225,31 7.5,31 L16.5,31 C16.775,31 17,30.775 17,30.5 C17,30.225 16.782,29.945 16.515,29.879" id="Fill-1139" fill="#BEE6FA" sketch:type="MSShapeGroup"></path>
                <path d="M0.567,8 C1.359,10.389 3.041,12 6,12 L6,14.253 C6,17.427 8.573,20 11.747,20 L12.253,20 C15.427,20 18,17.427 18,14.253 L18,12 C20.959,12 22.641,10.389 23.433,8 L0.567,8" id="Fill-1140" fill="#ECECEC" sketch:type="MSShapeGroup"></path>
                <path d="M0.567,8 C1.359,10.389 3.041,12 6,12 L6,14.253 C6,17.427 8.573,20 11.747,20 L12.253,20 C15.427,20 18,17.427 18,14.253 L18,12 C20.959,12 22.641,10.389 23.433,8 L0.567,8" id="Fill-1141" fill="#A9CE6D" sketch:type="MSShapeGroup"></path>
                <path d="M6,12 L13,12 L6,14.253 L6,12" id="Fill-1142" fill="#8CBE3C" sketch:type="MSShapeGroup"></path>
                <path d="M0.127,6 C0.219,6.709 0.362,7.381 0.567,8 L23.433,8 C23.638,7.381 23.781,6.709 23.873,6 L0.127,6" id="Fill-1143" fill="#E2EFCE" sketch:type="MSShapeGroup"></path>
                <path d="M23.873,6 C23.957,5.361 24,4.692 24,4 L0,4 C0,4.692 0.043,5.361 0.127,6 L23.873,6" id="Fill-1144" fill="#BEE6FA" sketch:type="MSShapeGroup"></path>
            </g>
        </g>
    </g>
</svg>