<?xml version="1.0" encoding="UTF-8" standalone="no"?>
<svg width="28px" height="30px" viewBox="0 0 28 30" version="1.1" xmlns="http://www.w3.org/2000/svg" xmlns:xlink="http://www.w3.org/1999/xlink" xmlns:sketch="http://www.bohemiancoding.com/sketch/ns">
    <!-- Generator: Sketch 3.3 (11970) - http://www.bohemiancoding.com/sketch -->
    <title>martini</title>
    <desc>Created with Sketch.</desc>
    <defs></defs>
    <g id="Page-1" stroke="none" stroke-width="1" fill="none" fill-rule="evenodd" sketch:type="MSPage">
        <g id="Symbolicons-Color" sketch:type="MSArtboardGroup" transform="translate(-252.000000, -642.000000)">
            <g id="martini" sketch:type="MSLayerGroup" transform="translate(252.000000, 642.000000)">
                <path d="M18.515,28.879 L15,28 L15,12 L13,12 L13,28 L9.485,28.879 C9.218,28.945 9,29.225 9,29.5 C9,29.775 9.225,30 9.5,30 L18.5,30 C18.775,30 19,29.775 19,29.5 C19,29.225 18.782,28.945 18.515,28.879" id="Fill-1129" fill="#BEE6FA" sketch:type="MSShapeGroup"></path>
                <path d="M4.062,8 L13,19 L15,19 L23.937,8 L4.062,8" id="Fill-1130" fill="#DDF2FA" sketch:type="MSShapeGroup"></path>
                <path d="M23.937,8 L28,3 L0,3 L4.062,8 L23.937,8" id="Fill-1131" fill="#BEE6FA" sketch:type="MSShapeGroup"></path>
                <path d="M16,16.5 C15.854,16.5 15.711,16.437 15.612,16.315 L3.243,1.092 C3.068,0.877 3.102,0.562 3.315,0.388 C3.528,0.214 3.844,0.246 4.018,0.461 L16.388,15.685 C16.562,15.899 16.529,16.214 16.315,16.388 C16.223,16.463 16.111,16.5 16,16.5" id="Fill-1132" fill="#323232" sketch:type="MSShapeGroup"></path>
                <path d="M12.232,11.232 C10.865,12.599 10.549,14.499 11.525,15.475 C12.501,16.451 14.401,16.135 15.768,14.768 C17.135,13.401 17.451,11.501 16.475,10.525 C15.499,9.549 13.599,9.865 12.232,11.232" id="Fill-1133" fill="#A7B838" sketch:type="MSShapeGroup"></path>
                <path d="M14.656,10.828 C14.266,11.219 14.289,11.875 14.707,12.293 C15.125,12.711 15.781,12.734 16.172,12.344 C16.562,11.953 16.54,11.297 16.121,10.879 C15.703,10.46 15.047,10.438 14.656,10.828" id="Fill-1134" fill="#C0392B" sketch:type="MSShapeGroup"></path>
            </g>
        </g>
    </g>
</svg>