<?xml version="1.0" encoding="UTF-8" standalone="no"?>
<svg width="25px" height="30px" viewBox="0 0 25 30" version="1.1" xmlns="http://www.w3.org/2000/svg" xmlns:xlink="http://www.w3.org/1999/xlink" xmlns:sketch="http://www.bohemiancoding.com/sketch/ns">
    <!-- Generator: Sketch 3.3 (11970) - http://www.bohemiancoding.com/sketch -->
    <title>match</title>
    <desc>Created with Sketch.</desc>
    <defs></defs>
    <g id="Page-1" stroke="none" stroke-width="1" fill="none" fill-rule="evenodd" sketch:type="MSPage">
        <g id="Symbolicons-Color" sketch:type="MSArtboardGroup" transform="translate(-814.000000, -194.000000)">
            <g id="match" sketch:type="MSLayerGroup" transform="translate(814.000000, 194.000000)">
                <path d="M23.97,4.587 C23.64,3.979 23.326,3.51 23.065,3.159 L23.065,3.157 L23.043,3.129 C22.669,2.631 22.413,2.385 22.413,2.385 L22.412,2.387 C20.958,0.812 19.432,0 19.432,0 C19.989,1.733 19.914,3.057 17.428,5.45 C16.915,5.946 16,7.099 16,8.706 C16,10.978 17.803,12.775 20.098,12.974 C20.8,13.072 21.533,12.863 21.533,12.863 C23.516,12.414 25,10.762 25,8.706 C25,7.093 24.573,5.734 23.97,4.587" id="Fill-6" fill="#F1C40F" sketch:type="MSShapeGroup"></path>
                <path d="M1.414,30 L0,28.586 L16.349,12.237 L17.763,13.651 L1.414,30" id="Fill-944" fill="#BE9664" sketch:type="MSShapeGroup"></path>
                <path d="M17.763,13.651 C18.578,13.429 19.742,13.086 20.592,12.237 C22.154,10.674 22.787,8.775 22.006,7.994 C21.225,7.213 19.326,7.846 17.763,9.408 C16.914,10.258 16.571,11.422 16.349,12.237 L17.763,13.651" id="Fill-945" fill="#C0392B" sketch:type="MSShapeGroup"></path>
            </g>
        </g>
    </g>
</svg>