<?xml version="1.0" encoding="UTF-8" standalone="no"?>
<svg width="28px" height="28px" viewBox="0 0 28 28" version="1.1" xmlns="http://www.w3.org/2000/svg" xmlns:xlink="http://www.w3.org/1999/xlink" xmlns:sketch="http://www.bohemiancoding.com/sketch/ns">
    <!-- Generator: Sketch 3.3 (11970) - http://www.bohemiancoding.com/sketch -->
    <title>medical-box</title>
    <desc>Created with Sketch.</desc>
    <defs></defs>
    <g id="Page-1" stroke="none" stroke-width="1" fill="none" fill-rule="evenodd" sketch:type="MSPage">
        <g id="Symbolicons-Color" sketch:type="MSArtboardGroup" transform="translate(-756.000000, -588.000000)">
            <g id="medical-box" sketch:type="MSLayerGroup" transform="translate(756.000000, 588.000000)">
                <path d="M1.001,12 L1.001,25 C1.001,26.65 2.351,28 4.001,28 L24.001,28 C25.651,28 27.001,26.65 27.001,25 L27.001,12 L1.001,12" id="Fill-398" fill="#ECECEC" sketch:type="MSShapeGroup"></path>
                <path d="M21.001,3.75 C21.001,1.687 19.313,0 17.251,0 L10.751,0 C8.688,0 7.001,1.687 7.001,3.75 L7.001,7 L9.001,7 L9.001,3.75 C9.001,2.844 9.845,2 10.751,2 L17.251,2 C18.157,2 19.001,2.844 19.001,3.75 L19.001,7 L21.001,7 L21.001,3.75" id="Fill-399" fill="#323232" sketch:type="MSShapeGroup"></path>
                <path d="M25.001,7 L3.001,7 C1.351,7 0.001,8.35 0.001,10 L0.001,12 L28.001,12 L28.001,10 C28.001,8.35 26.651,7 25.001,7" id="Fill-400" fill="#A0A0A0" sketch:type="MSShapeGroup"></path>
                <path d="M12.001,15 L16.001,15 L16.001,25 L12.001,25 L12.001,15 Z" id="Fill-401" fill="#C0392B" sketch:type="MSShapeGroup"></path>
                <path d="M9.001,18 L19.001,18 L19.001,22 L9.001,22 L9.001,18 Z" id="Fill-402" fill="#C0392B" sketch:type="MSShapeGroup"></path>
            </g>
        </g>
    </g>
</svg>