<?xml version="1.0" encoding="UTF-8" standalone="no"?>
<svg width="24px" height="28px" viewBox="0 0 24 28" version="1.1" xmlns="http://www.w3.org/2000/svg" xmlns:xlink="http://www.w3.org/1999/xlink" xmlns:sketch="http://www.bohemiancoding.com/sketch/ns">
    <!-- Generator: Sketch 3.3 (11970) - http://www.bohemiancoding.com/sketch -->
    <title>medical-report</title>
    <desc>Created with Sketch.</desc>
    <defs></defs>
    <g id="Page-1" stroke="none" stroke-width="1" fill="none" fill-rule="evenodd" sketch:type="MSPage">
        <g id="Symbolicons-Color" sketch:type="MSArtboardGroup" transform="translate(-982.000000, -644.000000)">
            <g id="medical-report" sketch:type="MSLayerGroup" transform="translate(982.000000, 644.000000)">
                <path d="M24,28 L0,28 L0,0 L14,0 L24,10 L24,28" id="Fill-428" fill="#ECECEC" sketch:type="MSShapeGroup"></path>
                <path d="M14,0 L14,10 L24,10 L14,0" id="Fill-429" fill="#BEBEBE" sketch:type="MSShapeGroup"></path>
                <path d="M11.917,22.463 L8.917,12.463 L6.33,18.5 L2,18.5 C1.724,18.5 1.5,18.276 1.5,18 C1.5,17.724 1.724,17.5 2,17.5 L5.67,17.5 L9.083,9.537 L12.083,19.537 L14.965,12.812 L17.309,17.5 L22,17.5 C22.276,17.5 22.5,17.724 22.5,18 C22.5,18.276 22.276,18.5 22,18.5 L16.691,18.5 L15.035,15.188 L11.917,22.463" id="Fill-430" fill="#C0392B" sketch:type="MSShapeGroup"></path>
            </g>
        </g>
    </g>
</svg>