<?xml version="1.0" encoding="UTF-8" standalone="no"?>
<svg width="28px" height="28px" viewBox="0 0 28 28" version="1.1" xmlns="http://www.w3.org/2000/svg" xmlns:xlink="http://www.w3.org/1999/xlink" xmlns:sketch="http://www.bohemiancoding.com/sketch/ns">
    <!-- Generator: Sketch 3.3 (11970) - http://www.bohemiancoding.com/sketch -->
    <title>medicine-bottles</title>
    <desc>Created with Sketch.</desc>
    <defs></defs>
    <g id="Page-1" stroke="none" stroke-width="1" fill="none" fill-rule="evenodd" sketch:type="MSPage">
        <g id="Symbolicons-Color" sketch:type="MSArtboardGroup" transform="translate(-756.000000, -532.000000)">
            <g id="medicine-bottles" sketch:type="MSLayerGroup" transform="translate(756.000000, 532.000000)">
                <path d="M22.999,4.439 L22.999,3 L18.002,3 L18.002,4.439 C15.248,5.417 13.005,8.01 13.005,10.999 L13.005,21.996 C13.005,23.097 13.905,24 15.004,24 L25.997,24 C27.096,24 27.996,23.097 27.996,21.996 L27.996,11.028 C27.996,8.01 25.762,5.42 22.999,4.439" id="Fill-371" fill="#8CBE3C" sketch:type="MSShapeGroup"></path>
                <path d="M13.001,12 L28.001,12 L28.001,19 L13.001,19 L13.001,12 Z" id="Fill-372" fill="#46A046" sketch:type="MSShapeGroup"></path>
                <path d="M17.001,0 L24.001,0 L24.001,3 L17.001,3 L17.001,0 Z" id="Fill-373" fill="#A0A0A0" sketch:type="MSShapeGroup"></path>
                <path d="M9.999,8.439 L9.999,7 L5.002,7 L5.002,8.439 C2.248,9.417 0.005,12.011 0.005,14.999 L0.005,25.996 C0.005,27.098 0.905,28 2.004,28 L12.997,28 C14.096,28 14.996,27.098 14.996,25.996 L14.996,15.028 C14.996,12.011 12.762,9.42 9.999,8.439" id="Fill-374" fill="#ECECEC" sketch:type="MSShapeGroup"></path>
                <path d="M4.001,4 L11.001,4 L11.001,7 L4.001,7 L4.001,4 Z" id="Fill-375" fill="#A0A0A0" sketch:type="MSShapeGroup"></path>
                <path d="M12,20 L9,20 L9,23 L6,23 L6,20 L3,20 L3,17 L6,17 L6,14 L9,14 L9,17 L12,17 L12,20" id="Fill-376" fill="#C0392B" sketch:type="MSShapeGroup"></path>
            </g>
        </g>
    </g>
</svg>