<?xml version="1.0" encoding="UTF-8" standalone="no"?>
<svg width="28px" height="28px" viewBox="0 0 28 28" version="1.1" xmlns="http://www.w3.org/2000/svg" xmlns:xlink="http://www.w3.org/1999/xlink" xmlns:sketch="http://www.bohemiancoding.com/sketch/ns">
    <!-- Generator: Sketch 3.3 (11970) - http://www.bohemiancoding.com/sketch -->
    <title>medical-clipboard</title>
    <desc>Created with Sketch.</desc>
    <defs></defs>
    <g id="Page-1" stroke="none" stroke-width="1" fill="none" fill-rule="evenodd" sketch:type="MSPage">
        <g id="Symbolicons-Color" sketch:type="MSArtboardGroup" transform="translate(-756.000000, -644.000000)">
            <g id="medical-clipboard" sketch:type="MSLayerGroup" transform="translate(756.000000, 644.000000)">
                <path d="M19,5 L12.95,5 C12.718,6.141 11.71,7 10.5,7 C9.29,7 8.282,6.141 8.05,5 L2,5 C0.9,5 0,5.9 0,6.999 L0,26 C0,27.099 0.9,27.999 2,27.999 L19,27.999 C20.1,27.999 21,27.099 21,26 L21,6.999 C21,5.9 20.1,5 19,5" id="Fill-403" fill="#ECECEC" sketch:type="MSShapeGroup"></path>
                <path d="M23,5 L28,5 L28,24 L23,24 L23,5 Z" id="Fill-404" fill="#F1C40F" sketch:type="MSShapeGroup"></path>
                <path d="M23,3 L28,3 L28,5 L23,5 L23,3 Z" id="Fill-405" fill="#8C8C8C" sketch:type="MSShapeGroup"></path>
                <path d="M25.5,28 L28,24 L23,24 L25.5,28" id="Fill-406" fill="#BEBEBE" sketch:type="MSShapeGroup"></path>
                <path d="M25.501,0 C24.12,0 23,0.508 23,1.428 L23,3 L28,3 L28,1.428 C28,0.508 26.881,0 25.501,0" id="Fill-407" fill="#EC648B" sketch:type="MSShapeGroup"></path>
                <path d="M15,18 L12,18 L12,21 L9,21 L9,18 L6,18 L6,15 L9,15 L9,12 L12,12 L12,15 L15,15 L15,18" id="Fill-408" fill="#C0392B" sketch:type="MSShapeGroup"></path>
                <path d="M13.891,4.57 C13.988,4.246 14.056,3.911 14.056,3.556 C14.056,1.592 12.463,0 10.499,0 C8.536,0 6.944,1.592 6.944,3.556 C6.944,3.911 7.012,4.246 7.109,4.569 C5.923,5.384 5.167,6.618 5.167,8 L15.833,8 C15.833,6.618 15.076,5.385 13.891,4.57 L13.891,4.57 Z M10.5,5.333 C9.517,5.333 8.722,4.537 8.722,3.556 C8.722,2.574 9.517,1.778 10.5,1.778 C11.481,1.778 12.278,2.574 12.278,3.556 C12.278,4.537 11.481,5.333 10.5,5.333 L10.5,5.333 Z" id="Fill-409" fill="#A0A0A0" sketch:type="MSShapeGroup"></path>
            </g>
        </g>
    </g>
</svg>