<?xml version="1.0" encoding="UTF-8" standalone="no"?>
<svg width="28px" height="28px" viewBox="0 0 28 28" version="1.1" xmlns="http://www.w3.org/2000/svg" xmlns:xlink="http://www.w3.org/1999/xlink" xmlns:sketch="http://www.bohemiancoding.com/sketch/ns">
    <!-- Generator: Sketch 3.3 (11970) - http://www.bohemiancoding.com/sketch -->
    <title>microscope</title>
    <desc>Created with Sketch.</desc>
    <defs></defs>
    <g id="Page-1" stroke="none" stroke-width="1" fill="none" fill-rule="evenodd" sketch:type="MSPage">
        <g id="Symbolicons-Color" sketch:type="MSArtboardGroup" transform="translate(-588.000000, -532.000000)">
            <g id="microscope" sketch:type="MSLayerGroup" transform="translate(588.000000, 532.000000)">
                <path d="M9.069,14.103 L7.569,15.603 L10.397,18.431 L11.897,16.931 L9.069,14.103" id="Fill-528" fill="#8C8C8C" sketch:type="MSShapeGroup"></path>
                <path d="M26,2.828 L23.172,0 L22.078,1.094 L24.906,3.922 L26,2.828" id="Fill-529" fill="#8C8C8C" sketch:type="MSShapeGroup"></path>
                <path d="M11.492,24.508 L2,15.017 L0.586,16.431 L10.078,25.922 L11.492,24.508" id="Fill-530" fill="#BEE6FA" sketch:type="MSShapeGroup"></path>
                <path d="M25.966,4.983 L21.017,0.034 L8.009,13.042 L12.958,17.991 L25.966,4.983" id="Fill-531" fill="#BEBEBE" sketch:type="MSShapeGroup"></path>
                <path d="M11.332,24 L20.289,24 C22.268,21.877 23.483,19.085 23.483,16.02 C23.483,13.638 22.726,11.399 21.44,9.509 L18.538,12.411 C19.133,13.505 19.483,14.729 19.483,16.02 C19.483,20.318 15.855,23.826 11.332,24" id="Fill-532" fill="#BEBEBE" sketch:type="MSShapeGroup"></path>
                <path d="M17.305,24 L8.348,24 C8.232,24.005 8.117,24.017 8,24.017 L0,24.017 L0,28 L28,28 L28,24.017 L17.291,24.017 L17.305,24" id="Fill-533" fill="#8C8C8C" sketch:type="MSShapeGroup"></path>
                <path d="M23.983,11 C23.983,13.209 22.192,15 19.983,15 C17.774,15 15.983,13.209 15.983,11 C15.983,8.791 17.774,7 19.983,7 C22.192,7 23.983,8.791 23.983,11" id="Fill-534" fill="#8C8C8C" sketch:type="MSShapeGroup"></path>
            </g>
        </g>
    </g>
</svg>