<?xml version="1.0" encoding="UTF-8" standalone="no"?>
<svg width="22px" height="30px" viewBox="0 0 22 30" version="1.1" xmlns="http://www.w3.org/2000/svg" xmlns:xlink="http://www.w3.org/1999/xlink" xmlns:sketch="http://www.bohemiancoding.com/sketch/ns">
    <!-- Generator: Sketch 3.3 (11970) - http://www.bohemiancoding.com/sketch -->
    <title>milk-carton</title>
    <desc>Created with Sketch.</desc>
    <defs></defs>
    <g id="Page-1" stroke="none" stroke-width="1" fill="none" fill-rule="evenodd" sketch:type="MSPage">
        <g id="Symbolicons-Color" sketch:type="MSArtboardGroup" transform="translate(-479.000000, -306.000000)">
            <g id="milk-carton" sketch:type="MSLayerGroup" transform="translate(479.000000, 306.000000)">
                <path d="M8,7 L22,7 L22,30 L8,30 L8,7 Z" id="Fill-24" fill="#ECECEC" sketch:type="MSShapeGroup"></path>
                <path d="M8,11 L22,11 L22,26 L8,26 L8,11 Z" id="Fill-25" fill="#1EAAE1" sketch:type="MSShapeGroup"></path>
                <path d="M8,11 L22,11 L22,26 L8,26 L8,11 Z" id="Fill-26" fill="#1EAAE1" sketch:type="MSShapeGroup"></path>
                <path d="M4,3 L8,7 L8,30 L0,30 L0,7 L4,3" id="Fill-27" fill="#DFDFDF" sketch:type="MSShapeGroup"></path>
                <path d="M0,11 L8,11 L8,26 L0,26 L0,11 Z" id="Fill-28" fill="#2980B9" sketch:type="MSShapeGroup"></path>
                <path d="M4,1 L18,1 L18,3 L22,7 L8,7 L4,3 L4,1" id="Fill-197" fill="#ECECEC" sketch:type="MSShapeGroup"></path>
                <path d="M18,2 C18,2.55 17.55,3 17,3 L5,3 C4.45,3 4,2.55 4,2 L4,1 C4,0.45 4.45,0 5,0 L17,0 C17.55,0 18,0.45 18,1 L18,2" id="Fill-239" fill="#ECECEC" sketch:type="MSShapeGroup"></path>
            </g>
        </g>
    </g>
</svg>