<?xml version="1.0" encoding="UTF-8" standalone="no"?>
<svg width="28px" height="28px" viewBox="0 0 28 28" version="1.1" xmlns="http://www.w3.org/2000/svg" xmlns:xlink="http://www.w3.org/1999/xlink" xmlns:sketch="http://www.bohemiancoding.com/sketch/ns">
    <!-- Generator: Sketch 3.3 (11970) - http://www.bohemiancoding.com/sketch -->
    <title>motorcycle</title>
    <desc>Created with Sketch.</desc>
    <defs></defs>
    <g id="Page-1" stroke="none" stroke-width="1" fill="none" fill-rule="evenodd" sketch:type="MSPage">
        <g id="Symbolicons-Color" sketch:type="MSArtboardGroup" transform="translate(-980.000000, -1036.000000)">
            <g id="motorcycle" sketch:type="MSLayerGroup" transform="translate(980.000000, 1036.000000)">
                <path d="M24,22 C24,23.105 23.104,24 22,24 C20.896,24 20,23.105 20,22 C20,20.896 20.896,20 22,20 C23.104,20 24,20.896 24,22" id="Fill-1043" fill="#8C8C8C" sketch:type="MSShapeGroup"></path>
                <path d="M8,18.667 C9.838,18.667 11.333,20.162 11.333,22 C11.333,23.838 9.838,25.333 8,25.333 C6.162,25.333 4.667,23.838 4.667,22 C4.667,20.162 6.162,18.667 8,18.667 M8,16 C4.686,16 2,18.686 2,22 C2,25.314 4.686,28 8,28 C11.314,28 14,25.314 14,22 C14,18.686 11.314,16 8,16" id="Fill-1044" fill="#505050" sketch:type="MSShapeGroup"></path>
                <path d="M22,18.667 C23.838,18.667 25.333,20.162 25.333,22 C25.333,23.838 23.838,25.333 22,25.333 C20.162,25.333 18.667,23.838 18.667,22 C18.667,20.162 20.162,18.667 22,18.667 M22,16 C18.686,16 16,18.686 16,22 C16,25.314 18.686,28 22,28 C25.314,28 28,25.314 28,22 C28,18.686 25.314,16 22,16" id="Fill-1045" fill="#505050" sketch:type="MSShapeGroup"></path>
                <path d="M0,10 L11,10 L11,12 L0,12 L0,10 Z" id="Fill-1046" fill="#505050" sketch:type="MSShapeGroup"></path>
                <path d="M22,7 L15,7 L11,10 L11,12 L2,12 L3.648,15.296 C1.456,16.725 0,19.194 0,22 L1,22 C1,18.14 4.141,15 8,15 C9.312,15 10.536,15.369 11.587,16 L15,16 L19,13 L19,12 L22,12 L22,7" id="Fill-1047" fill="#BEBEBE" sketch:type="MSShapeGroup"></path>
                <path d="M21.999,23 C21.546,23 21.135,22.69 21.026,22.229 L16.271,2 L12,2 C11.447,2 11,1.552 11,1 C11,0.448 11.447,0 12,0 L17.854,0 L22.974,21.771 C23.1,22.309 22.767,22.847 22.229,22.974 L21.999,23" id="Fill-1048" fill="#8C8C8C" sketch:type="MSShapeGroup"></path>
                <path d="M22,7 L24,7 L24,12 L22,12 L22,7 Z" id="Fill-1049" fill="#F1C40F" sketch:type="MSShapeGroup"></path>
                <path d="M10,22 C10,23.105 9.104,24 8,24 C6.896,24 6,23.105 6,22 C6,20.896 6.896,20 8,20 C9.104,20 10,20.896 10,22" id="Fill-1050" fill="#8C8C8C" sketch:type="MSShapeGroup"></path>
            </g>
        </g>
    </g>
</svg>