<?xml version="1.0" encoding="UTF-8" standalone="no"?>
<svg width="26px" height="27px" viewBox="0 0 26 27" version="1.1" xmlns="http://www.w3.org/2000/svg" xmlns:xlink="http://www.w3.org/1999/xlink" xmlns:sketch="http://www.bohemiancoding.com/sketch/ns">
    <!-- Generator: Sketch 3.3 (11970) - http://www.bohemiancoding.com/sketch -->
    <title>muffin</title>
    <desc>Created with Sketch.</desc>
    <defs></defs>
    <g id="Page-1" stroke="none" stroke-width="1" fill="none" fill-rule="evenodd" sketch:type="MSPage">
        <g id="Symbolicons-Color" sketch:type="MSArtboardGroup" transform="translate(-533.000000, -365.000000)">
            <g id="muffin" sketch:type="MSLayerGroup" transform="translate(533.000000, 365.000000)">
                <path d="M2.84,15.226 L5.508,27 L20.464,27 L23.172,15.226 L2.84,15.226" id="Fill-995" fill="#8C5A3C" sketch:type="MSShapeGroup"></path>
                <path d="M12.458,15.226 L13.542,15.226 L13.542,27 L12.458,27 L12.458,15.226 Z" id="Fill-996" fill="#BE9664" sketch:type="MSShapeGroup"></path>
                <path d="M17.545,27 L16.465,27 L18.278,15.381 L19.351,15.525 L17.545,27" id="Fill-997" fill="#BE9664" sketch:type="MSShapeGroup"></path>
                <path d="M7.807,27 L6.105,15.422 L7.096,15.277 L8.798,27 L7.807,27" id="Fill-998" fill="#BE9664" sketch:type="MSShapeGroup"></path>
                <path d="M24.091,10.116 C24.109,9.964 1.906,9.96 1.924,10.111 C0.81,10.507 0,11.632 0,12.974 C0,14.646 1.247,16 2.786,16 L23.214,16 C24.753,16 26,14.646 26,12.974 C26,11.639 25.197,10.517 24.091,10.116" id="Fill-999" fill="#A57D52" sketch:type="MSShapeGroup"></path>
                <path d="M24,10.681 C24,4.782 19.075,0 13,0 C6.925,0 2,4.782 2,10.681 C2,16.58 6.925,12.818 13,12.818 C19.075,12.818 24,16.58 24,10.681" id="Fill-1000" fill="#A57D52" sketch:type="MSShapeGroup"></path>
                <path d="M9,7 C9,7.552 8.552,8 8,8 C7.448,8 7,7.552 7,7 C7,6.448 7.448,6 8,6 C8.552,6 9,6.448 9,7" id="Fill-1001" fill="#503C1D" sketch:type="MSShapeGroup"></path>
                <path d="M16,9 C16,9.552 15.552,10 15,10 C14.448,10 14,9.552 14,9 C14,8.448 14.448,8 15,8 C15.552,8 16,8.448 16,9" id="Fill-1002" fill="#503C1D" sketch:type="MSShapeGroup"></path>
                <path d="M7,12 C7,12.552 6.552,13 6,13 C5.448,13 5,12.552 5,12 C5,11.448 5.448,11 6,11 C6.552,11 7,11.448 7,12" id="Fill-1003" fill="#503C1D" sketch:type="MSShapeGroup"></path>
                <path d="M22,11 C22,11.552 21.552,12 21,12 C20.448,12 20,11.552 20,11 C20,10.448 20.448,10 21,10 C21.552,10 22,10.448 22,11" id="Fill-1004" fill="#503C1D" sketch:type="MSShapeGroup"></path>
                <path d="M18,4 C18,4.552 17.552,5 17,5 C16.448,5 16,4.552 16,4 C16,3.448 16.448,3 17,3 C17.552,3 18,3.448 18,4" id="Fill-1005" fill="#503C1D" sketch:type="MSShapeGroup"></path>
            </g>
        </g>
    </g>
</svg>