<?xml version="1.0" encoding="UTF-8" standalone="no"?>
<svg width="28px" height="28px" viewBox="0 0 28 28" version="1.1" xmlns="http://www.w3.org/2000/svg" xmlns:xlink="http://www.w3.org/1999/xlink" xmlns:sketch="http://www.bohemiancoding.com/sketch/ns">
    <!-- Generator: Sketch 3.3 (11970) - http://www.bohemiancoding.com/sketch -->
    <title>music</title>
    <desc>Created with Sketch.</desc>
    <defs></defs>
    <g id="Page-1" stroke="none" stroke-width="1" fill="none" fill-rule="evenodd" sketch:type="MSPage">
        <g id="Symbolicons-Color" sketch:type="MSArtboardGroup" transform="translate(-588.000000, -588.000000)" fill="#1EAAE1">
            <g id="music" sketch:type="MSLayerGroup" transform="translate(588.000000, 588.000000)">
                <path d="M8.014,2.076 L8.014,19.156 C7.014,18.846 6.46,18.668 5.566,18.668 C2.486,18.668 0,20.756 0,23.332 C0,25.91 2.426,28 5.505,28 C8.594,28 11.012,25.91 11.012,23.332 L11.012,6.938 L25.002,5.508 L25.002,17.082 C24.002,16.77 23.359,16.59 22.466,16.59 C19.387,16.59 16.856,18.68 16.856,21.256 C16.856,23.834 19.348,25.924 22.426,25.924 C25.516,25.924 28,23.834 28,21.256 L28,0 L8.014,2.076" id="Fill-795" sketch:type="MSShapeGroup"></path>
            </g>
        </g>
    </g>
</svg>