<?xml version="1.0" encoding="UTF-8" standalone="no"?>
<svg width="28px" height="28px" viewBox="0 0 28 28" version="1.1" xmlns="http://www.w3.org/2000/svg" xmlns:xlink="http://www.w3.org/1999/xlink" xmlns:sketch="http://www.bohemiancoding.com/sketch/ns">
    <!-- Generator: Sketch 3.3 (11970) - http://www.bohemiancoding.com/sketch -->
    <title>nachos</title>
    <desc>Created with Sketch.</desc>
    <defs></defs>
    <g id="Page-1" stroke="none" stroke-width="1" fill="none" fill-rule="evenodd" sketch:type="MSPage">
        <g id="Symbolicons-Color" sketch:type="MSArtboardGroup" transform="translate(-252.000000, -812.000000)">
            <g id="nachos" sketch:type="MSLayerGroup" transform="translate(252.000000, 811.000000)">
                <path d="M26.273,10.976 L13.708,18.293 L12.728,18.862 C11.779,19.417 11.779,20.323 12.728,20.877 L26.273,28.762 C27.222,29.316 28,28.868 28,27.77 L28,11.97 C28,10.87 27.222,10.424 26.273,10.976" id="Fill-100" fill="#F1C40F" sketch:type="MSShapeGroup"></path>
                <path d="M25.001,25 C24.451,25 24.001,24.553 24.001,23.999 C24.001,23.447 24.451,23 25.001,23 C25.551,23 26,23.447 26,23.999 C26,24.553 25.551,25 25.001,25" id="Fill-101" fill="#F39C12" sketch:type="MSShapeGroup"></path>
                <path d="M15.439,16.662 L7.874,14.209 L0.238,27.271 C-0.316,28.222 0.131,29 1.232,29 L19.974,29 C21.074,29 21.521,28.222 20.968,27.271 L15.439,16.662" id="Fill-102" fill="#E67E22" sketch:type="MSShapeGroup"></path>
                <path d="M5.001,27 C4.451,27 4,26.553 4,25.999 C4,25.447 4.451,25 5.001,25 C5.551,25 6.001,25.447 6.001,25.999 C6.001,26.553 5.551,27 5.001,27" id="Fill-103" fill="#D35400" sketch:type="MSShapeGroup"></path>
                <path d="M7.001,24 C6.451,24 6.001,23.553 6.001,22.999 C6.001,22.447 6.451,22 7.001,22 C7.551,22 8,22.447 8,22.999 C8,23.553 7.551,24 7.001,24" id="Fill-104" fill="#D35400" sketch:type="MSShapeGroup"></path>
                <path d="M9.002,27 C8.451,27 8,26.553 8,25.999 C8,25.447 8.451,25 9.002,25 C9.551,25 10,25.447 10,25.999 C10,26.553 9.551,27 9.002,27" id="Fill-105" fill="#D35400" sketch:type="MSShapeGroup"></path>
                <path d="M3.917,13.722 L18.91,18.702 C19.953,19.049 20.623,18.452 20.398,17.377 L17.184,2.036 C16.959,0.961 16.099,0.675 15.275,1.403 L3.519,11.769 C2.694,12.495 2.873,13.376 3.917,13.722" id="Fill-106" fill="#F39C12" sketch:type="MSShapeGroup"></path>
                <path d="M17,9.999 C17,10.552 16.551,11 16.001,11 C15.451,11 15.001,10.552 15.001,9.999 C15.001,9.446 15.451,9 16.001,9 C16.551,9 17,9.446 17,9.999" id="Fill-107" fill="#E67E22" sketch:type="MSShapeGroup"></path>
                <path d="M15.002,5 C15.551,5 16,5.447 16,5.999 C16,6.552 15.551,7 15.002,7 C14.451,7 14,6.552 14,5.999 C14,5.447 14.451,5 15.002,5" id="Fill-108" fill="#E67E22" sketch:type="MSShapeGroup"></path>
            </g>
        </g>
    </g>
</svg>