<?xml version="1.0" encoding="UTF-8" standalone="no"?>
<svg width="28px" height="28px" viewBox="0 0 28 28" version="1.1" xmlns="http://www.w3.org/2000/svg" xmlns:xlink="http://www.w3.org/1999/xlink" xmlns:sketch="http://www.bohemiancoding.com/sketch/ns">
    <!-- Generator: Sketch 3.3 (11970) - http://www.bohemiancoding.com/sketch -->
    <title>notebook-pencil</title>
    <desc>Created with Sketch.</desc>
    <defs></defs>
    <g id="Page-1" stroke="none" stroke-width="1" fill="none" fill-rule="evenodd" sketch:type="MSPage">
        <g id="Symbolicons-Color" sketch:type="MSArtboardGroup" transform="translate(-84.000000, -196.000000)">
            <g id="notebook-pencil" sketch:type="MSLayerGroup" transform="translate(84.000000, 196.000000)">
                <path d="M17,0 L0,0 L0,28 L17,28 C18.1,28 19,27.1 19,26 L19,2 C19,0.9 18.1,0 17,0" id="Fill-688" fill="#323232" sketch:type="MSShapeGroup"></path>
                <path d="M13,0 L15,0 L15,28 L13,28 L13,0 Z" id="Fill-689" fill="#C0392B" sketch:type="MSShapeGroup"></path>
                <path d="M25,0 C23.343,0 22,1.343 22,3 L22,4 L27.99,4 L27.99,3 L28,3 C28,1.343 26.657,0 25,0" id="Fill-690" fill="#E9A980" sketch:type="MSShapeGroup"></path>
                <path d="M22,4 L28,4 L28,7 L22,7 L22,4 Z" id="Fill-691" fill="#BEBEBE" sketch:type="MSShapeGroup"></path>
                <path d="M22,7 L28,7 L28,23 L22,23 L22,7 Z" id="Fill-692" fill="#F39C12" sketch:type="MSShapeGroup"></path>
                <path d="M28,23 L22,23 L23.8,26 L26.2,26 L28,23" id="Fill-693" fill="#DFCBB1" sketch:type="MSShapeGroup"></path>
                <path d="M26.2,26 L23.8,26 L25,28 L26.2,26" id="Fill-694" fill="#505050" sketch:type="MSShapeGroup"></path>
            </g>
        </g>
    </g>
</svg>