<?xml version="1.0" encoding="UTF-8" standalone="no"?>
<svg width="22px" height="28px" viewBox="0 0 22 28" version="1.1" xmlns="http://www.w3.org/2000/svg" xmlns:xlink="http://www.w3.org/1999/xlink" xmlns:sketch="http://www.bohemiancoding.com/sketch/ns">
    <!-- Generator: Sketch 3.3 (11970) - http://www.bohemiancoding.com/sketch -->
    <title>nurse</title>
    <desc>Created with Sketch.</desc>
    <defs></defs>
    <g id="Page-1" stroke="none" stroke-width="1" fill="none" fill-rule="evenodd" sketch:type="MSPage">
        <g id="Symbolicons-Color" sketch:type="MSArtboardGroup" transform="translate(-815.000000, -476.000000)">
            <g id="nurse" sketch:type="MSLayerGroup" transform="translate(815.000000, 475.000000)">
                <path d="M16.007,18.545 C14.736,19.923 12.964,21 11,21 C9.036,21 7.264,19.923 5.993,18.545 C4.221,19.666 0,22.965 0,29 L22,29 C22,22.965 17.78,19.666 16.007,18.545" id="Fill-1020" fill="#ECECEC" sketch:type="MSShapeGroup"></path>
                <path id="Fill-1021" fill="#C0392B" sketch:type="MSShapeGroup"></path>
                <path d="M11,21 C9.569,21 8.24,20.427 7.132,19.585 L11,25 L14.868,19.585 C13.76,20.427 12.431,21 11,21" id="Fill-1022" fill="#BEE6FA" sketch:type="MSShapeGroup"></path>
                <path d="M7.447,15.743 L14.554,15.743 C19.455,15.85 21.095,13.877 21.095,13.877 C17.568,12.488 17.492,8.353 17.492,8.353 C16.491,0.054 11.002,2 11.002,2 C11.002,2 5.511,0.054 4.508,8.353 C4.508,8.353 4.433,12.488 0.905,13.877 C0.905,13.876 2.546,15.85 7.447,15.743" id="Fill-1023" fill="#503C1D" sketch:type="MSShapeGroup"></path>
                <path d="M11,17 C12,17 17,15.142 17,11 L17,7 C17,3.686 14.314,1 11,1 C7.687,1 5,3.686 5,7 L5,11 C5,15.142 10,17 11,17" id="Fill-1024" fill="#F0B496" sketch:type="MSShapeGroup"></path>
                <path d="M19,26 C19,26.552 18.552,27 18,27 L15,27 C14.448,27 14,26.552 14,26 L14,25 C14,24.448 14.448,24 15,24 L18,24 C18.552,24 19,24.448 19,25 L19,26" id="Fill-1025" fill="#8C8C8C" sketch:type="MSShapeGroup"></path>
                <path d="M18,8 C14.295,6.466 7.705,6.466 4,8 L3,2.591 C8.122,0.469 13.878,0.469 19,2.591 L18,8" id="Fill-1026" fill="#ECECEC" sketch:type="MSShapeGroup"></path>
                <path d="M9,3.333 L13,3.333 L13,4.667 L9,4.667 L9,3.333 Z" id="Fill-1027" fill="#C0392B" sketch:type="MSShapeGroup"></path>
                <path d="M10.333,2 L11.666,2 L11.666,6 L10.333,6 L10.333,2 Z" id="Fill-1028" fill="#C0392B" sketch:type="MSShapeGroup"></path>
            </g>
        </g>
    </g>
</svg>