<?xml version="1.0" encoding="UTF-8" standalone="no"?>
<svg width="28px" height="28px" viewBox="0 0 28 28" version="1.1" xmlns="http://www.w3.org/2000/svg" xmlns:xlink="http://www.w3.org/1999/xlink" xmlns:sketch="http://www.bohemiancoding.com/sketch/ns">
    <!-- Generator: Sketch 3.3 (11970) - http://www.bohemiancoding.com/sketch -->
    <title>odometer</title>
    <desc>Created with Sketch.</desc>
    <defs></defs>
    <g id="Page-1" stroke="none" stroke-width="1" fill="none" fill-rule="evenodd" sketch:type="MSPage">
        <g id="Symbolicons-Color" sketch:type="MSArtboardGroup" transform="translate(-924.000000, -1036.000000)">
            <g id="odometer" sketch:type="MSLayerGroup" transform="translate(924.000000, 1036.000000)">
                <path d="M14,0 C6.268,0 0,6.268 0,14 C0,21.732 6.268,28 14,28 C21.733,28 28,21.732 28,14 C28,6.268 21.733,0 14,0" id="Fill-9" fill="#1EAAE1" sketch:type="MSShapeGroup"></path>
                <path d="M14,24.889 C7.996,24.889 3.111,20.004 3.111,14 C3.111,7.996 7.996,3.111 14,3.111 C20.004,3.111 24.889,7.996 24.889,14 C24.889,20.004 20.004,24.889 14,24.889" id="Fill-10" fill="#ECECEC" sketch:type="MSShapeGroup"></path>
                <path d="M6.676,7.407 L8.709,9.44 C8.934,9.178 9.178,8.934 9.441,8.708 L7.408,6.675 C7.15,6.906 6.906,7.15 6.676,7.407" id="Fill-919" fill="#BEBEBE" sketch:type="MSShapeGroup"></path>
                <path d="M4.705,10.711 L7.363,11.812 C7.473,11.48 7.607,11.163 7.762,10.856 L5.104,9.754 C4.955,10.065 4.822,10.383 4.705,10.711" id="Fill-920" fill="#BEBEBE" sketch:type="MSShapeGroup"></path>
                <path d="M10.711,4.704 C10.383,4.821 10.064,4.954 9.754,5.103 L10.855,7.762 C11.164,7.606 11.48,7.472 11.813,7.362 L10.711,4.704" id="Fill-921" fill="#BEBEBE" sketch:type="MSShapeGroup"></path>
                <path d="M14.52,7.034 L14.52,4.155 C14.346,4.147 14.176,4.129 14,4.129 C13.826,4.129 13.656,4.147 13.483,4.155 L13.483,7.034 C13.654,7.021 13.826,7.008 14,7.008 C14.176,7.008 14.348,7.021 14.52,7.034" id="Fill-922" fill="#BEBEBE" sketch:type="MSShapeGroup"></path>
                <path d="M16.19,7.362 C16.52,7.472 16.84,7.606 17.146,7.762 L18.248,5.103 C17.938,4.954 17.617,4.821 17.291,4.704 L16.19,7.362" id="Fill-923" fill="#BEBEBE" sketch:type="MSShapeGroup"></path>
                <path d="M22.899,9.754 L20.24,10.856 C20.395,11.162 20.529,11.48 20.639,11.812 L23.297,10.711 C23.18,10.383 23.049,10.065 22.899,9.754" id="Fill-924" fill="#BEBEBE" sketch:type="MSShapeGroup"></path>
                <path d="M20.594,6.675 L18.561,8.707 C18.822,8.934 19.068,9.178 19.293,9.439 L21.326,7.407 C21.094,7.149 20.852,6.905 20.594,6.675" id="Fill-925" fill="#BEBEBE" sketch:type="MSShapeGroup"></path>
                <path d="M15,18.211 L15,11 C15,10.448 14.553,10 14,10 C13.447,10 13,10.448 13,11 L13,18.211 C12.119,18.597 11.5,19.475 11.5,20.5 C11.5,21.881 12.619,23 14,23 C15.381,23 16.5,21.881 16.5,20.5 C16.5,19.475 15.883,18.597 15,18.211" id="Fill-926" fill="#505050" sketch:type="MSShapeGroup"></path>
            </g>
        </g>
    </g>
</svg>