<?xml version="1.0" encoding="UTF-8" standalone="no"?>
<svg width="28px" height="28px" viewBox="0 0 28 28" version="1.1" xmlns="http://www.w3.org/2000/svg" xmlns:xlink="http://www.w3.org/1999/xlink" xmlns:sketch="http://www.bohemiancoding.com/sketch/ns">
    <!-- Generator: Sketch 3.3 (11970) - http://www.bohemiancoding.com/sketch -->
    <title>orange</title>
    <desc>Created with Sketch.</desc>
    <defs></defs>
    <g id="Page-1" stroke="none" stroke-width="1" fill="none" fill-rule="evenodd" sketch:type="MSPage">
        <g id="Symbolicons-Color" sketch:type="MSArtboardGroup" transform="translate(-532.000000, -756.000000)">
            <g id="orange" sketch:type="MSLayerGroup" transform="translate(532.000000, 756.000000)">
                <path d="M28,14 C28,21.732 21.732,28 14,28 C6.268,28 0,21.732 0,14 C0,6.268 6.268,0 14,0 C21.732,0 28,6.268 28,14" id="Fill-855" fill="#E67E22" sketch:type="MSShapeGroup"></path>
                <path d="M12.625,3.5 C12.625,2.741 13.241,2.125 14,2.125 C14.759,2.125 15.375,2.741 15.375,3.5 C15.375,4.259 14.759,4.875 14,4.875 C13.241,4.875 12.625,4.259 12.625,3.5" id="Fill-856" fill="#D35400" sketch:type="MSShapeGroup"></path>
                <path d="M4.819,21.854 C4.429,21.465 4.427,20.83 4.819,20.439 C5.209,20.048 5.844,20.051 6.233,20.44 C6.622,20.829 6.623,21.462 6.233,21.853 C5.841,22.245 5.208,22.243 4.819,21.854" id="Fill-857" fill="#F39C12" sketch:type="MSShapeGroup"></path>
                <path d="M8.354,21.147 C7.965,20.758 7.963,20.123 8.354,19.732 C8.745,19.341 9.379,19.343 9.768,19.733 C10.157,20.122 10.159,20.755 9.768,21.146 C9.377,21.537 8.743,21.536 8.354,21.147" id="Fill-858" fill="#F39C12" sketch:type="MSShapeGroup"></path>
                <path d="M7.647,24.683 C7.258,24.293 7.256,23.659 7.647,23.267 C8.038,22.877 8.672,22.879 9.061,23.268 C9.45,23.657 9.452,24.291 9.061,24.681 C8.67,25.073 8.036,25.072 7.647,24.683" id="Fill-859" fill="#F39C12" sketch:type="MSShapeGroup"></path>
            </g>
        </g>
    </g>
</svg>