<?xml version="1.0" encoding="UTF-8" standalone="no"?>
<svg width="32px" height="30px" viewBox="0 0 32 30" version="1.1" xmlns="http://www.w3.org/2000/svg" xmlns:xlink="http://www.w3.org/1999/xlink" xmlns:sketch="http://www.bohemiancoding.com/sketch/ns">
    <!-- Generator: Sketch 3.3 (11970) - http://www.bohemiancoding.com/sketch -->
    <title>paintbrush</title>
    <desc>Created with Sketch.</desc>
    <defs></defs>
    <g id="Page-1" stroke="none" stroke-width="1" fill="none" fill-rule="evenodd" sketch:type="MSPage">
        <g id="Symbolicons-Color" sketch:type="MSArtboardGroup" transform="translate(-586.000000, -644.000000)">
            <g id="paintbrush" sketch:type="MSLayerGroup" transform="translate(586.000000, 644.000000)">
                <path d="M10.571,17.764 L11.314,17.733 L13.91,20.329 L13.908,21.229 C13.905,23.354 13.259,24.971 11.932,26.171 C9.535,28.338 5.109,29.052 1,28.997 C3.758,26.609 4.51,22.795 4.549,22.587 L4.562,22.522 L4.571,22.456 C4.998,19.492 6.043,17.953 10.571,17.764" id="Fill-1115" fill="#BE9664" sketch:type="MSShapeGroup"></path>
                <path d="M30.997,0.646 L30.997,0.646 C31.83,1.48 31.83,2.832 30.997,3.666 L17.698,16.964 L14.678,13.945 L27.977,0.646 C28.811,-0.187 30.163,-0.187 30.997,0.646" id="Fill-1116" fill="#505050" sketch:type="MSShapeGroup"></path>
                <path d="M17.698,16.964 L13.91,20.329 L11.314,17.733 L14.678,13.945 L17.698,16.964" id="Fill-1117" fill="#BEBEBE" sketch:type="MSShapeGroup"></path>
                <path d="M10.94,26.758 L8.763,25.669 C8.48,25.528 8.325,25.212 8.387,24.901 L8.628,23.692 C8.699,23.337 8.608,22.973 8.38,22.695 C8.066,22.311 7.542,22.156 7.065,22.314 C6.811,22.399 6.529,22.331 6.344,22.144 L5.049,20.849 L4.811,20.784 L4.633,20.954 C4.5,21.399 4.322,22.439 4.316,22.477 L4.303,22.544 C4.273,22.703 3.542,26.468 0.836,28.811 C0.758,28.879 0.73,28.988 0.766,29.086 C0.801,29.183 0.893,29.249 0.997,29.25 L1.431,29.253 C5.406,29.253 8.789,28.522 10.958,27.195 C11.035,27.148 11.081,27.062 11.077,26.971 C11.073,26.88 11.02,26.798 10.94,26.758" id="Fill-1118" fill="#1EAAE1" sketch:type="MSShapeGroup"></path>
            </g>
        </g>
    </g>
</svg>