<?xml version="1.0" encoding="UTF-8" standalone="no"?>
<svg width="28px" height="28px" viewBox="0 0 28 28" version="1.1" xmlns="http://www.w3.org/2000/svg" xmlns:xlink="http://www.w3.org/1999/xlink" xmlns:sketch="http://www.bohemiancoding.com/sketch/ns">
    <!-- Generator: Sketch 3.3 (11970) - http://www.bohemiancoding.com/sketch -->
    <title>palette</title>
    <desc>Created with Sketch.</desc>
    <defs></defs>
    <g id="Page-1" stroke="none" stroke-width="1" fill="none" fill-rule="evenodd" sketch:type="MSPage">
        <g id="Symbolicons-Color" sketch:type="MSArtboardGroup" transform="translate(-532.000000, -644.000000)">
            <g id="palette" sketch:type="MSLayerGroup" transform="translate(532.000000, 643.000000)">
                <path d="M5.213,23.495 C11.222,29.841 20.07,30.849 24.902,25.745 C28.923,21.498 29.037,14.215 25.202,7.983 C24.809,7.335 24.41,6.835 24.007,6.409 C22.496,4.814 21.255,5.061 19.48,5.447 C17.491,5.917 15.008,6.412 12.323,3.575 C8.63,-0.325 4.779,0.906 3.082,2.698 C-1.75,7.802 -0.796,17.148 5.213,23.495" id="Fill-1110" fill="#BE9664" sketch:type="MSShapeGroup"></path>
                <path d="M10.29,7.019 C11.429,8.157 11.613,9.819 10.702,10.73 C9.791,11.64 8.13,11.456 6.991,10.317 C5.852,9.178 5.668,7.517 6.579,6.606 C7.49,5.695 9.151,5.88 10.29,7.019" id="Fill-1111" fill="#FFFFFF" sketch:type="MSShapeGroup"></path>
                <path d="M14.5,19.027 C14.5,19.856 13.311,20.252 12.768,20.795 C12.225,21.338 11.828,22.528 11,22.528 C10.172,22.528 9.775,21.338 9.232,20.795 C8.689,20.252 7.5,19.856 7.5,19.027 C7.5,18.224 8.734,17.534 9.248,16.753 C9.795,15.924 10.147,14.527 11,14.527 C11.853,14.527 12.205,15.924 12.752,16.753 C13.266,17.534 14.5,18.224 14.5,19.027" id="Fill-1112" fill="#2980B9" sketch:type="MSShapeGroup"></path>
                <path d="M16.525,20.552 C17.111,19.967 18.702,20.527 19.939,20.527 C21.177,20.527 22.768,19.967 23.354,20.552 C23.992,21.19 22.957,22.118 22.393,22.952 C21.921,23.65 22.009,24.969 21.475,25.502 C20.889,26.088 19.768,25.528 19,25.528 C18.232,25.528 17.111,26.088 16.525,25.502 C15.939,24.917 16.5,23.795 16.5,23.027 C16.5,22.26 15.939,21.138 16.525,20.552" id="Fill-1113" fill="#F1C40F" sketch:type="MSShapeGroup"></path>
                <path d="M21.475,12.553 C21.099,12.176 20.502,12.273 19.92,12.39 L19.768,12.26 C19.225,11.717 18.828,10.528 18,10.528 C17.172,10.528 16.775,11.717 16.232,12.26 C15.689,12.803 14.5,13.199 14.5,14.027 C14.5,14.856 15.689,15.253 16.232,15.795 L16.363,15.948 C16.246,16.53 16.149,17.126 16.525,17.503 C17.111,18.088 18.232,17.527 19,17.527 C19.768,17.527 20.889,18.088 21.475,17.503 C22.061,16.917 21.5,15.795 21.5,15.028 C21.5,14.26 22.061,13.138 21.475,12.553" id="Fill-1114" fill="#D35400" sketch:type="MSShapeGroup"></path>
            </g>
        </g>
    </g>
</svg>