<?xml version="1.0" encoding="UTF-8" standalone="no"?>
<svg width="28px" height="24px" viewBox="0 0 28 24" version="1.1" xmlns="http://www.w3.org/2000/svg" xmlns:xlink="http://www.w3.org/1999/xlink" xmlns:sketch="http://www.bohemiancoding.com/sketch/ns">
    <!-- Generator: Sketch 3.3 (11970) - http://www.bohemiancoding.com/sketch -->
    <title>pancakes</title>
    <desc>Created with Sketch.</desc>
    <defs></defs>
    <g id="Page-1" stroke="none" stroke-width="1" fill="none" fill-rule="evenodd" sketch:type="MSPage">
        <g id="Symbolicons-Color" sketch:type="MSArtboardGroup" transform="translate(-532.000000, -198.000000)">
            <g id="pancakes" sketch:type="MSLayerGroup" transform="translate(532.000000, 198.000000)">
                <path d="M28,14 C28,12.895 27.104,12 26,12 L26,8 C27.104,8 28,7.104 28,6 C28,4.896 27.104,4 26,4 L2,4 C0.895,4 0,4.896 0,6 C0,7.104 0.895,8 2,8 L2,12 C0.895,12 0,12.895 0,14 C0,15.104 0.895,16 2,16 L2,20 C0.895,20 0,20.896 0,22 C0,23.105 0.895,24 2,24 L26,24 C27.104,24 28,23.105 28,22 C28,20.896 27.104,20 26,20 L26,16 C27.104,16 28,15.104 28,14" id="Fill-157" fill="#BE9664" sketch:type="MSShapeGroup"></path>
                <path d="M28,10 C28,11.105 27.104,12 26,12 L2,12 C0.895,12 0,11.105 0,10 C0,8.896 0.895,8 2,8 L26,8 C27.104,8 28,8.896 28,10" id="Fill-158" fill="#A57D52" sketch:type="MSShapeGroup"></path>
                <path d="M28,18 C28,19.105 27.104,20 26,20 L2,20 C0.895,20 0,19.105 0,18 C0,16.896 0.895,16 2,16 L26,16 C27.104,16 28,16.896 28,18" id="Fill-159" fill="#A57D52" sketch:type="MSShapeGroup"></path>
                <path d="M28,18 C28,19.105 27.104,20 26,20 L2,20 C0.895,20 0,19.105 0,18 C0,16.896 0.895,16 2,16 L26,16 C27.104,16 28,16.896 28,18" id="Fill-160" fill="#A57D52" sketch:type="MSShapeGroup"></path>
                <path d="M17.59,0.888 C17.337,0.4 16.679,0 16.129,0 L11.133,0 C10.583,0 9.926,0.4 9.672,0.887 L9.036,2.113 C8.782,2.601 9.025,3 9.575,3 L17.685,3 C18.235,3 18.478,2.601 18.225,2.112 L17.59,0.888" id="Fill-161" fill="#F1C40F" sketch:type="MSShapeGroup"></path>
                <path d="M26,2 L2,2 C1.45,2 1,2.45 1,3 C1,3.55 1.45,4 2,4 L3,4 L3,6 C3,6.552 3.448,7 4,7 C4.552,7 5,6.552 5,6 L5,4 L6,4 L6,9 C6,9.552 6.448,10 7,10 C7.552,10 8,9.552 8,9 L8,4 L19,4 L19,13 C19,13.552 19.448,14 20,14 C20.552,14 21,13.552 21,13 L21,6 C21,6.552 21.448,7 22,7 C22.552,7 23,6.552 23,6 L23,4 L26,4 C26.55,4 27,3.55 27,3 C27,2.45 26.55,2 26,2" id="Fill-162" fill="#8C5A3C" sketch:type="MSShapeGroup"></path>
            </g>
        </g>
    </g>
</svg>