<?xml version="1.0" encoding="UTF-8" standalone="no"?>
<svg width="24px" height="28px" viewBox="0 0 24 28" version="1.1" xmlns="http://www.w3.org/2000/svg" xmlns:xlink="http://www.w3.org/1999/xlink" xmlns:sketch="http://www.bohemiancoding.com/sketch/ns">
    <!-- Generator: Sketch 3.3 (11970) - http://www.bohemiancoding.com/sketch -->
    <title>paper-pad</title>
    <desc>Created with Sketch.</desc>
    <defs></defs>
    <g id="Page-1" stroke="none" stroke-width="1" fill="none" fill-rule="evenodd" sketch:type="MSPage">
        <g id="Symbolicons-Color" sketch:type="MSArtboardGroup" transform="translate(-534.000000, -476.000000)">
            <g id="paper-pad" sketch:type="MSLayerGroup" transform="translate(534.000000, 476.000000)">
                <path d="M0,5 L0,2 C0,0.9 0.9,0 2,0 L22,0 C23.1,0 24,0.9 24,2 L24,5 L0,5" id="Fill-512" fill="#505050" sketch:type="MSShapeGroup"></path>
                <path d="M0,5 L24,5 L24,28 L0,28 L0,5 Z" id="Fill-513" fill="#FBEDB7" sketch:type="MSShapeGroup"></path>
                <path d="M0,8 L24,8 L24,9 L0,9 L0,8 Z" id="Fill-514" fill="#BEE6FA" sketch:type="MSShapeGroup"></path>
                <path d="M0,12 L24,12 L24,13 L0,13 L0,12 Z" id="Fill-515" fill="#BEE6FA" sketch:type="MSShapeGroup"></path>
                <path d="M0,16 L24,16 L24,17 L0,17 L0,16 Z" id="Fill-516" fill="#BEE6FA" sketch:type="MSShapeGroup"></path>
                <path d="M0,20 L24,20 L24,21 L0,21 L0,20 Z" id="Fill-517" fill="#BEE6FA" sketch:type="MSShapeGroup"></path>
                <path d="M0,24 L24,24 L24,25 L0,25 L0,24 Z" id="Fill-518" fill="#BEE6FA" sketch:type="MSShapeGroup"></path>
                <path d="M3,5 L4,5 L4,28 L3,28 L3,5 Z" id="Fill-519" fill="#C0392B" sketch:type="MSShapeGroup"></path>
            </g>
        </g>
    </g>
</svg>