<?xml version="1.0" encoding="UTF-8" standalone="no"?>
<svg width="29px" height="29px" viewBox="0 0 29 29" version="1.1" xmlns="http://www.w3.org/2000/svg" xmlns:xlink="http://www.w3.org/1999/xlink" xmlns:sketch="http://www.bohemiancoding.com/sketch/ns">
    <!-- Generator: Sketch 3.3 (11970) - http://www.bohemiancoding.com/sketch -->
    <title>parsnip</title>
    <desc>Created with Sketch.</desc>
    <defs></defs>
    <g id="Page-1" stroke="none" stroke-width="1" fill="none" fill-rule="evenodd" sketch:type="MSPage">
        <g id="Symbolicons-Color" sketch:type="MSArtboardGroup" transform="translate(-588.000000, -868.000000)">
            <g id="parsnip" sketch:type="MSLayerGroup" transform="translate(587.000000, 868.000000)">
                <path d="M25.254,0.364 L25.254,0.364 C24.794,0.059 24.174,0.184 23.868,0.644 L19.998,6.477 C19.692,6.937 19.818,7.558 20.278,7.863 C20.738,8.169 21.359,8.043 21.664,7.583 L25.535,1.75 C25.84,1.29 25.715,0.67 25.254,0.364" id="Fill-1159" fill="#467846" sketch:type="MSShapeGroup"></path>
                <path d="M21.853,0.024 L21.853,0.024 C21.314,-0.095 20.78,0.245 20.661,0.784 L19.147,7.618 C19.028,8.158 19.368,8.691 19.907,8.811 C20.446,8.931 20.981,8.59 21.1,8.051 L22.613,1.217 C22.733,0.677 22.393,0.143 21.853,0.024" id="Fill-1160" fill="#467846" sketch:type="MSShapeGroup"></path>
                <path d="M29.684,7.855 L29.684,7.855 C29.804,8.394 29.463,8.928 28.924,9.047 L22.09,10.561 C21.551,10.68 21.017,10.34 20.897,9.801 C20.778,9.262 21.118,8.728 21.657,8.608 L28.492,7.095 C29.031,6.975 29.565,7.316 29.684,7.855" id="Fill-1161" fill="#467846" sketch:type="MSShapeGroup"></path>
                <path d="M29.344,4.454 L29.344,4.454 C29.039,3.994 28.418,3.868 27.958,4.174 L22.125,8.044 C21.665,8.349 21.54,8.97 21.845,9.43 C22.15,9.89 22.771,10.016 23.231,9.711 L29.064,5.84 C29.524,5.535 29.65,4.914 29.344,4.454" id="Fill-1162" fill="#467846" sketch:type="MSShapeGroup"></path>
                <path d="M28.777,0.932 L28.777,0.932 C28.386,0.541 27.753,0.541 27.363,0.932 L19.584,8.71 C19.194,9.1 19.194,9.733 19.584,10.124 C19.975,10.514 20.608,10.514 20.999,10.124 L28.777,2.346 C29.167,1.955 29.167,1.322 28.777,0.932" id="Fill-1163" fill="#467846" sketch:type="MSShapeGroup"></path>
                <path d="M23.839,10.136 L19.568,5.865 C17.586,4.936 15.436,5.02 13.525,6.42 L12.758,7.071 C12.632,7.193 12.502,7.298 12.378,7.434 C11.585,8.303 10.674,9.533 9.719,10.962 L9.158,11.818 C8.295,13.159 7.411,14.638 6.556,16.147 L6.048,17.054 C5.189,18.602 4.377,20.155 3.662,21.601 L3.199,22.554 C1.659,25.768 0.717,28.271 1.076,28.631 C2.01,29.565 17.506,21.675 22.269,17.326 C24.636,15.166 24.958,12.525 23.839,10.136" id="Fill-1164" fill="#D1C797" sketch:type="MSShapeGroup"></path>
                <path d="M13.682,14.828 L9.758,10.905 L9.719,10.962 L9.197,11.758 L12.975,15.535 C13.17,15.73 13.486,15.73 13.682,15.535 C13.877,15.34 13.877,15.023 13.682,14.828" id="Fill-1165" fill="#BE9664" sketch:type="MSShapeGroup"></path>
                <path d="M9.439,19.778 C9.634,19.583 9.634,19.266 9.439,19.071 L6.541,16.173 L6.048,17.053 L6.034,17.08 L8.732,19.778 C8.927,19.973 9.244,19.973 9.439,19.778" id="Fill-1166" fill="#BE9664" sketch:type="MSShapeGroup"></path>
                <path d="M5.196,24.02 C5.392,23.825 5.392,23.509 5.196,23.313 L3.604,21.721 L3.198,22.553 L3.142,22.673 L4.489,24.02 C4.684,24.216 5.001,24.216 5.196,24.02" id="Fill-1167" fill="#BE9664" sketch:type="MSShapeGroup"></path>
                <path d="M17.924,10.585 L13.668,6.329 L13.525,6.42 L12.887,6.962 L17.217,11.293 C17.412,11.488 17.729,11.488 17.924,11.293 C18.12,11.097 18.12,10.78 17.924,10.585" id="Fill-1168" fill="#BE9664" sketch:type="MSShapeGroup"></path>
                <path d="M18.877,16.488 C18.487,16.878 17.854,16.878 17.463,16.488 C17.073,16.097 17.073,15.464 17.463,15.074 C17.854,14.683 18.487,14.683 18.877,15.074 C19.268,15.464 19.268,16.097 18.877,16.488" id="Fill-1169" fill="#BE9664" sketch:type="MSShapeGroup"></path>
                <path d="M13.22,19.316 C12.83,19.707 12.196,19.707 11.806,19.316 C11.416,18.926 11.416,18.293 11.806,17.902 C12.196,17.512 12.83,17.512 13.22,17.902 C13.611,18.293 13.611,18.926 13.22,19.316" id="Fill-1170" fill="#BE9664" sketch:type="MSShapeGroup"></path>
            </g>
        </g>
    </g>
</svg>