<?xml version="1.0" encoding="UTF-8" standalone="no"?>
<svg width="24px" height="28px" viewBox="0 0 24 28" version="1.1" xmlns="http://www.w3.org/2000/svg" xmlns:xlink="http://www.w3.org/1999/xlink" xmlns:sketch="http://www.bohemiancoding.com/sketch/ns">
    <!-- Generator: Sketch 3.3 (11970) - http://www.bohemiancoding.com/sketch -->
    <title>passport</title>
    <desc>Created with Sketch.</desc>
    <defs></defs>
    <g id="Page-1" stroke="none" stroke-width="1" fill="none" fill-rule="evenodd" sketch:type="MSPage">
        <g id="Symbolicons-Color" sketch:type="MSArtboardGroup" transform="translate(-254.000000, -476.000000)">
            <g id="passport" sketch:type="MSLayerGroup" transform="translate(254.000000, 476.000000)">
                <path d="M22,2 L4,2 L4,26 L22,26 C23.1,26 24,25.104 24,24.008 L24,3.992 C24,2.896 23.1,2 22,2" id="Fill-735" fill="#2980B9" sketch:type="MSShapeGroup"></path>
                <path d="M17.727,0.413 L0,2.201 L0,26.201 L17.727,27.989 C18.968,28.105 20,27.305 20,26.209 L20,2.193 C20,1.097 18.968,0.297 17.727,0.413" id="Fill-736" fill="#1EAAE1" sketch:type="MSShapeGroup"></path>
                <path d="M9.5,7.201 C5.909,7.201 3,10.112 3,13.701 C3,17.291 5.912,20.201 9.5,20.201 C9.916,20.201 10.323,20.16 10.719,20.086 C10.853,20.059 10.99,20.031 11.125,19.997 L11.19,19.978 C13.96,19.234 16,16.707 16,13.701 C16,10.112 13.09,7.201 9.5,7.201 L9.5,7.201 Z M6.909,8.851 C6.178,9.938 5.694,11.473 5.615,13.201 L4.025,13.201 C4.196,11.317 5.319,9.705 6.909,8.851 L6.909,8.851 Z M4.025,14.201 L5.615,14.201 C5.694,15.928 6.178,17.464 6.909,18.551 C5.319,17.697 4.196,16.085 4.025,14.201 L4.025,14.201 Z M9,19.101 C7.857,18.667 6.761,16.788 6.629,14.201 L9,14.201 L9,19.101 L9,19.101 Z M9,13.201 L6.629,13.201 C6.761,10.614 7.857,8.735 9,8.3 L9,13.201 L9,13.201 Z M14.975,13.201 L13.385,13.201 C13.306,11.473 12.822,9.938 12.09,8.851 C13.681,9.705 14.804,11.316 14.975,13.201 L14.975,13.201 Z M10,8.3 C11.144,8.735 12.239,10.614 12.371,13.201 L10,13.201 L10,8.3 L10,8.3 Z M10.107,19.064 L10.07,19.082 L10,19.107 L10,14.201 L12.375,14.201 C12.247,16.777 11.176,18.586 10.107,19.064 L10.107,19.064 Z M12.105,18.527 C12.828,17.443 13.295,15.916 13.375,14.201 L14.958,14.201 C14.789,16.047 13.704,17.663 12.105,18.527 L12.105,18.527 Z" id="Fill-737" fill="#FFFFFF" sketch:type="MSShapeGroup"></path>
            </g>
        </g>
    </g>
</svg>