<?xml version="1.0" encoding="UTF-8" standalone="no"?>
<svg width="28px" height="28px" viewBox="0 0 28 28" version="1.1" xmlns="http://www.w3.org/2000/svg" xmlns:xlink="http://www.w3.org/1999/xlink" xmlns:sketch="http://www.bohemiancoding.com/sketch/ns">
    <!-- Generator: Sketch 3.3 (11970) - http://www.bohemiancoding.com/sketch -->
    <title>pencil-ruler</title>
    <desc>Created with Sketch.</desc>
    <defs></defs>
    <g id="Page-1" stroke="none" stroke-width="1" fill="none" fill-rule="evenodd" sketch:type="MSPage">
        <g id="Symbolicons-Color" sketch:type="MSArtboardGroup" transform="translate(-476.000000, -532.000000)">
            <g id="pencil-ruler" sketch:type="MSLayerGroup" transform="translate(476.000000, 532.000000)">
                <path d="M22.222,28 L28,22.222 L5.778,0 L0,5.778 L22.222,28" id="Fill-473" fill="#BE9664" sketch:type="MSShapeGroup"></path>
                <path d="M23.498,22.06 L23.144,21.707 L25.314,19.537 L25.668,19.89 L23.498,22.06" id="Fill-474" fill="#8C5A3C" sketch:type="MSShapeGroup"></path>
                <path d="M6.293,4.856 L5.94,4.502 L8.11,2.332 L8.463,2.686 L6.293,4.856" id="Fill-475" fill="#8C5A3C" sketch:type="MSShapeGroup"></path>
                <path d="M12.028,10.591 L11.675,10.237 L13.845,8.067 L14.198,8.421 L12.028,10.591" id="Fill-476" fill="#8C5A3C" sketch:type="MSShapeGroup"></path>
                <path d="M17.763,16.326 L17.409,15.972 L19.579,13.802 L19.933,14.156 L17.763,16.326" id="Fill-477" fill="#8C5A3C" sketch:type="MSShapeGroup"></path>
                <path d="M14.208,14.146 L13.854,13.792 L16.712,10.935 L17.066,11.288 L14.208,14.146" id="Fill-478" fill="#8C5A3C" sketch:type="MSShapeGroup"></path>
                <path d="M8.473,8.411 L8.12,8.057 L10.977,5.2 L11.331,5.553 L8.473,8.411" id="Fill-479" fill="#8C5A3C" sketch:type="MSShapeGroup"></path>
                <path d="M19.943,19.881 L19.589,19.527 L22.447,16.669 L22.8,17.023 L19.943,19.881" id="Fill-480" fill="#8C5A3C" sketch:type="MSShapeGroup"></path>
                <path d="M26.071,1.929 C24.9,0.757 23,0.757 21.828,1.929 L21.121,2.636 L25.357,6.872 L26.064,6.165 L26.071,6.172 C27.243,5 27.243,3.101 26.071,1.929" id="Fill-481" fill="#E9A980" sketch:type="MSShapeGroup"></path>
                <path d="M23.243,9 L19,4.757 L21.121,2.636 L25.364,6.879 L23.243,9" id="Fill-482" fill="#BEBEBE" sketch:type="MSShapeGroup"></path>
                <path d="M23.243,9 L19,4.757 L2.757,21 L7,25.243 L23.243,9" id="Fill-483" fill="#F39C12" sketch:type="MSShapeGroup"></path>
                <path d="M7,25.243 L2.757,21 L1.909,24.394 L3.606,26.091 L7,25.243" id="Fill-484" fill="#DFCBB1" sketch:type="MSShapeGroup"></path>
                <path d="M3.606,26.091 L1.909,24.394 L1.343,26.657 L3.606,26.091" id="Fill-485" fill="#505050" sketch:type="MSShapeGroup"></path>
            </g>
        </g>
    </g>
</svg>