<?xml version="1.0" encoding="UTF-8" standalone="no"?>
<svg width="28px" height="28px" viewBox="0 0 28 28" version="1.1" xmlns="http://www.w3.org/2000/svg" xmlns:xlink="http://www.w3.org/1999/xlink" xmlns:sketch="http://www.bohemiancoding.com/sketch/ns">
    <!-- Generator: Sketch 3.3 (11970) - http://www.bohemiancoding.com/sketch -->
    <title>peppermint</title>
    <desc>Created with Sketch.</desc>
    <defs></defs>
    <g id="Page-1" stroke="none" stroke-width="1" fill="none" fill-rule="evenodd" sketch:type="MSPage">
        <g id="Symbolicons-Color" sketch:type="MSArtboardGroup" transform="translate(-308.000000, -868.000000)">
            <g id="peppermint" sketch:type="MSLayerGroup" transform="translate(308.000000, 868.000000)">
                <path d="M28,8.147 L24.222,7.102 L23.555,4.447 L20.9,3.779 L19.852,0.002 L17.029,6.665 L6.666,17.029 L0,19.856 L3.779,20.899 L4.446,23.555 L7.102,24.224 L8.149,28 L10.925,21.446 L21.445,10.926 L28,8.147" id="Fill-424" fill="#BEBEBE" sketch:type="MSShapeGroup"></path>
                <path d="M23,14 C23,18.971 18.971,23 14,23 C9.03,23 5,18.971 5,14 C5,9.03 9.03,5 14,5 C18.971,5 23,9.03 23,14" id="Fill-425" fill="#BEBEBE" sketch:type="MSShapeGroup"></path>
                <path d="M22,14 C22,18.418 18.418,22 14,22 C9.582,22 6,18.418 6,14 C6,9.582 9.582,6 14,6 C18.418,6 22,9.582 22,14" id="Fill-426" fill="#C0392B" sketch:type="MSShapeGroup"></path>
                <path d="M20.365,18.832 C21.386,17.489 22,15.818 22,14 C22,13.655 21.971,13.317 21.928,12.984 L21.897,13.007 C20.635,13.944 19.055,14.448 17.434,14.448 C16.448,14.448 15.447,14.262 14.495,13.872 C14.844,13.227 15.077,12.672 15.229,12.119 C15.787,10.087 15.5,7.891 14.464,6.023 C14.309,6.015 14.156,6 14,6 C12.028,6 10.226,6.716 8.832,7.899 L9.074,8.016 C9.793,8.365 10.437,8.816 10.989,9.354 C12.133,10.464 12.884,11.931 13.099,13.488 C12.373,13.52 11.789,13.601 11.257,13.741 C9.336,14.242 7.706,15.358 6.557,16.919 C7.318,18.858 8.812,20.424 10.7,21.281 C10.448,18.808 11.502,16.422 13.54,14.88 L13.547,14.899 C13.927,15.502 14.324,16 14.758,16.428 C16.268,17.896 18.248,18.734 20.365,18.832" id="Fill-427" fill="#FFFFFF" sketch:type="MSShapeGroup"></path>
            </g>
        </g>
    </g>
</svg>