<?xml version="1.0" encoding="UTF-8" standalone="no"?>
<svg width="28px" height="29px" viewBox="0 0 28 29" version="1.1" xmlns="http://www.w3.org/2000/svg" xmlns:xlink="http://www.w3.org/1999/xlink" xmlns:sketch="http://www.bohemiancoding.com/sketch/ns">
    <!-- Generator: Sketch 3.3 (11970) - http://www.bohemiancoding.com/sketch -->
    <title>pickle</title>
    <desc>Created with Sketch.</desc>
    <defs></defs>
    <g id="Page-1" stroke="none" stroke-width="1" fill="none" fill-rule="evenodd" sketch:type="MSPage">
        <g id="Symbolicons-Color" sketch:type="MSArtboardGroup" transform="translate(-532.000000, -868.000000)">
            <g id="pickle" sketch:type="MSLayerGroup" transform="translate(532.000000, 868.000000)">
                <path d="M23.172,0 C19.354,0 18.345,4.737 18.345,7.241 C18.345,14.402 14.402,18.345 7.241,18.345 C4.737,18.345 0,19.354 0,23.172 C0,26.991 4.737,28 7.241,28 C19.852,28 28,19.851 28,7.241 C28,4.737 26.991,0 23.172,0" id="Fill-1075" fill="#46A046" sketch:type="MSShapeGroup"></path>
                <path d="M22,8 C22,8.552 21.552,9 21,9 C20.448,9 20,8.552 20,8 C20,7.448 20.448,7 21,7 C21.552,7 22,7.448 22,8" id="Fill-1076" fill="#8CBE3C" sketch:type="MSShapeGroup"></path>
                <path d="M19,18 C19,18.552 18.552,19 18,19 C17.448,19 17,18.552 17,18 C17,17.448 17.448,17 18,17 C18.552,17 19,17.448 19,18" id="Fill-1077" fill="#8CBE3C" sketch:type="MSShapeGroup"></path>
                <path d="M13.5,18.5 C13.5,19.328 12.828,20 12,20 C11.172,20 10.5,19.328 10.5,18.5 C10.5,17.672 11.172,17 12,17 C12.828,17 13.5,17.672 13.5,18.5" id="Fill-1078" fill="#46A046" sketch:type="MSShapeGroup"></path>
                <path d="M27,16 C27,16.828 26.328,17.5 25.5,17.5 C24.672,17.5 24,16.828 24,16 C24,15.172 24.672,14.5 25.5,14.5 C26.328,14.5 27,15.172 27,16" id="Fill-1079" fill="#46A046" sketch:type="MSShapeGroup"></path>
                <path d="M7,22 C7,22.552 6.552,23 6,23 C5.448,23 5,22.552 5,22 C5,21.448 5.448,21 6,21 C6.552,21 7,21.448 7,22" id="Fill-1080" fill="#8CBE3C" sketch:type="MSShapeGroup"></path>
                <path d="M7,26.85 C7,27.678 6.328,28.35 5.5,28.35 C4.672,28.35 4,27.678 4,26.85 C4,26.021 4.672,25.35 5.5,25.35 C6.328,25.35 7,26.021 7,26.85" id="Fill-1081" fill="#46A046" sketch:type="MSShapeGroup"></path>
                <path d="M21,4.5 C21,5.328 20.328,6 19.5,6 C18.672,6 18,5.328 18,4.5 C18,3.672 18.672,3 19.5,3 C20.328,3 21,3.672 21,4.5" id="Fill-1082" fill="#46A046" sketch:type="MSShapeGroup"></path>
            </g>
        </g>
    </g>
</svg>