<?xml version="1.0" encoding="UTF-8" standalone="no"?>
<svg width="28px" height="28px" viewBox="0 0 28 28" version="1.1" xmlns="http://www.w3.org/2000/svg" xmlns:xlink="http://www.w3.org/1999/xlink" xmlns:sketch="http://www.bohemiancoding.com/sketch/ns">
    <!-- Generator: Sketch 3.3 (11970) - http://www.bohemiancoding.com/sketch -->
    <title>pig</title>
    <desc>Created with Sketch.</desc>
    <defs></defs>
    <g id="Page-1" stroke="none" stroke-width="1" fill="none" fill-rule="evenodd" sketch:type="MSPage">
        <g id="Symbolicons-Color" sketch:type="MSArtboardGroup" transform="translate(-588.000000, -1036.000000)">
            <g id="pig" sketch:type="MSLayerGroup" transform="translate(588.000000, 1036.000000)">
                <path d="M21,5.416 L21,0 L20.5,0 C18.567,0 17,1.567 17,3.5 L17,4.254 C16.032,4.094 15.032,4 14,4 C12.968,4 11.968,4.094 11,4.254 L11,3.5 C11,1.567 9.432,0 7.5,0 L7,0 L7,5.416 C2.82,7.232 0,10.615 0,14.5 C0,18.385 2.82,21.768 7,23.584 L7,28 L12,28 L12,24.881 C12.655,24.952 13.319,25.001 14,25.001 C14.68,25.001 15.345,24.952 16,24.881 L16,28 L21,28 L21,23.584 C25.181,21.768 28,18.385 28,14.5 C28,10.615 25.181,7.232 21,5.416" id="Fill-838" fill="#F0B496" sketch:type="MSShapeGroup"></path>
                <path d="M14.333,13 L13.667,13 C10.917,13 8.667,14.8 8.667,16.999 C8.667,19.201 10.917,21 13.667,21 L14.333,21 C17.083,21 19.333,19.201 19.333,16.999 C19.333,14.8 17.083,13 14.333,13" id="Fill-839" fill="#E99B78" sketch:type="MSShapeGroup"></path>
                <path d="M12,18 C11.447,18 11,17.553 11,17 C11,16.449 11.447,16 12,16 C12.553,16 13,16.449 13,17 C13,17.553 12.553,18 12,18" id="Fill-840" fill="#505050" sketch:type="MSShapeGroup"></path>
                <path d="M16,18 C15.447,18 15,17.553 15,17 C15,16.449 15.447,16 16,16 C16.553,16 17,16.449 17,17 C17,17.553 16.553,18 16,18" id="Fill-841" fill="#505050" sketch:type="MSShapeGroup"></path>
                <path d="M16,10 C16.553,10 17,10.449 17,11 C17,11.553 16.553,12 16,12 C15.447,12 15,11.553 15,11 C15,10.449 15.447,10 16,10" id="Fill-842" fill="#FFFFFF" sketch:type="MSShapeGroup"></path>
                <path d="M12,10 C12.553,10 13,10.449 13,11 C13,11.553 12.553,12 12,12 C11.447,12 11,11.553 11,11 C11,10.449 11.447,10 12,10" id="Fill-843" fill="#FFFFFF" sketch:type="MSShapeGroup"></path>
                <path d="M12,24.881 L12,24.894 C12.653,24.964 13.321,25.001 14,25.001 C13.319,25.001 12.655,24.952 12,24.881 M16,24.881 C15.345,24.952 14.68,25.001 14,25.001 C14.679,25.001 15.346,24.964 16,24.894 L16,24.881 M26.476,19.261 C25.244,21.067 23.334,22.57 21,23.584 L21,23.595 C23.336,22.58 25.246,21.072 26.476,19.261 M26.488,19.245 C26.485,19.249 26.482,19.253 26.479,19.257 C26.482,19.253 26.485,19.249 26.488,19.245 M1.449,19.15 C2.676,21.011 4.615,22.559 7,23.595 L7,23.584 C4.618,22.549 2.677,21.005 1.449,19.15" id="Fill-844" fill="#F9DBCD" sketch:type="MSShapeGroup"></path>
                <path d="M27.394,17.552 C24.538,20.83 19.61,23.001 14,23.001 C8.389,23.001 3.461,20.83 0.605,17.552 C0.829,18.105 1.112,18.64 1.449,19.15 C2.677,21.005 4.618,22.549 7,23.584 L7,23.595 C8.51,24.251 10.2,24.701 12,24.894 L12,24.881 C12.655,24.952 13.319,25.001 14,25.001 C14.68,25.001 15.345,24.952 16,24.881 L16,24.894 C17.8,24.701 19.489,24.251 21,23.595 L21,23.584 C23.334,22.57 25.244,21.067 26.476,19.261 C26.477,19.26 26.478,19.259 26.479,19.257 C26.482,19.253 26.485,19.249 26.488,19.245 C26.852,18.706 27.156,18.14 27.394,17.552" id="Fill-845" fill="#E99B78" sketch:type="MSShapeGroup"></path>
            </g>
        </g>
    </g>
</svg>