<?xml version="1.0" encoding="UTF-8" standalone="no"?>
<svg width="28px" height="28px" viewBox="0 0 28 28" version="1.1" xmlns="http://www.w3.org/2000/svg" xmlns:xlink="http://www.w3.org/1999/xlink" xmlns:sketch="http://www.bohemiancoding.com/sketch/ns">
    <!-- Generator: Sketch 3.3 (11970) - http://www.bohemiancoding.com/sketch -->
    <title>pills</title>
    <desc>Created with Sketch.</desc>
    <defs></defs>
    <g id="Page-1" stroke="none" stroke-width="1" fill="none" fill-rule="evenodd" sketch:type="MSPage">
        <g id="Symbolicons-Color" sketch:type="MSArtboardGroup" transform="translate(-980.000000, -588.000000)">
            <g id="pills" sketch:type="MSLayerGroup" transform="translate(980.000000, 587.000000)">
                <path d="M0,23.857 C0,26.698 2.239,29 5,29 C7.761,29 10,26.698 10,23.857 L10,17 L0,17 L0,23.857" id="Fill-356" fill="#F1C40F" sketch:type="MSShapeGroup"></path>
                <path d="M5,5 C2.239,5 0,7.302 0,10.143 L0,17 L10,17 L10,10.143 C10,7.302 7.761,5 5,5" id="Fill-357" fill="#C0392B" sketch:type="MSShapeGroup"></path>
                <path d="M18.48,20.191 C19.662,22.687 22.644,23.751 25.139,22.57 C27.635,21.387 28.7,18.406 27.518,15.91 L24.664,9.886 L15.626,14.166 L18.48,20.191" id="Fill-358" fill="#1EAAE1" sketch:type="MSShapeGroup"></path>
                <path d="M15.15,1.482 C12.655,2.664 11.59,5.645 12.772,8.141 L15.626,14.166 L24.664,9.886 L21.81,3.861 C20.627,1.365 17.646,0.3 15.15,1.482" id="Fill-359" fill="#2980B9" sketch:type="MSShapeGroup"></path>
            </g>
        </g>
    </g>
</svg>