<?xml version="1.0" encoding="UTF-8" standalone="no"?>
<svg width="28px" height="28px" viewBox="0 0 28 28" version="1.1" xmlns="http://www.w3.org/2000/svg" xmlns:xlink="http://www.w3.org/1999/xlink" xmlns:sketch="http://www.bohemiancoding.com/sketch/ns">
    <!-- Generator: Sketch 3.3 (11970) - http://www.bohemiancoding.com/sketch -->
    <title>pill-tablet</title>
    <desc>Created with Sketch.</desc>
    <defs></defs>
    <g id="Page-1" stroke="none" stroke-width="1" fill="none" fill-rule="evenodd" sketch:type="MSPage">
        <g id="Symbolicons-Color" sketch:type="MSArtboardGroup" transform="translate(-868.000000, -588.000000)">
            <g id="pill-tablet" sketch:type="MSLayerGroup" transform="translate(868.000000, 588.000000)">
                <path d="M13.001,20.5 C13.001,24.642 16.359,28 20.501,28 C24.643,28 28.001,24.642 28.001,20.5 C28.001,16.358 24.643,13 20.501,13 C16.359,13 13.001,16.358 13.001,20.5" id="Fill-352" fill="#ECECEC" sketch:type="MSShapeGroup"></path>
                <path d="M0.001,22 C0.001,25.314 2.687,28 6.001,28 C9.314,28 12.001,25.314 12.001,22 L12.001,14 L0.001,14 L0.001,22" id="Fill-353" fill="#F1C40F" sketch:type="MSShapeGroup"></path>
                <path d="M6.001,0 C2.687,0 0.001,2.686 0.001,6 L0.001,14 L12.001,14 L12.001,6 C12.001,2.686 9.314,0 6.001,0" id="Fill-354" fill="#C0392B" sketch:type="MSShapeGroup"></path>
                <path d="M14.861,15.567 L25.434,26.14 C25.685,25.92 25.921,25.684 26.141,25.433 L15.568,14.86 C15.317,15.08 15.081,15.316 14.861,15.567" id="Fill-355" fill="#BEBEBE" sketch:type="MSShapeGroup"></path>
            </g>
        </g>
    </g>
</svg>