<?xml version="1.0" encoding="UTF-8" standalone="no"?>
<svg width="28px" height="28px" viewBox="0 0 28 28" version="1.1" xmlns="http://www.w3.org/2000/svg" xmlns:xlink="http://www.w3.org/1999/xlink" xmlns:sketch="http://www.bohemiancoding.com/sketch/ns">
    <!-- Generator: Sketch 3.3 (11970) - http://www.bohemiancoding.com/sketch -->
    <title>pipe</title>
    <desc>Created with Sketch.</desc>
    <defs></defs>
    <g id="Page-1" stroke="none" stroke-width="1" fill="none" fill-rule="evenodd" sketch:type="MSPage">
        <g id="Symbolicons-Color" sketch:type="MSArtboardGroup" transform="translate(-308.000000, -308.000000)">
            <g id="pipe" sketch:type="MSLayerGroup" transform="translate(308.000000, 308.000000)">
                <path d="M23,7 L23,6.667 C23,4.791 24.242,2 27.666,2 L28,2 L28,0 L26,0 C20.863,0 19,4.186 19,7 L19,10 L23,10 L23,7" id="Fill-716" fill="#BEBEBE" sketch:type="MSShapeGroup"></path>
                <path d="M13,15 C13.553,15 14,14.553 14,14 C14,13.447 13.553,13 13,13 L1,13 C0.447,13 0,13.447 0,14 C0,14.553 0.447,15 1,15 L13,15" id="Fill-717" fill="#503C1D" sketch:type="MSShapeGroup"></path>
                <path d="M24,9 L18,9 C17.447,9 17,9.447 17,10 L17,16 C17,17.105 16.103,18 15,18 C13.894,18 13,17.105 13,16 L13,15 L1,15 L1,16 L1.024,16 C1.279,22.66 6.545,28 13,28 C19.617,28 25,22.392 25,15.5 L25,10 C25,9.447 24.553,9 24,9" id="Fill-718" fill="#8C5A3C" sketch:type="MSShapeGroup"></path>
            </g>
        </g>
    </g>
</svg>