<?xml version="1.0" encoding="UTF-8" standalone="no"?>
<svg width="28px" height="28px" viewBox="0 0 28 28" version="1.1" xmlns="http://www.w3.org/2000/svg" xmlns:xlink="http://www.w3.org/1999/xlink" xmlns:sketch="http://www.bohemiancoding.com/sketch/ns">
    <!-- Generator: Sketch 3.3 (11970) - http://www.bohemiancoding.com/sketch -->
    <title>pizza</title>
    <desc>Created with Sketch.</desc>
    <defs></defs>
    <g id="Page-1" stroke="none" stroke-width="1" fill="none" fill-rule="evenodd" sketch:type="MSPage">
        <g id="Symbolicons-Color" sketch:type="MSArtboardGroup" transform="translate(-140.000000, -812.000000)">
            <g id="pizza" sketch:type="MSLayerGroup" transform="translate(140.000000, 812.000000)">
                <path d="M10.639,2.643 L0,28 L25.448,17.593 C23,10 18,5 10.639,2.643" id="Fill-53" fill="#F39C12" sketch:type="MSShapeGroup"></path>
                <path d="M8,21 C6.896,21 6,20.104 6,19 C6,17.896 6.896,17 8,17 C9.105,17 10,17.896 10,19 C10,20.104 9.105,21 8,21" id="Fill-54" fill="#C0392B" sketch:type="MSShapeGroup"></path>
                <path d="M17,18 C15.896,18 15,17.104 15,16 C15,14.896 15.896,14 17,14 C18.105,14 19,14.896 19,16 C19,17.104 18.105,18 17,18" id="Fill-55" fill="#C0392B" sketch:type="MSShapeGroup"></path>
                <path d="M11.747,0 L10.639,2.643 C17.336,5.463 22.687,10.864 25.448,17.593 L28,16.549 C24.619,8.971 18.746,3.263 11.747,0" id="Fill-56" fill="#A57D52" sketch:type="MSShapeGroup"></path>
            </g>
        </g>
    </g>
</svg>