<?xml version="1.0" encoding="UTF-8" standalone="no"?>
<svg width="28px" height="27px" viewBox="0 0 28 27" version="1.1" xmlns="http://www.w3.org/2000/svg" xmlns:xlink="http://www.w3.org/1999/xlink" xmlns:sketch="http://www.bohemiancoding.com/sketch/ns">
    <!-- Generator: Sketch 3.3 (11970) - http://www.bohemiancoding.com/sketch -->
    <title>poop-happy</title>
    <desc>Created with Sketch.</desc>
    <defs></defs>
    <g id="Page-1" stroke="none" stroke-width="1" fill="none" fill-rule="evenodd" sketch:type="MSPage">
        <g id="Symbolicons-Color" sketch:type="MSArtboardGroup" transform="translate(-84.000000, -365.000000)">
            <g id="poop-happy" sketch:type="MSLayerGroup" transform="translate(84.000000, 365.000000)">
                <path d="M24.656,15.622 C24.877,15.126 25,14.577 25,14 C25,11.795 23.205,10 20.99,10 L20.673,10 C21.659,7.777 20.548,4.645 15.525,4.753 C15.525,4.753 11.103,4.444 13.899,0 C13.899,0 5.344,2.223 7.287,10 L7.009,10 C4.8,10 3,11.791 3,14 C3,14.576 3.123,15.124 3.343,15.62 C1.361,16.6 0,18.641 0,21 C0,24.307 2.689,27 6.007,27 L21.993,27 C25.315,27 28,24.314 28,21 C28,18.646 26.638,16.604 24.656,15.622" id="Fill-931" fill="#8C5A3C" sketch:type="MSShapeGroup"></path>
                <path d="M14.006,24 C17.471,24 21,21.5 21,19 L7,19 C7,21.5 10.5,24 14.006,24" id="Fill-932" fill="#FFFFFF" sketch:type="MSShapeGroup"></path>
                <path d="M16,13.5 C16,14.332 16.668,15 17.5,15 C18.332,15 19,14.332 19,13.5 C19,12.668 18.332,12 17.5,12 C16.668,12 16,12.668 16,13.5" id="Fill-933" fill="#323232" sketch:type="MSShapeGroup"></path>
                <path d="M9,13.5 C9,14.332 9.668,15 10.5,15 C11.332,15 12,14.332 12,13.5 C12,12.668 11.332,12 10.5,12 C9.668,12 9,12.668 9,13.5" id="Fill-934" fill="#323232" sketch:type="MSShapeGroup"></path>
            </g>
        </g>
    </g>
</svg>