<?xml version="1.0" encoding="UTF-8" standalone="no"?>
<svg width="28px" height="29px" viewBox="0 0 28 29" version="1.1" xmlns="http://www.w3.org/2000/svg" xmlns:xlink="http://www.w3.org/1999/xlink" xmlns:sketch="http://www.bohemiancoding.com/sketch/ns">
    <!-- Generator: Sketch 3.3 (11970) - http://www.bohemiancoding.com/sketch -->
    <title>popcorn</title>
    <desc>Created with Sketch.</desc>
    <defs></defs>
    <g id="Page-1" stroke="none" stroke-width="1" fill="none" fill-rule="evenodd" sketch:type="MSPage">
        <g id="Symbolicons-Color" sketch:type="MSArtboardGroup" transform="translate(-84.000000, -812.000000)">
            <g id="popcorn" sketch:type="MSLayerGroup" transform="translate(84.000000, 812.000000)">
                <path d="M23.315,28.23 L5,28.23 L3,12.229 L23.315,12.229 L23.315,28.23" id="Fill-57" fill="#ECECEC" sketch:type="MSShapeGroup"></path>
                <path d="M9.393,28.23 L12.5,28.23 L12.5,12.979 L7.745,12.979 L9.393,28.23" id="Fill-58" fill="#C0392B" sketch:type="MSShapeGroup"></path>
                <path d="M15.5,28.23 L18.607,28.23 L20.255,12.979 L15.5,12.979 L15.5,28.23" id="Fill-59" fill="#C0392B" sketch:type="MSShapeGroup"></path>
                <path d="M21.627,28.23 L23.315,28.23 L26.936,12.979 L23.274,12.979 L21.627,28.23" id="Fill-60" fill="#C0392B" sketch:type="MSShapeGroup"></path>
                <path d="M1.218,12.979 L4.839,28.23 L6.373,28.23 L4.726,12.979 L1.218,12.979" id="Fill-61" fill="#C0392B" sketch:type="MSShapeGroup"></path>
                <path d="M2.051,11.229 L1,11.229 C0.447,11.229 0,11.677 0,12.229 C0,12.782 0.447,13.23 1,13.23 L27,13.23 C27.553,13.23 28,12.782 28,12.229 C28,11.677 27.553,11.229 27,11.229 L2.051,11.229" id="Fill-62" fill="#C0392B" sketch:type="MSShapeGroup"></path>
                <path d="M26,10.728 C26,9.496 25.108,8.479 23.937,8.272 C23.975,8.096 24,7.915 24,7.728 C24,6.347 22.881,5.228 21.5,5.228 C21.303,5.228 21.112,5.256 20.928,5.3 C20.972,5.115 21,4.925 21,4.728 C21,3.347 19.881,2.228 18.5,2.228 C18.057,2.228 17.646,2.352 17.284,2.556 C16.801,1.202 15.52,0.228 14,0.228 C12.479,0.228 11.199,1.202 10.716,2.556 C10.355,2.352 9.943,2.228 9.5,2.228 C8.119,2.228 7,3.347 7,4.728 C7,4.925 7.028,5.115 7.072,5.3 C6.888,5.256 6.697,5.228 6.5,5.228 C5.119,5.228 4,6.347 4,7.728 C4,7.915 4.024,8.096 4.063,8.272 C2.892,8.479 2,9.496 2,10.728 C2,10.899 2.018,11.068 2.051,11.229 L25.949,11.229 C25.982,11.068 26,10.899 26,10.728 L26,10.728 Z M11.488,6.228 L11.518,6.193 L11.555,6.228 L11.488,6.228 L11.488,6.228 Z M16.445,6.228 L16.483,6.193 L16.512,6.228 L16.445,6.228 L16.445,6.228 Z" id="Fill-63" fill="#F1C40F" sketch:type="MSShapeGroup"></path>
            </g>
        </g>
    </g>
</svg>