<?xml version="1.0" encoding="UTF-8" standalone="no"?>
<svg width="28px" height="28px" viewBox="0 0 28 28" version="1.1" xmlns="http://www.w3.org/2000/svg" xmlns:xlink="http://www.w3.org/1999/xlink" xmlns:sketch="http://www.bohemiancoding.com/sketch/ns">
    <!-- Generator: Sketch 3.3 (11970) - http://www.bohemiancoding.com/sketch -->
    <title>potato</title>
    <desc>Created with Sketch.</desc>
    <defs></defs>
    <g id="Page-1" stroke="none" stroke-width="1" fill="none" fill-rule="evenodd" sketch:type="MSPage">
        <g id="Symbolicons-Color" sketch:type="MSArtboardGroup" transform="translate(-644.000000, -812.000000)">
            <g id="potato" sketch:type="MSLayerGroup" transform="translate(644.000000, 812.000000)">
                <path d="M20.378,0.026 C16.657,0.487 15.116,4.59 11.749,5.771 C8.179,6.886 6.348,11.25 3.863,13.767 C0.983,16.693 -1.37,20.167 0.926,24.28 C2.868,27.756 7.28,28.974 10.614,26.697 C13.543,24.691 18.486,24.51 20.45,21.462 C22.321,18.547 22.804,15.501 25.285,12.877 C32.191,5.564 24.194,-0.444 20.378,0.026" id="Fill-1060" fill="#BE9664" sketch:type="MSShapeGroup"></path>
                <path d="M18.995,10 C18.446,10 18,10.449 18,11 C18,11.552 18.446,12 18.995,12 C19.549,12 20,11.552 20,11 C20,10.449 19.549,10 18.995,10 L18.995,10 Z M21,3 C20.449,3 20,3.449 20,4.001 C20,4.552 20.449,5.001 21,5.001 C21.552,5.001 22,4.552 22,4.001 C22,3.449 21.552,3 21,3 L21,3 Z M13.994,18 C13.446,18 13,18.448 13,18.998 C13,19.55 13.446,20 13.994,20 C14.549,20 15,19.55 15,18.998 C15,18.448 14.549,18 13.994,18 L13.994,18 Z M11.066,9 C10.513,9 10.064,9.45 10.064,10.001 C10.064,10.555 10.513,11.005 11.066,11.005 C11.616,11.005 12.064,10.555 12.064,10.001 C12.064,9.45 11.616,9 11.066,9 L11.066,9 Z M6.001,21 C5.449,21 5,21.45 5,22.001 C5,22.552 5.449,23 6.001,23 C6.552,23 7,22.552 7,22.001 C7,21.45 6.552,21 6.001,21 L6.001,21 Z" id="Fill-1061" fill="#A57D52" sketch:type="MSShapeGroup"></path>
            </g>
        </g>
    </g>
</svg>