<?xml version="1.0" encoding="UTF-8" standalone="no"?>
<svg width="28px" height="28px" viewBox="0 0 28 28" version="1.1" xmlns="http://www.w3.org/2000/svg" xmlns:xlink="http://www.w3.org/1999/xlink" xmlns:sketch="http://www.bohemiancoding.com/sketch/ns">
    <!-- Generator: Sketch 3.3 (11970) - http://www.bohemiancoding.com/sketch -->
    <title>raft</title>
    <desc>Created with Sketch.</desc>
    <defs></defs>
    <g id="Page-1" stroke="none" stroke-width="1" fill="none" fill-rule="evenodd" sketch:type="MSPage">
        <g id="Symbolicons-Color" sketch:type="MSArtboardGroup" transform="translate(-868.000000, -308.000000)">
            <g id="raft" sketch:type="MSLayerGroup" transform="translate(868.000000, 308.000000)">
                <path d="M16,23.455 C16,24.736 14.918,25.818 13.637,25.818 L5.364,25.818 C4.083,25.818 3,24.736 3,23.455 L3,4.546 C3,3.264 4.083,2.182 5.364,2.182 L13.637,2.182 C14.918,2.182 16,3.264 16,4.546 L16,23.455" id="Fill-725" fill="#ECECEC" sketch:type="MSShapeGroup"></path>
                <path d="M3,9 L16,9 L16,12 L3,12 L3,9 Z" id="Fill-726" fill="#A0A0A0" sketch:type="MSShapeGroup"></path>
                <path d="M3,16 L16,16 L16,19 L3,19 L3,16 Z" id="Fill-727" fill="#A0A0A0" sketch:type="MSShapeGroup"></path>
                <path d="M26,2 L23,2 C22.447,2 22,1.552 22,1 C22,0.448 22.447,0 23,0 L26,0 C26.553,0 27,0.448 27,1 C27,1.552 26.553,2 26,2" id="Fill-728" fill="#8C5A3C" sketch:type="MSShapeGroup"></path>
                <path d="M26,2 L23,2 L23,12 L21,20 L21,26 C21,27.1 21.9,28 23,28 L26,28 C27.1,28 28,27.1 28,26 L28,20 L26,12 L26,2" id="Fill-729" fill="#A57D52" sketch:type="MSShapeGroup"></path>
                <path d="M10,4 C12.757,4 15,6.243 15,9 L15,19 C15,21.757 12.757,24 10,24 L9,24 C6.243,24 4,21.757 4,19 L4,9 C4,6.243 6.243,4 9,4 L10,4 M10,0 L9,0 C4.05,0 0,4.05 0,9 L0,19 C0,23.95 4.05,28 9,28 L10,28 C14.95,28 19,23.95 19,19 L19,9 C19,4.05 14.95,0 10,0" id="Fill-730" fill="#F39C12" sketch:type="MSShapeGroup"></path>
            </g>
        </g>
    </g>
</svg>