<?xml version="1.0" encoding="UTF-8" standalone="no"?>
<svg width="28px" height="27px" viewBox="0 0 28 27" version="1.1" xmlns="http://www.w3.org/2000/svg" xmlns:xlink="http://www.w3.org/1999/xlink" xmlns:sketch="http://www.bohemiancoding.com/sketch/ns">
    <!-- Generator: Sketch 3.3 (11970) - http://www.bohemiancoding.com/sketch -->
    <title>salt-pepper</title>
    <desc>Created with Sketch.</desc>
    <defs></defs>
    <g id="Page-1" stroke="none" stroke-width="1" fill="none" fill-rule="evenodd" sketch:type="MSPage">
        <g id="Symbolicons-Color" sketch:type="MSArtboardGroup" transform="translate(-644.000000, -365.000000)">
            <g id="salt-pepper" sketch:type="MSLayerGroup" transform="translate(644.000000, 365.000000)">
                <path d="M14,4 C14,1.791 11.09,0 7.5,0 C3.91,0 1,1.791 1,4 L1,6 L14,6 L14,4 L14,4 Z M4.5,3.25 C4.086,3.25 3.75,2.914 3.75,2.5 C3.75,2.086 4.086,1.75 4.5,1.75 C4.914,1.75 5.25,2.086 5.25,2.5 C5.25,2.914 4.914,3.25 4.5,3.25 L4.5,3.25 Z M7.5,2.25 C7.086,2.25 6.75,1.914 6.75,1.5 C6.75,1.086 7.086,0.75 7.5,0.75 C7.914,0.75 8.25,1.086 8.25,1.5 C8.25,1.914 7.914,2.25 7.5,2.25 L7.5,2.25 Z M10.5,3.25 C10.086,3.25 9.75,2.914 9.75,2.5 C9.75,2.086 10.086,1.75 10.5,1.75 C10.914,1.75 11.25,2.086 11.25,2.5 C11.25,2.914 10.914,3.25 10.5,3.25 L10.5,3.25 Z" id="Fill-1006" fill="#918F90" sketch:type="MSShapeGroup"></path>
                <path d="M14,6 L1,6 L0.151,18.003 C0.108,18.552 0.524,19 1.074,19 L14,19 C14.55,19 14.966,18.552 14.923,18.003 L14,6" id="Fill-1007" fill="#505050" sketch:type="MSShapeGroup"></path>
                <path d="M27.074,12 C27.074,9.791 24.164,8 20.574,8 C16.984,8 14.074,9.791 14.074,12 L14.074,14 L27.074,14 L27.074,12 L27.074,12 Z M17.574,11.25 C17.16,11.25 16.824,10.914 16.824,10.5 C16.824,10.086 17.16,9.75 17.574,9.75 C17.988,9.75 18.324,10.086 18.324,10.5 C18.324,10.914 17.988,11.25 17.574,11.25 L17.574,11.25 Z M20.574,10.25 C20.16,10.25 19.824,9.914 19.824,9.5 C19.824,9.086 20.16,8.75 20.574,8.75 C20.988,8.75 21.324,9.086 21.324,9.5 C21.324,9.914 20.988,10.25 20.574,10.25 L20.574,10.25 Z M23.574,11.25 C23.16,11.25 22.824,10.914 22.824,10.5 C22.824,10.086 23.16,9.75 23.574,9.75 C23.988,9.75 24.324,10.086 24.324,10.5 C24.324,10.914 23.988,11.25 23.574,11.25 L23.574,11.25 Z" id="Fill-1008" fill="#918F90" sketch:type="MSShapeGroup"></path>
                <path d="M27.074,14 L14.074,14 L13.226,26.003 C13.183,26.552 13.599,27 14.149,27 L27.074,27 C27.624,27 28.04,26.552 27.997,26.003 L27.074,14" id="Fill-1009" fill="#CFCFCF" sketch:type="MSShapeGroup"></path>
            </g>
        </g>
    </g>
</svg>