<?xml version="1.0" encoding="UTF-8" standalone="no"?>
<svg width="26px" height="26px" viewBox="0 0 26 26" version="1.1" xmlns="http://www.w3.org/2000/svg" xmlns:xlink="http://www.w3.org/1999/xlink" xmlns:sketch="http://www.bohemiancoding.com/sketch/ns">
    <!-- Generator: Sketch 3.3 (11970) - http://www.bohemiancoding.com/sketch -->
    <title>sausages</title>
    <desc>Created with Sketch.</desc>
    <defs></defs>
    <g id="Page-1" stroke="none" stroke-width="1" fill="none" fill-rule="evenodd" sketch:type="MSPage">
        <g id="Symbolicons-Color" sketch:type="MSArtboardGroup" transform="translate(-645.000000, -197.000000)">
            <g id="sausages" sketch:type="MSLayerGroup" transform="translate(645.000000, 197.000000)">
                <path d="M3,18 C1.343,18 0,16.657 0,15 C0,13.343 1.343,12 3,12 C7.964,12 12.002,7.962 12.002,3 C12.002,1.343 13.345,0 15.002,0 C16.659,0 18.002,1.343 18.002,3 C18.002,11.271 11.272,18 3,18" id="Fill-586" fill="#8C5A3C" sketch:type="MSShapeGroup"></path>
                <path d="M4.5,14 C4.775,14 5,13.775 5,13.5 L5,11.768 C4.672,11.843 4.34,11.903 4,11.941 L4,13.5 C4,13.775 4.225,14 4.5,14" id="Fill-587" fill="#503C1D" sketch:type="MSShapeGroup"></path>
                <path d="M14,4.5 C14,4.225 13.775,4 13.5,4 L11.943,4 C11.905,4.34 11.845,4.672 11.77,5 L13.5,5 C13.775,5 14,4.775 14,4.5" id="Fill-588" fill="#503C1D" sketch:type="MSShapeGroup"></path>
                <path d="M9.939,10.647 C10.134,10.841 10.452,10.841 10.647,10.647 C10.841,10.452 10.841,10.134 10.647,9.939 L9.699,8.991 C9.476,9.24 9.24,9.476 8.991,9.698 L9.939,10.647" id="Fill-589" fill="#503C1D" sketch:type="MSShapeGroup"></path>
                <path d="M11,26 C9.343,26 8,24.657 8,23 C8,21.343 9.343,20 11,20 C15.964,20 20.002,15.962 20.002,11 C20.002,9.343 21.345,8 23.002,8 C24.659,8 26.002,9.343 26.002,11 C26.002,19.271 19.273,26 11,26" id="Fill-590" fill="#8C5A3C" sketch:type="MSShapeGroup"></path>
                <path d="M12.5,22 C12.775,22 13,21.775 13,21.5 L13,19.768 C12.672,19.843 12.34,19.903 12,19.941 L12,21.5 C12,21.775 12.225,22 12.5,22" id="Fill-591" fill="#503C1D" sketch:type="MSShapeGroup"></path>
                <path d="M22,12.5 C22,12.225 21.775,12 21.5,12 L19.943,12 C19.905,12.34 19.845,12.672 19.77,13 L21.5,13 C21.775,13 22,12.775 22,12.5" id="Fill-592" fill="#503C1D" sketch:type="MSShapeGroup"></path>
                <path d="M17.939,18.646 C18.134,18.841 18.452,18.841 18.646,18.646 C18.841,18.452 18.841,18.134 18.646,17.939 L17.698,16.991 C17.476,17.24 17.24,17.476 16.991,17.698 L17.939,18.646" id="Fill-593" fill="#503C1D" sketch:type="MSShapeGroup"></path>
            </g>
        </g>
    </g>
</svg>