<?xml version="1.0" encoding="UTF-8" standalone="no"?>
<svg width="28px" height="28px" viewBox="0 0 28 28" version="1.1" xmlns="http://www.w3.org/2000/svg" xmlns:xlink="http://www.w3.org/1999/xlink" xmlns:sketch="http://www.bohemiancoding.com/sketch/ns">
    <!-- Generator: Sketch 3.3 (11970) - http://www.bohemiancoding.com/sketch -->
    <title>saw</title>
    <desc>Created with Sketch.</desc>
    <defs></defs>
    <g id="Page-1" stroke="none" stroke-width="1" fill="none" fill-rule="evenodd" sketch:type="MSPage">
        <g id="Symbolicons-Color" sketch:type="MSArtboardGroup" transform="translate(-812.000000, -308.000000)">
            <g id="saw" sketch:type="MSLayerGroup" transform="translate(812.000000, 307.000000)">
                <path d="M13.07,8.004 L0,24 L5,29 L8,29 L8,26 L11,26 L11,23 L14,23 L14,20 L17,20 L17,17 L20,17 L20,13.745 L21.139,12.201 L14.374,7.389 L13.75,7.269 L13.07,8.004" id="Fill-134" fill="#BEBEBE" sketch:type="MSShapeGroup"></path>
                <path d="M27.607,7.486 C27.148,7.106 26.464,7.173 26.086,7.635 L26.086,7.635 L20.223,2.775 C20.6,2.313 20.534,1.626 20.075,1.246 C19.616,0.866 18.931,0.934 18.554,1.395 L13.75,7.269 L21.282,13.508 C22.2,14.267 23.569,14.133 24.323,13.21 L27.755,9.015 C28.133,8.553 28.066,7.865 27.607,7.486 L27.607,7.486 Z M24.027,10.152 L23.34,10.991 C22.963,11.452 22.279,11.519 21.82,11.14 L17.626,7.661 C17.167,7.281 17.1,6.593 17.478,6.132 L18.164,5.293 C18.541,4.831 19.226,4.764 19.685,5.143 L23.878,8.623 C24.338,9.002 24.404,9.69 24.027,10.152 L24.027,10.152 Z" id="Fill-135" fill="#A57D52" sketch:type="MSShapeGroup"></path>
            </g>
        </g>
    </g>
</svg>