<?xml version="1.0" encoding="UTF-8" standalone="no"?>
<svg width="24px" height="28px" viewBox="0 0 24 28" version="1.1" xmlns="http://www.w3.org/2000/svg" xmlns:xlink="http://www.w3.org/1999/xlink" xmlns:sketch="http://www.bohemiancoding.com/sketch/ns">
    <!-- Generator: Sketch 3.3 (11970) - http://www.bohemiancoding.com/sketch -->
    <title>scissors</title>
    <desc>Created with Sketch.</desc>
    <defs></defs>
    <g id="Page-1" stroke="none" stroke-width="1" fill="none" fill-rule="evenodd" sketch:type="MSPage">
        <g id="Symbolicons-Color" sketch:type="MSArtboardGroup" transform="translate(-534.000000, -588.000000)">
            <g id="scissors" sketch:type="MSLayerGroup" transform="translate(534.000000, 587.000000)">
                <path d="M7.632,9.968 C5.622,11.149 2.896,10.196 1.522,7.856 C1.011,6.97 0.761,6.016 0.761,5.107 C0.761,3.608 1.431,2.234 2.68,1.507 C4.69,0.326 7.416,1.28 8.79,3.62 L19.964,21.414 C20.373,22.061 20.532,23.197 20.316,23.935 L18.84,29 C18.84,29 8.711,9.4 8.586,9.128 C8.313,9.457 8.007,9.752 7.632,9.968 L7.632,9.968 Z M6.212,7.549 C6.712,7.265 6.746,6.572 6.746,6.368 C6.746,5.914 6.61,5.459 6.36,5.028 C6.019,4.437 5.485,3.994 4.929,3.847 C4.702,3.79 4.384,3.756 4.1,3.926 C3.6,4.21 3.566,4.903 3.566,5.107 C3.566,5.55 3.691,6.016 3.941,6.448 C4.293,7.038 4.827,7.481 5.383,7.628 C5.61,7.685 5.928,7.72 6.212,7.549 L6.212,7.549 Z" id="Fill-1150" fill="#8C8C8C" sketch:type="MSShapeGroup"></path>
                <path d="M15.414,9.128 C15.289,9.4 5.16,29 5.16,29 L3.684,23.935 C3.468,23.197 3.627,22.061 4.036,21.414 L15.21,3.62 C16.584,1.28 19.31,0.326 21.32,1.507 C22.569,2.234 23.239,3.608 23.239,5.107 C23.239,6.016 22.989,6.97 22.478,7.856 C21.104,10.196 18.379,11.149 16.368,9.968 C15.993,9.752 15.687,9.457 15.414,9.128 L15.414,9.128 Z M18.617,7.628 C19.173,7.481 19.707,7.038 20.059,6.448 C20.309,6.016 20.434,5.55 20.434,5.107 C20.434,4.903 20.4,4.21 19.9,3.926 C19.616,3.756 19.298,3.79 19.071,3.847 C18.515,3.994 17.981,4.437 17.64,5.028 C17.39,5.459 17.254,5.914 17.254,6.368 C17.254,6.572 17.288,7.265 17.788,7.549 C18.072,7.72 18.39,7.685 18.617,7.628 L18.617,7.628 Z" id="Fill-1151" fill="#A0A0A0" sketch:type="MSShapeGroup"></path>
                <path d="M12.835,12.074 C12.835,12.488 12.499,12.824 12.085,12.824 C11.671,12.824 11.335,12.488 11.335,12.074 C11.335,11.659 11.671,11.324 12.085,11.324 C12.499,11.324 12.835,11.659 12.835,12.074" id="Fill-1152" fill="#8C8C8C" sketch:type="MSShapeGroup"></path>
            </g>
        </g>
    </g>
</svg>