<?xml version="1.0" encoding="UTF-8" standalone="no"?>
<svg width="28px" height="28px" viewBox="0 0 28 28" version="1.1" xmlns="http://www.w3.org/2000/svg" xmlns:xlink="http://www.w3.org/1999/xlink" xmlns:sketch="http://www.bohemiancoding.com/sketch/ns">
    <!-- Generator: Sketch 3.3 (11970) - http://www.bohemiancoding.com/sketch -->
    <title>sheep</title>
    <desc>Created with Sketch.</desc>
    <defs></defs>
    <g id="Page-1" stroke="none" stroke-width="1" fill="none" fill-rule="evenodd" sketch:type="MSPage">
        <g id="Symbolicons-Color" sketch:type="MSArtboardGroup" transform="translate(-644.000000, -980.000000)">
            <g id="sheep" sketch:type="MSLayerGroup" transform="translate(644.000000, 980.000000)">
                <path d="M13,28 L9,28 L8,18 L14,18 L13,28" id="Fill-594" fill="#8C8C8C" sketch:type="MSShapeGroup"></path>
                <path d="M19,28 L15,28 L14,18 L20,18 L19,28" id="Fill-595" fill="#8C8C8C" sketch:type="MSShapeGroup"></path>
                <path d="M28,11.5 C28,10.742 27.226,10.115 25.639,9.595 C26.862,8.61 27.281,7.779 26.919,7.067 C26.573,6.386 25.564,6.07 23.821,6.099 C24.499,4.793 24.514,3.866 23.865,3.336 C23.245,2.833 22.129,2.879 20.52,3.466 C20.556,1.683 19.914,1.062 19.328,0.865 C18.537,0.597 17.503,1.002 16.279,2.064 C15.486,0.377 14.618,0 14,0 C13.382,0 12.514,0.377 11.721,2.064 C10.498,1.002 9.462,0.599 8.672,0.864 C8.086,1.062 7.444,1.683 7.48,3.466 C5.872,2.878 4.755,2.832 4.136,3.336 C3.486,3.866 3.501,4.793 4.179,6.099 C2.444,6.073 1.427,6.386 1.081,7.067 C0.718,7.779 1.138,8.61 2.361,9.595 C0.774,10.115 0,10.742 0,11.5 C0,12.258 0.774,12.885 2.361,13.405 C1.138,14.39 0.718,15.222 1.081,15.933 C1.427,16.614 2.44,16.927 4.179,16.901 C3.501,18.207 3.486,19.134 4.136,19.664 C4.537,19.99 5.168,20.061 5.982,19.929 C6.188,21.101 7.21,22 8.438,22 L19.562,22 C20.79,22 21.813,21.101 22.018,19.929 C22.833,20.06 23.464,19.989 23.865,19.664 C24.514,19.134 24.499,18.207 23.821,16.901 L24.035,16.903 C25.645,16.903 26.587,16.586 26.919,15.933 C27.281,15.222 26.862,14.39 25.639,13.405 C27.226,12.885 28,12.258 28,11.5" id="Fill-596" fill="#BEBEBE" sketch:type="MSShapeGroup"></path>
                <path d="M13.984,23.577 C16.895,23.577 19.25,21.219 19.25,18.312 L19.25,16.057 C19.459,16.077 19.676,16.088 19.898,16.088 C21.66,16.088 23.092,15.393 23.092,14.534 C23.092,13.676 21.66,12.98 19.898,12.98 C19.641,12.98 19.389,12.997 19.148,13.025 C18.674,10.607 16.543,8.781 13.984,8.781 C11.426,8.781 9.295,10.607 8.82,13.025 C8.578,12.997 8.33,12.98 8.072,12.98 C6.309,12.98 4.877,13.676 4.877,14.534 C4.877,15.393 6.309,16.088 8.072,16.088 C8.293,16.088 8.51,16.077 8.719,16.057 L8.719,18.312 C8.719,21.219 11.076,23.577 13.984,23.577" id="Fill-597" fill="#323232" sketch:type="MSShapeGroup"></path>
                <path d="M16,14 C16.553,14 17,14.449 17,15 C17,15.553 16.553,16 16,16 C15.447,16 15,15.553 15,15 C15,14.449 15.447,14 16,14" id="Fill-598" fill="#FFFFFF" sketch:type="MSShapeGroup"></path>
                <path d="M12,14 C12.553,14 13,14.449 13,15 C13,15.553 12.553,16 12,16 C11.447,16 11,15.553 11,15 C11,14.449 11.447,14 12,14" id="Fill-599" fill="#FFFFFF" sketch:type="MSShapeGroup"></path>
            </g>
        </g>
    </g>
</svg>