<?xml version="1.0" encoding="UTF-8" standalone="no"?>
<svg width="28px" height="28px" viewBox="0 0 28 28" version="1.1" xmlns="http://www.w3.org/2000/svg" xmlns:xlink="http://www.w3.org/1999/xlink" xmlns:sketch="http://www.bohemiancoding.com/sketch/ns">
    <!-- Generator: Sketch 3.3 (11970) - http://www.bohemiancoding.com/sketch -->
    <title>soccer-ball</title>
    <desc>Created with Sketch.</desc>
    <defs></defs>
    <g id="Page-1" stroke="none" stroke-width="1" fill="none" fill-rule="evenodd" sketch:type="MSPage">
        <g id="Symbolicons-Color" sketch:type="MSArtboardGroup" transform="translate(-812.000000, -756.000000)">
            <g id="soccer-ball" sketch:type="MSLayerGroup" transform="translate(812.000000, 756.000000)">
                <path d="M0,14 C0,6.268 6.268,0 14,0 C21.732,0 28,6.268 28,14 C28,21.732 21.732,28 14,28 C6.268,28 0,21.732 0,14" id="Fill-623" fill="#ECECEC" sketch:type="MSShapeGroup"></path>
                <path d="M13.5,2.29 L14.5,2.29 L14.5,14.13 L13.5,14.13 L13.5,2.29 Z" id="Fill-624" fill="#BEBEBE" sketch:type="MSShapeGroup"></path>
                <path d="M14.154,13.655 L2.894,9.996 L2.585,10.947 L13.845,14.606" id="Fill-625" fill="#BEBEBE" sketch:type="MSShapeGroup"></path>
                <path d="M13.595,13.837 L6.636,23.416 L7.445,24.004 L14.404,14.424" id="Fill-626" fill="#BEBEBE" sketch:type="MSShapeGroup"></path>
                <path d="M13.595,14.424 L20.555,24.004 L21.364,23.416 L14.404,13.837" id="Fill-627" fill="#BEBEBE" sketch:type="MSShapeGroup"></path>
                <path d="M14.154,14.606 L25.415,10.947 L25.106,9.996 L13.845,13.655" id="Fill-628" fill="#BEBEBE" sketch:type="MSShapeGroup"></path>
                <path d="M10.751,18.5 L8.743,12.32 L14,8.5 L19.257,12.32 L17.249,18.5 L10.751,18.5" id="Fill-629" fill="#505050" sketch:type="MSShapeGroup"></path>
                <path d="M18.935,27.088 C21.298,26.196 23.358,24.693 24.913,22.758 L20.342,22.758 L18.935,27.088" id="Fill-630" fill="#505050" sketch:type="MSShapeGroup"></path>
                <path d="M25.688,6.303 L24.261,10.696 L27.969,13.391 C27.856,10.779 27.041,8.353 25.688,6.303" id="Fill-631" fill="#505050" sketch:type="MSShapeGroup"></path>
                <path d="M3.739,10.696 L2.312,6.303 C0.959,8.353 0.143,10.779 0.031,13.391 L3.739,10.696" id="Fill-632" fill="#505050" sketch:type="MSShapeGroup"></path>
                <path d="M10.256,0.521 L14,3.241 L17.744,0.521 C16.55,0.191 15.299,0 14,0 C12.702,0 11.45,0.191 10.256,0.521" id="Fill-633" fill="#505050" sketch:type="MSShapeGroup"></path>
                <path d="M7.658,22.758 L3.087,22.758 C4.642,24.693 6.702,26.196 9.065,27.088 L7.658,22.758" id="Fill-634" fill="#505050" sketch:type="MSShapeGroup"></path>
            </g>
        </g>
    </g>
</svg>