<?xml version="1.0" encoding="UTF-8" standalone="no"?>
<svg width="18px" height="26px" viewBox="0 0 18 26" version="1.1" xmlns="http://www.w3.org/2000/svg" xmlns:xlink="http://www.w3.org/1999/xlink" xmlns:sketch="http://www.bohemiancoding.com/sketch/ns">
    <!-- Generator: Sketch 3.3 (11970) - http://www.bohemiancoding.com/sketch -->
    <title>soda-glass</title>
    <desc>Created with Sketch.</desc>
    <defs></defs>
    <g id="Page-1" stroke="none" stroke-width="1" fill="none" fill-rule="evenodd" sketch:type="MSPage">
        <g id="Symbolicons-Color" sketch:type="MSArtboardGroup" transform="translate(-201.000000, -814.000000)">
            <g id="soda-glass" sketch:type="MSLayerGroup" transform="translate(201.000000, 814.000000)">
                <path d="M0,5 L0,23.5 C0,24.88 1.119,26 2.5,26 L15.5,26 C16.881,26 18,24.88 18,23.5 L18,5 L0,5" id="Fill-340" fill="#8C5A3C" sketch:type="MSShapeGroup"></path>
                <path d="M0,0 L18,0 L18,5 L0,5 L0,0 Z" id="Fill-341" fill="#BEE6FA" sketch:type="MSShapeGroup"></path>
                <path d="M12.293,9.292 C12.683,8.902 13.317,8.903 13.706,9.292 C14.097,9.682 14.097,10.317 13.708,10.706 C13.316,11.097 12.682,11.097 12.292,10.706 C11.903,10.317 11.902,9.683 12.293,9.292" id="Fill-342" fill="#B49480" sketch:type="MSShapeGroup"></path>
                <path d="M11.293,18.292 C11.683,17.902 12.317,17.903 12.706,18.292 C13.097,18.682 13.097,19.317 12.707,19.706 C12.316,20.097 11.682,20.097 11.292,19.706 C10.903,19.317 10.902,18.683 11.293,18.292" id="Fill-343" fill="#B49480" sketch:type="MSShapeGroup"></path>
                <path d="M6.293,10.292 C6.683,9.902 7.317,9.903 7.706,10.292 C8.097,10.682 8.097,11.317 7.708,11.707 C7.316,12.097 6.682,12.097 6.292,11.707 C5.903,11.317 5.902,10.683 6.293,10.292" id="Fill-344" fill="#B49480" sketch:type="MSShapeGroup"></path>
                <path d="M5.561,15.56 C4.974,16.146 4.023,16.147 3.439,15.562 C2.852,14.975 2.852,14.024 3.438,13.438 C4.024,12.852 4.975,12.852 5.561,13.439 C6.147,14.024 6.147,14.974 5.561,15.56" id="Fill-345" fill="#B49480" sketch:type="MSShapeGroup"></path>
            </g>
        </g>
    </g>
</svg>