<?xml version="1.0" encoding="UTF-8" standalone="no"?>
<svg width="20px" height="28px" viewBox="0 0 20 28" version="1.1" xmlns="http://www.w3.org/2000/svg" xmlns:xlink="http://www.w3.org/1999/xlink" xmlns:sketch="http://www.bohemiancoding.com/sketch/ns">
    <!-- Generator: Sketch 3.3 (11970) - http://www.bohemiancoding.com/sketch -->
    <title>soda-cup</title>
    <desc>Created with Sketch.</desc>
    <defs></defs>
    <g id="Page-1" stroke="none" stroke-width="1" fill="none" fill-rule="evenodd" sketch:type="MSPage">
        <g id="Symbolicons-Color" sketch:type="MSArtboardGroup" transform="translate(-312.000000, -756.000000)">
            <g id="soda-cup" sketch:type="MSLayerGroup" transform="translate(312.000000, 756.000000)">
                <path d="M9.929,11.372 L8.071,10.628 L12.323,0 L19,0 L19,2 L13.677,2 L9.929,11.372" id="Fill-335" fill="#BEBEBE" sketch:type="MSShapeGroup"></path>
                <path d="M0,8 L20,8 L20,10 L0,10 L0,8 Z" id="Fill-336" fill="#ECECEC" sketch:type="MSShapeGroup"></path>
                <path d="M2.137,19.662 L3.118,28 L16.882,28 L17.543,22.385 C10.09,22.803 9.198,19.467 2.137,19.662" id="Fill-337" fill="#C0392B" sketch:type="MSShapeGroup"></path>
                <path d="M17.842,19.55 L17.876,19.551 L19,10 L1,10 L1.52,14.417 C9.616,15.096 9.49,18.969 17.842,19.55" id="Fill-338" fill="#C0392B" sketch:type="MSShapeGroup"></path>
                <path d="M17.543,22.385 L17.876,19.551 L17.842,19.55 C9.49,18.969 9.616,15.096 1.52,14.417 L2.137,19.662 C9.198,19.467 10.09,22.803 17.543,22.385" id="Fill-339" fill="#ECECEC" sketch:type="MSShapeGroup"></path>
            </g>
        </g>
    </g>
</svg>