<?xml version="1.0" encoding="UTF-8" standalone="no"?>
<svg width="28px" height="28px" viewBox="0 0 28 28" version="1.1" xmlns="http://www.w3.org/2000/svg" xmlns:xlink="http://www.w3.org/1999/xlink" xmlns:sketch="http://www.bohemiancoding.com/sketch/ns">
    <!-- Generator: Sketch 3.3 (11970) - http://www.bohemiancoding.com/sketch -->
    <title>sportsball</title>
    <desc>Created with Sketch.</desc>
    <defs></defs>
    <g id="Page-1" stroke="none" stroke-width="1" fill="none" fill-rule="evenodd" sketch:type="MSPage">
        <g id="Symbolicons-Color" sketch:type="MSArtboardGroup" transform="translate(-924.000000, -812.000000)">
            <g id="sportsball" sketch:type="MSLayerGroup" transform="translate(924.000000, 811.000000)">
                <path d="M27.122,15.175 C27.552,13.512 27.806,11.829 27.924,10.223 C28.178,6.743 27.775,3.644 27.008,2.016 L26.998,2.006 C25.841,1.455 23.948,1.085 21.679,1.012 C20.762,0.983 19.785,1.005 18.777,1.079 C17.174,1.198 15.491,1.46 13.832,1.888 C10.677,2.703 7.612,4.126 5.366,6.372 C3.12,8.618 1.692,11.678 0.878,14.826 C0.448,16.489 0.194,18.172 0.076,19.778 C-0.178,23.258 0.225,26.357 0.992,27.984 L1.002,27.994 C2.159,28.545 4.052,28.915 6.321,28.988 C7.238,29.017 8.214,28.995 9.221,28.921 C10.825,28.802 12.508,28.541 14.167,28.112 C17.322,27.297 20.388,25.874 22.634,23.628 C24.88,21.382 26.307,18.323 27.122,15.175" id="Fill-1055" fill="#E5E5E4" sketch:type="MSShapeGroup"></path>
                <path d="M27.008,2.016 L26.998,2.006 C26.844,1.933 26.675,1.863 26.496,1.797 L18.261,10.033 C16.064,7.667 14.894,4.701 14.708,1.684 C14.416,1.749 14.123,1.813 13.832,1.888 L13.722,1.919 C13.957,5.111 15.22,8.24 17.553,10.739 L14,14.293 L5.739,6.032 C5.615,6.146 5.485,6.254 5.366,6.372 C5.249,6.489 5.144,6.617 5.031,6.738 L13.293,15 L9.739,18.553 C7.237,16.217 4.103,14.954 0.908,14.721 L0.878,14.826 C0.802,15.12 0.738,15.414 0.673,15.707 C3.693,15.892 6.664,17.061 9.032,19.261 L0.797,27.496 C0.86,27.666 0.923,27.837 0.992,27.984 L1.002,27.994 C1.156,28.067 1.325,28.137 1.504,28.203 L9.739,19.968 C11.936,22.333 13.105,25.3 13.292,28.316 C13.584,28.251 13.876,28.187 14.167,28.112 L14.278,28.081 C14.043,24.889 12.78,21.76 10.447,19.261 L14,15.707 L22.261,23.969 C22.385,23.854 22.515,23.747 22.634,23.628 C22.751,23.511 22.856,23.383 22.969,23.262 L14.707,15 L18.261,11.447 C20.763,13.783 23.897,15.046 27.092,15.279 L27.122,15.175 C27.198,14.881 27.262,14.587 27.327,14.293 C24.307,14.108 21.336,12.939 18.967,10.739 L27.203,2.504 C27.14,2.334 27.077,2.163 27.008,2.016" id="Fill-1056" fill="#BE1E2D" sketch:type="MSShapeGroup"></path>
            </g>
        </g>
    </g>
</svg>