<?xml version="1.0" encoding="UTF-8" standalone="no"?>
<svg width="28px" height="28px" viewBox="0 0 28 28" version="1.1" xmlns="http://www.w3.org/2000/svg" xmlns:xlink="http://www.w3.org/1999/xlink" xmlns:sketch="http://www.bohemiancoding.com/sketch/ns">
    <!-- Generator: Sketch 3.3 (11970) - http://www.bohemiancoding.com/sketch -->
    <title>steak</title>
    <desc>Created with Sketch.</desc>
    <defs></defs>
    <g id="Page-1" stroke="none" stroke-width="1" fill="none" fill-rule="evenodd" sketch:type="MSPage">
        <g id="Symbolicons-Color" sketch:type="MSArtboardGroup" transform="translate(-252.000000, -1036.000000)">
            <g id="steak" sketch:type="MSLayerGroup" transform="translate(252.000000, 1036.000000)">
                <path d="M1.356,26.048 C3.39,28.838 10.653,28.543 17.66,25.763 C29.023,21.253 29.336,15.267 26.523,8.532 C25.961,7.19 25.285,5.989 24.522,4.945 C21.458,0.743 17.02,-0.976 13.25,0.548 C8.544,2.454 8.635,5.763 8.755,10.181 C8.863,14.043 6.835,16.282 3.579,17.948 C0.324,19.614 -1.352,22.335 1.356,26.048" id="Fill-303" fill="#ECDFD0" sketch:type="MSShapeGroup"></path>
                <path d="M2.268,22.11 C2.436,21.317 3.296,20.516 4.613,19.843 C9.007,17.594 11.087,14.414 10.968,10.122 C10.84,5.473 10.956,3.802 14.105,2.527 C14.737,2.271 15.4,2.147 16.075,2.147 C18.377,2.147 20.826,3.591 22.713,6.181 C23.395,7.115 23.988,8.176 24.47,9.336 C26.995,15.378 26.595,19.901 16.82,23.78 C12.963,25.311 9.85,25.799 7.564,25.799 C5.131,25.799 3.633,25.247 3.166,24.812 C2.613,24.297 1.988,23.438 2.268,22.11" id="Fill-304" fill="#921816" sketch:type="MSShapeGroup"></path>
                <path d="M9.543,21.085 C9.603,21.051 15.488,17.544 16.547,13.092 C16.912,11.561 15.841,8.606 15.83,8.576 C15.765,8.399 15.824,8.2 15.975,8.086 C16.124,7.973 16.333,7.971 16.484,8.082 C19.139,10.017 20.659,12.761 21.002,16.239 C21.02,16.43 20.909,16.612 20.729,16.681 C20.546,16.75 20.345,16.691 20.23,16.535 C19.63,15.723 18.897,15.627 18.225,16.112 C18.144,16.183 17.535,16.791 17.048,17.28 C16.07,18.259 15.524,18.803 15.43,18.886 C12.797,21.101 10.333,21.761 9.874,21.868 L9.868,21.87 L9.789,21.883 C9.608,21.895 9.436,21.791 9.364,21.619 C9.283,21.421 9.359,21.194 9.543,21.085" id="Fill-305" fill="#C0392B" sketch:type="MSShapeGroup"></path>
            </g>
        </g>
    </g>
</svg>