<?xml version="1.0" encoding="UTF-8" standalone="no"?>
<svg width="28px" height="28px" viewBox="0 0 28 28" version="1.1" xmlns="http://www.w3.org/2000/svg" xmlns:xlink="http://www.w3.org/1999/xlink" xmlns:sketch="http://www.bohemiancoding.com/sketch/ns">
    <!-- Generator: Sketch 3.3 (11970) - http://www.bohemiancoding.com/sketch -->
    <title>stick</title>
    <desc>Created with Sketch.</desc>
    <defs></defs>
    <g id="Page-1" stroke="none" stroke-width="1" fill="none" fill-rule="evenodd" sketch:type="MSPage">
        <g id="Symbolicons-Color" sketch:type="MSArtboardGroup" transform="translate(-924.000000, -252.000000)" fill="#8C5A3C">
            <g id="stick" sketch:type="MSLayerGroup" transform="translate(924.000000, 252.000000)">
                <path d="M26.709,0 C24.647,2.176 22.691,5.075 20.755,6.978 C19.976,7.744 19.106,8.416 18.204,9.055 L19.092,3.119 L17.43,2.75 L14.866,11.357 C14.405,11.69 13.95,12.03 13.517,12.392 C11.071,14.434 9.47,17.317 7.3,19.608 C5.664,21.335 2.18,23.237 0,25.057 C0.934,26.038 1.869,27.019 2.803,28 C5.129,25.818 7.931,24.135 10.092,21.795 C10.3,21.549 10.488,21.292 10.687,21.04 L17.485,18.836 L17.034,17.032 L13.157,17.72 C13.91,16.668 14.668,15.619 15.504,14.615 C15.967,14.187 17.183,13.022 17.957,12.43 C19.611,11.184 21.275,10.01 22.69,8.504 C24.352,6.735 25.348,4.565 26.909,2.747 L28,1.188 C27.57,0.792 27.139,0.396 26.709,0" id="Fill-133" sketch:type="MSShapeGroup"></path>
            </g>
        </g>
    </g>
</svg>