<?xml version="1.0" encoding="UTF-8" standalone="no"?>
<svg width="28px" height="28px" viewBox="0 0 28 28" version="1.1" xmlns="http://www.w3.org/2000/svg" xmlns:xlink="http://www.w3.org/1999/xlink" xmlns:sketch="http://www.bohemiancoding.com/sketch/ns">
    <!-- Generator: Sketch 3.3 (11970) - http://www.bohemiancoding.com/sketch -->
    <title>suitcase</title>
    <desc>Created with Sketch.</desc>
    <defs></defs>
    <g id="Page-1" stroke="none" stroke-width="1" fill="none" fill-rule="evenodd" sketch:type="MSPage">
        <g id="Symbolicons-Color" sketch:type="MSArtboardGroup" transform="translate(-196.000000, -476.000000)">
            <g id="suitcase" sketch:type="MSLayerGroup" transform="translate(196.000000, 476.000000)">
                <path d="M21,3.75 C21,1.688 19.312,0 17.25,0 L10.75,0 C8.688,0 7,1.688 7,3.75 L7,7 L9,7 L9,3.75 C9,2.844 9.844,2 10.75,2 L17.25,2 C18.156,2 19,2.844 19,3.75 L19,7 L21,7 L21,3.75" id="Fill-756" fill="#323232" sketch:type="MSShapeGroup"></path>
                <path d="M25,7 L3,7 C1.35,7 0,8.35 0,10 L0,25 C0,26.65 1.35,28 3,28 L25,28 C26.65,28 28,26.65 28,25 L28,10 C28,8.35 26.65,7 25,7" id="Fill-757" fill="#505050" sketch:type="MSShapeGroup"></path>
                <path d="M5,7 L7,7 L7,28 L5,28 L5,7 Z" id="Fill-758" fill="#A0A0A0" sketch:type="MSShapeGroup"></path>
                <path d="M21,7 L23,7 L23,28 L21,28 L21,7 Z" id="Fill-759" fill="#A0A0A0" sketch:type="MSShapeGroup"></path>
            </g>
        </g>
    </g>
</svg>