<?xml version="1.0" encoding="UTF-8" standalone="no"?>
<svg width="32px" height="32px" viewBox="0 0 32 32" version="1.1" xmlns="http://www.w3.org/2000/svg" xmlns:xlink="http://www.w3.org/1999/xlink" xmlns:sketch="http://www.bohemiancoding.com/sketch/ns">
    <!-- Generator: Sketch 3.3 (11970) - http://www.bohemiancoding.com/sketch -->
    <title>sun</title>
    <desc>Created with Sketch.</desc>
    <defs></defs>
    <g id="Page-1" stroke="none" stroke-width="1" fill="none" fill-rule="evenodd" sketch:type="MSPage">
        <g id="Symbolicons-Color" sketch:type="MSArtboardGroup" transform="translate(-306.000000, -586.000000)">
            <g id="sun" sketch:type="MSLayerGroup" transform="translate(306.000000, 586.000000)">
                <path d="M16,0 L16.516,1.453 C17.878,5.281 22.251,7.093 25.921,5.348 L27.314,4.686 L26.652,6.079 C24.907,9.749 26.719,14.122 30.547,15.484 L32,16 L30.547,16.517 C26.719,17.878 24.907,22.252 26.652,25.921 L27.314,27.314 L25.921,26.652 C22.251,24.908 17.878,26.719 16.516,30.547 L16,32 L15.483,30.547 C14.122,26.719 9.748,24.908 6.079,26.652 L4.686,27.314 L5.348,25.921 C7.093,22.252 5.281,17.878 1.453,16.517 L0,16 L1.453,15.484 C5.281,14.122 7.093,9.749 5.348,6.079 L4.686,4.686 L6.079,5.348 C9.748,7.093 14.122,5.281 15.483,1.453 L16,0" id="Fill-971" fill="#F1C40F" sketch:type="MSShapeGroup"></path>
                <path d="M25,16 C25,11.038 20.962,7 16,7 C11.038,7 7,11.038 7,16 C7,20.962 11.038,25 16,25 C20.962,25 25,20.962 25,16" id="Fill-972" fill="#F39C12" sketch:type="MSShapeGroup"></path>
            </g>
        </g>
    </g>
</svg>