<?xml version="1.0" encoding="UTF-8" standalone="no"?>
<svg width="22px" height="28px" viewBox="0 0 22 28" version="1.1" xmlns="http://www.w3.org/2000/svg" xmlns:xlink="http://www.w3.org/1999/xlink" xmlns:sketch="http://www.bohemiancoding.com/sketch/ns">
    <!-- Generator: Sketch 3.3 (11970) - http://www.bohemiancoding.com/sketch -->
    <title>surgeon</title>
    <desc>Created with Sketch.</desc>
    <defs></defs>
    <g id="Page-1" stroke="none" stroke-width="1" fill="none" fill-rule="evenodd" sketch:type="MSPage">
        <g id="Symbolicons-Color" sketch:type="MSArtboardGroup" transform="translate(-759.000000, -476.000000)">
            <g id="surgeon" sketch:type="MSLayerGroup" transform="translate(759.000000, 476.000000)">
                <path d="M16.007,17.545 C14.736,18.923 12.964,20 11,20 C9.036,20 7.264,18.923 5.993,17.545 C4.22,18.666 0,21.965 0,28 L22,28 C22,21.965 17.78,18.666 16.007,17.545" id="Fill-1029" fill="#1ABC9C" sketch:type="MSShapeGroup"></path>
                <path id="Fill-1030" fill="#C0392B" sketch:type="MSShapeGroup"></path>
                <path d="M11,16 C12,16 17,14.142 17,10 L17,6 C17,2.686 14.314,0 11,0 C7.687,0 5,2.686 5,6 L5,10 C5,14.142 10,16 11,16" id="Fill-1031" fill="#8C5A3C" sketch:type="MSShapeGroup"></path>
                <path d="M4.5,6 L4.5,6.649 C8.239,5.588 13.762,5.588 17.5,6.649 L17.5,6 C17.5,2.686 14.591,0 11,0 C7.411,0 4.5,2.686 4.5,6" id="Fill-1032" fill="#1ABC9C" sketch:type="MSShapeGroup"></path>
                <path d="M4.5,11 C5.292,14.439 9.99,16 11,16 C12.01,16 16.708,14.439 17.5,11 L4.5,11" id="Fill-1033" fill="#1ABC9C" sketch:type="MSShapeGroup"></path>
                <path d="M11,20 C9.569,20 8.24,19.427 7.132,18.585 L11,24 L14.868,18.585 C13.76,19.427 12.431,20 11,20" id="Fill-1034" fill="#ECECEC" sketch:type="MSShapeGroup"></path>
            </g>
        </g>
    </g>
</svg>