<?xml version="1.0" encoding="UTF-8" standalone="no"?>
<svg width="28px" height="28px" viewBox="0 0 28 28" version="1.1" xmlns="http://www.w3.org/2000/svg" xmlns:xlink="http://www.w3.org/1999/xlink" xmlns:sketch="http://www.bohemiancoding.com/sketch/ns">
    <!-- Generator: Sketch 3.3 (11970) - http://www.bohemiancoding.com/sketch -->
    <title>syringe</title>
    <desc>Created with Sketch.</desc>
    <defs></defs>
    <g id="Page-1" stroke="none" stroke-width="1" fill="none" fill-rule="evenodd" sketch:type="MSPage">
        <g id="Symbolicons-Color" sketch:type="MSArtboardGroup" transform="translate(-924.000000, -476.000000)">
            <g id="syringe" sketch:type="MSLayerGroup" transform="translate(923.000000, 476.000000)">
                <path d="M7.989,20.303 L1.141,27.152 C0.95,27.343 0.953,27.656 1.149,27.851 C1.344,28.046 1.657,28.05 1.848,27.859 L8.696,21.01 L7.989,20.303" id="Fill-351" fill="#BEBEBE" sketch:type="MSShapeGroup"></path>
                <path d="M11.727,22.908 L6.081,17.262 L20.93,2.413 L26.576,8.059 L11.727,22.908" id="Fill-364" fill="#BEE6FA" sketch:type="MSShapeGroup"></path>
                <path d="M8.909,22.919 L6.081,20.091 L7.495,18.676 L10.324,21.505 L8.909,22.919" id="Fill-365" fill="#A0A0A0" sketch:type="MSShapeGroup"></path>
                <path d="M11.738,15.848 L9.616,13.727 L8.909,14.434 L11.031,16.555 C11.226,16.751 11.543,16.751 11.738,16.555 C11.933,16.36 11.933,16.043 11.738,15.848" id="Fill-366" fill="#1EAAE1" sketch:type="MSShapeGroup"></path>
                <path d="M14.566,13.02 L12.445,10.898 L11.738,11.605 L13.859,13.727 C14.054,13.922 14.371,13.922 14.566,13.727 C14.762,13.531 14.762,13.215 14.566,13.02" id="Fill-367" fill="#1EAAE1" sketch:type="MSShapeGroup"></path>
                <path d="M17.395,10.191 L15.273,8.07 L14.566,8.777 L16.688,10.898 C16.883,11.094 17.199,11.094 17.395,10.898 C17.59,10.703 17.59,10.386 17.395,10.191" id="Fill-368" fill="#1EAAE1" sketch:type="MSShapeGroup"></path>
                <path d="M20.223,7.363 L18.102,5.241 L17.395,5.949 L19.516,8.07 C19.711,8.265 20.028,8.265 20.223,8.07 C20.418,7.875 20.418,7.558 20.223,7.363" id="Fill-369" fill="#1EAAE1" sketch:type="MSShapeGroup"></path>
                <path d="M28.708,4.535 L24.466,0.292 C24.077,-0.097 23.44,-0.097 23.051,0.292 C22.663,0.681 22.663,1.317 23.051,1.706 L24.466,3.12 L23.051,4.535 L24.466,5.949 L25.88,4.535 L27.294,5.949 C27.683,6.337 28.319,6.337 28.708,5.949 C29.097,5.56 29.097,4.923 28.708,4.535" id="Fill-370" fill="#A0A0A0" sketch:type="MSShapeGroup"></path>
            </g>
        </g>
    </g>
</svg>