<?xml version="1.0" encoding="UTF-8" standalone="no"?>
<svg width="28px" height="28px" viewBox="0 0 28 28" version="1.1" xmlns="http://www.w3.org/2000/svg" xmlns:xlink="http://www.w3.org/1999/xlink" xmlns:sketch="http://www.bohemiancoding.com/sketch/ns">
    <!-- Generator: Sketch 3.3 (11970) - http://www.bohemiancoding.com/sketch -->
    <title>tablets</title>
    <desc>Created with Sketch.</desc>
    <defs></defs>
    <g id="Page-1" stroke="none" stroke-width="1" fill="none" fill-rule="evenodd" sketch:type="MSPage">
        <g id="Symbolicons-Color" sketch:type="MSArtboardGroup" transform="translate(-924.000000, -588.000000)">
            <g id="tablets" sketch:type="MSLayerGroup" transform="translate(924.000000, 588.000000)">
                <path d="M13,7.5 C13,11.642 16.358,15 20.5,15 C24.642,15 28,11.642 28,7.5 C28,3.358 24.642,0 20.5,0 C16.358,0 13,3.358 13,7.5" id="Fill-360" fill="#ECECEC" sketch:type="MSShapeGroup"></path>
                <path d="M14.86,2.567 L25.433,13.14 C25.684,12.92 25.92,12.684 26.14,12.433 L15.567,1.86 C15.316,2.08 15.08,2.316 14.86,2.567" id="Fill-361" fill="#BEBEBE" sketch:type="MSShapeGroup"></path>
                <path d="M2.197,25.803 C5.126,28.732 9.874,28.732 12.803,25.803 C15.732,22.874 15.732,18.126 12.803,15.197 C9.874,12.268 5.126,12.268 2.197,15.197 C-0.732,18.126 -0.732,22.874 2.197,25.803" id="Fill-362" fill="#ECECEC" sketch:type="MSShapeGroup"></path>
                <path d="M0.024,21 L14.976,21 C14.998,20.667 14.998,20.333 14.976,20 L0.024,20 C0.002,20.333 0.002,20.667 0.024,21" id="Fill-363" fill="#BEBEBE" sketch:type="MSShapeGroup"></path>
            </g>
        </g>
    </g>
</svg>