<?xml version="1.0" encoding="UTF-8" standalone="no"?>
<svg width="28px" height="24px" viewBox="0 0 28 24" version="1.1" xmlns="http://www.w3.org/2000/svg" xmlns:xlink="http://www.w3.org/1999/xlink" xmlns:sketch="http://www.bohemiancoding.com/sketch/ns">
    <!-- Generator: Sketch 3.3 (11970) - http://www.bohemiancoding.com/sketch -->
    <title>taco</title>
    <desc>Created with Sketch.</desc>
    <defs></defs>
    <g id="Page-1" stroke="none" stroke-width="1" fill="none" fill-rule="evenodd" sketch:type="MSPage">
        <g id="Symbolicons-Color" sketch:type="MSArtboardGroup" transform="translate(-140.000000, -872.000000)">
            <g id="taco" sketch:type="MSLayerGroup" transform="translate(140.000000, 872.000000)">
                <path d="M28,19 C28,19 27,8 19,5 C11,2 19,17 19,17 L13,17 L13,24 L26,24 L26,23.988 L26.08,24 C27.95,23.705 28.079,20.905 28,19" id="Fill-245" fill="#F1C40F" sketch:type="MSShapeGroup"></path>
                <path d="M24.284,13.055 C24.019,12.579 23.743,12.088 23.641,11.591 C23.532,11.062 23.589,10.478 23.644,9.912 C23.714,9.193 23.78,8.513 23.529,7.947 C23.258,7.336 22.662,6.91 22.085,6.499 C21.654,6.193 21.209,5.874 20.909,5.48 C20.596,5.071 20.392,4.546 20.194,4.039 C19.924,3.347 19.669,2.691 19.165,2.311 C18.629,1.903 17.883,1.851 17.163,1.803 C16.659,1.767 16.139,1.73 15.69,1.574 C15.253,1.42 14.827,1.129 14.416,0.849 C13.807,0.431 13.177,0 12.492,0 C11.808,0 11.178,0.431 10.569,0.849 C10.158,1.129 9.733,1.42 9.297,1.574 C8.848,1.73 8.326,1.767 7.821,1.803 C7.102,1.851 6.357,1.903 5.82,2.309 C5.316,2.691 5.062,3.345 4.793,4.039 C4.595,4.546 4.391,5.073 4.075,5.483 C3.775,5.876 3.33,6.193 2.899,6.499 C2.323,6.91 1.728,7.336 1.456,7.947 C1.205,8.513 1.271,9.194 1.341,9.914 C1.396,10.478 1.453,11.062 1.344,11.591 C1.242,12.088 0.966,12.579 0.7,13.055 C0.357,13.668 0,14.304 0,14.97 C0,15.562 0.239,16.083 0.747,16.605 L22,18 C24,17 24.985,15.774 24.985,14.97 C24.985,14.304 24.629,13.668 24.284,13.055" id="Fill-246" fill="#8CBE3C" sketch:type="MSShapeGroup"></path>
                <path d="M26,18.5 C26,21.538 23.314,24 20,24 C16.687,24 14,21.538 14,18.5 C14,15.462 16.687,13 20,13 C23.314,13 26,15.462 26,18.5" id="Fill-247" fill="#8C5A3C" sketch:type="MSShapeGroup"></path>
                <path d="M25,14.5 C25,17.538 22.314,20 19,20 C15.687,20 13,17.538 13,14.5 C13,11.462 15.687,9 19,9 C22.314,9 25,11.462 25,14.5" id="Fill-248" fill="#8C5A3C" sketch:type="MSShapeGroup"></path>
                <path d="M3.853,24 L26,24 C24,24 23.563,21.078 23.562,21.061 C21.73,5.45 13.807,5 12.909,5 L12.843,5 C7.181,5 3.993,8.906 2.314,12.18 C0.493,15.737 0.007,19.337 0,19.373 C0.002,23.871 3.459,24 3.853,24" id="Fill-249" fill="#F39C12" sketch:type="MSShapeGroup"></path>
                <path d="M20.5,20.625 C20.983,20.625 21.375,21.018 21.375,21.499 C21.375,21.983 20.983,22.375 20.5,22.375 C20.018,22.375 19.625,21.983 19.625,21.499 C19.625,21.018 20.018,20.625 20.5,20.625" id="Fill-250" fill="#E67E22" sketch:type="MSShapeGroup"></path>
                <path d="M18.5,17.625 C18.983,17.625 19.375,18.019 19.375,18.5 C19.375,18.983 18.983,19.375 18.5,19.375 C18.018,19.375 17.625,18.983 17.625,18.5 C17.625,18.019 18.018,17.625 18.5,17.625" id="Fill-251" fill="#E67E22" sketch:type="MSShapeGroup"></path>
                <path d="M16.501,20.625 C16.982,20.625 17.375,21.017 17.375,21.499 C17.375,21.984 16.982,22.375 16.501,22.375 C16.019,22.375 15.625,21.984 15.625,21.499 C15.625,21.017 16.019,20.625 16.501,20.625" id="Fill-252" fill="#E67E22" sketch:type="MSShapeGroup"></path>
            </g>
        </g>
    </g>
</svg>