<?xml version="1.0" encoding="UTF-8" standalone="no"?>
<svg width="28px" height="28px" viewBox="0 0 28 28" version="1.1" xmlns="http://www.w3.org/2000/svg" xmlns:xlink="http://www.w3.org/1999/xlink" xmlns:sketch="http://www.bohemiancoding.com/sketch/ns">
    <!-- Generator: Sketch 3.3 (11970) - http://www.bohemiancoding.com/sketch -->
    <title>taxi</title>
    <desc>Created with Sketch.</desc>
    <defs></defs>
    <g id="Page-1" stroke="none" stroke-width="1" fill="none" fill-rule="evenodd" sketch:type="MSPage">
        <g id="Symbolicons-Color" sketch:type="MSArtboardGroup" transform="translate(-140.000000, -532.000000)">
            <g id="taxi" sketch:type="MSLayerGroup" transform="translate(140.000000, 532.000000)">
                <path d="M17,0 L11,0 C9.9,0 9,0.9 9,2 L9,3 C9,4.1 9.9,5 11,5 L17,5 C18.1,5 19,4.1 19,3 L19,2 C19,0.9 18.1,0 17,0" id="Fill-769" fill="#8C8C8C" sketch:type="MSShapeGroup"></path>
                <path d="M19,3 L9,3 C5.7,3 3,5.7 3,9 L3,14 C3,17.3 5.7,20 9,20 L19,20 C22.3,20 25,17.3 25,14 L25,9 C25,5.7 22.3,3 19,3" id="Fill-770" fill="#F39C12" sketch:type="MSShapeGroup"></path>
                <path d="M19,5 C21.206,5 23,6.795 23,9 L23,14 C23,16.206 21.206,18 19,18 L9,18 C6.795,18 5,16.206 5,14 L5,9 C5,6.795 6.795,5 9,5 L19,5" id="Fill-771" fill="#ECECEC" sketch:type="MSShapeGroup"></path>
                <path d="M24,13 L4,13 C1.8,13 0,14.8 0,17 L0,23 L28,23 L28,17 C28,14.8 26.2,13 24,13" id="Fill-772" fill="#F39C12" sketch:type="MSShapeGroup"></path>
                <path d="M3,26.198 C3,27.399 4,28 5,28 C6,28 7,27.399 7,26.198 L7,23 L3,23 L3,26.198" id="Fill-773" fill="#505050" sketch:type="MSShapeGroup"></path>
                <path d="M21,26.198 C21,27.399 22,28 23,28 C24,28 25,27.399 25,26.198 L25,23 L21,23 L21,26.198" id="Fill-774" fill="#505050" sketch:type="MSShapeGroup"></path>
                <path d="M5,20.5 C3.896,20.5 3,19.604 3,18.5 C3,17.396 3.896,16.5 5,16.5 C6.105,16.5 7,17.396 7,18.5 C7,19.604 6.105,20.5 5,20.5" id="Fill-775" fill="#F1C40F" sketch:type="MSShapeGroup"></path>
                <path d="M23,20.5 C21.896,20.5 21,19.604 21,18.5 C21,17.396 21.896,16.5 23,16.5 C24.105,16.5 25,17.396 25,18.5 C25,19.604 24.105,20.5 23,20.5" id="Fill-776" fill="#F1C40F" sketch:type="MSShapeGroup"></path>
            </g>
        </g>
    </g>
</svg>