<?xml version="1.0" encoding="UTF-8" standalone="no"?>
<svg width="24px" height="24px" viewBox="0 0 24 24" version="1.1" xmlns="http://www.w3.org/2000/svg" xmlns:xlink="http://www.w3.org/1999/xlink" xmlns:sketch="http://www.bohemiancoding.com/sketch/ns">
    <!-- Generator: Sketch 3.3 (11970) - http://www.bohemiancoding.com/sketch -->
    <title>tennis-ball</title>
    <desc>Created with Sketch.</desc>
    <defs></defs>
    <g id="Page-1" stroke="none" stroke-width="1" fill="none" fill-rule="evenodd" sketch:type="MSPage">
        <g id="Symbolicons-Color" sketch:type="MSArtboardGroup" transform="translate(-758.000000, -814.000000)">
            <g id="tennis-ball" sketch:type="MSLayerGroup" transform="translate(758.000000, 814.000000)">
                <path d="M24,12 C24,18.627 18.627,24 12,24 C5.373,24 0,18.627 0,12 C0,5.373 5.373,0 12,0 C18.627,0 24,5.373 24,12" id="Fill-642" fill="#8CBE3C" sketch:type="MSShapeGroup"></path>
                <path d="M20.841,20.094 C18.778,18.014 17.5,15.154 17.5,12 C17.5,8.846 18.778,5.986 20.841,3.906 C20.616,3.66 20.381,3.424 20.136,3.197 C17.891,5.458 16.5,8.569 16.5,12 C16.5,15.431 17.891,18.542 20.136,20.802 C20.381,20.576 20.616,20.34 20.841,20.094" id="Fill-643" fill="#C5DF9D" sketch:type="MSShapeGroup"></path>
                <path d="M3.159,3.906 C5.222,5.986 6.5,8.846 6.5,12 C6.5,15.154 5.222,18.014 3.159,20.094 C3.384,20.34 3.619,20.576 3.864,20.802 C6.109,18.542 7.5,15.431 7.5,12 C7.5,8.569 6.109,5.458 3.864,3.197 C3.619,3.424 3.384,3.66 3.159,3.906" id="Fill-644" fill="#C5DF9D" sketch:type="MSShapeGroup"></path>
            </g>
        </g>
    </g>
</svg>