<?xml version="1.0" encoding="UTF-8" standalone="no"?>
<svg width="28px" height="25px" viewBox="0 0 28 25" version="1.1" xmlns="http://www.w3.org/2000/svg" xmlns:xlink="http://www.w3.org/1999/xlink" xmlns:sketch="http://www.bohemiancoding.com/sketch/ns">
    <!-- Generator: Sketch 3.3 (11970) - http://www.bohemiancoding.com/sketch -->
    <title>tent</title>
    <desc>Created with Sketch.</desc>
    <defs></defs>
    <g id="Page-1" stroke="none" stroke-width="1" fill="none" fill-rule="evenodd" sketch:type="MSPage">
        <g id="Symbolicons-Color" sketch:type="MSArtboardGroup" transform="translate(-756.000000, -368.000000)">
            <g id="tent" sketch:type="MSLayerGroup" transform="translate(756.000000, 368.000000)">
                <path d="M26,12 L21,6 L14,3 L7,6 L2,12 L0,24 L28,24 L26,12" id="Fill-563" fill="#F39C12" sketch:type="MSShapeGroup"></path>
                <path d="M27.986,24.02 C27.986,24.014 27.999,23.689 27.999,23.12 C27.998,20.982 27.815,15.413 26.001,10.312 C25.093,7.762 23.774,5.321 21.829,3.499 C19.888,1.675 17.305,0.496 14,0.5 C10.694,0.496 8.111,1.675 6.17,3.499 C3.255,6.235 1.739,10.35 0.921,14.165 C0.106,17.982 0,21.517 0,23.12 C0,23.69 0.013,24.015 0.014,24.021 L1.013,23.979 C1.013,23.978 1.01,23.905 1.006,23.759 C1.003,23.613 0.999,23.396 0.999,23.12 C0.998,21.044 1.19,15.553 2.939,10.647 C3.812,8.194 5.071,5.896 6.853,4.229 C8.639,2.563 10.93,1.504 14,1.5 C17.069,1.504 19.361,2.563 21.146,4.229 C23.821,6.725 25.31,10.659 26.101,14.373 C26.894,18.085 27,21.562 27,23.12 C26.999,23.397 26.996,23.613 26.993,23.76 C26.99,23.906 26.987,23.979 26.987,23.979 L27.986,24.021 L27.986,24.02" id="Fill-564" fill="#8C8C8C" sketch:type="MSShapeGroup"></path>
                <path d="M20.707,7.707 L23.707,4.707 L22.293,3.293 L19.293,6.293" id="Fill-565" fill="#A0A0A0" sketch:type="MSShapeGroup"></path>
                <path d="M8.707,6.293 L5.707,3.293 L4.293,4.707 L7.293,7.707" id="Fill-566" fill="#A0A0A0" sketch:type="MSShapeGroup"></path>
                <path d="M14,11 C10.686,11 8,13.646 8,16.909 L8,24 L20,24 L20,16.909 C20,13.646 17.313,11 14,11" id="Fill-567" fill="#323232" sketch:type="MSShapeGroup"></path>
            </g>
        </g>
    </g>
</svg>