<?xml version="1.0" encoding="UTF-8" standalone="no"?>
<svg width="28px" height="28px" viewBox="0 0 28 28" version="1.1" xmlns="http://www.w3.org/2000/svg" xmlns:xlink="http://www.w3.org/1999/xlink" xmlns:sketch="http://www.bohemiancoding.com/sketch/ns">
    <!-- Generator: Sketch 3.3 (11970) - http://www.bohemiancoding.com/sketch -->
    <title>tickets</title>
    <desc>Created with Sketch.</desc>
    <defs></defs>
    <g id="Page-1" stroke="none" stroke-width="1" fill="none" fill-rule="evenodd" sketch:type="MSPage">
        <g id="Symbolicons-Color" sketch:type="MSArtboardGroup" transform="translate(-252.000000, -532.000000)">
            <g id="tickets" sketch:type="MSLayerGroup" transform="translate(252.000000, 532.000000)">
                <path d="M11.26,3.212 C10.267,2.981 9.649,1.99 9.879,0.997 L5.833,0.059 L0,25.232 L4.046,26.17 C4.276,25.177 5.267,24.558 6.26,24.788 C7.254,25.019 7.872,26.01 7.642,27.003 L11.687,27.941 L17.521,2.768 L13.475,1.83 C13.245,2.823 12.253,3.442 11.26,3.212" id="Fill-777" fill="#ECECEC" sketch:type="MSShapeGroup"></path>
                <path d="M22.046,4.988 C21.217,4.396 21.024,3.243 21.617,2.414 L18.238,0 L3.219,21.027 L6.598,23.441 C7.19,22.611 8.343,22.419 9.172,23.011 C10.002,23.604 10.194,24.757 9.602,25.586 L12.981,28 L28,6.973 L24.621,4.559 C24.028,5.389 22.876,5.581 22.046,4.988" id="Fill-778" fill="#F39C12" sketch:type="MSShapeGroup"></path>
                <path d="M16.2,5.8 C16.069,5.8 15.939,5.75 15.85,5.66 C15.76,5.56 15.7,5.44 15.7,5.3 C15.7,5.17 15.76,5.04 15.85,4.95 C16.04,4.76 16.37,4.76 16.56,4.95 C16.649,5.04 16.7,5.17 16.7,5.3 C16.7,5.43 16.649,5.56 16.56,5.66 C16.47,5.75 16.34,5.8 16.2,5.8" id="Fill-779" fill="#D35400" sketch:type="MSShapeGroup"></path>
                <path d="M21.819,9.93 C21.6,9.77 21.54,9.46 21.7,9.23 C21.859,9.01 22.18,8.96 22.399,9.11 C22.62,9.28 22.68,9.59 22.52,9.81 C22.42,9.95 22.269,10.02 22.109,10.02 C22.01,10.02 21.91,9.99 21.819,9.93 L21.819,9.93 Z M20.34,8.87 C20.12,8.71 20.069,8.4 20.229,8.18 C20.39,7.95 20.7,7.9 20.92,8.06 C21.149,8.22 21.2,8.53 21.04,8.76 C20.939,8.89 20.79,8.97 20.63,8.97 C20.53,8.97 20.43,8.94 20.34,8.87 L20.34,8.87 Z M18.87,7.82 C18.64,7.66 18.59,7.35 18.75,7.12 C18.91,6.9 19.22,6.85 19.45,7 C19.67,7.17 19.72,7.48 19.56,7.7 C19.46,7.84 19.31,7.91 19.16,7.91 C19.059,7.91 18.95,7.88 18.87,7.82 L18.87,7.82 Z M17.39,6.76 C17.16,6.6 17.109,6.29 17.27,6.07 C17.43,5.84 17.75,5.79 17.97,5.95 C18.189,6.11 18.25,6.42 18.09,6.65 C17.99,6.78 17.84,6.86 17.68,6.86 C17.58,6.86 17.48,6.83 17.39,6.76 L17.39,6.76 Z" id="Fill-780" fill="#D35400" sketch:type="MSShapeGroup"></path>
                <path d="M23.59,11.08 C23.45,11.08 23.33,11.03 23.229,10.93 C23.14,10.84 23.09,10.71 23.09,10.58 C23.09,10.44 23.14,10.32 23.229,10.22 C23.42,10.04 23.75,10.04 23.939,10.22 C24.04,10.32 24.09,10.45 24.09,10.58 C24.09,10.71 24.04,10.84 23.939,10.93 C23.85,11.02 23.72,11.08 23.59,11.08" id="Fill-781" fill="#D35400" sketch:type="MSShapeGroup"></path>
            </g>
        </g>
    </g>
</svg>