<?xml version="1.0" encoding="UTF-8" standalone="no"?>
<svg width="28px" height="28px" viewBox="0 0 28 28" version="1.1" xmlns="http://www.w3.org/2000/svg" xmlns:xlink="http://www.w3.org/1999/xlink" xmlns:sketch="http://www.bohemiancoding.com/sketch/ns">
    <!-- Generator: Sketch 3.3 (11970) - http://www.bohemiancoding.com/sketch -->
    <title>toast</title>
    <desc>Created with Sketch.</desc>
    <defs></defs>
    <g id="Page-1" stroke="none" stroke-width="1" fill="none" fill-rule="evenodd" sketch:type="MSPage">
        <g id="Symbolicons-Color" sketch:type="MSArtboardGroup" transform="translate(-420.000000, -308.000000)">
            <g id="toast" sketch:type="MSLayerGroup" transform="translate(420.000000, 308.000000)">
                <path d="M11,0 C4.457,0 0,2.74 0,5.077 C0,6.431 0.725,7.101 2,7.426 L2,19 C2,20.1 2.9,21 4,21 L18,21 C19.1,21 20,20.1 20,19 L20,7.426 C21.275,7.101 22,6.431 22,5.077 C22,2.74 17.543,0 11,0" id="Fill-126" fill="#BE9664" sketch:type="MSShapeGroup"></path>
                <path d="M17,7 C10.457,7 6,9.74 6,12.077 C6,13.431 6.725,14.101 8,14.426 L8,26 C8,27.1 8.9,28 10,28 L24,28 C25.1,28 26,27.1 26,26 L26,14.426 C27.275,14.101 28,13.431 28,12.077 C28,9.74 23.543,7 17,7" id="Fill-127" fill="#A57D52" sketch:type="MSShapeGroup"></path>
                <path d="M21.3,18.4 L13.3,24.4 C13.21,24.468 13.104,24.5 13,24.5 C12.849,24.5 12.698,24.431 12.6,24.3 C12.435,24.079 12.479,23.766 12.7,23.6 L20.7,17.6 C20.92,17.435 21.233,17.48 21.4,17.7 C21.565,17.921 21.52,18.234 21.3,18.4" id="Fill-128" fill="#8C5A3C" sketch:type="MSShapeGroup"></path>
                <path d="M21.3,14.4 L13.3,20.4 C13.21,20.468 13.104,20.5 13,20.5 C12.849,20.5 12.698,20.431 12.6,20.3 C12.435,20.079 12.479,19.766 12.7,19.6 L20.7,13.6 C20.92,13.435 21.233,13.479 21.4,13.7 C21.565,13.921 21.52,14.234 21.3,14.4" id="Fill-129" fill="#8C5A3C" sketch:type="MSShapeGroup"></path>
            </g>
        </g>
    </g>
</svg>