<?xml version="1.0" encoding="UTF-8" standalone="no"?>
<svg width="28px" height="28px" viewBox="0 0 28 28" version="1.1" xmlns="http://www.w3.org/2000/svg" xmlns:xlink="http://www.w3.org/1999/xlink" xmlns:sketch="http://www.bohemiancoding.com/sketch/ns">
    <!-- Generator: Sketch 3.3 (11970) - http://www.bohemiancoding.com/sketch -->
    <title>toolbox</title>
    <desc>Created with Sketch.</desc>
    <defs></defs>
    <g id="Page-1" stroke="none" stroke-width="1" fill="none" fill-rule="evenodd" sketch:type="MSPage">
        <g id="Symbolicons-Color" sketch:type="MSArtboardGroup" transform="translate(-756.000000, -1036.000000)">
            <g id="toolbox" sketch:type="MSLayerGroup" transform="translate(756.000000, 1036.000000)">
                <path d="M22,16 L22,11.65 C23.179,11.087 24,9.894 24,8.5 C24,7.106 23.179,5.913 22,5.35 L22,9 L20.5,10 L19,9 L19,5.35 C17.821,5.913 17,7.106 17,8.5 C17,9.894 17.821,11.087 19,11.65 L19,16 L22,16" id="Fill-899" fill="#A0A0A0" sketch:type="MSShapeGroup"></path>
                <path d="M24.268,0 L3.736,0 C1.682,0 0,1.681 0,3.734 L0,16 L2,16 L2,3.734 C2,2.819 2.82,2 3.736,2 L24.268,2 C25.182,2 26,2.819 26,3.734 L26,16 L28,16 L28,3.734 C28,1.681 26.322,0 24.268,0" id="Fill-900" fill="#8C5A3C" sketch:type="MSShapeGroup"></path>
                <path d="M7,10 L10,10 L10,16 L7,16 L7,10 Z" id="Fill-901" fill="#8C5A3C" sketch:type="MSShapeGroup"></path>
                <path d="M0,15 L28,15 L28,28 L0,28 L0,15 Z" id="Fill-902" fill="#A57D52" sketch:type="MSShapeGroup"></path>
                <path d="M3,19 C2.448,19 2,18.552 2,18 C2,17.448 2.448,17 3,17 C3.552,17 4,17.448 4,18 C4,18.552 3.552,19 3,19" id="Fill-903" fill="#8C5A3C" sketch:type="MSShapeGroup"></path>
                <path d="M25,17 C25.552,17 26,17.448 26,18 C26,18.552 25.552,19 25,19 C24.448,19 24,18.552 24,18 C24,17.448 24.448,17 25,17" id="Fill-904" fill="#8C5A3C" sketch:type="MSShapeGroup"></path>
                <path d="M10,11 C10.55,11 11,10.55 11,10 L12,10 C12,10.55 12.45,11 13,11 C13.55,11 14,10.55 14,10 L14,8 C14,7.45 13.55,7 13,7 C12.45,7 12,7.45 12,8 L11,8 C11,7.45 10.55,7 10,7 L6,7 L3,11 L10,11" id="Fill-905" fill="#A0A0A0" sketch:type="MSShapeGroup"></path>
                <path d="M25,24 C25.552,24 26,24.448 26,25 C26,25.552 25.552,26 25,26 C24.448,26 24,25.552 24,25 C24,24.448 24.448,24 25,24" id="Fill-906" fill="#8C5A3C" sketch:type="MSShapeGroup"></path>
                <path d="M3,24 C3.552,24 4,24.448 4,25 C4,25.552 3.552,26 3,26 C2.448,26 2,25.552 2,25 C2,24.448 2.448,24 3,24" id="Fill-907" fill="#8C5A3C" sketch:type="MSShapeGroup"></path>
            </g>
        </g>
    </g>
</svg>