<?xml version="1.0" encoding="UTF-8" standalone="no"?>
<svg width="24px" height="28px" viewBox="0 0 24 28" version="1.1" xmlns="http://www.w3.org/2000/svg" xmlns:xlink="http://www.w3.org/1999/xlink" xmlns:sketch="http://www.bohemiancoding.com/sketch/ns">
    <!-- Generator: Sketch 3.3 (11970) - http://www.bohemiancoding.com/sketch -->
    <title>tooth</title>
    <desc>Created with Sketch.</desc>
    <defs></defs>
    <g id="Page-1" stroke="none" stroke-width="1" fill="none" fill-rule="evenodd" sketch:type="MSPage">
        <g id="Symbolicons-Color" sketch:type="MSArtboardGroup" transform="translate(-926.000000, -532.000000)" fill="#ECECEC">
            <g id="tooth" sketch:type="MSLayerGroup" transform="translate(926.000000, 532.000000)">
                <path d="M24,7.922 C24,9.891 23.266,11.781 22.047,13.266 L21.984,13.344 C21.969,13.359 20.391,15.219 20,18.75 C20.094,22.578 18.828,25.766 16.344,27.813 C16.078,28.031 15.703,28.062 15.406,27.875 C15.125,27.687 14.984,27.328 15.062,26.984 C15.469,25.141 16.156,19.828 14.391,17.562 C13.828,16.828 13.047,16.469 12,16.469 C10.953,16.469 10.172,16.828 9.594,17.562 C7.906,19.75 8.484,24.766 8.906,26.781 C8.953,26.906 9,27.031 9,27.172 C9,27.625 8.641,28 8.188,28 L8.156,28 C7.984,28 7.813,27.937 7.656,27.813 C5.172,25.766 3.906,22.578 4,18.641 C3.609,15.188 2.031,13.359 2.016,13.344 L1.953,13.25 C0.734,11.781 0,9.891 0,7.922 C0,6 0.719,3.656 2.156,2.156 C3.484,0.766 5.234,0 7.109,0 C8.703,0.031 9.781,0.484 10.453,0.813 C10.703,0.984 11.234,1.328 12,1.859 C12.766,1.328 13.281,0.984 13.453,0.875 C14.219,0.484 15.297,0.031 16.766,0 C18.766,0 20.516,0.766 21.844,2.156 C23.281,3.656 24,6 24,7.922" id="Fill-1057" sketch:type="MSShapeGroup"></path>
            </g>
        </g>
    </g>
</svg>