<?xml version="1.0" encoding="UTF-8" standalone="no"?>
<svg width="28px" height="28px" viewBox="0 0 28 28" version="1.1" xmlns="http://www.w3.org/2000/svg" xmlns:xlink="http://www.w3.org/1999/xlink" xmlns:sketch="http://www.bohemiancoding.com/sketch/ns">
    <!-- Generator: Sketch 3.3 (11970) - http://www.bohemiancoding.com/sketch -->
    <title>train</title>
    <desc>Created with Sketch.</desc>
    <defs></defs>
    <g id="Page-1" stroke="none" stroke-width="1" fill="none" fill-rule="evenodd" sketch:type="MSPage">
        <g id="Symbolicons-Color" sketch:type="MSArtboardGroup" transform="translate(-196.000000, -588.000000)">
            <g id="train" sketch:type="MSLayerGroup" transform="translate(196.000000, 588.000000)">
                <path d="M25,18 C25,20.2 23.2,22 21,22 L7,22 C4.8,22 3,20.2 3,18 L3,4 C3,1.8 4.8,0 7,0 L21,0 C23.2,0 25,1.8 25,4 L25,18" id="Fill-785" fill="#323232" sketch:type="MSShapeGroup"></path>
                <path d="M4.74,6 L23.26,6 L23.26,13 L4.74,13 L4.74,6 Z" id="Fill-786" fill="#ECECEC" sketch:type="MSShapeGroup"></path>
                <path d="M19,3 C19,3.55 18.55,4 18,4 L10,4 C9.45,4 9,3.55 9,3 C9,2.45 9.45,2 10,2 L18,2 C18.55,2 19,2.45 19,3" id="Fill-787" fill="#FFFFFF" sketch:type="MSShapeGroup"></path>
                <path d="M7.5,19 C6.672,19 6,18.328 6,17.5 C6,16.672 6.672,16 7.5,16 C8.328,16 9,16.672 9,17.5 C9,18.328 8.328,19 7.5,19" id="Fill-788" fill="#F1C40F" sketch:type="MSShapeGroup"></path>
                <path d="M20.5,19 C19.672,19 19,18.328 19,17.5 C19,16.672 19.672,16 20.5,16 C21.328,16 22,16.672 22,17.5 C22,18.328 21.328,19 20.5,19" id="Fill-789" fill="#F1C40F" sketch:type="MSShapeGroup"></path>
                <path d="M0,26 L28,26 L28,28 L0,28 L0,26 Z" id="Fill-790" fill="#8C8C8C" sketch:type="MSShapeGroup"></path>
                <path d="M3,23 L25,23 L25,25 L3,25 L3,23 Z" id="Fill-791" fill="#8C8C8C" sketch:type="MSShapeGroup"></path>
            </g>
        </g>
    </g>
</svg>