<?xml version="1.0" encoding="UTF-8" standalone="no"?>
<svg width="28px" height="28px" viewBox="0 0 28 28" version="1.1" xmlns="http://www.w3.org/2000/svg" xmlns:xlink="http://www.w3.org/1999/xlink" xmlns:sketch="http://www.bohemiancoding.com/sketch/ns">
    <!-- Generator: Sketch 3.3 (11970) - http://www.bohemiancoding.com/sketch -->
    <title>travel-card</title>
    <desc>Created with Sketch.</desc>
    <defs></defs>
    <g id="Page-1" stroke="none" stroke-width="1" fill="none" fill-rule="evenodd" sketch:type="MSPage">
        <g id="Symbolicons-Color" sketch:type="MSArtboardGroup" transform="translate(-196.000000, -532.000000)">
            <g id="travel-card" sketch:type="MSLayerGroup" transform="translate(196.000000, 532.000000)">
                <path d="M4,2 L4,16 C4,17.104 4.896,18 6,18 L26,18 C27.104,18 28,17.104 28,16 L28,2 C28,0.896 27.104,0 26,0 L6,0 C4.896,0 4,0.896 4,2" id="Fill-765" fill="#ECECEC" sketch:type="MSShapeGroup"></path>
                <path d="M4,3 L28,3 L28,6 L4,6 L4,3 Z" id="Fill-766" fill="#505050" sketch:type="MSShapeGroup"></path>
                <path d="M0,12 L0,26 C0,27.105 0.895,28 2,28 L22,28 C23.104,28 24,27.105 24,26 L24,12 C24,10.896 23.104,10 22,10 L2,10 C0.895,10 0,10.896 0,12" id="Fill-767" fill="#1EAAE1" sketch:type="MSShapeGroup"></path>
                <path d="M21,19 C21,20.102 20.102,21 19,21 L16,21 L11,26 L9,26 L11.445,21 L8,21 L6,23 L5,23 L6,19 L5,15 L6,15 L8,17 L11.445,17 L9,12 L11,12 L16,17 L19,17 C20.102,17 21,17.898 21,19" id="Fill-768" fill="#2980B9" sketch:type="MSShapeGroup"></path>
            </g>
        </g>
    </g>
</svg>