<?xml version="1.0" encoding="UTF-8" standalone="no"?>
<svg width="28px" height="28px" viewBox="0 0 28 28" version="1.1" xmlns="http://www.w3.org/2000/svg" xmlns:xlink="http://www.w3.org/1999/xlink" xmlns:sketch="http://www.bohemiancoding.com/sketch/ns">
    <!-- Generator: Sketch 3.3 (11970) - http://www.bohemiancoding.com/sketch -->
    <title>tree-palm</title>
    <desc>Created with Sketch.</desc>
    <defs></defs>
    <g id="Page-1" stroke="none" stroke-width="1" fill="none" fill-rule="evenodd" sketch:type="MSPage">
        <g id="Symbolicons-Color" sketch:type="MSArtboardGroup" transform="translate(-308.000000, -476.000000)">
            <g id="tree-palm" sketch:type="MSLayerGroup" transform="translate(307.000000, 476.000000)">
                <path d="M25.682,0.55 C22.272,-0.762 18.154,0.304 15.602,3.447 C14.723,4.531 14.143,5.748 13.816,7 L19,7 L19,8.781 L20.168,7.343 L19.476,5.815 L21.113,6.178 L23.319,3.461 L22.627,1.933 L24.264,2.296 L25.682,0.55" id="Fill-744" fill="#46A046" sketch:type="MSShapeGroup"></path>
                <path d="M11,8.781 L11,7 L16.184,7 C15.857,5.748 15.277,4.531 14.398,3.447 C11.846,0.304 7.727,-0.762 4.318,0.55 L5.736,2.296 L7.373,1.933 L6.681,3.461 L8.887,6.178 L10.524,5.815 L9.832,7.343 L11,8.781" id="Fill-745" fill="#46A046" sketch:type="MSShapeGroup"></path>
                <path d="M14.838,9 L11,9 C10.573,10.832 9,18 11.919,28 L20,28 C13.856,21.719 14.461,12.323 14.838,9" id="Fill-746" fill="#BE9664" sketch:type="MSShapeGroup"></path>
                <path d="M23.636,5.517 C20.835,3.984 17.667,3.859 15,4.901 C12.333,3.859 9.165,3.984 6.364,5.517 C2.4,7.687 0.403,11.994 1.157,16 L3.36,14.795 L3.29,12.925 L4.828,13.991 L8.254,12.116 L8.185,10.246 L9.723,11.312 L15,8.424 L20.277,11.312 L21.815,10.246 L21.746,12.116 L25.172,13.991 L26.71,12.925 L26.64,14.795 L28.843,16 C29.598,11.994 27.6,7.687 23.636,5.517" id="Fill-747" fill="#8CBE3C" sketch:type="MSShapeGroup"></path>
                <path d="M18,10.5 C18,11.881 16.881,13 15.5,13 C14.119,13 13,11.881 13,10.5 C13,9.119 14.119,8 15.5,8 C16.881,8 18,9.119 18,10.5" id="Fill-748" fill="#8C5A3C" sketch:type="MSShapeGroup"></path>
            </g>
        </g>
    </g>
</svg>