<?xml version="1.0" encoding="UTF-8" standalone="no"?>
<svg width="28px" height="28px" viewBox="0 0 28 28" version="1.1" xmlns="http://www.w3.org/2000/svg" xmlns:xlink="http://www.w3.org/1999/xlink" xmlns:sketch="http://www.bohemiancoding.com/sketch/ns">
    <!-- Generator: Sketch 3.3 (11970) - http://www.bohemiancoding.com/sketch -->
    <title>utensils-bbq</title>
    <desc>Created with Sketch.</desc>
    <defs></defs>
    <g id="Page-1" stroke="none" stroke-width="1" fill="none" fill-rule="evenodd" sketch:type="MSPage">
        <g id="Symbolicons-Color" sketch:type="MSArtboardGroup" transform="translate(-84.000000, -980.000000)">
            <g id="utensils-bbq" sketch:type="MSLayerGroup" transform="translate(84.000000, 980.000000)">
                <path d="M26.003,10.53 L26.003,26.5 C26.003,27.328 25.331,28 24.503,28 C23.675,28 23.003,27.328 23.003,26.5 L23.003,10.53 L26.003,10.53" id="Fill-268" fill="#BE9664" sketch:type="MSShapeGroup"></path>
                <path d="M3.003,13 L3.003,26.5 C3.003,27.328 3.675,28 4.503,28 C5.331,28 6.003,27.328 6.003,26.5 L6.003,13 L3.003,13" id="Fill-269" fill="#BE9664" sketch:type="MSShapeGroup"></path>
                <path d="M6.003,14 L7.003,14 C8.108,14 9.003,13.105 9.003,12 L9.003,0 L0.003,0 L0.003,12 C0.003,13.105 0.899,14 2.003,14 L3.003,14 L6.003,14 Z M7.003,2.5 C7.003,2.224 7.227,2 7.503,2 C7.78,2 8.003,2.224 8.003,2.5 L8.003,11.5 C8.003,11.776 7.78,12 7.503,12 C7.227,12 7.003,11.776 7.003,11.5 L7.003,2.5 L7.003,2.5 Z M5.003,2.5 C5.003,2.224 5.227,2 5.503,2 C5.78,2 6.003,2.224 6.003,2.5 L6.003,11.5 C6.003,11.776 5.78,12 5.503,12 C5.227,12 5.003,11.776 5.003,11.5 L5.003,2.5 L5.003,2.5 Z M3.003,2.5 C3.003,2.224 3.227,2 3.503,2 C3.78,2 4.003,2.224 4.003,2.5 L4.003,11.5 C4.003,11.776 3.78,12 3.503,12 C3.227,12 3.003,11.776 3.003,11.5 L3.003,2.5 L3.003,2.5 Z M1.003,2.5 C1.003,2.224 1.227,2 1.503,2 C1.78,2 2.003,2.224 2.003,2.5 L2.003,11.5 C2.003,11.776 1.78,12 1.503,12 C1.227,12 1.003,11.776 1.003,11.5 L1.003,2.5 L1.003,2.5 Z" id="Fill-270" fill="#8C8C8C" sketch:type="MSShapeGroup"></path>
                <path d="M26.003,11.5 C27.108,11.5 28.003,10.605 28.003,9.5 L28.003,0 L27.003,0 L26.003,8 C26.003,8.828 25.331,9.5 24.503,9.5 C23.675,9.5 23.003,8.828 23.003,8 L22.003,0 L21.003,0 L21.003,9.5 C21.003,10.605 21.899,11.5 23.003,11.5 L26.003,11.5" id="Fill-271" fill="#8C8C8C" sketch:type="MSShapeGroup"></path>
                <path d="M12.003,0 L10.189,27.866 L12.185,27.996 C13.288,28.067 14.239,27.236 14.31,26.135 C14.382,25.034 13.547,24.086 12.444,24.015 C13.547,24.086 14.499,23.254 14.57,22.155 C14.641,21.054 13.807,20.106 12.704,20.035 L13.618,6 L16.389,6 L17.303,20.035 C16.2,20.106 15.366,21.054 15.437,22.155 C15.508,23.254 16.46,24.086 17.563,24.015 C16.46,24.086 15.625,25.034 15.697,26.135 C15.768,27.236 16.718,28.067 17.822,27.996 L19.818,27.866 L18.003,0 L12.003,0" id="Fill-272" fill="#505050" sketch:type="MSShapeGroup"></path>
                <path d="M15.003,4 C14.451,4 14.003,3.553 14.003,3 C14.003,2.448 14.451,2 15.003,2 C15.556,2 16.003,2.448 16.003,3 C16.003,3.553 15.556,4 15.003,4" id="Fill-273" fill="#323232" sketch:type="MSShapeGroup"></path>
            </g>
        </g>
    </g>
</svg>