<?xml version="1.0" encoding="UTF-8" standalone="no"?>
<svg width="28px" height="28px" viewBox="0 0 28 28" version="1.1" xmlns="http://www.w3.org/2000/svg" xmlns:xlink="http://www.w3.org/1999/xlink" xmlns:sketch="http://www.bohemiancoding.com/sketch/ns">
    <!-- Generator: Sketch 3.3 (11970) - http://www.bohemiancoding.com/sketch -->
    <title>utility-knife</title>
    <desc>Created with Sketch.</desc>
    <defs></defs>
    <g id="Page-1" stroke="none" stroke-width="1" fill="none" fill-rule="evenodd" sketch:type="MSPage">
        <g id="Symbolicons-Color" sketch:type="MSArtboardGroup" transform="translate(-756.000000, -308.000000)">
            <g id="utility-knife" sketch:type="MSLayerGroup" transform="translate(756.000000, 308.000000)">
                <path d="M11.205,17.236 L10.526,19.813 L11.563,19.813 L12.251,17.196 C12.3,17.014 12.241,16.82 12.1,16.693 L11.912,16.527 L12.022,16.116 L14.208,16.153 C14.418,16.161 14.64,16.005 14.7,15.783 C14.759,15.562 14.66,15.327 14.46,15.216 L12.604,14.186 L14.726,14.222 C14.951,14.181 15.158,14.072 15.218,13.852 C15.276,13.63 15.178,13.396 14.978,13.284 L13.121,12.254 L15.243,12.29 C15.446,12.276 15.676,12.142 15.735,11.92 C15.794,11.698 15.695,11.464 15.495,11.353 L13.639,10.322 L15.761,10.359 C15.98,10.372 16.193,10.21 16.253,9.988 C16.311,9.767 16.213,9.532 16.013,9.421 L14.155,8.391 L16.279,8.426 L16.287,8.426 C16.493,8.426 16.679,8.3 16.753,8.108 C16.829,7.912 16.776,7.691 16.619,7.552 L15.177,6.274 L15.356,5.607 C15.428,5.339 15.27,5.066 15.003,4.993 C14.734,4.928 14.462,5.081 14.39,5.347 L14.131,6.313 C14.082,6.496 14.141,6.691 14.282,6.817 L14.47,6.983 L14.359,7.394 L12.173,7.358 L12.165,7.358 C11.939,7.358 11.74,7.509 11.682,7.729 C11.623,7.949 11.722,8.184 11.922,8.295 L13.778,9.325 L11.656,9.289 C11.409,9.306 11.223,9.438 11.164,9.659 C11.105,9.881 11.204,10.115 11.404,10.227 L13.261,11.257 L11.139,11.221 C10.914,11.21 10.706,11.369 10.647,11.591 C10.588,11.813 10.686,12.047 10.887,12.158 L12.743,13.189 L10.621,13.152 C10.381,13.114 10.19,13.301 10.129,13.523 C10.07,13.744 10.169,13.979 10.369,14.09 L12.226,15.12 L10.104,15.084 C9.915,15.12 9.705,15.207 9.629,15.402 C9.553,15.598 9.606,15.819 9.763,15.958 L11.205,17.236" id="Fill-143" fill="#505050" sketch:type="MSShapeGroup"></path>
                <path d="M26,5 L26,6 C23.791,6 22,7.791 22,10 L26,10 L26,14 C26,14.553 25.553,15 25,15 C24.447,15 24,14.553 24,14 L24,12 L22,12 L22,20.438 L23.5,20.063 C25.359,20.063 27.004,22.083 28,23.5 L28,5 L26,5" id="Fill-144" fill="#A0A0A0" sketch:type="MSShapeGroup"></path>
                <path d="M5.953,0 L0.062,22.813 C1.049,21.879 3.039,20 4.5,20 L6.688,20.5 L8.902,12.178 C10.475,6.309 8.852,0.777 5.953,0" id="Fill-145" fill="#A0A0A0" sketch:type="MSShapeGroup"></path>
                <path d="M23.5,19 L10.963,19 L4.5,19 C2.015,19 0,21.015 0,23.5 C0,25.984 2.015,28 4.5,28 L23.5,28 C25.984,28 28,25.984 28,23.5 C28,21.015 25.984,19 23.5,19" id="Fill-146" fill="#C0392B" sketch:type="MSShapeGroup"></path>
                <path d="M4.5,25 C3.672,25 3,24.328 3,23.5 C3,22.672 3.672,22 4.5,22 C5.328,22 6,22.672 6,23.5 C6,24.328 5.328,25 4.5,25" id="Fill-147" fill="#921816" sketch:type="MSShapeGroup"></path>
                <path d="M23.5,25 C22.672,25 22,24.328 22,23.5 C22,22.672 22.672,22 23.5,22 C24.328,22 25,22.672 25,23.5 C25,24.328 24.328,25 23.5,25" id="Fill-148" fill="#921816" sketch:type="MSShapeGroup"></path>
            </g>
        </g>
    </g>
</svg>