<?xml version="1.0" encoding="UTF-8" standalone="no"?>
<svg width="28px" height="29px" viewBox="0 0 28 29" version="1.1" xmlns="http://www.w3.org/2000/svg" xmlns:xlink="http://www.w3.org/1999/xlink" xmlns:sketch="http://www.bohemiancoding.com/sketch/ns">
    <!-- Generator: Sketch 3.3 (11970) - http://www.bohemiancoding.com/sketch -->
    <title>volleyball</title>
    <desc>Created with Sketch.</desc>
    <defs></defs>
    <g id="Page-1" stroke="none" stroke-width="1" fill="none" fill-rule="evenodd" sketch:type="MSPage">
        <g id="Symbolicons-Color" sketch:type="MSArtboardGroup" transform="translate(-980.000000, -755.000000)">
            <g id="volleyball" sketch:type="MSLayerGroup" transform="translate(980.000000, 755.500000)">
                <path d="M28,14 C28,21.732 21.732,28 14,28 C6.268,28 0,21.732 0,14 C0,6.268 6.268,0 14,0 C21.732,0 28,6.268 28,14" id="Fill-14" fill="#ECECEC" sketch:type="MSShapeGroup"></path>
                <path d="M17.822,27.458 C14.56,27.249 11.652,25.573 9.598,23 L19.837,23 C20.862,23.716 22.021,24.224 23.266,24.476 C23.584,24.193 23.89,23.898 24.182,23.588 C22.823,23.44 21.56,22.951 20.463,22.194 C22.133,19.89 23.125,17.063 23.125,14 C23.125,10.687 21.948,7.667 20.021,5.273 C21.015,4.487 22.17,3.929 23.424,3.668 C23.122,3.393 22.81,3.131 22.485,2.883 C21.108,3.293 19.856,4.025 18.803,5 L9.595,5 C11.649,2.426 14.559,0.75 17.822,0.542 C16.921,0.286 15.985,0.121 15.02,0.052 C12.346,0.886 10.011,2.636 8.327,5 L3.283,5 C3.013,5.321 2.76,5.655 2.52,6 L19.342,6 C20.275,7.185 21.003,8.536 21.481,10 L0.587,10 C0.49,10.328 0.404,10.662 0.33,11 L21.758,11 C21.989,11.964 22.125,12.965 22.125,14 C22.125,15.034 21.99,16.035 21.759,17 L0.33,17 C0.404,17.338 0.49,17.672 0.587,18 L21.482,18 C21.005,19.463 20.28,20.814 19.348,22 L2.52,22 C2.76,22.345 3.013,22.679 3.283,23 L8.323,23 C10.008,25.365 12.344,27.114 15.019,27.948 C15.984,27.879 16.921,27.714 17.822,27.458" id="Fill-805" fill="#BEBEBE" sketch:type="MSShapeGroup"></path>
            </g>
        </g>
    </g>
</svg>