<?xml version="1.0" encoding="UTF-8" standalone="no"?>
<svg width="26px" height="26px" viewBox="0 0 26 26" version="1.1" xmlns="http://www.w3.org/2000/svg" xmlns:xlink="http://www.w3.org/1999/xlink" xmlns:sketch="http://www.bohemiancoding.com/sketch/ns">
    <!-- Generator: Sketch 3.3 (11970) - http://www.bohemiancoding.com/sketch -->
    <title>waffle</title>
    <desc>Created with Sketch.</desc>
    <defs></defs>
    <g id="Page-1" stroke="none" stroke-width="1" fill="none" fill-rule="evenodd" sketch:type="MSPage">
        <g id="Symbolicons-Color" sketch:type="MSArtboardGroup" transform="translate(-589.000000, -197.000000)">
            <g id="waffle" sketch:type="MSLayerGroup" transform="translate(589.000000, 197.000000)">
                <path d="M26,24 C26,25.1 25.1,26 24,26 L2,26 C0.9,26 0,25.1 0,24 L0,2 C0,0.9 0.9,0 2,0 L24,0 C25.1,0 26,0.9 26,2 L26,24" id="Fill-179" fill="#BE9664" sketch:type="MSShapeGroup"></path>
                <path d="M2,2 L6,2 L6,6 L2,6 L2,2 Z" id="Fill-180" fill="#A57D52" sketch:type="MSShapeGroup"></path>
                <path d="M8,2 L12,2 L12,6 L8,6 L8,2 Z" id="Fill-181" fill="#A57D52" sketch:type="MSShapeGroup"></path>
                <path d="M14,2 L18,2 L18,6 L14,6 L14,2 Z" id="Fill-182" fill="#A57D52" sketch:type="MSShapeGroup"></path>
                <path d="M2,8 L6,8 L6,12 L2,12 L2,8 Z" id="Fill-183" fill="#A57D52" sketch:type="MSShapeGroup"></path>
                <path d="M8,8 L12,8 L12,12 L8,12 L8,8 Z" id="Fill-184" fill="#A57D52" sketch:type="MSShapeGroup"></path>
                <path d="M14,8 L18,8 L18,12 L14,12 L14,8 Z" id="Fill-185" fill="#A57D52" sketch:type="MSShapeGroup"></path>
                <path d="M2,14 L6,14 L6,18 L2,18 L2,14 Z" id="Fill-186" fill="#A57D52" sketch:type="MSShapeGroup"></path>
                <path d="M8,14 L12,14 L12,18 L8,18 L8,14 Z" id="Fill-187" fill="#A57D52" sketch:type="MSShapeGroup"></path>
                <path d="M14,14 L18,14 L18,18 L14,18 L14,14 Z" id="Fill-188" fill="#A57D52" sketch:type="MSShapeGroup"></path>
                <path d="M20,2 L24,2 L24,6 L20,6 L20,2 Z" id="Fill-189" fill="#A57D52" sketch:type="MSShapeGroup"></path>
                <path d="M20,8 L24,8 L24,12 L20,12 L20,8 Z" id="Fill-190" fill="#A57D52" sketch:type="MSShapeGroup"></path>
                <path d="M20,14 L24,14 L24,18 L20,18 L20,14 Z" id="Fill-191" fill="#A57D52" sketch:type="MSShapeGroup"></path>
                <path d="M2,20 L6,20 L6,24 L2,24 L2,20 Z" id="Fill-192" fill="#A57D52" sketch:type="MSShapeGroup"></path>
                <path d="M8,20 L12,20 L12,24 L8,24 L8,20 Z" id="Fill-193" fill="#A57D52" sketch:type="MSShapeGroup"></path>
                <path d="M14,20 L18,20 L18,24 L14,24 L14,20 Z" id="Fill-194" fill="#A57D52" sketch:type="MSShapeGroup"></path>
                <path d="M20,20 L24,20 L24,24 L20,24 L20,20 Z" id="Fill-195" fill="#A57D52" sketch:type="MSShapeGroup"></path>
                <path d="M18.336,10.507 C19.113,11.285 19.113,12.558 18.336,13.336 L15.836,15.836 C15.058,16.613 13.785,16.613 13.007,15.836 L10.507,13.336 C9.73,12.558 9.73,11.285 10.507,10.507 L13.007,8.007 C13.785,7.23 15.058,7.23 15.836,8.007 L18.336,10.507" id="Fill-196" fill="#F1C40F" sketch:type="MSShapeGroup"></path>
            </g>
        </g>
    </g>
</svg>