<?xml version="1.0" encoding="UTF-8" standalone="no"?>
<svg width="32px" height="32px" viewBox="0 0 32 32" version="1.1" xmlns="http://www.w3.org/2000/svg" xmlns:xlink="http://www.w3.org/1999/xlink" xmlns:sketch="http://www.bohemiancoding.com/sketch/ns">
    <!-- Generator: Sketch 3.3 (11970) - http://www.bohemiancoding.com/sketch -->
    <title>watermelon-slice</title>
    <desc>Created with Sketch.</desc>
    <defs></defs>
    <g id="Page-1" stroke="none" stroke-width="1" fill="none" fill-rule="evenodd" sketch:type="MSPage">
        <g id="Symbolicons-Color" sketch:type="MSArtboardGroup" transform="translate(-418.000000, -864.000000)">
            <g id="watermelon-slice" sketch:type="MSLayerGroup" transform="translate(418.000000, 864.000000)">
                <path d="M0,26.315 C3.452,29.767 8.188,31.934 13.391,31.999 C23.797,32.128 32.128,23.797 31.998,13.391 C31.934,8.188 29.766,3.452 26.315,0 L0,26.315" id="Fill-1062" fill="#467846" sketch:type="MSShapeGroup"></path>
                <path d="M2.392,23.922 C5.216,26.747 9.092,28.52 13.349,28.573 C21.862,28.678 28.679,21.862 28.573,13.349 C28.52,9.092 26.747,5.217 23.922,2.392 L2.392,23.922" id="Fill-1063" fill="#E74C3C" sketch:type="MSShapeGroup"></path>
                <path d="M9.817,23.077 C9.391,23.502 8.677,23.48 8.223,23.025 C7.769,22.571 7.746,21.858 8.172,21.432 C8.598,21.006 10.69,20.558 10.69,20.558 C10.69,20.558 10.242,22.651 9.817,23.077" id="Fill-1064" fill="#323232" sketch:type="MSShapeGroup"></path>
                <path d="M16.291,23.592 C16.376,24.188 15.929,24.744 15.293,24.835 C14.658,24.925 14.073,24.515 13.989,23.919 C13.904,23.323 14.802,21.381 14.802,21.381 C14.802,21.381 16.206,22.996 16.291,23.592" id="Fill-1065" fill="#323232" sketch:type="MSShapeGroup"></path>
                <path d="M22.254,20.61 C22.68,21.036 22.657,21.749 22.203,22.203 C21.749,22.657 21.036,22.68 20.61,22.254 C20.184,21.829 19.736,19.736 19.736,19.736 C19.736,19.736 21.829,20.184 22.254,20.61" id="Fill-1066" fill="#323232" sketch:type="MSShapeGroup"></path>
                <path d="M23.077,9.817 C23.502,9.391 23.479,8.678 23.025,8.223 C22.571,7.769 21.858,7.746 21.432,8.172 C21.006,8.598 20.558,10.69 20.558,10.69 C20.558,10.69 22.651,10.242 23.077,9.817" id="Fill-1067" fill="#323232" sketch:type="MSShapeGroup"></path>
                <path d="M23.592,16.291 C24.188,16.376 24.744,15.929 24.835,15.293 C24.925,14.657 24.515,14.073 23.919,13.988 C23.323,13.904 21.381,14.802 21.381,14.802 C21.381,14.802 22.996,16.206 23.592,16.291" id="Fill-1068" fill="#323232" sketch:type="MSShapeGroup"></path>
            </g>
        </g>
    </g>
</svg>