<?xml version="1.0" encoding="UTF-8" standalone="no"?>
<svg width="28px" height="28px" viewBox="0 0 28 28" version="1.1" xmlns="http://www.w3.org/2000/svg" xmlns:xlink="http://www.w3.org/1999/xlink" xmlns:sketch="http://www.bohemiancoding.com/sketch/ns">
    <!-- Generator: Sketch 3.3 (11970) - http://www.bohemiancoding.com/sketch -->
    <title>wheel</title>
    <desc>Created with Sketch.</desc>
    <defs></defs>
    <g id="Page-1" stroke="none" stroke-width="1" fill="none" fill-rule="evenodd" sketch:type="MSPage">
        <g id="Symbolicons-Color" sketch:type="MSArtboardGroup" transform="translate(-812.000000, -980.000000)">
            <g id="wheel" sketch:type="MSLayerGroup" transform="translate(812.000000, 980.000000)">
                <path d="M28,14 C28,21.732 21.732,28 14,28 C6.268,28 0,21.732 0,14 C0,6.268 6.268,0 14,0 C21.732,0 28,6.268 28,14" id="Fill-891" fill="#505050" sketch:type="MSShapeGroup"></path>
                <path d="M23.8,14 C23.8,19.412 19.412,23.8 14,23.8 C8.588,23.8 4.2,19.412 4.2,14 C4.2,8.588 8.588,4.2 14,4.2 C19.412,4.2 23.8,8.588 23.8,14" id="Fill-892" fill="#A0A0A0" sketch:type="MSShapeGroup"></path>
                <path d="M14.7,12.029 C15.084,12.165 15.414,12.408 15.658,12.725 L20.401,11.184 C19.406,8.929 17.255,7.328 14.7,7.071 L14.7,12.029" id="Fill-893" fill="#BEBEBE" sketch:type="MSShapeGroup"></path>
                <path d="M12.342,12.725 C12.586,12.408 12.916,12.165 13.3,12.029 L13.3,7.071 C10.745,7.328 8.593,8.929 7.6,11.184 L12.342,12.725" id="Fill-894" fill="#BEBEBE" sketch:type="MSShapeGroup"></path>
                <path d="M16.095,14.056 C16.083,14.476 15.952,14.866 15.729,15.189 L18.644,19.202 C20.079,17.92 21,16.076 21,14 C21,13.49 20.938,12.995 20.835,12.515 L16.095,14.056" id="Fill-895" fill="#BEBEBE" sketch:type="MSShapeGroup"></path>
                <path d="M9.356,19.202 L12.271,15.189 C12.048,14.866 11.917,14.476 11.906,14.056 L7.165,12.515 C7.062,12.995 7,13.49 7,14 C7,16.076 7.921,17.92 9.356,19.202" id="Fill-896" fill="#BEBEBE" sketch:type="MSShapeGroup"></path>
                <path d="M14.592,16.005 C14.403,16.061 14.207,16.1 14,16.1 C13.793,16.1 13.597,16.061 13.408,16.005 L10.489,20.023 C11.525,20.628 12.714,21 14,21 C15.286,21 16.475,20.628 17.511,20.023 L14.592,16.005" id="Fill-897" fill="#BEBEBE" sketch:type="MSShapeGroup"></path>
                <path d="M17,14 C17,15.657 15.657,17 14,17 C12.343,17 11,15.657 11,14 C11,12.343 12.343,11 14,11 C15.657,11 17,12.343 17,14" id="Fill-898" fill="#505050" sketch:type="MSShapeGroup"></path>
            </g>
        </g>
    </g>
</svg>