<?xml version="1.0" encoding="UTF-8" standalone="no"?>
<svg width="18px" height="30px" viewBox="0 0 18 30" version="1.1" xmlns="http://www.w3.org/2000/svg" xmlns:xlink="http://www.w3.org/1999/xlink" xmlns:sketch="http://www.bohemiancoding.com/sketch/ns">
    <!-- Generator: Sketch 3.3 (11970) - http://www.bohemiancoding.com/sketch -->
    <title>wine</title>
    <desc>Created with Sketch.</desc>
    <defs></defs>
    <g id="Page-1" stroke="none" stroke-width="1" fill="none" fill-rule="evenodd" sketch:type="MSPage">
        <g id="Symbolicons-Color" sketch:type="MSArtboardGroup" transform="translate(-145.000000, -642.000000)">
            <g id="wine" sketch:type="MSLayerGroup" transform="translate(145.000000, 642.000000)">
                <path d="M13.515,28.879 L10,28 L10,17 L8,17 L8,28 L4.485,28.879 C4.218,28.945 4,29.225 4,29.5 C4,29.775 4.225,30 4.5,30 L13.5,30 C13.775,30 14,29.775 14,29.5 C14,29.225 13.782,28.945 13.515,28.879" id="Fill-1125" fill="#BEE6FA" sketch:type="MSShapeGroup"></path>
                <path d="M0.28,10 C0.099,11.196 0,12.232 0,13 C0,17.971 4.029,22 9,22 C13.971,22 18,17.971 18,13 C18,12.232 17.901,11.196 17.72,10 L0.28,10" id="Fill-1126" fill="#921816" sketch:type="MSShapeGroup"></path>
                <path d="M4.491,13.406 C4.491,12.662 4.587,11.659 4.763,10.5 L2.233,10.5 C2.082,11.493 2,12.354 2,12.991 C2,16.567 4.513,19.552 7.868,20.287 C5.816,18.691 4.491,16.206 4.491,13.406" id="Fill-1127" fill="#A23B39" sketch:type="MSShapeGroup"></path>
                <path d="M17.72,10 C17.288,7.147 16.375,3.365 15.133,0 L2.867,0 C1.625,3.365 0.712,7.147 0.28,10 L17.72,10" id="Fill-1128" fill="#BEE6FA" sketch:type="MSShapeGroup"></path>
            </g>
        </g>
    </g>
</svg>